<svg width="17" height="17" viewBox="0 0 17 17" fill="none" xmlns="http://www.w3.org/2000/svg">
<path d="M16.1603 9.177V7.62516C16.1603 4.33361 16.1603 2.68702 15.0242 1.66443C13.8881 0.641846 12.0594 0.641846 8.40108 0.641846C4.74362 0.641846 2.91408 0.641846 1.77796 1.66443C0.641846 2.68702 0.641846 4.33361 0.641846 7.62516V9.177C0.641846 12.4686 0.641846 14.1151 1.77796 15.1377C2.91408 16.1603 4.7428 16.1603 8.40108 16.1603C12.0585 16.1603 13.8881 16.1603 15.0242 15.1377C16.1603 14.1151 16.1603 12.4686 16.1603 9.177Z" stroke="#514D4D" stroke-width="1.28375"/>
<path d="M13.3011 5.13426H10.0341M11.6676 3.50073V6.76778M13.3011 12.8935H10.0341M13.3011 10.4432H10.0341M6.76705 12.8935L5.33771 11.4642M5.33771 11.4642L3.90838 10.0348M5.33771 11.4642L6.76705 10.0348M5.33771 11.4642L3.90838 12.8935M6.76705 5.13426H3.5" stroke="#514D4D" stroke-width="1.28375" stroke-linecap="round" stroke-linejoin="round"/>
</svg>
