<svg width="13" height="17" viewBox="0 0 13 17" fill="none" xmlns="http://www.w3.org/2000/svg">
<path d="M5.48142 16.0214V14.2752H1.26543C0.904696 14.2752 0.603739 14.1546 0.362557 13.9134C0.121374 13.6722 0.00052204 13.371 0 13.0098V3.01165C0 2.65092 0.120852 2.34996 0.362557 2.10878C0.604261 1.8676 0.905218 1.74675 1.26543 1.74622H5.48142V0H6.26448V16.0214H5.48142ZM1.26543 13.4921H5.48142V11.1429H2.74071V10.3599H5.48142V8.40223H2.74071V7.61917H5.48142V5.66152H2.74071V4.87846H5.48142V2.52928H1.26543C1.14483 2.52928 1.03416 2.5794 0.933408 2.67963C0.832654 2.77986 0.782538 2.89054 0.78306 3.01165V13.0105C0.78306 13.1306 0.833176 13.241 0.933408 13.3418C1.03364 13.4425 1.14405 13.4926 1.26464 13.4921M7.98095 2.52928V1.74622H11.4147C11.7749 1.74622 12.0758 1.86708 12.3175 2.10878C12.5592 2.35049 12.6798 2.65144 12.6793 3.01165V13.0105C12.6793 13.3708 12.5587 13.6717 12.3175 13.9134C12.0764 14.1551 11.7754 14.2757 11.4147 14.2752H7.98095V13.4921H11.4147C11.5347 13.4921 11.6451 13.442 11.7459 13.3418C11.8467 13.2415 11.8968 13.1309 11.8962 13.0098V3.01165C11.8962 2.89106 11.8461 2.78039 11.7459 2.67963C11.6457 2.57888 11.5353 2.52876 11.4147 2.52928H7.98095ZM7.98095 8.40223V7.61917H10.7217V8.40223H7.98095ZM7.98095 5.66152V4.87846H10.7217V5.66152H7.98095Z" fill="#474747"/>
</svg>
