<svg width="12" height="12" viewBox="0 0 12 12" fill="none" xmlns="http://www.w3.org/2000/svg">
<path d="M9.88534 3.07764H1.19385C1.04039 3.07764 0.893217 3.1386 0.784706 3.24711C0.676195 3.35562 0.615234 3.50279 0.615234 3.65625V9.27002C0.615234 9.42348 0.676195 9.57065 0.784706 9.67916C0.893217 9.78767 1.04039 9.84863 1.19385 9.84863H9.88534C10.0388 9.84863 10.186 9.78767 10.2945 9.67916C10.403 9.57065 10.464 9.42348 10.464 9.27002V3.65625C10.464 3.50279 10.403 3.35562 10.2945 3.24711C10.186 3.1386 10.0388 3.07764 9.88534 3.07764ZM9.84841 9.23309H1.23078V3.69318H9.84841V9.23309Z" fill="#4B4949"/>
<path d="M2.63328 5.98628C2.81589 5.98628 2.99441 5.93213 3.14625 5.83068C3.29809 5.72922 3.41643 5.58502 3.48631 5.41631C3.5562 5.24759 3.57448 5.06194 3.53886 4.88284C3.50323 4.70373 3.41529 4.53921 3.28616 4.41008C3.15703 4.28095 2.99252 4.19302 2.81341 4.15739C2.6343 4.12176 2.44865 4.14005 2.27994 4.20993C2.11123 4.27982 1.96702 4.39816 1.86557 4.55C1.76411 4.70184 1.70996 4.88035 1.70996 5.06297C1.70996 5.30785 1.80724 5.54269 1.98039 5.71585C2.15355 5.88901 2.3884 5.98628 2.63328 5.98628ZM2.63328 4.57053C2.73116 4.56808 2.82755 4.59487 2.91013 4.64747C2.99272 4.70007 3.05775 4.77609 3.09691 4.86583C3.13608 4.95557 3.1476 5.05495 3.13002 5.15127C3.11243 5.24759 3.06653 5.33648 2.99817 5.40658C2.92982 5.47669 2.84212 5.52483 2.74628 5.54485C2.65043 5.56487 2.5508 5.55586 2.4601 5.51898C2.3694 5.48209 2.29175 5.41901 2.23708 5.33779C2.1824 5.25656 2.15318 5.16088 2.15315 5.06297C2.15311 4.93447 2.2033 4.81105 2.29301 4.71904C2.38271 4.62704 2.50482 4.57374 2.63328 4.57053Z" fill="#4B4949"/>
<path d="M2.43068 8.618L4.27731 6.77136L5.25603 7.75008L4.38811 8.618H5.00366L7.29964 6.32201L9.23245 8.23944V7.62389L7.44737 5.84804C7.40644 5.80745 7.35113 5.78467 7.29349 5.78467C7.23584 5.78467 7.18053 5.80745 7.1396 5.84804L5.55149 7.43615L4.42197 6.3097C4.38104 6.26911 4.32573 6.24633 4.26808 6.24633C4.21043 6.24633 4.15512 6.26911 4.11419 6.3097L1.82129 8.618H2.43068Z" fill="#4B4949"/>
<path d="M9.27619 0.923495C9.27619 0.841869 9.24376 0.763586 9.18605 0.705867C9.12833 0.648149 9.05004 0.615723 8.96842 0.615723H2.19742C2.11579 0.615723 2.03751 0.648149 1.97979 0.705867C1.92207 0.763586 1.88965 0.841869 1.88965 0.923495V1.23127H9.27619V0.923495Z" fill="#4B4949"/>
<path d="M9.88521 2.15445C9.88521 2.07283 9.85278 1.99454 9.79507 1.93682C9.73735 1.87911 9.65906 1.84668 9.57744 1.84668H1.57535C1.49372 1.84668 1.41544 1.87911 1.35772 1.93682C1.3 1.99454 1.26758 2.07283 1.26758 2.15445V2.46222H9.88521V2.15445Z" fill="#4B4949"/>
</svg>
