<svg width="16" height="16" viewBox="0 0 16 16" fill="none" xmlns="http://www.w3.org/2000/svg">
<circle cx="7.75587" cy="7.75587" r="7.75587" fill="#E9E9E9"/>
<path fill-rule="evenodd" clip-rule="evenodd" d="M11.287 8.06884C11.6298 7.72069 11.8202 7.25065 11.8164 6.76212C11.8125 6.27359 11.6148 5.80658 11.2667 5.46384C11.0943 5.29413 10.8902 5.16003 10.6659 5.06921C10.4417 4.97838 10.2018 4.93261 9.95994 4.9345C9.47141 4.93832 9.0044 5.13605 8.66166 5.4842C8.56859 5.57727 8.45031 5.6915 8.30682 5.82691L7.90788 6.20258L7.50894 5.82691C7.36513 5.69118 7.24669 5.57694 7.15362 5.4842C6.80818 5.13875 6.33966 4.94468 5.85112 4.94468C5.36259 4.94468 4.89407 5.13875 4.54862 5.4842C3.83702 6.19628 3.82878 7.34754 4.52245 8.06302L7.90788 11.4485L11.287 8.06884ZM4.13708 5.07313C4.36215 4.848 4.62936 4.66942 4.92346 4.54758C5.21756 4.42573 5.53278 4.36302 5.85112 4.36302C6.16946 4.36302 6.48468 4.42573 6.77878 4.54758C7.07288 4.66942 7.3401 4.848 7.56517 5.07313C7.65339 5.16168 7.76763 5.27188 7.90788 5.40373C8.04749 5.27188 8.16173 5.16152 8.25059 5.07265C8.70165 4.61465 9.31618 4.35459 9.95898 4.34968C10.6018 4.34477 11.2202 4.59542 11.6782 5.04647C12.1362 5.49753 12.3963 6.11206 12.4012 6.75486C12.4061 7.39766 12.1554 8.01608 11.7044 8.47408L8.25059 11.9284C8.15969 12.0192 8.03642 12.0703 7.90788 12.0703C7.77935 12.0703 7.65607 12.0192 7.56517 11.9284L4.11041 8.4736C3.66738 8.01668 3.42184 7.40384 3.42683 6.76742C3.43182 6.131 3.68693 5.52208 4.13708 5.07216V5.07313Z" fill="#4B4949"/>
</svg>
