<svg width="40" height="40" viewBox="0 0 40 40" fill="none" xmlns="http://www.w3.org/2000/svg">
<circle cx="20" cy="20" r="20" fill="#53D2C8"/>
<path d="M16.0311 19.6693C15.1181 19.6693 14.3772 20.4102 14.3772 21.3231C14.3772 22.2361 15.1181 22.977 16.0311 22.977C16.944 22.977 17.6849 22.2361 17.6849 21.3231C17.6849 20.4102 16.944 19.6693 16.0311 19.6693ZM23.9695 19.6693C23.0566 19.6693 22.3157 20.4102 22.3157 21.3231C22.3157 22.2361 23.0566 22.977 23.9695 22.977C24.8825 22.977 25.6234 22.2361 25.6234 21.3231C25.6234 20.4102 24.8825 19.6693 23.9695 19.6693ZM20.0003 6.76929C12.6969 6.76929 6.76953 12.6967 6.76953 20.0001C6.76953 27.3034 12.6969 33.2308 20.0003 33.2308C27.3037 33.2308 33.2311 27.3034 33.2311 20.0001C33.2311 12.6967 27.3037 6.76929 20.0003 6.76929ZM20.0003 30.5847C14.1655 30.5847 9.41569 25.8348 9.41569 20.0001C9.41569 19.6164 9.44215 19.2327 9.48184 18.8622C12.6043 17.473 15.0785 14.9194 16.3751 11.7573C18.7698 15.1444 22.7126 17.3539 27.1714 17.3539C28.2034 17.3539 29.1957 17.2348 30.1483 17.0099C30.4261 17.9493 30.5849 18.9548 30.5849 20.0001C30.5849 25.8348 25.8351 30.5847 20.0003 30.5847Z" fill="#F3F3F3"/>
</svg>
