<svg width="20" height="20" viewBox="0 0 20 20" fill="none" xmlns="http://www.w3.org/2000/svg">
<circle cx="10" cy="10" r="10" fill="#E9E9E9"/>
<path fill-rule="evenodd" clip-rule="evenodd" d="M14.5526 10.4033C14.9945 9.95441 15.24 9.34836 15.2351 8.71847C15.2301 8.08858 14.9752 7.48645 14.5263 7.04453C14.3041 6.82572 14.0409 6.65282 13.7518 6.53572C13.4627 6.41862 13.1534 6.3596 12.8415 6.36204C12.2116 6.36696 11.6095 6.62191 11.1676 7.07078C11.0476 7.19078 10.8951 7.33808 10.7101 7.51266L10.1957 7.99703L9.68131 7.51266C9.4959 7.33766 9.34319 7.19037 9.22319 7.07078C8.77779 6.62539 8.1737 6.37517 7.54381 6.37517C6.91393 6.37517 6.30984 6.62539 5.86444 7.07078C4.94694 7.98891 4.93631 9.47328 5.83069 10.3958L10.1957 14.7608L14.5526 10.4033ZM5.33381 6.54078C5.62401 6.25051 5.96854 6.02025 6.34774 5.86316C6.72693 5.70606 7.13336 5.6252 7.54381 5.6252C7.95426 5.6252 8.36069 5.70606 8.73989 5.86316C9.11909 6.02025 9.46362 6.25051 9.75381 6.54078C9.86756 6.65495 10.0149 6.79703 10.1957 6.96703C10.3757 6.79703 10.523 6.65474 10.6376 6.54016C11.2191 5.94964 12.0115 5.61433 12.8403 5.608C13.6691 5.60167 14.4664 5.92484 15.0569 6.50641C15.6475 7.08798 15.9828 7.88031 15.9891 8.70911C15.9954 9.5379 15.6723 10.3353 15.0907 10.9258L10.6376 15.3795C10.5204 15.4967 10.3614 15.5625 10.1957 15.5625C10.03 15.5625 9.87102 15.4967 9.75381 15.3795L5.29944 10.9252C4.72821 10.336 4.41163 9.54587 4.41806 8.7253C4.4245 7.90474 4.75343 7.11963 5.33381 6.53953V6.54078Z" fill="#4B4949"/>
</svg>
