<svg width="17" height="17" viewBox="0 0 17 17" fill="none" xmlns="http://www.w3.org/2000/svg">
<path d="M16.0806 6.33835L10.6321 0.817602C9.41587 -0.274648 7.58413 -0.275356 6.35233 0.832477L0.918708 6.33835C0.326542 6.93973 0 7.73448 0 8.57739V14.521C0 15.8881 1.11208 17.0002 2.47917 17.0002H14.5208C15.8879 17.0002 17 15.8881 17 14.521V8.57739C17 7.73448 16.6735 6.93902 16.0806 6.33835ZM11.3333 16.2919H5.66667V12.0419C5.66667 10.4793 6.93742 9.20852 8.5 9.20852C10.0626 9.20852 11.3333 10.4793 11.3333 12.0419V16.2919ZM16.2917 14.521C16.2917 15.4978 15.4976 16.2919 14.5208 16.2919H12.0417V12.0419C12.0417 10.089 10.4529 8.50019 8.5 8.50019C6.54712 8.50019 4.95833 10.089 4.95833 12.0419V16.2919H2.47917C1.50308 16.2919 0.708333 15.4978 0.708333 14.521V8.57739C0.708333 7.92148 0.961917 7.3031 1.42304 6.83631L6.84179 1.3446C7.31638 0.916769 7.91208 0.704977 8.50567 0.704977C9.09429 0.704977 9.68008 0.913936 10.1433 1.33044L15.577 6.83631C16.0374 7.3031 16.2917 7.92148 16.2917 8.57739V14.521Z" fill="white"/>
</svg>
