<svg width="19" height="17" viewBox="0 0 19 17" fill="none" xmlns="http://www.w3.org/2000/svg">
<path d="M2.20667 8.12727C1.81716 7.74034 1.50856 7.27977 1.29883 6.77237C1.08911 6.26498 0.98247 5.72092 0.985121 5.17191C0.985121 4.06151 1.42623 2.99659 2.2114 2.21141C2.99657 1.42624 4.06149 0.985139 5.17189 0.985139C6.72838 0.985139 8.08785 1.83234 8.80699 3.0933H9.91032C10.2759 2.45204 10.8049 1.91912 11.4435 1.5488C12.082 1.17848 12.8073 0.983995 13.5454 0.985139C14.6558 0.985139 15.7207 1.42624 16.5059 2.21141C17.2911 2.99659 17.7322 4.06151 17.7322 5.17191C17.7322 6.3245 17.2396 7.38843 16.5106 8.12727L9.35865 15.2694L2.20667 8.12727ZM17.2002 8.82671C18.1361 7.88099 18.7173 6.60033 18.7173 5.17191C18.7173 3.80024 18.1724 2.48475 17.2025 1.51483C16.2326 0.544911 14.9171 1.77834e-05 13.5454 1.77834e-05C11.8215 1.77834e-05 10.2945 0.837371 9.35865 2.13773C8.88097 1.47425 8.25197 0.934226 7.52384 0.562451C6.79571 0.190677 5.98944 -0.0021321 5.17189 1.77834e-05C3.80022 1.77834e-05 2.48473 0.544911 1.51481 1.51483C0.544894 2.48475 0 3.80024 0 5.17191C0 6.60033 0.581222 7.88099 1.51709 8.82671L9.35865 16.6683L17.2002 8.82671Z" fill="white"/>
</svg>
