<svg width="17" height="17" viewBox="0 0 17 17" fill="none" xmlns="http://www.w3.org/2000/svg">
<path d="M16.8966 16.3951L12.3285 11.827C13.4668 10.5698 14.1674 8.90871 14.1674 7.08333C14.1667 3.17758 10.9891 0 7.08333 0C3.17758 0 0 3.17758 0 7.08333C0 10.9891 3.17758 14.1667 7.08333 14.1667C8.90871 14.1667 10.5698 13.4668 11.827 12.3278L16.3951 16.8959C16.4645 16.9653 16.5552 16.9993 16.6458 16.9993C16.7365 16.9993 16.8272 16.9646 16.8966 16.8959C17.0347 16.7578 17.0347 16.5332 16.8966 16.3951ZM0.708333 7.08333C0.708333 3.56858 3.56858 0.708333 7.08333 0.708333C10.5981 0.708333 13.4583 3.56858 13.4583 7.08333C13.4583 10.5981 10.5988 13.4583 7.08333 13.4583C3.56788 13.4583 0.708333 10.5981 0.708333 7.08333Z" fill="white"/>
</svg>
