<svg width="13" height="12" viewBox="0 0 13 12" fill="none" xmlns="http://www.w3.org/2000/svg">
<path d="M4.25098 7.4375C4.72218 7.43738 5.18005 7.59387 5.5526 7.88238C5.92515 8.17088 6.19124 8.57502 6.30904 9.03125H12.2197C12.3525 9.03101 12.4805 9.08047 12.5786 9.16992C12.6767 9.25936 12.7378 9.38229 12.7498 9.5145C12.7618 9.64671 12.7238 9.77862 12.6434 9.88426C12.563 9.98989 12.446 10.0616 12.3154 10.0852L12.2197 10.0938L6.30904 10.0948C6.19164 10.5514 5.92571 10.956 5.55313 11.245C5.18054 11.5339 4.72245 11.6907 4.25098 11.6907C3.77951 11.6907 3.32142 11.5339 2.94883 11.245C2.57625 10.956 2.31032 10.5514 2.19292 10.0948L0.532229 10.0938C0.399474 10.094 0.271438 10.0445 0.173335 9.95508C0.075231 9.86564 0.0141692 9.74271 0.00217412 9.6105C-0.00982095 9.47829 0.0281199 9.34638 0.108525 9.24074C0.18893 9.13511 0.305973 9.0634 0.436604 9.03975L0.532229 9.03125H2.19292C2.31072 8.57502 2.57681 8.17088 2.94936 7.88238C3.32191 7.59387 3.77978 7.43738 4.25098 7.4375ZM4.25098 8.5C3.96919 8.5 3.69894 8.61194 3.49968 8.8112C3.30042 9.01046 3.18848 9.28071 3.18848 9.5625C3.18848 9.84429 3.30042 10.1145 3.49968 10.3138C3.69894 10.5131 3.96919 10.625 4.25098 10.625C4.53277 10.625 4.80302 10.5131 5.00228 10.3138C5.20154 10.1145 5.31348 9.84429 5.31348 9.5625C5.31348 9.28071 5.20154 9.01046 5.00228 8.8112C4.80302 8.61194 4.53277 8.5 4.25098 8.5ZM8.50098 6.86816e-08C8.97217 -0.000119688 9.43005 0.156374 9.8026 0.444875C10.1751 0.733375 10.4412 1.13752 10.559 1.59375H12.2197C12.3525 1.59351 12.4805 1.64297 12.5786 1.73242C12.6767 1.82186 12.7378 1.94479 12.7498 2.077C12.7618 2.20921 12.7238 2.34112 12.6434 2.44676C12.563 2.55239 12.446 2.6241 12.3154 2.64775L12.2197 2.65625L10.559 2.65731C10.4416 3.11394 10.1757 3.51855 9.80313 3.80746C9.43054 4.09636 8.97245 4.25316 8.50098 4.25316C8.0295 4.25316 7.57142 4.09636 7.19883 3.80746C6.82625 3.51855 6.56032 3.11394 6.44292 2.65731L0.532229 2.65625C0.399474 2.65649 0.271438 2.60703 0.173335 2.51758C0.075231 2.42814 0.0141692 2.30521 0.00217412 2.173C-0.00982095 2.04079 0.0281199 1.90888 0.108525 1.80324C0.18893 1.69761 0.305973 1.6259 0.436604 1.60225L0.532229 1.59375H6.44292C6.56072 1.13752 6.82681 0.733375 7.19936 0.444875C7.57191 0.156374 8.02978 -0.000119688 8.50098 6.86816e-08ZM8.50098 1.0625C8.21919 1.0625 7.94894 1.17444 7.74968 1.3737C7.55042 1.57296 7.43848 1.84321 7.43848 2.125C7.43848 2.40679 7.55042 2.67704 7.74968 2.8763C7.94894 3.07556 8.21919 3.1875 8.50098 3.1875C8.78277 3.1875 9.05302 3.07556 9.25228 2.8763C9.45154 2.67704 9.56348 2.40679 9.56348 2.125C9.56348 1.84321 9.45154 1.57296 9.25228 1.3737C9.05302 1.17444 8.78277 1.0625 8.50098 1.0625Z" fill="#121212"/>
</svg>
