<svg width="10" height="12" viewBox="0 0 10 12" fill="none" xmlns="http://www.w3.org/2000/svg">
<path d="M4.32312 12V10.6921H0.998024C0.713521 10.6921 0.476161 10.6018 0.285944 10.4211C0.0957262 10.2405 0.000411726 10.0149 0 9.74428V2.25572C0 1.98553 0.0953144 1.76012 0.285944 1.57947C0.476573 1.39883 0.713933 1.30831 0.998024 1.30792H4.32312V0H4.94071V12H4.32312ZM0.998024 10.1056H4.32312V8.34604H2.16156V7.75953H4.32312V6.29326H2.16156V5.70675H4.32312V4.24047H2.16156V3.65396H4.32312V1.89443H0.998024C0.902915 1.89443 0.815629 1.93196 0.736166 2.00704C0.656703 2.08211 0.617177 2.16501 0.617589 2.25572V9.74487C0.617589 9.8348 0.657115 9.9175 0.736166 9.99296C0.815217 10.0684 0.902297 10.106 0.997406 10.1056M6.29447 1.89443V1.30792H9.00259C9.28668 1.30792 9.52404 1.39844 9.71467 1.57947C9.9053 1.76051 10.0004 1.98592 10 2.25572V9.74487C10 10.0147 9.90489 10.2401 9.71467 10.4211C9.52446 10.6022 9.2871 10.6925 9.00259 10.6921H6.29447V10.1056H9.00259C9.09729 10.1056 9.18437 10.068 9.26383 9.99296C9.3433 9.91789 9.38282 9.835 9.38241 9.74428V2.25572C9.38241 2.1654 9.34289 2.0825 9.26383 2.00704C9.18478 1.93157 9.0977 1.89404 9.00259 1.89443H6.29447ZM6.29447 6.29326V5.70675H8.45603V6.29326H6.29447ZM6.29447 4.24047V3.65396H8.45603V4.24047H6.29447Z" fill="white"/>
</svg>
