<svg width="14" height="14" viewBox="0 0 14 14" fill="none" xmlns="http://www.w3.org/2000/svg">
<path d="M10.4997 11.0833C10.4997 11.5475 10.3153 11.9926 9.98711 12.3208C9.65892 12.649 9.2138 12.8333 8.74967 12.8333H4.66634C4.20221 12.8333 3.75709 12.649 3.4289 12.3208C3.10072 11.9926 2.91634 11.5475 2.91634 11.0833V4.08333H2.33301V2.33333H4.95801L5.54134 1.75H7.87467L8.45801 2.33333H11.083V4.08333H10.4997V11.0833ZM3.49967 4.08333V11.0833C3.49967 11.3928 3.62259 11.6895 3.84138 11.9083C4.06018 12.1271 4.35692 12.25 4.66634 12.25H8.74967C9.05909 12.25 9.35584 12.1271 9.57463 11.9083C9.79342 11.6895 9.91634 11.3928 9.91634 11.0833V4.08333H3.49967ZM10.4997 3.5V2.91667H8.16634L7.58301 2.33333H5.83301L5.24967 2.91667H2.91634V3.5H10.4997ZM4.66634 5.25H5.24967V11.0833H4.66634V5.25ZM8.16634 5.25H8.74967V11.0833H8.16634V5.25Z" fill="black"/>
</svg>
