<svg width="18" height="15" viewBox="0 0 18 15" fill="none" xmlns="http://www.w3.org/2000/svg">
<path fill-rule="evenodd" clip-rule="evenodd" d="M15.7652 7.04962C16.4527 6.38972 16.8345 5.49879 16.8269 4.5728C16.8192 3.64681 16.4226 2.76162 15.7244 2.11196C15.3786 1.79028 14.9692 1.53611 14.5195 1.36396C14.0698 1.19181 13.5887 1.10505 13.1035 1.10863C12.1237 1.11587 11.187 1.49066 10.4996 2.15055C10.3129 2.32696 10.0757 2.54349 9.78788 2.80015L8.98773 3.51222L8.18757 2.80015C7.89914 2.54288 7.66159 2.32635 7.47492 2.15055C6.78207 1.49578 5.84236 1.12793 4.86251 1.12793C3.88267 1.12793 2.94296 1.49578 2.25011 2.15055C0.822858 3.50027 0.80633 5.68243 2.19761 7.03859L8.98773 13.4555L15.7652 7.04962ZM1.42467 1.37141C1.8761 0.944683 2.41205 0.606181 3.00192 0.375235C3.59179 0.144288 4.22402 0.0254194 4.86251 0.0254194C5.501 0.0254194 6.13324 0.144288 6.72311 0.375235C7.31298 0.606181 7.84893 0.944683 8.30035 1.37141C8.4773 1.53924 8.70643 1.74811 8.98773 1.99803C9.26773 1.74811 9.49686 1.53893 9.6751 1.37049C10.5798 0.50237 11.8123 0.00943883 13.1016 0.000134144C14.3908 -0.00917054 15.6312 0.465913 16.5498 1.32087C17.4684 2.17583 17.99 3.34063 17.9999 4.55903C18.0097 5.77743 17.507 6.94962 16.6023 7.81774L9.6751 14.3651C9.49278 14.5374 9.24553 14.6341 8.98773 14.6341C8.72992 14.6341 8.48268 14.5374 8.30035 14.3651L1.3712 7.81682C0.482613 6.95075 -0.00985548 5.78914 0.000149516 4.58284C0.0101545 3.37654 0.52183 2.22236 1.42467 1.36957V1.37141Z" fill="#828282"/>
</svg>
