<svg width="88" height="88" viewBox="0 0 88 88" fill="none" xmlns="http://www.w3.org/2000/svg" aria-hidden="true">
  <path d="M44 18C31.85 18 22 27.85 22 40" stroke="white" stroke-width="2.5" stroke-linecap="round"/>
  <path d="M18 40H22" stroke="white" stroke-width="2.5" stroke-linecap="round"/>
  <path d="M66 40C66 27.85 56.15 18 44 18" stroke="white" stroke-width="2.5" stroke-linecap="round"/>
  <path d="M66 40H62" stroke="white" stroke-width="2.5" stroke-linecap="round"/>
  <path d="M40 58C40 54.13 43.13 51 47 51H49C52.87 51 56 54.13 56 58V62C56 65.87 52.87 69 49 69H47C43.13 69 40 65.87 40 62V58Z" fill="white"/>
  <path d="M47 51V45C47 41.13 50.13 38 54 38" stroke="white" stroke-width="2.5" stroke-linecap="round"/>
</svg>
