<svg width="7" height="9" viewBox="0 0 7 9" fill="none" xmlns="http://www.w3.org/2000/svg">
<path fill-rule="evenodd" clip-rule="evenodd" d="M0.137 2.588C8.9407e-08 2.8865 0 3.226 0 3.905V6.025C0 6.9685 -2.98023e-08 7.44 0.293 7.7325C0.5585 7.9985 0.9715 8.0225 1.75 8.025V5.525C1.75 5.25978 1.85536 5.00543 2.04289 4.81789C2.23043 4.63036 2.48478 4.525 2.75 4.525H4.25C4.51522 4.525 4.76957 4.63036 4.95711 4.81789C5.14464 5.00543 5.25 5.25978 5.25 5.525V8.025C6.0285 8.0225 6.4415 7.998 6.707 7.732C7 7.439 7 6.968 7 6.025V3.905C7 3.226 7 2.8865 6.863 2.588C6.7255 2.2895 6.468 2.069 5.9525 1.627L5.4525 1.1985C4.52 0.4 4.055 0 3.5 0C2.945 0 2.4795 0.3995 1.5475 1.198L1.0475 1.6265C0.5325 2.0685 0.2745 2.289 0.1375 2.5875M4.25 8.025V5.525H2.75V8.025H4.25Z" fill="black"/>
</svg>
