<svg width="13" height="12" viewBox="0 0 13 12" fill="none" xmlns="http://www.w3.org/2000/svg">
<path fill-rule="evenodd" clip-rule="evenodd" d="M1.31623 0.942766L1.45998 1.23152L0.116231 3.11277C0.0303255 3.23316 -0.0100983 3.38013 0.0021465 3.52752C0.0143913 3.67492 0.0785112 3.81319 0.183106 3.91777L1.12061 4.85527C1.21337 4.94795 1.33293 5.0091 1.46237 5.03008C1.59181 5.05105 1.72457 5.03078 1.84186 4.97214L2.62561 4.58089L3.05811 5.15714L1.76436 9.29839C1.63185 9.20221 1.50652 9.09651 1.38936 8.98214C1.27441 8.86551 1.11828 8.79864 0.954548 8.79593C0.790814 8.79322 0.632556 8.85488 0.513812 8.96764C0.395069 9.08041 0.325325 9.23527 0.319583 9.39893C0.31384 9.56258 0.372558 9.72196 0.483106 9.84277L0.880606 10.1959C1.12873 10.3928 1.49311 10.649 1.97311 10.9034C2.93748 11.4134 4.36436 11.9134 6.24998 11.9134C8.1356 11.9134 9.56311 11.4134 10.5269 10.9034C10.9118 10.7014 11.2775 10.4646 11.6194 10.1959C11.7156 10.119 12.0287 9.83214 12.0169 9.84277C12.1226 9.73155 12.1837 9.58533 12.1886 9.43197C12.1934 9.2786 12.1417 9.1288 12.0432 9.01111C11.9448 8.89342 11.8065 8.81607 11.6546 8.79378C11.5028 8.7715 11.3481 8.80584 11.22 8.89027L10.5762 5.67089C10.9031 5.97652 11.2562 6.44902 11.6287 7.19277C11.6638 7.26875 11.7138 7.33691 11.7758 7.39321C11.8377 7.4495 11.9103 7.49278 11.9893 7.52047C12.0683 7.54816 12.1521 7.55971 12.2356 7.55442C12.3191 7.54913 12.4008 7.52712 12.4756 7.48968C12.5505 7.45225 12.6171 7.40016 12.6714 7.33651C12.7258 7.27285 12.7668 7.19893 12.792 7.11912C12.8173 7.03932 12.8262 6.95525 12.8184 6.87192C12.8105 6.78859 12.786 6.70769 12.7462 6.63402C12.0862 5.31339 11.38 4.56089 10.5919 4.16714C9.99186 3.86714 9.32561 3.78839 8.66248 3.78839H6.41123C6.34874 3.59916 6.27805 3.41273 6.19936 3.22964C5.94373 2.63339 5.51373 1.85589 4.81686 1.15902C4.09248 0.434641 3.34623 0.144641 2.75873 0.0465164C2.42561 -0.00848365 2.05561 -0.0259837 1.72311 0.0571413C1.63239 0.0799154 1.54794 0.12276 1.47598 0.182517C1.40403 0.242274 1.3464 0.317419 1.30735 0.402412C1.26831 0.487405 1.24883 0.580078 1.25037 0.673598C1.25191 0.767119 1.27441 0.859102 1.31623 0.942766ZM10.1087 9.70714L9.27561 5.54089C9.19186 5.12339 8.79311 5.04089 8.42686 5.03839H5.93748C5.63561 5.03839 5.38623 4.82089 5.32311 4.53027C5.25545 4.25362 5.16429 3.98326 5.05061 3.72214C4.83748 3.22464 4.48623 2.59589 3.93311 2.04277C3.52498 1.63464 3.13061 1.43589 2.81061 1.33964C2.80142 1.45223 2.7619 1.56022 2.69623 1.65214L1.44123 3.40839L1.68561 3.65277L2.53311 3.22964C2.66398 3.16419 2.81366 3.14673 2.95608 3.18031C3.0985 3.21389 3.22463 3.29637 3.31248 3.41339L4.24998 4.66339C4.30933 4.74263 4.349 4.83484 4.36574 4.93242C4.38247 5.03 4.37579 5.13015 4.34623 5.22464L2.86873 9.95277C3.15061 10.084 3.47311 10.2115 3.83623 10.3209L4.72748 7.94402C4.77213 7.82491 4.85206 7.72226 4.95659 7.64978C5.06112 7.5773 5.18528 7.53844 5.31248 7.53839H7.81248C7.93968 7.53844 8.06384 7.5773 8.16837 7.64978C8.2729 7.72226 8.35283 7.82491 8.39748 7.94402L9.21748 10.1296C9.56123 9.99527 9.85873 9.84902 10.1087 9.70714ZM8.0156 10.4859L7.37936 8.78839H5.74561L5.07123 10.5865C5.46197 10.6387 5.85578 10.6643 6.24998 10.6634C6.90561 10.6634 7.49373 10.5946 8.0156 10.4859Z" fill="black"/>
</svg>
