<svg width="10" height="10" viewBox="0 0 10 10" fill="none" xmlns="http://www.w3.org/2000/svg">
<path d="M6.625 0.375H3.375C1.71815 0.375 0.375 1.71815 0.375 3.375V6.625C0.375 8.28185 1.71815 9.625 3.375 9.625H6.625C8.28185 9.625 9.625 8.28185 9.625 6.625V3.375C9.625 1.71815 8.28185 0.375 6.625 0.375Z" stroke="#CFCFCF" stroke-width="0.75"/>
<path d="M7.3814 4.471V5.529C7.3814 5.59929 7.35348 5.66669 7.30378 5.71639C7.25408 5.76608 7.18668 5.794 7.1164 5.794H5.7939V7.1165C5.7939 7.18679 5.76598 7.25419 5.71628 7.30389C5.66658 7.35358 5.59918 7.3815 5.5289 7.3815H4.4709C4.40061 7.3815 4.33321 7.35358 4.28351 7.30389C4.23382 7.25419 4.2059 7.18679 4.2059 7.1165V5.794H2.8839C2.81361 5.794 2.74621 5.76608 2.69651 5.71639C2.64682 5.66669 2.6189 5.59929 2.6189 5.529V4.471C2.6189 4.40072 2.64682 4.33332 2.69651 4.28362C2.74621 4.23392 2.81361 4.206 2.8839 4.206H4.2064V2.884C4.2064 2.81372 4.23432 2.74632 4.28401 2.69662C4.33371 2.64692 4.40111 2.619 4.4714 2.619H5.5294C5.59968 2.619 5.66708 2.64692 5.71678 2.69662C5.76648 2.74632 5.7944 2.81372 5.7944 2.884V4.2065H7.1169C7.1517 4.2065 7.18616 4.21336 7.21831 4.22668C7.25046 4.23999 7.27967 4.25951 7.30428 4.28412C7.32889 4.30873 7.34841 4.33794 7.36172 4.37009C7.37504 4.40224 7.3819 4.4367 7.3819 4.4715" stroke="#CFCFCF" stroke-width="0.75" stroke-linecap="round" stroke-linejoin="round"/>
</svg>
