<svg width="12" height="10" viewBox="0 0 12 10" fill="none" xmlns="http://www.w3.org/2000/svg">
<path d="M2.15313 7.85418C1.97257 7.75487 1.83264 7.6218 1.73333 7.45497C1.63403 7.28813 1.58438 7.10072 1.58438 6.89272V4.29272L0.284375 3.57501C0.185069 3.52084 0.112847 3.45313 0.0677083 3.37188C0.0225694 3.29063 0 3.20036 0 3.10105C0 3.00174 0.0225694 2.91147 0.0677083 2.83022C0.112847 2.74897 0.185069 2.68126 0.284375 2.62709L4.86146 0.135425C4.94271 0.0902862 5.02631 0.0563417 5.11225 0.0335917C5.19819 0.0108417 5.28613 -0.000352648 5.37604 8.46362e-06C5.46596 0.000369575 5.55407 0.0117446 5.64038 0.0341334C5.72668 0.0565223 5.8101 0.0902862 5.89062 0.135425L11.05 2.95209C11.1403 2.99723 11.2103 3.06277 11.2602 3.14872C11.31 3.23466 11.3347 3.32711 11.3344 3.42605V6.89272C11.3344 7.04619 11.2824 7.17492 11.1784 7.27892C11.0744 7.38293 10.9458 7.43474 10.7927 7.43438C10.6396 7.43402 10.511 7.38202 10.407 7.27838C10.303 7.17474 10.251 7.04619 10.251 6.89272V3.69688L9.16771 4.29272V6.89272C9.16771 7.10036 9.11806 7.28777 9.01875 7.45497C8.91945 7.62216 8.77951 7.75523 8.59896 7.85418L5.89062 9.31668C5.80938 9.36181 5.72596 9.39576 5.64038 9.41851C5.55479 9.44126 5.46668 9.45245 5.37604 9.45209C5.2854 9.45173 5.19729 9.44054 5.11171 9.41851C5.02613 9.39648 4.94271 9.36254 4.86146 9.31668L2.15313 7.85418ZM5.37604 5.10522L9.08646 3.10105L5.37604 1.09688L1.66563 3.10105L5.37604 5.10522ZM5.37604 8.36876L8.08438 6.90626V4.86147L5.90417 6.06668C5.82292 6.11181 5.73715 6.14576 5.64688 6.16851C5.5566 6.19126 5.46632 6.20245 5.37604 6.20209C5.28576 6.20173 5.19549 6.19054 5.10521 6.16851C5.01493 6.14648 4.92917 6.11254 4.84792 6.06668L2.66771 4.86147V6.90626L5.37604 8.36876Z" fill="black"/>
</svg>
