<svg width="11" height="9" viewBox="0 0 11 9" fill="none" xmlns="http://www.w3.org/2000/svg">
<path d="M1.9875 7.25001C1.82083 7.15834 1.69167 7.03551 1.6 6.88151C1.50833 6.72751 1.4625 6.55451 1.4625 6.36251V3.96251L0.2625 3.30001C0.170833 3.25001 0.104167 3.18751 0.0625 3.11251C0.0208333 3.03751 0 2.95417 0 2.86251C0 2.77084 0.0208333 2.68751 0.0625 2.61251C0.104167 2.53751 0.170833 2.47501 0.2625 2.42501L4.4875 0.125008C4.5625 0.0833411 4.63967 0.0520077 4.719 0.0310077C4.79833 0.0100077 4.8795 -0.000325521 4.9625 7.81257e-06C5.0455 0.000341146 5.12683 0.0108411 5.2065 0.0315078C5.28617 0.0521745 5.36317 0.0833411 5.4375 0.125008L10.2 2.72501C10.2833 2.76667 10.348 2.82717 10.394 2.90651C10.44 2.98584 10.4628 3.07117 10.4625 3.16251V6.36251C10.4625 6.50417 10.4145 6.62301 10.3185 6.71901C10.2225 6.81501 10.1038 6.86284 9.9625 6.86251C9.82117 6.86217 9.7025 6.81417 9.6065 6.71851C9.5105 6.62284 9.4625 6.50417 9.4625 6.36251V3.41251L8.4625 3.96251V6.36251C8.4625 6.55417 8.41667 6.72717 8.325 6.88151C8.23333 7.03584 8.10417 7.15867 7.9375 7.25001L5.4375 8.60001C5.3625 8.64167 5.2855 8.67301 5.2065 8.69401C5.1275 8.71501 5.04617 8.72534 4.9625 8.72501C4.87883 8.72467 4.7975 8.71434 4.7185 8.69401C4.6395 8.67367 4.5625 8.64234 4.4875 8.60001L1.9875 7.25001ZM4.9625 4.71251L8.3875 2.86251L4.9625 1.01251L1.5375 2.86251L4.9625 4.71251ZM4.9625 7.72501L7.4625 6.37501V4.48751L5.45 5.60001C5.375 5.64167 5.29583 5.67301 5.2125 5.69401C5.12917 5.71501 5.04583 5.72534 4.9625 5.72501C4.87917 5.72467 4.79583 5.71434 4.7125 5.69401C4.62917 5.67367 4.55 5.64234 4.475 5.60001L2.4625 4.48751V6.37501L4.9625 7.72501Z" fill="#CFCFCF"/>
</svg>
