<svg width="10" height="7" viewBox="0 0 10 7" fill="none" xmlns="http://www.w3.org/2000/svg">
<path d="M5 5.80367L0.639015 0.145331C0.603871 0.0987453 0.562147 0.0619154 0.516258 0.0369725C0.470368 0.0120295 0.421224 -0.000531513 0.371671 1.74086e-05C0.322117 0.00056633 0.273136 0.0142139 0.227564 0.04017C0.181992 0.0661261 0.140732 0.103875 0.106173 0.151233C0.0716146 0.198592 0.0444425 0.254618 0.0262297 0.316071C0.00801677 0.377524 -0.000875322 0.443184 6.79889e-05 0.509249C0.0010113 0.575315 0.0117713 0.640475 0.0317252 0.700959C0.0516792 0.761443 0.0804309 0.816049 0.116317 0.861619L4.73865 6.85845C4.80862 6.94922 4.90238 7 5 7C5.09762 7 5.19138 6.94922 5.26135 6.85845L9.88368 0.861619C9.91957 0.816049 9.94832 0.761443 9.96828 0.700959C9.98823 0.640475 9.99899 0.575315 9.99993 0.509249C10.0009 0.443184 9.99198 0.377524 9.97377 0.316071C9.95556 0.254618 9.92839 0.198592 9.89383 0.151234C9.85927 0.103875 9.81801 0.0661262 9.77244 0.0401701C9.72686 0.0142141 9.67788 0.000566441 9.62833 1.7519e-05C9.57878 -0.000531403 9.52963 0.0120296 9.48374 0.0369726C9.43785 0.0619155 9.39613 0.0987454 9.36099 0.145332L5 5.80367Z" fill="white"/>
</svg>
