<svg width="10" height="7" viewBox="0 0 10 7" fill="none" xmlns="http://www.w3.org/2000/svg">
<path d="M5 1.19633L9.36098 6.85467C9.39613 6.90126 9.43785 6.93809 9.48374 6.96303C9.52963 6.98797 9.57878 7.00053 9.62833 6.99998C9.67788 6.99943 9.72686 6.98579 9.77244 6.95983C9.81801 6.93387 9.85927 6.89613 9.89383 6.84877C9.92839 6.80141 9.95556 6.74538 9.97377 6.68393C9.99198 6.62248 10.0009 6.55682 9.99993 6.49075C9.99899 6.42469 9.98823 6.35953 9.96827 6.29904C9.94832 6.23856 9.91957 6.18395 9.88368 6.13838L5.26135 0.141551C5.19138 0.0507848 5.09762 -2.1429e-07 5 -2.18557e-07C4.90238 -2.22824e-07 4.80862 0.0507848 4.73865 0.141551L0.116315 6.13838C0.0804298 6.18395 0.0516787 6.23856 0.0317247 6.29904C0.0117707 6.35953 0.00101093 6.42469 6.76126e-05 6.49075C-0.000875702 6.55682 0.00801609 6.62248 0.026229 6.68393C0.0444418 6.74538 0.0716135 6.80141 0.106172 6.84877C0.140731 6.89612 0.181991 6.93387 0.227563 6.95983C0.273136 6.98579 0.322116 6.99943 0.37167 6.99998C0.421224 7.00053 0.470368 6.98797 0.516257 6.96303C0.562146 6.93808 0.603871 6.90125 0.639015 6.85467L5 1.19633Z" fill="white"/>
</svg>
