<svg width="100" height="54" viewBox="0 0 100 54" fill="none" xmlns="http://www.w3.org/2000/svg">
<rect width="100" height="54" rx="10" fill="white"/>
<path d="M13.522 14V9.758H14.044V11.714H14.674L16.054 9.758H16.654L15.13 11.864L16.666 14H16.048L14.716 12.188H14.044V14H13.522ZM18.3703 14.036C18.0383 14.036 17.7603 13.968 17.5363 13.832C17.3123 13.692 17.1443 13.5 17.0323 13.256C16.9243 13.012 16.8703 12.734 16.8703 12.422C16.8703 12.106 16.9243 11.828 17.0323 11.588C17.1443 11.344 17.3123 11.152 17.5363 11.012C17.7603 10.872 18.0423 10.802 18.3823 10.802C18.7143 10.802 18.9903 10.872 19.2103 11.012C19.4343 11.152 19.6003 11.344 19.7083 11.588C19.8203 11.828 19.8763 12.106 19.8763 12.422C19.8763 12.734 19.8203 13.012 19.7083 13.256C19.5963 13.5 19.4283 13.692 19.2043 13.832C18.9843 13.968 18.7063 14.036 18.3703 14.036ZM18.3703 13.586C18.6023 13.586 18.7903 13.534 18.9343 13.43C19.0823 13.326 19.1903 13.186 19.2583 13.01C19.3303 12.834 19.3663 12.638 19.3663 12.422C19.3663 12.206 19.3303 12.01 19.2583 11.834C19.1903 11.658 19.0823 11.518 18.9343 11.414C18.7903 11.31 18.6023 11.258 18.3703 11.258C18.1423 11.258 17.9543 11.31 17.8063 11.414C17.6623 11.518 17.5543 11.658 17.4823 11.834C17.4143 12.01 17.3803 12.206 17.3803 12.422C17.3803 12.638 17.4143 12.834 17.4823 13.01C17.5543 13.186 17.6623 13.326 17.8063 13.43C17.9543 13.534 18.1423 13.586 18.3703 13.586ZM20.1968 14.006V13.562C20.2768 13.562 20.3488 13.546 20.4128 13.514C20.4768 13.478 20.5328 13.426 20.5808 13.358C20.6368 13.278 20.6808 13.162 20.7128 13.01C20.7448 12.858 20.7668 12.696 20.7788 12.524C20.7948 12.332 20.8068 12.144 20.8148 11.96C20.8228 11.772 20.8288 11.586 20.8328 11.402C20.8408 11.218 20.8448 11.03 20.8448 10.838H23.0408V14H22.5308V11.288H21.3428C21.3388 11.424 21.3328 11.562 21.3248 11.702C21.3208 11.838 21.3148 11.976 21.3068 12.116C21.3028 12.252 21.2968 12.39 21.2888 12.53C21.2848 12.69 21.2688 12.87 21.2408 13.07C21.2128 13.27 21.1528 13.452 21.0608 13.616C20.9728 13.772 20.8648 13.876 20.7368 13.928C20.6128 13.98 20.4328 14.006 20.1968 14.006ZM23.8397 12.542V12.074H25.6997V12.542H23.8397ZM26.5012 14V10.838H27.7252C27.8652 10.838 28.0032 10.848 28.1392 10.868C28.2792 10.884 28.4052 10.92 28.5172 10.976C28.6332 11.028 28.7252 11.106 28.7932 11.21C28.8652 11.314 28.9012 11.452 28.9012 11.624C28.9012 11.728 28.8852 11.824 28.8532 11.912C28.8212 11.996 28.7732 12.07 28.7092 12.134C28.6492 12.198 28.5712 12.254 28.4752 12.302C28.6912 12.35 28.8472 12.444 28.9432 12.584C29.0392 12.724 29.0872 12.884 29.0872 13.064C29.0872 13.224 29.0572 13.364 28.9972 13.484C28.9412 13.6 28.8612 13.696 28.7572 13.772C28.6572 13.848 28.5392 13.906 28.4032 13.946C28.2712 13.982 28.1292 14 27.9772 14H26.5012ZM27.0232 13.556H27.8572C27.9812 13.556 28.0972 13.544 28.2052 13.52C28.3132 13.496 28.4012 13.452 28.4692 13.388C28.5372 13.32 28.5712 13.224 28.5712 13.1C28.5712 12.972 28.5412 12.876 28.4812 12.812C28.4252 12.744 28.3512 12.698 28.2592 12.674C28.1712 12.646 28.0752 12.63 27.9712 12.626C27.8672 12.622 27.7692 12.62 27.6772 12.62H27.0232V13.556ZM27.0232 12.188H27.4612C27.5412 12.188 27.6332 12.184 27.7372 12.176C27.8452 12.168 27.9492 12.15 28.0492 12.122C28.1532 12.09 28.2372 12.042 28.3012 11.978C28.3692 11.914 28.4032 11.826 28.4032 11.714C28.4032 11.566 28.3612 11.464 28.2772 11.408C28.1972 11.348 28.1012 11.314 27.9892 11.306C27.8772 11.294 27.7732 11.288 27.6772 11.288H27.0232V12.188ZM31.1179 14.036C30.7859 14.036 30.5079 13.968 30.2839 13.832C30.0599 13.692 29.8919 13.5 29.7799 13.256C29.6719 13.012 29.6179 12.734 29.6179 12.422C29.6179 12.106 29.6719 11.828 29.7799 11.588C29.8919 11.344 30.0599 11.152 30.2839 11.012C30.5079 10.872 30.7899 10.802 31.1299 10.802C31.4619 10.802 31.7379 10.872 31.9579 11.012C32.1819 11.152 32.3479 11.344 32.4559 11.588C32.5679 11.828 32.6239 12.106 32.6239 12.422C32.6239 12.734 32.5679 13.012 32.4559 13.256C32.3439 13.5 32.1759 13.692 31.9519 13.832C31.7319 13.968 31.4539 14.036 31.1179 14.036ZM31.1179 13.586C31.3499 13.586 31.5379 13.534 31.6819 13.43C31.8299 13.326 31.9379 13.186 32.0059 13.01C32.0779 12.834 32.1139 12.638 32.1139 12.422C32.1139 12.206 32.0779 12.01 32.0059 11.834C31.9379 11.658 31.8299 11.518 31.6819 11.414C31.5379 11.31 31.3499 11.258 31.1179 11.258C30.8899 11.258 30.7019 11.31 30.5539 11.414C30.4099 11.518 30.3019 11.658 30.2299 11.834C30.1619 12.01 30.1279 12.206 30.1279 12.422C30.1279 12.638 30.1619 12.834 30.2299 13.01C30.3019 13.186 30.4099 13.326 30.5539 13.43C30.7019 13.534 30.8899 13.586 31.1179 13.586ZM34.8343 14V10.838H35.3443V12.2H35.8963L36.8323 10.838H37.4143L36.3583 12.344L37.5043 14H36.9043L35.9563 12.644H35.3443V14H34.8343ZM37.9011 14V10.838H39.1251C39.2651 10.838 39.4031 10.848 39.5391 10.868C39.6791 10.884 39.8051 10.92 39.9171 10.976C40.0331 11.028 40.1251 11.106 40.1931 11.21C40.2651 11.314 40.3011 11.452 40.3011 11.624C40.3011 11.728 40.2851 11.824 40.2531 11.912C40.2211 11.996 40.1731 12.07 40.1091 12.134C40.0491 12.198 39.9711 12.254 39.8751 12.302C40.0911 12.35 40.2471 12.444 40.3431 12.584C40.4391 12.724 40.4871 12.884 40.4871 13.064C40.4871 13.224 40.4571 13.364 40.3971 13.484C40.3411 13.6 40.2611 13.696 40.1571 13.772C40.0571 13.848 39.9391 13.906 39.8031 13.946C39.6711 13.982 39.5291 14 39.3771 14H37.9011ZM38.4231 13.556H39.2571C39.3811 13.556 39.4971 13.544 39.6051 13.52C39.7131 13.496 39.8011 13.452 39.8691 13.388C39.9371 13.32 39.9711 13.224 39.9711 13.1C39.9711 12.972 39.9411 12.876 39.8811 12.812C39.8251 12.744 39.7511 12.698 39.6591 12.674C39.5711 12.646 39.4751 12.63 39.3711 12.626C39.2671 12.622 39.1691 12.62 39.0771 12.62H38.4231V13.556ZM38.4231 12.188H38.8611C38.9411 12.188 39.0331 12.184 39.1371 12.176C39.2451 12.168 39.3491 12.15 39.4491 12.122C39.5531 12.09 39.6371 12.042 39.7011 11.978C39.7691 11.914 39.8031 11.826 39.8031 11.714C39.8031 11.566 39.7611 11.464 39.6771 11.408C39.5971 11.348 39.5011 11.314 39.3891 11.306C39.2771 11.294 39.1731 11.288 39.0771 11.288H38.4231V12.188ZM42.1518 14.036C42.0078 14.036 41.8678 14.018 41.7318 13.982C41.5998 13.942 41.4798 13.884 41.3718 13.808C41.2678 13.728 41.1838 13.63 41.1198 13.514C41.0598 13.394 41.0298 13.256 41.0298 13.1C41.0298 12.92 41.0618 12.768 41.1258 12.644C41.1938 12.52 41.2838 12.422 41.3958 12.35C41.5078 12.278 41.6378 12.226 41.7858 12.194C41.9338 12.162 42.0878 12.146 42.2478 12.146H43.1778C43.1778 11.966 43.1518 11.81 43.0998 11.678C43.0518 11.546 42.9718 11.444 42.8598 11.372C42.7478 11.296 42.5998 11.258 42.4158 11.258C42.3038 11.258 42.1998 11.27 42.1038 11.294C42.0078 11.318 41.9258 11.356 41.8578 11.408C41.7898 11.46 41.7398 11.53 41.7078 11.618H41.1618C41.1898 11.474 41.2438 11.352 41.3238 11.252C41.4078 11.148 41.5078 11.064 41.6238 11C41.7438 10.932 41.8718 10.882 42.0078 10.85C42.1438 10.818 42.2798 10.802 42.4158 10.802C42.7198 10.802 42.9638 10.864 43.1478 10.988C43.3318 11.108 43.4658 11.28 43.5498 11.504C43.6338 11.724 43.6758 11.986 43.6758 12.29V14H43.2498L43.2198 13.598C43.1318 13.718 43.0258 13.81 42.9018 13.874C42.7778 13.938 42.6498 13.98 42.5178 14C42.3898 14.024 42.2678 14.036 42.1518 14.036ZM42.1998 13.586C42.3998 13.586 42.5718 13.554 42.7158 13.49C42.8638 13.422 42.9778 13.324 43.0578 13.196C43.1378 13.068 43.1778 12.912 43.1778 12.728V12.572H42.6198C42.4878 12.572 42.3578 12.574 42.2298 12.578C42.1018 12.582 41.9858 12.598 41.8818 12.626C41.7778 12.654 41.6938 12.702 41.6298 12.77C41.5698 12.838 41.5398 12.936 41.5398 13.064C41.5398 13.184 41.5698 13.282 41.6298 13.358C41.6938 13.434 41.7758 13.492 41.8758 13.532C41.9798 13.568 42.0878 13.586 42.1998 13.586ZM44.4214 15.14V10.838H44.9074L44.9314 11.324C45.0394 11.152 45.1854 11.022 45.3694 10.934C45.5574 10.846 45.7594 10.802 45.9754 10.802C46.2954 10.802 46.5574 10.874 46.7614 11.018C46.9654 11.158 47.1154 11.35 47.2114 11.594C47.3114 11.838 47.3614 12.114 47.3614 12.422C47.3614 12.73 47.3114 13.006 47.2114 13.25C47.1114 13.494 46.9574 13.686 46.7494 13.826C46.5414 13.966 46.2754 14.036 45.9514 14.036C45.7914 14.036 45.6474 14.02 45.5194 13.988C45.3914 13.952 45.2794 13.902 45.1834 13.838C45.0874 13.774 45.0034 13.702 44.9314 13.622V15.14H44.4214ZM45.9094 13.586C46.1414 13.586 46.3254 13.534 46.4614 13.43C46.5974 13.322 46.6954 13.18 46.7554 13.004C46.8194 12.828 46.8514 12.634 46.8514 12.422C46.8514 12.206 46.8194 12.01 46.7554 11.834C46.6954 11.658 46.5954 11.518 46.4554 11.414C46.3154 11.31 46.1294 11.258 45.8974 11.258C45.6894 11.258 45.5114 11.312 45.3634 11.42C45.2194 11.524 45.1094 11.666 45.0334 11.846C44.9574 12.022 44.9194 12.216 44.9194 12.428C44.9194 12.648 44.9554 12.846 45.0274 13.022C45.0994 13.198 45.2094 13.336 45.3574 13.436C45.5054 13.536 45.6894 13.586 45.9094 13.586ZM48.7125 14V11.288H47.6265V10.838H50.3085V11.288H49.2225V14H48.7125ZM50.719 14V10.838H51.229V13.262C51.257 13.206 51.295 13.146 51.343 13.082C51.391 13.014 51.429 12.962 51.457 12.926L52.987 10.838H53.491V14H52.981V11.576C52.949 11.636 52.913 11.692 52.873 11.744C52.837 11.796 52.803 11.844 52.771 11.888L51.217 14H50.719ZM54.2487 15.14V10.838H54.7347L54.7587 11.324C54.8667 11.152 55.0127 11.022 55.1967 10.934C55.3847 10.846 55.5867 10.802 55.8027 10.802C56.1227 10.802 56.3847 10.874 56.5887 11.018C56.7927 11.158 56.9427 11.35 57.0387 11.594C57.1387 11.838 57.1887 12.114 57.1887 12.422C57.1887 12.73 57.1387 13.006 57.0387 13.25C56.9387 13.494 56.7847 13.686 56.5767 13.826C56.3687 13.966 56.1027 14.036 55.7787 14.036C55.6187 14.036 55.4747 14.02 55.3467 13.988C55.2187 13.952 55.1067 13.902 55.0107 13.838C54.9147 13.774 54.8307 13.702 54.7587 13.622V15.14H54.2487ZM55.7367 13.586C55.9687 13.586 56.1527 13.534 56.2887 13.43C56.4247 13.322 56.5227 13.18 56.5827 13.004C56.6467 12.828 56.6787 12.634 56.6787 12.422C56.6787 12.206 56.6467 12.01 56.5827 11.834C56.5227 11.658 56.4227 11.518 56.2827 11.414C56.1427 11.31 55.9567 11.258 55.7247 11.258C55.5167 11.258 55.3387 11.312 55.1907 11.42C55.0467 11.524 54.9367 11.666 54.8607 11.846C54.7847 12.022 54.7467 12.216 54.7467 12.428C54.7467 12.648 54.7827 12.846 54.8547 13.022C54.9267 13.198 55.0367 13.336 55.1847 13.436C55.3327 13.536 55.5167 13.586 55.7367 13.586Z" fill="#7B7B7B"/>
<path d="M15.238 28.048C14.802 28.048 14.438 27.956 14.146 27.772C13.858 27.584 13.642 27.328 13.498 27.004C13.358 26.676 13.288 26.302 13.288 25.882C13.288 25.466 13.36 25.096 13.504 24.772C13.648 24.444 13.864 24.186 14.152 23.998C14.444 23.806 14.81 23.71 15.25 23.71C15.562 23.71 15.83 23.76 16.054 23.86C16.282 23.956 16.466 24.09 16.606 24.262C16.746 24.434 16.842 24.636 16.894 24.868H16.366C16.306 24.66 16.176 24.494 15.976 24.37C15.78 24.246 15.532 24.184 15.232 24.184C14.896 24.184 14.624 24.264 14.416 24.424C14.212 24.58 14.062 24.786 13.966 25.042C13.87 25.294 13.822 25.568 13.822 25.864C13.822 26.176 13.872 26.462 13.972 26.722C14.072 26.982 14.228 27.19 14.44 27.346C14.652 27.498 14.922 27.574 15.25 27.574C15.45 27.574 15.628 27.546 15.784 27.49C15.944 27.434 16.076 27.354 16.18 27.25C16.288 27.146 16.362 27.026 16.402 26.89H16.972C16.912 27.122 16.804 27.326 16.648 27.502C16.496 27.674 16.302 27.808 16.066 27.904C15.83 28 15.554 28.048 15.238 28.048ZM17.6172 29.14V24.838H18.1032L18.1272 25.324C18.2352 25.152 18.3812 25.022 18.5652 24.934C18.7532 24.846 18.9552 24.802 19.1712 24.802C19.4912 24.802 19.7532 24.874 19.9572 25.018C20.1612 25.158 20.3112 25.35 20.4072 25.594C20.5072 25.838 20.5572 26.114 20.5572 26.422C20.5572 26.73 20.5072 27.006 20.4072 27.25C20.3072 27.494 20.1532 27.686 19.9452 27.826C19.7372 27.966 19.4712 28.036 19.1472 28.036C18.9872 28.036 18.8432 28.02 18.7152 27.988C18.5872 27.952 18.4752 27.902 18.3792 27.838C18.2832 27.774 18.1992 27.702 18.1272 27.622V29.14H17.6172ZM19.1052 27.586C19.3372 27.586 19.5212 27.534 19.6572 27.43C19.7932 27.322 19.8912 27.18 19.9512 27.004C20.0152 26.828 20.0472 26.634 20.0472 26.422C20.0472 26.206 20.0152 26.01 19.9512 25.834C19.8912 25.658 19.7912 25.518 19.6512 25.414C19.5112 25.31 19.3252 25.258 19.0932 25.258C18.8852 25.258 18.7072 25.312 18.5592 25.42C18.4152 25.524 18.3052 25.666 18.2292 25.846C18.1532 26.022 18.1152 26.216 18.1152 26.428C18.1152 26.648 18.1512 26.846 18.2232 27.022C18.2952 27.198 18.4052 27.336 18.5532 27.436C18.7012 27.536 18.8852 27.586 19.1052 27.586ZM22.5503 28.036C22.2183 28.036 21.9403 27.968 21.7163 27.832C21.4923 27.692 21.3243 27.5 21.2123 27.256C21.1043 27.012 21.0503 26.734 21.0503 26.422C21.0503 26.106 21.1043 25.828 21.2123 25.588C21.3243 25.344 21.4923 25.152 21.7163 25.012C21.9403 24.872 22.2223 24.802 22.5623 24.802C22.8943 24.802 23.1703 24.872 23.3903 25.012C23.6143 25.152 23.7803 25.344 23.8883 25.588C24.0003 25.828 24.0563 26.106 24.0563 26.422C24.0563 26.734 24.0003 27.012 23.8883 27.256C23.7763 27.5 23.6083 27.692 23.3843 27.832C23.1643 27.968 22.8863 28.036 22.5503 28.036ZM22.5503 27.586C22.7823 27.586 22.9703 27.534 23.1143 27.43C23.2623 27.326 23.3703 27.186 23.4383 27.01C23.5103 26.834 23.5463 26.638 23.5463 26.422C23.5463 26.206 23.5103 26.01 23.4383 25.834C23.3703 25.658 23.2623 25.518 23.1143 25.414C22.9703 25.31 22.7823 25.258 22.5503 25.258C22.3223 25.258 22.1343 25.31 21.9863 25.414C21.8423 25.518 21.7343 25.658 21.6623 25.834C21.5943 26.01 21.5603 26.206 21.5603 26.422C21.5603 26.638 21.5943 26.834 21.6623 27.01C21.7343 27.186 21.8423 27.326 21.9863 27.43C22.1343 27.534 22.3223 27.586 22.5503 27.586ZM24.6941 28V24.838H25.2041V26.2H25.7561L26.6921 24.838H27.2741L26.2181 26.344L27.3641 28H26.7641L25.8161 26.644H25.2041V28H24.6941ZM30.6836 28.036C30.3516 28.036 30.0756 27.968 29.8556 27.832C29.6396 27.692 29.4776 27.5 29.3696 27.256C29.2656 27.012 29.2136 26.736 29.2136 26.428C29.2136 26.128 29.2676 25.856 29.3756 25.612C29.4876 25.364 29.6556 25.168 29.8796 25.024C30.1076 24.876 30.3956 24.802 30.7436 24.802C30.9596 24.802 31.1516 24.838 31.3196 24.91C31.4916 24.982 31.6336 25.088 31.7456 25.228C31.8576 25.364 31.9356 25.536 31.9796 25.744H31.4576C31.3976 25.568 31.3016 25.444 31.1696 25.372C31.0416 25.296 30.8896 25.258 30.7136 25.258C30.4736 25.258 30.2816 25.314 30.1376 25.426C29.9936 25.538 29.8876 25.684 29.8196 25.864C29.7556 26.04 29.7236 26.228 29.7236 26.428C29.7236 26.636 29.7576 26.828 29.8256 27.004C29.8936 27.18 29.9996 27.322 30.1436 27.43C30.2876 27.534 30.4736 27.586 30.7016 27.586C30.8696 27.586 31.0276 27.55 31.1756 27.478C31.3276 27.406 31.4276 27.278 31.4756 27.094H32.0036C31.9636 27.31 31.8776 27.488 31.7456 27.628C31.6176 27.768 31.4596 27.872 31.2716 27.94C31.0876 28.004 30.8916 28.036 30.6836 28.036ZM32.2651 28.972V27.556C32.3811 27.556 32.4731 27.524 32.5411 27.46C32.6131 27.396 32.6691 27.312 32.7091 27.208C32.7491 27.104 32.7791 26.992 32.7991 26.872C32.8191 26.748 32.8351 26.63 32.8471 26.518C32.8671 26.334 32.8791 26.152 32.8831 25.972C32.8911 25.788 32.8951 25.642 32.8951 25.534C32.8991 25.418 32.9011 25.302 32.9011 25.186C32.9011 25.07 32.9011 24.954 32.9011 24.838H35.1451V27.556H35.5591V28.972H35.0671V28H32.7571V28.972H32.2651ZM33.0751 27.556H34.6351V25.288H33.3871C33.3831 25.456 33.3791 25.644 33.3751 25.852C33.3711 26.06 33.3631 26.254 33.3511 26.434C33.3471 26.538 33.3371 26.656 33.3211 26.788C33.3091 26.92 33.2851 27.054 33.2491 27.19C33.2131 27.322 33.1551 27.444 33.0751 27.556ZM37.0612 28.036C36.9172 28.036 36.7772 28.018 36.6412 27.982C36.5092 27.942 36.3892 27.884 36.2812 27.808C36.1772 27.728 36.0932 27.63 36.0292 27.514C35.9692 27.394 35.9392 27.256 35.9392 27.1C35.9392 26.92 35.9712 26.768 36.0352 26.644C36.1032 26.52 36.1932 26.422 36.3052 26.35C36.4172 26.278 36.5472 26.226 36.6952 26.194C36.8432 26.162 36.9972 26.146 37.1572 26.146H38.0872C38.0872 25.966 38.0612 25.81 38.0092 25.678C37.9612 25.546 37.8812 25.444 37.7692 25.372C37.6572 25.296 37.5092 25.258 37.3252 25.258C37.2132 25.258 37.1092 25.27 37.0132 25.294C36.9172 25.318 36.8352 25.356 36.7672 25.408C36.6992 25.46 36.6492 25.53 36.6172 25.618H36.0712C36.0992 25.474 36.1532 25.352 36.2332 25.252C36.3172 25.148 36.4172 25.064 36.5332 25C36.6532 24.932 36.7812 24.882 36.9172 24.85C37.0532 24.818 37.1892 24.802 37.3252 24.802C37.6292 24.802 37.8732 24.864 38.0572 24.988C38.2412 25.108 38.3752 25.28 38.4592 25.504C38.5432 25.724 38.5852 25.986 38.5852 26.29V28H38.1592L38.1292 27.598C38.0412 27.718 37.9352 27.81 37.8112 27.874C37.6872 27.938 37.5592 27.98 37.4272 28C37.2992 28.024 37.1772 28.036 37.0612 28.036ZM37.1092 27.586C37.3092 27.586 37.4812 27.554 37.6252 27.49C37.7732 27.422 37.8872 27.324 37.9672 27.196C38.0472 27.068 38.0872 26.912 38.0872 26.728V26.572H37.5292C37.3972 26.572 37.2672 26.574 37.1392 26.578C37.0112 26.582 36.8952 26.598 36.7912 26.626C36.6872 26.654 36.6032 26.702 36.5392 26.77C36.4792 26.838 36.4492 26.936 36.4492 27.064C36.4492 27.184 36.4792 27.282 36.5392 27.358C36.6032 27.434 36.6852 27.492 36.7852 27.532C36.8892 27.568 36.9972 27.586 37.1092 27.586ZM41.1908 28V26.782C41.0388 26.81 40.8908 26.83 40.7468 26.842C40.6068 26.85 40.4808 26.854 40.3688 26.854C40.0728 26.854 39.8388 26.808 39.6668 26.716C39.4948 26.624 39.3728 26.484 39.3008 26.296C39.2288 26.104 39.1928 25.866 39.1928 25.582V24.838H39.7028V25.546C39.7028 25.73 39.7208 25.886 39.7568 26.014C39.7928 26.142 39.8628 26.24 39.9668 26.308C40.0708 26.372 40.2268 26.404 40.4348 26.404C40.5548 26.404 40.6808 26.398 40.8128 26.386C40.9488 26.374 41.0748 26.356 41.1908 26.332V24.838H41.7008V28H41.1908ZM42.462 28V24.838H42.972V27.262C43 27.206 43.038 27.146 43.086 27.082C43.134 27.014 43.172 26.962 43.2 26.926L44.73 24.838H45.234V28H44.724V25.576C44.692 25.636 44.656 25.692 44.616 25.744C44.58 25.796 44.546 25.844 44.514 25.888L42.96 28H42.462Z" fill="#7B7B7B"/>
<path d="M0 38H100V44C100 49.5228 95.5229 54 90 54H10C4.47716 54 0 49.5228 0 44V38Z" fill="#26BDA9"/>
<path d="M24.516 48V43.758H26.004C26.216 43.758 26.408 43.776 26.58 43.812C26.752 43.844 26.9 43.9 27.024 43.98C27.152 44.06 27.25 44.168 27.318 44.304C27.386 44.44 27.42 44.612 27.42 44.82C27.42 45.036 27.37 45.228 27.27 45.396C27.174 45.564 27.024 45.688 26.82 45.768C27.092 45.816 27.296 45.932 27.432 46.116C27.568 46.296 27.636 46.53 27.636 46.818C27.636 47.046 27.592 47.236 27.504 47.388C27.42 47.54 27.3 47.662 27.144 47.754C26.992 47.842 26.816 47.906 26.616 47.946C26.416 47.982 26.202 48 25.974 48H24.516ZM25.038 47.526H25.956C26.08 47.526 26.208 47.52 26.34 47.508C26.476 47.492 26.602 47.462 26.718 47.418C26.834 47.37 26.928 47.296 27 47.196C27.072 47.096 27.108 46.962 27.108 46.794C27.108 46.65 27.08 46.532 27.024 46.44C26.972 46.348 26.9 46.276 26.808 46.224C26.72 46.172 26.618 46.136 26.502 46.116C26.386 46.096 26.268 46.086 26.148 46.086H25.038V47.526ZM25.038 45.618H25.854C26.002 45.618 26.14 45.606 26.268 45.582C26.396 45.554 26.508 45.51 26.604 45.45C26.7 45.39 26.774 45.312 26.826 45.216C26.882 45.12 26.91 45 26.91 44.856C26.91 44.672 26.868 44.536 26.784 44.448C26.7 44.36 26.59 44.302 26.454 44.274C26.318 44.246 26.17 44.232 26.01 44.232H25.038V45.618ZM28.2891 48V44.838H28.8111V46.044H29.3811C29.5691 46.044 29.7391 46.06 29.8911 46.092C30.0431 46.124 30.1731 46.176 30.2811 46.248C30.3891 46.32 30.4711 46.418 30.5271 46.542C30.5831 46.662 30.6111 46.814 30.6111 46.998C30.6111 47.174 30.5811 47.326 30.5211 47.454C30.4611 47.582 30.3751 47.686 30.2631 47.766C30.1551 47.846 30.0251 47.906 29.8731 47.946C29.7251 47.982 29.5631 48 29.3871 48H28.2891ZM28.8111 47.556H28.9791C29.1191 47.556 29.2551 47.554 29.3871 47.55C29.5191 47.542 29.6371 47.522 29.7411 47.49C29.8491 47.458 29.9351 47.406 29.9991 47.334C30.0631 47.258 30.0951 47.152 30.0951 47.016C30.0951 46.888 30.0691 46.79 30.0171 46.722C29.9691 46.65 29.9051 46.598 29.8251 46.566C29.7451 46.53 29.6571 46.508 29.5611 46.5C29.4691 46.492 29.3771 46.488 29.2851 46.488H28.8111V47.556ZM31.0491 48V44.838H31.5591V48H31.0491ZM33.6488 48.036C33.4488 48.036 33.2708 48.008 33.1148 47.952C32.9588 47.892 32.8248 47.81 32.7128 47.706C32.6008 47.598 32.5088 47.472 32.4368 47.328C32.3648 47.18 32.3108 47.02 32.2748 46.848C32.2388 46.676 32.2208 46.494 32.2208 46.302C32.2208 45.994 32.2268 45.708 32.2388 45.444C32.2548 45.176 32.2988 44.938 32.3708 44.73C32.4428 44.518 32.5648 44.342 32.7368 44.202C32.9088 44.062 33.1508 43.964 33.4628 43.908C33.6228 43.88 33.7808 43.856 33.9368 43.836C34.0928 43.816 34.2508 43.796 34.4108 43.776C34.4628 43.768 34.5168 43.76 34.5728 43.752C34.6288 43.744 34.6868 43.734 34.7468 43.722C34.8108 43.71 34.8708 43.7 34.9268 43.692V44.16C34.8828 44.176 34.8348 44.19 34.7828 44.202C34.7348 44.21 34.6828 44.218 34.6268 44.226C34.5748 44.234 34.5208 44.24 34.4648 44.244C34.4128 44.248 34.3608 44.254 34.3088 44.262C34.2568 44.266 34.2068 44.272 34.1588 44.28C34.0188 44.296 33.8708 44.312 33.7148 44.328C33.5588 44.34 33.4108 44.372 33.2708 44.424C33.1348 44.472 33.0188 44.566 32.9228 44.706C32.8748 44.778 32.8328 44.864 32.7968 44.964C32.7648 45.064 32.7408 45.166 32.7248 45.27C32.7128 45.37 32.7048 45.466 32.7008 45.558C32.7808 45.446 32.8788 45.356 32.9948 45.288C33.1108 45.216 33.2348 45.164 33.3668 45.132C33.4988 45.096 33.6248 45.078 33.7448 45.078C34.0328 45.078 34.2768 45.138 34.4768 45.258C34.6768 45.374 34.8288 45.54 34.9328 45.756C35.0368 45.972 35.0888 46.224 35.0888 46.512C35.0888 46.8 35.0328 47.06 34.9208 47.292C34.8088 47.52 34.6448 47.702 34.4288 47.838C34.2168 47.97 33.9568 48.036 33.6488 48.036ZM33.6608 47.586C33.8608 47.586 34.0288 47.538 34.1648 47.442C34.3008 47.346 34.4028 47.218 34.4708 47.058C34.5428 46.898 34.5788 46.722 34.5788 46.53C34.5788 46.342 34.5428 46.174 34.4708 46.026C34.4028 45.874 34.3008 45.754 34.1648 45.666C34.0328 45.578 33.8688 45.534 33.6728 45.534C33.4808 45.534 33.3148 45.58 33.1748 45.672C33.0388 45.764 32.9328 45.888 32.8568 46.044C32.7848 46.196 32.7488 46.362 32.7488 46.542C32.7488 46.726 32.7828 46.898 32.8508 47.058C32.9188 47.218 33.0188 47.346 33.1508 47.442C33.2868 47.538 33.4568 47.586 33.6608 47.586ZM35.7293 49.14V44.838H36.2153L36.2393 45.324C36.3473 45.152 36.4933 45.022 36.6773 44.934C36.8653 44.846 37.0673 44.802 37.2833 44.802C37.6033 44.802 37.8653 44.874 38.0693 45.018C38.2733 45.158 38.4233 45.35 38.5193 45.594C38.6193 45.838 38.6693 46.114 38.6693 46.422C38.6693 46.73 38.6193 47.006 38.5193 47.25C38.4193 47.494 38.2653 47.686 38.0573 47.826C37.8493 47.966 37.5833 48.036 37.2593 48.036C37.0993 48.036 36.9553 48.02 36.8273 47.988C36.6993 47.952 36.5873 47.902 36.4913 47.838C36.3953 47.774 36.3113 47.702 36.2393 47.622V49.14H35.7293ZM37.2173 47.586C37.4493 47.586 37.6333 47.534 37.7693 47.43C37.9053 47.322 38.0033 47.18 38.0633 47.004C38.1273 46.828 38.1593 46.634 38.1593 46.422C38.1593 46.206 38.1273 46.01 38.0633 45.834C38.0033 45.658 37.9033 45.518 37.7633 45.414C37.6233 45.31 37.4373 45.258 37.2053 45.258C36.9973 45.258 36.8193 45.312 36.6713 45.42C36.5273 45.524 36.4173 45.666 36.3413 45.846C36.2653 46.022 36.2273 46.216 36.2273 46.428C36.2273 46.648 36.2633 46.846 36.3353 47.022C36.4073 47.198 36.5173 47.336 36.6653 47.436C36.8133 47.536 36.9973 47.586 37.2173 47.586ZM40.2964 48.036C40.1524 48.036 40.0124 48.018 39.8764 47.982C39.7444 47.942 39.6244 47.884 39.5164 47.808C39.4124 47.728 39.3284 47.63 39.2644 47.514C39.2044 47.394 39.1744 47.256 39.1744 47.1C39.1744 46.92 39.2064 46.768 39.2704 46.644C39.3384 46.52 39.4284 46.422 39.5404 46.35C39.6524 46.278 39.7824 46.226 39.9304 46.194C40.0784 46.162 40.2324 46.146 40.3924 46.146H41.3224C41.3224 45.966 41.2964 45.81 41.2444 45.678C41.1964 45.546 41.1164 45.444 41.0044 45.372C40.8924 45.296 40.7444 45.258 40.5604 45.258C40.4484 45.258 40.3444 45.27 40.2484 45.294C40.1524 45.318 40.0704 45.356 40.0024 45.408C39.9344 45.46 39.8844 45.53 39.8524 45.618H39.3064C39.3344 45.474 39.3884 45.352 39.4684 45.252C39.5524 45.148 39.6524 45.064 39.7684 45C39.8884 44.932 40.0164 44.882 40.1524 44.85C40.2884 44.818 40.4244 44.802 40.5604 44.802C40.8644 44.802 41.1084 44.864 41.2924 44.988C41.4764 45.108 41.6104 45.28 41.6944 45.504C41.7784 45.724 41.8204 45.986 41.8204 46.29V48H41.3944L41.3644 47.598C41.2764 47.718 41.1704 47.81 41.0464 47.874C40.9224 47.938 40.7944 47.98 40.6624 48C40.5344 48.024 40.4124 48.036 40.2964 48.036ZM40.3444 47.586C40.5444 47.586 40.7164 47.554 40.8604 47.49C41.0084 47.422 41.1224 47.324 41.2024 47.196C41.2824 47.068 41.3224 46.912 41.3224 46.728V46.572H40.7644C40.6324 46.572 40.5024 46.574 40.3744 46.578C40.2464 46.582 40.1304 46.598 40.0264 46.626C39.9224 46.654 39.8384 46.702 39.7744 46.77C39.7144 46.838 39.6844 46.936 39.6844 47.064C39.6844 47.184 39.7144 47.282 39.7744 47.358C39.8384 47.434 39.9204 47.492 40.0204 47.532C40.1244 47.568 40.2324 47.586 40.3444 47.586ZM43.304 48V45.288H42.218V44.838H44.9V45.288H43.814V48H43.304ZM45.3105 48V44.838H45.8325V46.044H46.5285C46.7165 46.044 46.8845 46.06 47.0325 46.092C47.1845 46.12 47.3145 46.17 47.4225 46.242C47.5305 46.314 47.6125 46.412 47.6685 46.536C47.7285 46.656 47.7585 46.81 47.7585 46.998C47.7585 47.17 47.7285 47.32 47.6685 47.448C47.6085 47.572 47.5245 47.676 47.4165 47.76C47.3085 47.84 47.1785 47.9 47.0265 47.94C46.8785 47.98 46.7145 48 46.5345 48H45.3105ZM45.8325 47.556H46.1325C46.2725 47.556 46.4065 47.552 46.5345 47.544C46.6665 47.536 46.7865 47.516 46.8945 47.484C47.0025 47.452 47.0865 47.4 47.1465 47.328C47.2105 47.252 47.2425 47.148 47.2425 47.016C47.2425 46.888 47.2165 46.79 47.1645 46.722C47.1165 46.65 47.0525 46.598 46.9725 46.566C46.8925 46.53 46.8045 46.508 46.7085 46.5C46.6165 46.492 46.5245 46.488 46.4325 46.488H45.8325V47.556ZM49.9499 48V44.838H50.4599V46.2H51.0119L51.9479 44.838H52.5299L51.4739 46.344L52.6199 48H52.0199L51.0719 46.644H50.4599V48H49.9499ZM53.0167 48V44.838H54.2407C54.3807 44.838 54.5187 44.848 54.6547 44.868C54.7947 44.884 54.9207 44.92 55.0327 44.976C55.1487 45.028 55.2407 45.106 55.3087 45.21C55.3807 45.314 55.4167 45.452 55.4167 45.624C55.4167 45.728 55.4007 45.824 55.3687 45.912C55.3367 45.996 55.2887 46.07 55.2247 46.134C55.1647 46.198 55.0867 46.254 54.9907 46.302C55.2067 46.35 55.3627 46.444 55.4587 46.584C55.5547 46.724 55.6027 46.884 55.6027 47.064C55.6027 47.224 55.5727 47.364 55.5127 47.484C55.4567 47.6 55.3767 47.696 55.2727 47.772C55.1727 47.848 55.0547 47.906 54.9187 47.946C54.7867 47.982 54.6447 48 54.4927 48H53.0167ZM53.5387 47.556H54.3727C54.4967 47.556 54.6127 47.544 54.7207 47.52C54.8287 47.496 54.9167 47.452 54.9847 47.388C55.0527 47.32 55.0867 47.224 55.0867 47.1C55.0867 46.972 55.0567 46.876 54.9967 46.812C54.9407 46.744 54.8667 46.698 54.7747 46.674C54.6867 46.646 54.5907 46.63 54.4867 46.626C54.3827 46.622 54.2847 46.62 54.1927 46.62H53.5387V47.556ZM53.5387 46.188H53.9767C54.0567 46.188 54.1487 46.184 54.2527 46.176C54.3607 46.168 54.4647 46.15 54.5647 46.122C54.6687 46.09 54.7527 46.042 54.8167 45.978C54.8847 45.914 54.9187 45.826 54.9187 45.714C54.9187 45.566 54.8767 45.464 54.7927 45.408C54.7127 45.348 54.6167 45.314 54.5047 45.306C54.3927 45.294 54.2887 45.288 54.1927 45.288H53.5387V46.188ZM57.2674 48.036C57.1234 48.036 56.9834 48.018 56.8474 47.982C56.7154 47.942 56.5954 47.884 56.4874 47.808C56.3834 47.728 56.2994 47.63 56.2354 47.514C56.1754 47.394 56.1454 47.256 56.1454 47.1C56.1454 46.92 56.1774 46.768 56.2414 46.644C56.3094 46.52 56.3994 46.422 56.5114 46.35C56.6234 46.278 56.7534 46.226 56.9014 46.194C57.0494 46.162 57.2034 46.146 57.3634 46.146H58.2934C58.2934 45.966 58.2674 45.81 58.2154 45.678C58.1674 45.546 58.0874 45.444 57.9754 45.372C57.8634 45.296 57.7154 45.258 57.5314 45.258C57.4194 45.258 57.3154 45.27 57.2194 45.294C57.1234 45.318 57.0414 45.356 56.9734 45.408C56.9054 45.46 56.8554 45.53 56.8234 45.618H56.2774C56.3054 45.474 56.3594 45.352 56.4394 45.252C56.5234 45.148 56.6234 45.064 56.7394 45C56.8594 44.932 56.9874 44.882 57.1234 44.85C57.2594 44.818 57.3954 44.802 57.5314 44.802C57.8354 44.802 58.0794 44.864 58.2634 44.988C58.4474 45.108 58.5814 45.28 58.6654 45.504C58.7494 45.724 58.7914 45.986 58.7914 46.29V48H58.3654L58.3354 47.598C58.2474 47.718 58.1414 47.81 58.0174 47.874C57.8934 47.938 57.7654 47.98 57.6334 48C57.5054 48.024 57.3834 48.036 57.2674 48.036ZM57.3154 47.586C57.5154 47.586 57.6874 47.554 57.8314 47.49C57.9794 47.422 58.0934 47.324 58.1734 47.196C58.2534 47.068 58.2934 46.912 58.2934 46.728V46.572H57.7354C57.6034 46.572 57.4734 46.574 57.3454 46.578C57.2174 46.582 57.1014 46.598 56.9974 46.626C56.8934 46.654 56.8094 46.702 56.7454 46.77C56.6854 46.838 56.6554 46.936 56.6554 47.064C56.6554 47.184 56.6854 47.282 56.7454 47.358C56.8094 47.434 56.8914 47.492 56.9914 47.532C57.0954 47.568 57.2034 47.586 57.3154 47.586ZM59.537 49.14V44.838H60.023L60.047 45.324C60.155 45.152 60.301 45.022 60.485 44.934C60.673 44.846 60.875 44.802 61.091 44.802C61.411 44.802 61.673 44.874 61.877 45.018C62.081 45.158 62.231 45.35 62.327 45.594C62.427 45.838 62.477 46.114 62.477 46.422C62.477 46.73 62.427 47.006 62.327 47.25C62.227 47.494 62.073 47.686 61.865 47.826C61.657 47.966 61.391 48.036 61.067 48.036C60.907 48.036 60.763 48.02 60.635 47.988C60.507 47.952 60.395 47.902 60.299 47.838C60.203 47.774 60.119 47.702 60.047 47.622V49.14H59.537ZM61.025 47.586C61.257 47.586 61.441 47.534 61.577 47.43C61.713 47.322 61.811 47.18 61.871 47.004C61.935 46.828 61.967 46.634 61.967 46.422C61.967 46.206 61.935 46.01 61.871 45.834C61.811 45.658 61.711 45.518 61.571 45.414C61.431 45.31 61.245 45.258 61.013 45.258C60.805 45.258 60.627 45.312 60.479 45.42C60.335 45.524 60.225 45.666 60.149 45.846C60.073 46.022 60.035 46.216 60.035 46.428C60.035 46.648 60.071 46.846 60.143 47.022C60.215 47.198 60.325 47.336 60.473 47.436C60.621 47.536 60.805 47.586 61.025 47.586ZM63.8281 48V45.288H62.7421V44.838H65.4241V45.288H64.3381V48H63.8281ZM65.8346 48V44.838H66.3446V47.262C66.3726 47.206 66.4106 47.146 66.4586 47.082C66.5066 47.014 66.5446 46.962 66.5726 46.926L68.1026 44.838H68.6066V48H68.0966V45.576C68.0646 45.636 68.0286 45.692 67.9886 45.744C67.9526 45.796 67.9186 45.844 67.8866 45.888L66.3326 48H65.8346ZM69.3643 49.14V44.838H69.8503L69.8743 45.324C69.9823 45.152 70.1283 45.022 70.3123 44.934C70.5003 44.846 70.7023 44.802 70.9183 44.802C71.2383 44.802 71.5003 44.874 71.7043 45.018C71.9083 45.158 72.0583 45.35 72.1543 45.594C72.2543 45.838 72.3043 46.114 72.3043 46.422C72.3043 46.73 72.2543 47.006 72.1543 47.25C72.0543 47.494 71.9003 47.686 71.6923 47.826C71.4843 47.966 71.2183 48.036 70.8943 48.036C70.7343 48.036 70.5903 48.02 70.4623 47.988C70.3343 47.952 70.2223 47.902 70.1263 47.838C70.0303 47.774 69.9463 47.702 69.8743 47.622V49.14H69.3643ZM70.8523 47.586C71.0843 47.586 71.2683 47.534 71.4043 47.43C71.5403 47.322 71.6383 47.18 71.6983 47.004C71.7623 46.828 71.7943 46.634 71.7943 46.422C71.7943 46.206 71.7623 46.01 71.6983 45.834C71.6383 45.658 71.5383 45.518 71.3983 45.414C71.2583 45.31 71.0723 45.258 70.8403 45.258C70.6323 45.258 70.4543 45.312 70.3063 45.42C70.1623 45.524 70.0523 45.666 69.9763 45.846C69.9003 46.022 69.8623 46.216 69.8623 46.428C69.8623 46.648 69.8983 46.846 69.9703 47.022C70.0423 47.198 70.1523 47.336 70.3003 47.436C70.4483 47.536 70.6323 47.586 70.8523 47.586ZM73.0194 49.356V48.87C73.2154 48.87 73.3714 48.842 73.4874 48.786C73.6034 48.734 73.6994 48.65 73.7754 48.534C73.8554 48.422 73.9314 48.278 74.0034 48.102L72.6174 44.838H73.2174L74.2854 47.502L75.1614 44.838H75.7374L74.8494 47.328C74.8054 47.456 74.7554 47.6 74.6994 47.76C74.6434 47.92 74.5814 48.082 74.5134 48.246C74.4454 48.414 74.3694 48.568 74.2854 48.708C74.2054 48.852 74.1154 48.968 74.0154 49.056C73.9314 49.132 73.8494 49.192 73.7694 49.236C73.6894 49.28 73.5914 49.31 73.4754 49.326C73.3634 49.346 73.2114 49.356 73.0194 49.356Z" fill="#FEFEFE"/>
<path d="M68.18 28V27.562L69.38 26.524C69.488 26.432 69.606 26.332 69.734 26.224C69.866 26.112 69.99 25.992 70.106 25.864C70.226 25.736 70.324 25.6 70.4 25.456C70.48 25.308 70.52 25.152 70.52 24.988C70.52 24.732 70.444 24.536 70.292 24.4C70.14 24.26 69.936 24.19 69.68 24.19C69.476 24.19 69.298 24.232 69.146 24.316C68.994 24.4 68.894 24.522 68.846 24.682H68.288C68.328 24.462 68.418 24.282 68.558 24.142C68.702 23.998 68.874 23.89 69.074 23.818C69.278 23.746 69.488 23.71 69.704 23.71C69.968 23.71 70.2 23.758 70.4 23.854C70.604 23.95 70.762 24.09 70.874 24.274C70.99 24.454 71.048 24.676 71.048 24.94C71.048 25.2 70.998 25.428 70.898 25.624C70.802 25.82 70.674 25.998 70.514 26.158C70.358 26.314 70.19 26.468 70.01 26.62L68.936 27.526H71.096V28H68.18ZM73.3519 28.048C73.0559 28.048 72.8019 27.994 72.5899 27.886C72.3819 27.774 72.2119 27.62 72.0799 27.424C71.9479 27.224 71.8499 26.994 71.7859 26.734C71.7259 26.47 71.6959 26.186 71.6959 25.882C71.6959 25.578 71.7259 25.296 71.7859 25.036C71.8459 24.772 71.9419 24.542 72.0739 24.346C72.2059 24.146 72.3759 23.99 72.5839 23.878C72.7959 23.766 73.0519 23.71 73.3519 23.71C73.6679 23.71 73.9319 23.772 74.1439 23.896C74.3599 24.016 74.5299 24.18 74.6539 24.388C74.7819 24.596 74.8719 24.83 74.9239 25.09C74.9799 25.346 75.0079 25.61 75.0079 25.882C75.0079 26.154 74.9799 26.42 74.9239 26.68C74.8719 26.936 74.7819 27.168 74.6539 27.376C74.5299 27.58 74.3599 27.744 74.1439 27.868C73.9319 27.988 73.6679 28.048 73.3519 28.048ZM73.3519 27.574C73.5879 27.574 73.7779 27.524 73.9219 27.424C74.0699 27.32 74.1839 27.184 74.2639 27.016C74.3439 26.848 74.3979 26.666 74.4259 26.47C74.4539 26.27 74.4679 26.074 74.4679 25.882C74.4679 25.694 74.4539 25.502 74.4259 25.306C74.3979 25.106 74.3439 24.922 74.2639 24.754C74.1839 24.582 74.0699 24.444 73.9219 24.34C73.7779 24.236 73.5879 24.184 73.3519 24.184C73.1119 24.184 72.9179 24.236 72.7699 24.34C72.6219 24.444 72.5079 24.582 72.4279 24.754C72.3519 24.922 72.2999 25.106 72.2719 25.306C72.2439 25.502 72.2299 25.694 72.2299 25.882C72.2299 26.074 72.2439 26.27 72.2719 26.47C72.2999 26.666 72.3519 26.848 72.4279 27.016C72.5079 27.184 72.6219 27.32 72.7699 27.424C72.9179 27.524 73.1119 27.574 73.3519 27.574ZM77.0456 28.048C76.8776 28.048 76.7076 28.032 76.5356 28C76.3676 27.964 76.2096 27.908 76.0616 27.832C75.9176 27.756 75.7936 27.654 75.6896 27.526C75.5896 27.398 75.5256 27.24 75.4976 27.052H76.0376C76.0856 27.188 76.1656 27.294 76.2776 27.37C76.3896 27.446 76.5136 27.5 76.6496 27.532C76.7896 27.56 76.9236 27.574 77.0516 27.574C77.1436 27.574 77.2436 27.566 77.3516 27.55C77.4596 27.534 77.5636 27.5 77.6636 27.448C77.7676 27.396 77.8516 27.32 77.9156 27.22C77.9796 27.116 78.0116 26.98 78.0116 26.812C78.0116 26.652 77.9816 26.524 77.9216 26.428C77.8616 26.328 77.7816 26.254 77.6816 26.206C77.5816 26.154 77.4696 26.12 77.3456 26.104C77.2256 26.088 77.1036 26.08 76.9796 26.08H76.5716V25.612H76.8176C76.9576 25.612 77.0896 25.6 77.2136 25.576C77.3376 25.548 77.4476 25.506 77.5436 25.45C77.6396 25.394 77.7136 25.32 77.7656 25.228C77.8216 25.136 77.8496 25.022 77.8496 24.886C77.8496 24.69 77.8076 24.542 77.7236 24.442C77.6436 24.342 77.5396 24.274 77.4116 24.238C77.2836 24.202 77.1496 24.184 77.0096 24.184C76.8976 24.184 76.7816 24.202 76.6616 24.238C76.5456 24.27 76.4416 24.324 76.3496 24.4C76.2576 24.472 76.1956 24.57 76.1636 24.694H75.6416C75.6656 24.518 75.7216 24.368 75.8096 24.244C75.8976 24.12 76.0056 24.018 76.1336 23.938C76.2656 23.858 76.4096 23.8 76.5656 23.764C76.7256 23.728 76.8876 23.71 77.0516 23.71C77.2316 23.71 77.3996 23.73 77.5556 23.77C77.7156 23.806 77.8556 23.868 77.9756 23.956C78.0956 24.04 78.1896 24.152 78.2576 24.292C78.3296 24.432 78.3656 24.602 78.3656 24.802C78.3656 24.95 78.3416 25.086 78.2936 25.21C78.2456 25.334 78.1736 25.442 78.0776 25.534C77.9856 25.626 77.8696 25.702 77.7296 25.762C77.9096 25.794 78.0596 25.858 78.1796 25.954C78.3036 26.05 78.3956 26.168 78.4556 26.308C78.5196 26.444 78.5516 26.598 78.5516 26.77C78.5516 27.038 78.5036 27.256 78.4076 27.424C78.3116 27.592 78.1876 27.722 78.0356 27.814C77.8836 27.902 77.7196 27.964 77.5436 28C77.3676 28.032 77.2016 28.048 77.0456 28.048ZM79.8608 28V24.598H78.9968V24.244C79.1568 24.232 79.2988 24.214 79.4228 24.19C79.5468 24.162 79.6568 24.116 79.7528 24.052C79.8528 23.984 79.9408 23.886 80.0168 23.758H80.3828V28H79.8608ZM81.384 28V24.838H83.568V25.288H81.894V28H81.384ZM84.1838 28.048C84.0798 28.048 83.9938 28.014 83.9258 27.946C83.8578 27.878 83.8238 27.792 83.8238 27.688C83.8238 27.584 83.8578 27.498 83.9258 27.43C83.9938 27.362 84.0798 27.328 84.1838 27.328C84.2878 27.328 84.3738 27.362 84.4418 27.43C84.5098 27.498 84.5438 27.584 84.5438 27.688C84.5438 27.792 84.5098 27.878 84.4418 27.946C84.3738 28.014 84.2878 28.048 84.1838 28.048Z" fill="#383838"/>
<path d="M69.942 14V10.79H69.102V10.244C69.266 10.236 69.412 10.218 69.54 10.19C69.668 10.162 69.782 10.114 69.882 10.046C69.986 9.978 70.078 9.882 70.158 9.758H70.692V14H69.942ZM73.1066 14.048C72.9106 14.048 72.7186 14.026 72.5306 13.982C72.3426 13.938 72.1746 13.866 72.0266 13.766C71.8786 13.662 71.7586 13.53 71.6666 13.37C71.5786 13.206 71.5346 13.006 71.5346 12.77C71.5346 12.614 71.5586 12.472 71.6066 12.344C71.6586 12.212 71.7326 12.098 71.8286 12.002C71.9246 11.906 72.0366 11.828 72.1646 11.768C72.0406 11.696 71.9406 11.61 71.8646 11.51C71.7926 11.41 71.7426 11.302 71.7146 11.186C71.6866 11.07 71.6726 10.956 71.6726 10.844C71.6726 10.64 71.7126 10.466 71.7926 10.322C71.8726 10.178 71.9826 10.06 72.1226 9.968C72.2626 9.876 72.4166 9.81 72.5846 9.77C72.7566 9.726 72.9326 9.704 73.1126 9.704C73.2926 9.704 73.4686 9.726 73.6406 9.77C73.8126 9.81 73.9666 9.878 74.1026 9.974C74.2426 10.066 74.3526 10.186 74.4326 10.334C74.5126 10.478 74.5526 10.656 74.5526 10.868C74.5526 10.972 74.5366 11.08 74.5046 11.192C74.4726 11.304 74.4186 11.41 74.3426 11.51C74.2706 11.606 74.1726 11.688 74.0486 11.756C74.1846 11.816 74.3006 11.896 74.3966 11.996C74.4926 12.092 74.5646 12.206 74.6126 12.338C74.6646 12.466 74.6906 12.612 74.6906 12.776C74.6906 13.008 74.6446 13.206 74.5526 13.37C74.4646 13.534 74.3446 13.666 74.1926 13.766C74.0406 13.862 73.8706 13.934 73.6826 13.982C73.4946 14.026 73.3026 14.048 73.1066 14.048ZM73.1066 13.376C73.2026 13.376 73.2966 13.366 73.3886 13.346C73.4846 13.326 73.5726 13.292 73.6526 13.244C73.7366 13.196 73.8046 13.132 73.8566 13.052C73.9086 12.968 73.9346 12.866 73.9346 12.746C73.9346 12.602 73.8966 12.484 73.8206 12.392C73.7446 12.3 73.6446 12.232 73.5206 12.188C73.3966 12.144 73.2606 12.122 73.1126 12.122C72.9646 12.122 72.8266 12.144 72.6986 12.188C72.5746 12.232 72.4746 12.3 72.3986 12.392C72.3226 12.484 72.2846 12.602 72.2846 12.746C72.2846 12.866 72.3086 12.968 72.3566 13.052C72.4086 13.132 72.4766 13.196 72.5606 13.244C72.6446 13.292 72.7326 13.326 72.8246 13.346C72.9206 13.366 73.0146 13.376 73.1066 13.376ZM73.1126 11.534C73.2486 11.534 73.3666 11.512 73.4666 11.468C73.5706 11.42 73.6526 11.354 73.7126 11.27C73.7766 11.186 73.8086 11.084 73.8086 10.964C73.8126 10.828 73.7826 10.716 73.7186 10.628C73.6546 10.536 73.5686 10.47 73.4606 10.43C73.3566 10.386 73.2386 10.364 73.1066 10.364C72.9706 10.364 72.8486 10.386 72.7406 10.43C72.6366 10.47 72.5566 10.534 72.5006 10.622C72.4446 10.706 72.4166 10.812 72.4166 10.94C72.4166 11.068 72.4466 11.178 72.5066 11.27C72.5706 11.358 72.6546 11.424 72.7586 11.468C72.8666 11.512 72.9846 11.534 73.1126 11.534ZM77.3522 14V13.196H75.1442V12.632L77.1482 9.758H78.0902V12.518H78.5762V13.196H78.0902V14H77.3522ZM76.0082 12.518H77.3522V10.544L76.0082 12.518Z" fill="#333333"/>
</svg>
