<svg width="245" height="228" viewBox="0 0 245 228" fill="none" xmlns="http://www.w3.org/2000/svg">
<rect width="244.548" height="218.806" rx="18.3871" fill="white"/>
<path d="M19.3469 75.3547V67.5549H20.3067V71.1514H21.4651L24.0025 67.5549H25.1057L22.3035 71.4273L25.1278 75.3547H23.9915L21.5423 72.023H20.3067V75.3547H19.3469ZM28.2614 75.4209C27.651 75.4209 27.1398 75.2959 26.728 75.0458C26.3161 74.7884 26.0072 74.4354 25.8013 73.9867C25.6027 73.5381 25.5034 73.0269 25.5034 72.4533C25.5034 71.8722 25.6027 71.3611 25.8013 70.9198C26.0072 70.4711 26.3161 70.1181 26.728 69.8607C27.1398 69.6033 27.6583 69.4745 28.2835 69.4745C28.894 69.4745 29.4014 69.6033 29.806 69.8607C30.2178 70.1181 30.5231 70.4711 30.7216 70.9198C30.9276 71.3611 31.0305 71.8722 31.0305 72.4533C31.0305 73.0269 30.9276 73.5381 30.7216 73.9867C30.5157 74.4354 30.2068 74.7884 29.7949 75.0458C29.3904 75.2959 28.8793 75.4209 28.2614 75.4209ZM28.2614 74.5935C28.688 74.5935 29.0337 74.4979 29.2985 74.3067C29.5706 74.1154 29.7692 73.858 29.8942 73.5344C30.0266 73.2108 30.0928 72.8504 30.0928 72.4533C30.0928 72.0561 30.0266 71.6957 29.8942 71.3721C29.7692 71.0485 29.5706 70.7911 29.2985 70.5998C29.0337 70.4086 28.688 70.313 28.2614 70.313C27.8422 70.313 27.4965 70.4086 27.2244 70.5998C26.9596 70.7911 26.7611 71.0485 26.6287 71.3721C26.5036 71.6957 26.4411 72.0561 26.4411 72.4533C26.4411 72.8504 26.5036 73.2108 26.6287 73.5344C26.7611 73.858 26.9596 74.1154 27.2244 74.3067C27.4965 74.4979 27.8422 74.5935 28.2614 74.5935ZM31.6199 75.3658V74.5494C31.767 74.5494 31.8994 74.52 32.017 74.4611C32.1347 74.3949 32.2377 74.2993 32.3259 74.1743C32.4289 74.0272 32.5098 73.8139 32.5687 73.5344C32.6275 73.2549 32.6679 72.9571 32.69 72.6408C32.7194 72.2878 32.7415 71.9421 32.7562 71.6038C32.7709 71.2581 32.7819 70.9161 32.7893 70.5778C32.804 70.2394 32.8114 69.8938 32.8114 69.5407H36.8492V75.3547H35.9114V70.3682H33.727C33.7197 70.6182 33.7087 70.872 33.6939 71.1294C33.6866 71.3794 33.6756 71.6332 33.6608 71.8906C33.6535 72.1407 33.6425 72.3944 33.6278 72.6518C33.6204 72.946 33.591 73.277 33.5395 73.6447C33.488 74.0125 33.3777 74.3471 33.2085 74.6487C33.0467 74.9355 32.8481 75.1267 32.6128 75.2223C32.3848 75.318 32.0538 75.3658 31.6199 75.3658ZM38.3181 72.6739V71.8134H41.7381V72.6739H38.3181ZM43.2118 75.3547V69.5407H45.4624C45.7198 69.5407 45.9735 69.5591 46.2236 69.5959C46.481 69.6253 46.7127 69.6915 46.9186 69.7945C47.1319 69.8901 47.3011 70.0335 47.4261 70.2247C47.5585 70.416 47.6247 70.6697 47.6247 70.986C47.6247 71.1772 47.5953 71.3537 47.5364 71.5155C47.4776 71.67 47.3894 71.806 47.2717 71.9237C47.1614 72.0414 47.0179 72.1443 46.8414 72.2326C47.2386 72.3209 47.5254 72.4937 47.7019 72.7511C47.8784 73.0085 47.9667 73.3027 47.9667 73.6337C47.9667 73.9279 47.9115 74.1853 47.8012 74.406C47.6983 74.6193 47.5512 74.7958 47.3599 74.9355C47.1761 75.0753 46.9591 75.1819 46.709 75.2554C46.4663 75.3216 46.2052 75.3547 45.9257 75.3547H43.2118ZM44.1716 74.5383H45.7051C45.9331 74.5383 46.1464 74.5163 46.345 74.4722C46.5435 74.428 46.7054 74.3471 46.8304 74.2294C46.9554 74.1044 47.0179 73.9279 47.0179 73.6999C47.0179 73.4645 46.9628 73.288 46.8524 73.1703C46.7495 73.0453 46.6134 72.9607 46.4443 72.9166C46.2824 72.8651 46.1059 72.8357 45.9147 72.8283C45.7235 72.821 45.5433 72.8173 45.3741 72.8173H44.1716V74.5383ZM44.1716 72.023H44.977C45.1241 72.023 45.2932 72.0156 45.4844 72.0009C45.683 71.9862 45.8743 71.9531 46.0581 71.9016C46.2494 71.8428 46.4038 71.7545 46.5215 71.6369C46.6465 71.5192 46.709 71.3574 46.709 71.1514C46.709 70.8793 46.6318 70.6918 46.4774 70.5888C46.3303 70.4785 46.1537 70.416 45.9478 70.4013C45.7419 70.3792 45.5506 70.3682 45.3741 70.3682H44.1716V72.023ZM51.7006 75.4209C51.0901 75.4209 50.579 75.2959 50.1671 75.0458C49.7552 74.7884 49.4463 74.4354 49.2404 73.9867C49.0418 73.5381 48.9425 73.0269 48.9425 72.4533C48.9425 71.8722 49.0418 71.3611 49.2404 70.9198C49.4463 70.4711 49.7552 70.1181 50.1671 69.8607C50.579 69.6033 51.0975 69.4745 51.7226 69.4745C52.3331 69.4745 52.8406 69.6033 53.2451 69.8607C53.657 70.1181 53.9622 70.4711 54.1608 70.9198C54.3667 71.3611 54.4697 71.8722 54.4697 72.4533C54.4697 73.0269 54.3667 73.5381 54.1608 73.9867C53.9548 74.4354 53.6459 74.7884 53.2341 75.0458C52.8295 75.2959 52.3184 75.4209 51.7006 75.4209ZM51.7006 74.5935C52.1272 74.5935 52.4728 74.4979 52.7376 74.3067C53.0097 74.1154 53.2083 73.858 53.3334 73.5344C53.4657 73.2108 53.5319 72.8504 53.5319 72.4533C53.5319 72.0561 53.4657 71.6957 53.3334 71.3721C53.2083 71.0485 53.0097 70.7911 52.7376 70.5998C52.4728 70.4086 52.1272 70.313 51.7006 70.313C51.2814 70.313 50.9357 70.4086 50.6635 70.5998C50.3988 70.7911 50.2002 71.0485 50.0678 71.3721C49.9428 71.6957 49.8803 72.0561 49.8803 72.4533C49.8803 72.8504 49.9428 73.2108 50.0678 73.5344C50.2002 73.858 50.3988 74.1154 50.6635 74.3067C50.9357 74.4979 51.2814 74.5935 51.7006 74.5935ZM58.5341 75.3547V69.5407H59.4718V72.0451H60.4868L62.2078 69.5407H63.2779L61.3363 72.3098L63.4434 75.3547H62.3402L60.5971 72.8614H59.4718V75.3547H58.5341ZM64.173 75.3547V69.5407H66.4236C66.681 69.5407 66.9347 69.5591 67.1848 69.5959C67.4422 69.6253 67.6739 69.6915 67.8798 69.7945C68.0931 69.8901 68.2623 70.0335 68.3873 70.2247C68.5197 70.416 68.5859 70.6697 68.5859 70.986C68.5859 71.1772 68.5565 71.3537 68.4976 71.5155C68.4388 71.67 68.3505 71.806 68.2329 71.9237C68.1225 72.0414 67.9791 72.1443 67.8026 72.2326C68.1998 72.3209 68.4866 72.4937 68.6631 72.7511C68.8396 73.0085 68.9279 73.3027 68.9279 73.6337C68.9279 73.9279 68.8727 74.1853 68.7624 74.406C68.6594 74.6193 68.5123 74.7958 68.3211 74.9355C68.1372 75.0753 67.9203 75.1819 67.6702 75.2554C67.4275 75.3216 67.1664 75.3547 66.8869 75.3547H64.173ZM65.1328 74.5383H66.6663C66.8943 74.5383 67.1076 74.5163 67.3061 74.4722C67.5047 74.428 67.6665 74.3471 67.7916 74.2294C67.9166 74.1044 67.9791 73.9279 67.9791 73.6999C67.9791 73.4645 67.924 73.288 67.8136 73.1703C67.7107 73.0453 67.5746 72.9607 67.4054 72.9166C67.2436 72.8651 67.0671 72.8357 66.8759 72.8283C66.6847 72.821 66.5045 72.8173 66.3353 72.8173H65.1328V74.5383ZM65.1328 72.023H65.9381C66.0852 72.023 66.2544 72.0156 66.4456 72.0009C66.6442 71.9862 66.8354 71.9531 67.0193 71.9016C67.2105 71.8428 67.365 71.7545 67.4827 71.6369C67.6077 71.5192 67.6702 71.3574 67.6702 71.1514C67.6702 70.8793 67.593 70.6918 67.4385 70.5888C67.2914 70.4785 67.1149 70.416 66.909 70.4013C66.7031 70.3792 66.5118 70.3682 66.3353 70.3682H65.1328V72.023ZM71.9888 75.4209C71.724 75.4209 71.4666 75.3878 71.2165 75.3216C70.9738 75.2481 70.7532 75.1414 70.5546 75.0017C70.3634 74.8546 70.2089 74.6744 70.0912 74.4611C69.9809 74.2405 69.9258 73.9867 69.9258 73.6999C69.9258 73.3689 69.9846 73.0894 70.1023 72.8614C70.2273 72.6334 70.3928 72.4533 70.5987 72.3209C70.8047 72.1885 71.0437 72.0929 71.3158 72.034C71.588 71.9752 71.8711 71.9458 72.1653 71.9458H73.8753C73.8753 71.6148 73.8275 71.328 73.7319 71.0853C73.6436 70.8425 73.4965 70.655 73.2906 70.5226C73.0847 70.3829 72.8125 70.313 72.4742 70.313C72.2683 70.313 72.0771 70.3351 71.9005 70.3792C71.724 70.4233 71.5732 70.4932 71.4482 70.5888C71.3232 70.6844 71.2312 70.8131 71.1724 70.9749H70.1685C70.22 70.7102 70.3192 70.4858 70.4663 70.302C70.6208 70.1107 70.8047 69.9563 71.018 69.8386C71.2386 69.7136 71.474 69.6216 71.724 69.5628C71.9741 69.504 72.2242 69.4745 72.4742 69.4745C73.0332 69.4745 73.4818 69.5885 73.8202 69.8165C74.1585 70.0372 74.4049 70.3534 74.5593 70.7653C74.7138 71.1698 74.791 71.6516 74.791 72.2105V75.3547H74.0077L73.9525 74.6156C73.7907 74.8362 73.5958 75.0054 73.3678 75.1231C73.1398 75.2407 72.9045 75.318 72.6618 75.3547C72.4264 75.3989 72.2021 75.4209 71.9888 75.4209ZM72.0771 74.5935C72.4448 74.5935 72.7611 74.5347 73.0258 74.417C73.298 74.292 73.5076 74.1118 73.6547 73.8764C73.8018 73.6411 73.8753 73.3542 73.8753 73.0159V72.7291H72.8493C72.6066 72.7291 72.3676 72.7327 72.1322 72.7401C71.8969 72.7474 71.6836 72.7769 71.4923 72.8283C71.3011 72.8798 71.1467 72.9681 71.029 73.0931C70.9187 73.2182 70.8635 73.3983 70.8635 73.6337C70.8635 73.8543 70.9187 74.0345 71.029 74.1743C71.1467 74.314 71.2974 74.4207 71.4813 74.4942C71.6725 74.5604 71.8711 74.5935 72.0771 74.5935ZM76.1619 77.4509V69.5407H77.0555L77.0996 70.4343C77.2982 70.1181 77.5667 69.8791 77.905 69.7173C78.2507 69.5554 78.6221 69.4745 79.0193 69.4745C79.6076 69.4745 80.0894 69.6069 80.4645 69.8717C80.8396 70.1291 81.1154 70.4822 81.2919 70.9308C81.4758 71.3794 81.5677 71.8869 81.5677 72.4533C81.5677 73.0196 81.4758 73.5271 81.2919 73.9757C81.108 74.4243 80.8249 74.7774 80.4424 75.0348C80.06 75.2922 79.5709 75.4209 78.9751 75.4209C78.6809 75.4209 78.4162 75.3915 78.1808 75.3327C77.9454 75.2665 77.7395 75.1745 77.563 75.0569C77.3865 74.9392 77.232 74.8068 77.0996 74.6597V77.4509H76.1619ZM78.8979 74.5935C79.3245 74.5935 79.6628 74.4979 79.9129 74.3067C80.1629 74.1081 80.3431 73.847 80.4534 73.5234C80.5711 73.1998 80.63 72.8431 80.63 72.4533C80.63 72.0561 80.5711 71.6957 80.4534 71.3721C80.3431 71.0485 80.1593 70.7911 79.9018 70.5998C79.6444 70.4086 79.3024 70.313 78.8758 70.313C78.4934 70.313 78.1661 70.4123 77.894 70.6109C77.6292 70.8021 77.4269 71.0632 77.2872 71.3942C77.1474 71.7178 77.0776 72.0745 77.0776 72.4643C77.0776 72.8688 77.1438 73.2329 77.2762 73.5565C77.4085 73.8801 77.6108 74.1338 77.8829 74.3177C78.1551 74.5016 78.4934 74.5935 78.8979 74.5935ZM84.052 75.3547V70.3682H82.0552V69.5407H86.9866V70.3682H84.9897V75.3547H84.052ZM87.7414 75.3547V69.5407H88.6791V73.9978C88.7306 73.8948 88.8005 73.7845 88.8888 73.6668C88.977 73.5418 89.0469 73.4462 89.0984 73.38L91.9116 69.5407H92.8383V75.3547H91.9006V70.8977C91.8417 71.008 91.7755 71.111 91.702 71.2066C91.6358 71.3022 91.5733 71.3905 91.5144 71.4714L88.6571 75.3547H87.7414ZM94.2314 77.4509V69.5407H95.1251L95.1692 70.4343C95.3678 70.1181 95.6362 69.8791 95.9745 69.7173C96.3202 69.5554 96.6916 69.4745 97.0888 69.4745C97.6772 69.4745 98.1589 69.6069 98.534 69.8717C98.9091 70.1291 99.1849 70.4822 99.3614 70.9308C99.5453 71.3794 99.6373 71.8869 99.6373 72.4533C99.6373 73.0196 99.5453 73.5271 99.3614 73.9757C99.1776 74.4243 98.8944 74.7774 98.512 75.0348C98.1295 75.2922 97.6404 75.4209 97.0447 75.4209C96.7505 75.4209 96.4857 75.3915 96.2504 75.3327C96.015 75.2665 95.8091 75.1745 95.6325 75.0569C95.456 74.9392 95.3016 74.8068 95.1692 74.6597V77.4509H94.2314ZM96.9674 74.5935C97.394 74.5935 97.7324 74.4979 97.9824 74.3067C98.2325 74.1081 98.4127 73.847 98.523 73.5234C98.6407 73.1998 98.6995 72.8431 98.6995 72.4533C98.6995 72.0561 98.6407 71.6957 98.523 71.3721C98.4127 71.0485 98.2288 70.7911 97.9714 70.5998C97.714 70.4086 97.372 70.313 96.9454 70.313C96.5629 70.313 96.2356 70.4123 95.9635 70.6109C95.6987 70.8021 95.4965 71.0632 95.3567 71.3942C95.217 71.7178 95.1471 72.0745 95.1471 72.4643C95.1471 72.8688 95.2133 73.2329 95.3457 73.5565C95.4781 73.8801 95.6804 74.1338 95.9525 74.3177C96.2246 74.5016 96.5629 74.5935 96.9674 74.5935Z" fill="#7B7B7B"/>
<path d="M46.4054 34.9916C45.6037 34.9916 44.9344 34.8224 44.3975 34.4841C43.868 34.1384 43.4708 33.6677 43.206 33.072C42.9486 32.4689 42.8199 31.7812 42.8199 31.0089C42.8199 30.244 42.9523 29.5637 43.2171 28.968C43.4818 28.3649 43.879 27.8905 44.4085 27.5448C44.9454 27.1918 45.6184 27.0153 46.4274 27.0153C47.0011 27.0153 47.4939 27.1072 47.9058 27.2911C48.325 27.4676 48.6633 27.714 48.9207 28.0302C49.1782 28.3465 49.3547 28.7179 49.4503 29.1445H48.4794C48.3691 28.762 48.1301 28.4568 47.7623 28.2288C47.402 28.0008 46.946 27.8868 46.3943 27.8868C45.7765 27.8868 45.2764 28.0339 44.894 28.3281C44.5189 28.6149 44.2431 28.9937 44.0665 29.4644C43.89 29.9278 43.8018 30.4316 43.8018 30.9758C43.8018 31.5495 43.8937 32.0754 44.0776 32.5534C44.2614 33.0315 44.5483 33.414 44.9381 33.7008C45.3279 33.9803 45.8243 34.12 46.4274 34.12C46.7952 34.12 47.1225 34.0685 47.4093 33.9656C47.7035 33.8626 47.9462 33.7155 48.1374 33.5243C48.336 33.3331 48.4721 33.1124 48.5456 32.8624H49.5937C49.4834 33.2889 49.2848 33.664 48.998 33.9876C48.7185 34.3039 48.3618 34.5503 47.9278 34.7268C47.4939 34.9033 46.9864 34.9916 46.4054 34.9916ZM53.3175 34.9695C52.707 34.9695 52.1959 34.8445 51.784 34.5944C51.3721 34.337 51.0632 33.984 50.8573 33.5353C50.6587 33.0867 50.5594 32.5755 50.5594 32.0018C50.5594 31.4208 50.6587 30.9096 50.8573 30.4684C51.0632 30.0197 51.3721 29.6667 51.784 29.4093C52.1959 29.1518 52.7144 29.0231 53.3396 29.0231C53.95 29.0231 54.4575 29.1518 54.862 29.4093C55.2739 29.6667 55.5791 30.0197 55.7777 30.4684C55.9836 30.9096 56.0866 31.4208 56.0866 32.0018C56.0866 32.5755 55.9836 33.0867 55.7777 33.5353C55.5717 33.984 55.2628 34.337 54.851 34.5944C54.4465 34.8445 53.9353 34.9695 53.3175 34.9695ZM53.3175 34.1421C53.7441 34.1421 54.0897 34.0465 54.3545 33.8553C54.6267 33.664 54.8252 33.4066 54.9503 33.083C55.0827 32.7594 55.1488 32.399 55.1488 32.0018C55.1488 31.6047 55.0827 31.2443 54.9503 30.9207C54.8252 30.5971 54.6267 30.3396 54.3545 30.1484C54.0897 29.9572 53.7441 29.8616 53.3175 29.8616C52.8983 29.8616 52.5526 29.9572 52.2805 30.1484C52.0157 30.3396 51.8171 30.5971 51.6847 30.9207C51.5597 31.2443 51.4972 31.6047 51.4972 32.0018C51.4972 32.399 51.5597 32.7594 51.6847 33.083C51.8171 33.4066 52.0157 33.664 52.2805 33.8553C52.5526 34.0465 52.8983 34.1421 53.3175 34.1421ZM57.2593 34.9033V29.0893H59.5099C59.7673 29.0893 60.0211 29.1077 60.2711 29.1445C60.5286 29.1739 60.7602 29.2401 60.9662 29.3431C61.1795 29.4387 61.3486 29.5821 61.4737 29.7733C61.6061 29.9645 61.6722 30.2183 61.6722 30.5345C61.6722 30.7258 61.6428 30.9023 61.584 31.0641C61.5251 31.2185 61.4369 31.3546 61.3192 31.4723C61.2089 31.59 61.0655 31.6929 60.889 31.7812C61.2861 31.8694 61.573 32.0423 61.7495 32.2997C61.926 32.5571 62.0142 32.8513 62.0142 33.1823C62.0142 33.4765 61.9591 33.7339 61.8488 33.9545C61.7458 34.1678 61.5987 34.3444 61.4075 34.4841C61.2236 34.6238 61.0066 34.7305 60.7566 34.804C60.5139 34.8702 60.2528 34.9033 59.9733 34.9033H57.2593ZM58.2191 34.0869H59.7526C59.9806 34.0869 60.1939 34.0649 60.3925 34.0207C60.5911 33.9766 60.7529 33.8957 60.8779 33.778C61.003 33.653 61.0655 33.4765 61.0655 33.2485C61.0655 33.0131 61.0103 32.8366 60.9 32.7189C60.797 32.5939 60.661 32.5093 60.4918 32.4652C60.33 32.4137 60.1535 32.3843 59.9622 32.3769C59.771 32.3696 59.5908 32.3659 59.4217 32.3659H58.2191V34.0869ZM58.2191 31.5716H59.0245C59.1716 31.5716 59.3408 31.5642 59.532 31.5495C59.7306 31.5348 59.9218 31.5017 60.1057 31.4502C60.2969 31.3914 60.4513 31.3031 60.569 31.1854C60.6941 31.0678 60.7566 30.906 60.7566 30.7C60.7566 30.4279 60.6793 30.2404 60.5249 30.1374C60.3778 30.0271 60.2013 29.9645 59.9953 29.9498C59.7894 29.9278 59.5982 29.9167 59.4217 29.9167H58.2191V31.5716ZM65.7261 34.9695C65.1083 34.9695 64.5971 34.8445 64.1926 34.5944C63.7881 34.337 63.4865 33.984 63.2879 33.5353C63.0893 33.0867 62.9901 32.5755 62.9901 32.0018C62.9901 31.4208 63.093 30.9096 63.299 30.4684C63.5123 30.0197 63.8212 29.6667 64.2257 29.4093C64.6302 29.1518 65.1266 29.0231 65.715 29.0231C66.149 29.0231 66.5277 29.1077 66.8513 29.2769C67.1823 29.4387 67.4544 29.6593 67.6677 29.9388C67.8884 30.2183 68.0465 30.5309 68.1421 30.8765C68.2451 31.2222 68.2892 31.5789 68.2745 31.9467C68.2672 32.0129 68.2635 32.0791 68.2635 32.1453C68.2635 32.2114 68.2598 32.2776 68.2524 32.3438H63.9388C63.9683 32.6822 64.0528 32.9874 64.1926 33.2595C64.3323 33.5316 64.5309 33.7486 64.7883 33.9104C65.0457 34.0649 65.3657 34.1421 65.7481 34.1421C65.9393 34.1421 66.1306 34.12 66.3218 34.0759C66.5204 34.0244 66.6969 33.9398 66.8513 33.8222C67.0132 33.7045 67.1272 33.5464 67.1933 33.3478H68.1532C68.0649 33.7229 67.8994 34.0318 67.6567 34.2745C67.414 34.5098 67.1235 34.6864 66.7852 34.804C66.4468 34.9144 66.0938 34.9695 65.7261 34.9695ZM63.9609 31.5274H67.3257C67.3184 31.1965 67.2448 30.906 67.1051 30.6559C66.9653 30.4058 66.7741 30.2109 66.5314 30.0712C66.2961 29.9314 66.0129 29.8616 65.6819 29.8616C65.3215 29.8616 65.0163 29.9388 64.7662 30.0933C64.5235 30.2477 64.336 30.45 64.2036 30.7C64.0712 30.9501 63.9903 31.2259 63.9609 31.5274ZM70.8099 34.9033V29.9167H68.8131V29.0893H73.7445V29.9167H71.7477V34.9033H70.8099ZM76.9816 34.9695C76.3711 34.9695 75.8636 34.8445 75.4591 34.5944C75.062 34.337 74.7641 33.984 74.5655 33.5353C74.3743 33.0867 74.2787 32.5792 74.2787 32.0129C74.2787 31.4613 74.378 30.9611 74.5765 30.5125C74.7825 30.0565 75.0914 29.6961 75.5033 29.4313C75.9225 29.1592 76.452 29.0231 77.0919 29.0231C77.4891 29.0231 77.8421 29.0893 78.151 29.2217C78.4673 29.3541 78.7284 29.549 78.9343 29.8064C79.1402 30.0565 79.2836 30.3727 79.3645 30.7552H78.4047C78.2944 30.4316 78.1179 30.2036 77.8752 30.0712C77.6398 29.9314 77.3604 29.8616 77.0367 29.8616C76.5955 29.8616 76.2424 29.9645 75.9776 30.1705C75.7129 30.3764 75.518 30.6449 75.3929 30.9758C75.2753 31.2994 75.2164 31.6451 75.2164 32.0129C75.2164 32.3953 75.2789 32.7484 75.404 33.072C75.529 33.3956 75.7239 33.6567 75.9887 33.8553C76.2535 34.0465 76.5955 34.1421 77.0147 34.1421C77.3236 34.1421 77.6141 34.0759 77.8862 33.9435C78.1657 33.8111 78.3496 33.5758 78.4378 33.2374H79.4087C79.3351 33.6346 79.177 33.9619 78.9343 34.2193C78.6989 34.4767 78.4084 34.668 78.0627 34.793C77.7244 34.9107 77.364 34.9695 76.9816 34.9695ZM80.5153 34.9033V29.0893H81.4531V31.5936H82.468L84.1891 29.0893H85.2592L83.3175 31.8584L85.4247 34.9033H84.3215L82.5784 32.41H81.4531V34.9033H80.5153ZM86.1542 34.9033V29.0893H87.092V33.5464C87.1435 33.4434 87.2133 33.3331 87.3016 33.2154C87.3899 33.0904 87.4597 32.9947 87.5112 32.9285L90.3244 29.0893H91.2511V34.9033H90.3134V30.4463C90.2546 30.5566 90.1884 30.6596 90.1148 30.7552C90.0486 30.8508 89.9861 30.9391 89.9273 31.02L87.0699 34.9033H86.1542ZM92.6443 34.9033V29.0893H93.582V33.5464C93.6335 33.4434 93.7034 33.3331 93.7916 33.2154C93.8799 33.0904 93.9498 32.9947 94.0013 32.9285L96.8145 29.0893H97.7412V34.9033H96.8035V30.4463C96.7446 30.5566 96.6784 30.6596 96.6049 30.7552C96.5387 30.8508 96.4762 30.9391 96.4173 31.02L93.56 34.9033H92.6443ZM95.27 28.2729C94.6889 28.2729 94.2329 28.1479 93.902 27.8978C93.5784 27.6478 93.4092 27.2837 93.3945 26.8056H94.255C94.2697 27.0631 94.3653 27.2506 94.5418 27.3683C94.7257 27.486 94.9721 27.5448 95.281 27.5448C95.5899 27.5448 95.8326 27.486 96.0091 27.3683C96.193 27.2506 96.2923 27.0631 96.307 26.8056H97.1675C97.1602 27.1219 97.0793 27.3904 96.9248 27.611C96.7704 27.8316 96.5534 27.9971 96.2739 28.1074C95.9944 28.2178 95.6598 28.2729 95.27 28.2729ZM102.026 36.9994V29.0893H102.92L102.964 29.9829C103.162 29.6667 103.431 29.4276 103.769 29.2658C104.115 29.104 104.486 29.0231 104.883 29.0231C105.472 29.0231 105.953 29.1555 106.329 29.4203C106.704 29.6777 106.979 30.0307 107.156 30.4794C107.34 30.928 107.432 31.4355 107.432 32.0018C107.432 32.5682 107.34 33.0756 107.156 33.5243C106.972 33.9729 106.689 34.326 106.306 34.5834C105.924 34.8408 105.435 34.9695 104.839 34.9695C104.545 34.9695 104.28 34.9401 104.045 34.8813C103.81 34.8151 103.604 34.7231 103.427 34.6054C103.251 34.4878 103.096 34.3554 102.964 34.2083V36.9994H102.026ZM104.762 34.1421C105.189 34.1421 105.527 34.0465 105.777 33.8553C106.027 33.6567 106.207 33.3956 106.318 33.072C106.435 32.7484 106.494 32.3916 106.494 32.0018C106.494 31.6047 106.435 31.2443 106.318 30.9207C106.207 30.5971 106.023 30.3396 105.766 30.1484C105.508 29.9572 105.166 29.8616 104.74 29.8616C104.357 29.8616 104.03 29.9609 103.758 30.1594C103.493 30.3507 103.291 30.6118 103.151 30.9427C103.012 31.2664 102.942 31.6231 102.942 32.0129C102.942 32.4174 103.008 32.7814 103.14 33.1051C103.273 33.4287 103.475 33.6824 103.747 33.8663C104.019 34.0502 104.357 34.1421 104.762 34.1421ZM110.424 34.9695C110.159 34.9695 109.901 34.9364 109.651 34.8702C109.409 34.7967 109.188 34.69 108.989 34.5503C108.798 34.4032 108.644 34.223 108.526 34.0097C108.416 33.7891 108.361 33.5353 108.361 33.2485C108.361 32.9175 108.419 32.638 108.537 32.41C108.662 32.182 108.828 32.0018 109.033 31.8694C109.239 31.7371 109.478 31.6414 109.751 31.5826C110.023 31.5238 110.306 31.4944 110.6 31.4944H112.31C112.31 31.1634 112.262 30.8765 112.167 30.6338C112.078 30.3911 111.931 30.2036 111.725 30.0712C111.519 29.9314 111.247 29.8616 110.909 29.8616C110.703 29.8616 110.512 29.8836 110.335 29.9278C110.159 29.9719 110.008 30.0418 109.883 30.1374C109.758 30.233 109.666 30.3617 109.607 30.5235H108.603C108.655 30.2587 108.754 30.0344 108.901 29.8505C109.056 29.6593 109.239 29.5049 109.453 29.3872C109.673 29.2622 109.909 29.1702 110.159 29.1114C110.409 29.0525 110.659 29.0231 110.909 29.0231C111.468 29.0231 111.917 29.1371 112.255 29.3651C112.593 29.5858 112.84 29.902 112.994 30.3139C113.149 30.7184 113.226 31.2002 113.226 31.7591V34.9033H112.442L112.387 34.1642C112.225 34.3848 112.031 34.554 111.803 34.6716C111.575 34.7893 111.339 34.8665 111.097 34.9033C110.861 34.9474 110.637 34.9695 110.424 34.9695ZM110.512 34.1421C110.88 34.1421 111.196 34.0833 111.461 33.9656C111.733 33.8405 111.942 33.6604 112.089 33.425C112.237 33.1896 112.31 32.9028 112.31 32.5645V32.2776H111.284C111.041 32.2776 110.802 32.2813 110.567 32.2887C110.332 32.296 110.118 32.3254 109.927 32.3769C109.736 32.4284 109.581 32.5167 109.464 32.6417C109.353 32.7667 109.298 32.9469 109.298 33.1823C109.298 33.4029 109.353 33.5831 109.464 33.7229C109.581 33.8626 109.732 33.9693 109.916 34.0428C110.107 34.109 110.306 34.1421 110.512 34.1421ZM114.597 34.9033V29.0893H115.534V33.5464C115.586 33.4434 115.656 33.3331 115.744 33.2154C115.832 33.0904 115.902 32.9947 115.954 32.9285L118.767 29.0893H119.694V34.9033H118.756V30.4463C118.697 30.5566 118.631 30.6596 118.557 30.7552C118.491 30.8508 118.429 30.9391 118.37 31.02L115.512 34.9033H114.597ZM117.222 28.2729C116.641 28.2729 116.185 28.1479 115.854 27.8978C115.531 27.6478 115.362 27.2837 115.347 26.8056H116.207C116.222 27.0631 116.318 27.2506 116.494 27.3683C116.678 27.486 116.924 27.5448 117.233 27.5448C117.542 27.5448 117.785 27.486 117.961 27.3683C118.145 27.2506 118.245 27.0631 118.259 26.8056H119.12C119.113 27.1219 119.032 27.3904 118.877 27.611C118.723 27.8316 118.506 27.9971 118.226 28.1074C117.947 28.2178 117.612 28.2729 117.222 28.2729ZM123.624 34.9695C123.014 34.9695 122.503 34.8445 122.091 34.5944C121.679 34.337 121.37 33.984 121.164 33.5353C120.965 33.0867 120.866 32.5755 120.866 32.0018C120.866 31.4208 120.965 30.9096 121.164 30.4684C121.37 30.0197 121.679 29.6667 122.091 29.4093C122.503 29.1518 123.021 29.0231 123.646 29.0231C124.257 29.0231 124.764 29.1518 125.169 29.4093C125.581 29.6667 125.886 30.0197 126.084 30.4684C126.29 30.9096 126.393 31.4208 126.393 32.0018C126.393 32.5755 126.29 33.0867 126.084 33.5353C125.878 33.984 125.569 34.337 125.158 34.5944C124.753 34.8445 124.242 34.9695 123.624 34.9695ZM123.624 34.1421C124.051 34.1421 124.396 34.0465 124.661 33.8553C124.933 33.664 125.132 33.4066 125.257 33.083C125.389 32.7594 125.455 32.399 125.455 32.0018C125.455 31.6047 125.389 31.2443 125.257 30.9207C125.132 30.5971 124.933 30.3396 124.661 30.1484C124.396 29.9572 124.051 29.8616 123.624 29.8616C123.205 29.8616 122.859 29.9572 122.587 30.1484C122.322 30.3396 122.124 30.5971 121.991 30.9207C121.866 31.2443 121.804 31.6047 121.804 32.0018C121.804 32.399 121.866 32.7594 121.991 33.083C122.124 33.4066 122.322 33.664 122.587 33.8553C122.859 34.0465 123.205 34.1421 123.624 34.1421ZM127.566 34.9033V29.0893H128.504V31.6378H131.416V29.0893H132.354V34.9033H131.416V32.4652H128.504V34.9033H127.566Z" fill="#232323"/>
<path d="M18.7181 104.774V103.969L20.9245 102.06C21.1231 101.891 21.3401 101.707 21.5754 101.509C21.8181 101.303 22.0461 101.082 22.2594 100.847C22.4801 100.611 22.6602 100.361 22.8 100.096C22.9471 99.8244 23.0206 99.5375 23.0206 99.236C23.0206 98.7653 22.8809 98.4049 22.6014 98.1548C22.3219 97.8974 21.9468 97.7687 21.4761 97.7687C21.101 97.7687 20.7737 97.8459 20.4942 98.0004C20.2148 98.1548 20.0309 98.3791 19.9426 98.6733H18.9166C18.9902 98.2688 19.1557 97.9378 19.4131 97.6804C19.6779 97.4157 19.9941 97.2171 20.3619 97.0847C20.737 96.9523 21.1231 96.8861 21.5202 96.8861C22.0057 96.8861 22.4322 96.9744 22.8 97.1509C23.1751 97.3274 23.4656 97.5848 23.6715 97.9231C23.8848 98.2541 23.9915 98.6623 23.9915 99.1477C23.9915 99.6258 23.8995 100.045 23.7157 100.405C23.5391 100.766 23.3038 101.093 23.0096 101.387C22.7228 101.674 22.4139 101.957 22.0829 102.237L20.1081 103.903H24.0797V104.774H18.7181ZM28.1847 104.774V98.9602H29.1225V101.464H30.1374L31.8585 98.9602H32.9286L30.9869 101.729L33.0941 104.774H31.9908L30.2477 102.281H29.1225V104.774H28.1847ZM36.2533 104.84C35.6429 104.84 35.1317 104.715 34.7198 104.465C34.308 104.208 33.9991 103.855 33.7931 103.406C33.5945 102.958 33.4953 102.446 33.4953 101.873C33.4953 101.292 33.5945 100.78 33.7931 100.339C33.9991 99.8906 34.308 99.5375 34.7198 99.2801C35.1317 99.0227 35.6502 98.894 36.2754 98.894C36.8858 98.894 37.3933 99.0227 37.7978 99.2801C38.2097 99.5375 38.5149 99.8906 38.7135 100.339C38.9194 100.78 39.0224 101.292 39.0224 101.873C39.0224 102.446 38.9194 102.958 38.7135 103.406C38.5076 103.855 38.1987 104.208 37.7868 104.465C37.3823 104.715 36.8711 104.84 36.2533 104.84ZM36.2533 104.013C36.6799 104.013 37.0256 103.917 37.2903 103.726C37.5625 103.535 37.7611 103.277 37.8861 102.954C38.0185 102.63 38.0847 102.27 38.0847 101.873C38.0847 101.476 38.0185 101.115 37.8861 100.792C37.7611 100.468 37.5625 100.21 37.2903 100.019C37.0256 99.828 36.6799 99.7324 36.2533 99.7324C35.8341 99.7324 35.4884 99.828 35.2163 100.019C34.9515 100.21 34.7529 100.468 34.6205 100.792C34.4955 101.115 34.433 101.476 34.433 101.873C34.433 102.27 34.4955 102.63 34.6205 102.954C34.7529 103.277 34.9515 103.535 35.2163 103.726C35.4884 103.917 35.8341 104.013 36.2533 104.013ZM40.1952 104.774V98.9602H41.4528L43.3394 101.873L45.1928 98.9602H46.4284V104.774H45.5017V99.9972L43.4497 103.285H43.1849L41.1219 99.9972V104.774H40.1952ZM47.8272 104.774V98.9602H48.765V101.509H51.6775V98.9602H52.6152V104.774H51.6775V102.336H48.765V104.774H47.8272ZM55.8801 104.84C55.6153 104.84 55.3579 104.807 55.1078 104.741C54.8651 104.668 54.6444 104.561 54.4459 104.421C54.2546 104.274 54.1002 104.094 53.9825 103.881C53.8722 103.66 53.817 103.406 53.817 103.119C53.817 102.788 53.8759 102.509 53.9935 102.281C54.1186 102.053 54.2841 101.873 54.49 101.74C54.6959 101.608 54.935 101.512 55.2071 101.453C55.4792 101.395 55.7624 101.365 56.0566 101.365H57.7666C57.7666 101.034 57.7188 100.747 57.6232 100.505C57.5349 100.262 57.3878 100.074 57.1819 99.942C56.9759 99.8023 56.7038 99.7324 56.3655 99.7324C56.1595 99.7324 55.9683 99.7545 55.7918 99.7986C55.6153 99.8428 55.4645 99.9126 55.3395 100.008C55.2144 100.104 55.1225 100.233 55.0637 100.394H54.0597C54.1112 100.13 54.2105 99.9053 54.3576 99.7214C54.5121 99.5302 54.6959 99.3757 54.9092 99.258C55.1299 99.133 55.3652 99.0411 55.6153 98.9822C55.8653 98.9234 56.1154 98.894 56.3655 98.894C56.9244 98.894 57.3731 99.008 57.7114 99.236C58.0497 99.4566 58.2961 99.7729 58.4506 100.185C58.605 100.589 58.6822 101.071 58.6822 101.63V104.774H57.899L57.8438 104.035C57.682 104.256 57.4871 104.425 57.2591 104.542C57.0311 104.66 56.7957 104.737 56.553 104.774C56.3177 104.818 56.0933 104.84 55.8801 104.84ZM55.9683 104.013C56.3361 104.013 56.6523 103.954 56.9171 103.836C57.1892 103.711 57.3988 103.531 57.5459 103.296C57.693 103.06 57.7666 102.774 57.7666 102.435V102.148H56.7406C56.4979 102.148 56.2588 102.152 56.0235 102.16C55.7881 102.167 55.5748 102.196 55.3836 102.248C55.1924 102.299 55.0379 102.388 54.9202 102.513C54.8099 102.638 54.7548 102.818 54.7548 103.053C54.7548 103.274 54.8099 103.454 54.9202 103.594C55.0379 103.733 55.1887 103.84 55.3726 103.914C55.5638 103.98 55.7624 104.013 55.9683 104.013ZM61.4101 104.774V99.7876H59.4133V98.9602H64.3447V99.7876H62.3479V104.774H61.4101ZM65.0995 104.774V98.9602H66.0373V101.509H68.9498V98.9602H69.8875V104.774H68.9498V102.336H66.0373V104.774H65.0995ZM73.1524 104.84C72.8876 104.84 72.6302 104.807 72.3801 104.741C72.1374 104.668 71.9167 104.561 71.7182 104.421C71.5269 104.274 71.3725 104.094 71.2548 103.881C71.1445 103.66 71.0893 103.406 71.0893 103.119C71.0893 102.788 71.1482 102.509 71.2658 102.281C71.3909 102.053 71.5564 101.873 71.7623 101.74C71.9682 101.608 72.2073 101.512 72.4794 101.453C72.7515 101.395 73.0347 101.365 73.3289 101.365H75.0389C75.0389 101.034 74.9911 100.747 74.8955 100.505C74.8072 100.262 74.6601 100.074 74.4542 99.942C74.2482 99.8023 73.9761 99.7324 73.6378 99.7324C73.4318 99.7324 73.2406 99.7545 73.0641 99.7986C72.8876 99.8428 72.7368 99.9126 72.6118 100.008C72.4867 100.104 72.3948 100.233 72.336 100.394H71.332C71.3835 100.13 71.4828 99.9053 71.6299 99.7214C71.7844 99.5302 71.9682 99.3757 72.1815 99.258C72.4022 99.133 72.6375 99.0411 72.8876 98.9822C73.1376 98.9234 73.3877 98.894 73.6378 98.894C74.1967 98.894 74.6454 99.008 74.9837 99.236C75.322 99.4566 75.5684 99.7729 75.7229 100.185C75.8773 100.589 75.9546 101.071 75.9546 101.63V104.774H75.1713L75.1161 104.035C74.9543 104.256 74.7594 104.425 74.5314 104.542C74.3034 104.66 74.068 104.737 73.8253 104.774C73.59 104.818 73.3656 104.84 73.1524 104.84ZM73.2406 104.013C73.6084 104.013 73.9246 103.954 74.1894 103.836C74.4615 103.711 74.6711 103.531 74.8182 103.296C74.9653 103.06 75.0389 102.774 75.0389 102.435V102.148H74.0129C73.7702 102.148 73.5311 102.152 73.2958 102.16C73.0604 102.167 72.8471 102.196 72.6559 102.248C72.4647 102.299 72.3102 102.388 72.1926 102.513C72.0822 102.638 72.0271 102.818 72.0271 103.053C72.0271 103.274 72.0822 103.454 72.1926 103.594C72.3102 103.733 72.461 103.84 72.6449 103.914C72.8361 103.98 73.0347 104.013 73.2406 104.013ZM76.9614 104.774L78.4728 102.479C78.0536 102.362 77.7226 102.171 77.4799 101.906C77.2372 101.634 77.1158 101.273 77.1158 100.825C77.1158 100.472 77.1673 100.177 77.2703 99.942C77.3733 99.6993 77.524 99.5081 77.7226 99.3684C77.9212 99.2213 78.1602 99.1183 78.4397 99.0595C78.7192 98.9933 79.0391 98.9602 79.3995 98.9602H81.7384V104.774H80.8006V102.623H79.4657L78.0536 104.774H76.9614ZM80.1056 101.806H80.8006V99.7876H79.554C79.3333 99.7876 79.1311 99.7986 78.9472 99.8207C78.7633 99.8428 78.6052 99.8906 78.4728 99.9641C78.3478 100.03 78.2485 100.13 78.1749 100.262C78.1014 100.387 78.0646 100.56 78.0646 100.78C78.0646 101.023 78.1235 101.214 78.2411 101.354C78.3662 101.494 78.5243 101.597 78.7155 101.663C78.9141 101.722 79.1347 101.762 79.3775 101.784C79.6202 101.799 79.8629 101.806 80.1056 101.806Z" fill="#26BDA9"/>
<path d="M93.3734 104.84C92.7629 104.84 92.2518 104.715 91.8399 104.465C91.428 104.208 91.1191 103.855 90.9132 103.406C90.7146 102.958 90.6153 102.446 90.6153 101.873C90.6153 101.292 90.7146 100.78 90.9132 100.339C91.1191 99.8906 91.428 99.5375 91.8399 99.2801C92.2518 99.0227 92.7703 98.894 93.3954 98.894C94.0059 98.894 94.5134 99.0227 94.9179 99.2801C95.3298 99.5375 95.635 99.8906 95.8336 100.339C96.0395 100.78 96.1425 101.292 96.1425 101.873C96.1425 102.446 96.0395 102.958 95.8336 103.406C95.6276 103.855 95.3187 104.208 94.9069 104.465C94.5023 104.715 93.9912 104.84 93.3734 104.84ZM93.3734 104.013C93.8 104.013 94.1456 103.917 94.4104 103.726C94.6825 103.535 94.8811 103.277 95.0062 102.954C95.1385 102.63 95.2047 102.27 95.2047 101.873C95.2047 101.476 95.1385 101.115 95.0062 100.792C94.8811 100.468 94.6825 100.21 94.4104 100.019C94.1456 99.828 93.8 99.7324 93.3734 99.7324C92.9542 99.7324 92.6085 99.828 92.3364 100.019C92.0716 100.21 91.873 100.468 91.7406 100.792C91.6156 101.115 91.5531 101.476 91.5531 101.873C91.5531 102.27 91.6156 102.63 91.7406 102.954C91.873 103.277 92.0716 103.535 92.3364 103.726C92.6085 103.917 92.9542 104.013 93.3734 104.013ZM98.6722 104.774V99.7876H96.6754V98.9602H101.607V99.7876H99.6099V104.774H98.6722ZM109.214 104.774V103.219H104.977V102.502L108.795 96.9744H110.174V102.347H111.089V103.219H110.174V104.774H109.214ZM106.136 102.347H109.214V97.8459L106.136 102.347ZM114.58 104.862C114.205 104.862 113.844 104.8 113.499 104.675C113.16 104.55 112.866 104.362 112.616 104.112C112.366 103.855 112.193 103.539 112.098 103.163H113.157C113.289 103.443 113.502 103.653 113.796 103.792C114.098 103.925 114.396 103.991 114.69 103.991C115.087 103.991 115.415 103.91 115.672 103.748C115.937 103.579 116.143 103.351 116.29 103.064C116.444 102.777 116.555 102.457 116.621 102.104C116.687 101.744 116.72 101.373 116.72 100.99C116.72 100.953 116.72 100.913 116.72 100.869C116.72 100.825 116.72 100.784 116.72 100.747C116.58 101.034 116.393 101.266 116.157 101.442C115.922 101.612 115.661 101.737 115.374 101.818C115.087 101.891 114.797 101.928 114.503 101.928C114.047 101.928 113.627 101.836 113.245 101.652C112.87 101.461 112.568 101.185 112.34 100.825C112.12 100.457 112.009 100.012 112.009 99.4897C112.009 98.9675 112.123 98.5115 112.351 98.1217C112.579 97.7319 112.896 97.4304 113.3 97.2171C113.712 96.9964 114.186 96.8861 114.723 96.8861C115.297 96.8861 115.771 97.0075 116.146 97.2502C116.529 97.4929 116.827 97.8165 117.04 98.221C117.261 98.6255 117.415 99.0705 117.503 99.5559C117.592 100.034 117.636 100.512 117.636 100.99C117.636 101.542 117.581 102.053 117.47 102.524C117.36 102.987 117.183 103.395 116.941 103.748C116.698 104.101 116.382 104.377 115.992 104.576C115.602 104.767 115.131 104.862 114.58 104.862ZM114.646 101.045C114.962 101.045 115.249 100.979 115.506 100.847C115.771 100.714 115.981 100.53 116.135 100.295C116.297 100.06 116.378 99.7839 116.378 99.4677C116.378 99.1293 116.304 98.8351 116.157 98.5851C116.01 98.3277 115.808 98.1254 115.551 97.9783C115.301 97.8312 115.014 97.7577 114.69 97.7577C114.359 97.7577 114.065 97.8312 113.808 97.9783C113.557 98.1254 113.359 98.324 113.212 98.574C113.065 98.8241 112.991 99.0999 112.991 99.4015C112.991 99.9163 113.138 100.321 113.432 100.615C113.734 100.902 114.138 101.045 114.646 101.045ZM118.961 106.109L118.697 105.745C118.8 105.671 118.895 105.583 118.983 105.48C119.072 105.377 119.149 105.267 119.215 105.149C119.289 105.032 119.34 104.914 119.37 104.796C119.178 104.782 119.024 104.719 118.906 104.609C118.789 104.498 118.73 104.351 118.73 104.167C118.737 103.976 118.803 103.825 118.928 103.715C119.061 103.597 119.211 103.539 119.381 103.539C119.594 103.539 119.763 103.616 119.888 103.77C120.02 103.925 120.087 104.142 120.087 104.421C120.087 104.642 120.031 104.87 119.921 105.105C119.818 105.34 119.682 105.546 119.513 105.723C119.344 105.907 119.16 106.036 118.961 106.109ZM121.855 104.774L125.011 97.8569H120.884V96.9744H126.07V97.7687L122.914 104.774H121.855ZM129.671 104.862C129.318 104.862 128.973 104.826 128.634 104.752C128.303 104.671 128.005 104.542 127.741 104.366C127.476 104.189 127.263 103.958 127.101 103.671C126.946 103.377 126.869 103.02 126.869 102.601C126.869 102.307 126.921 102.038 127.023 101.795C127.126 101.553 127.274 101.343 127.465 101.167C127.663 100.99 127.895 100.85 128.16 100.747C127.866 100.608 127.641 100.435 127.487 100.229C127.332 100.016 127.229 99.7949 127.178 99.5669C127.126 99.3389 127.101 99.133 127.101 98.9491C127.101 98.5814 127.171 98.2688 127.31 98.0114C127.457 97.754 127.652 97.5407 127.895 97.3715C128.145 97.2024 128.421 97.081 128.722 97.0075C129.031 96.9266 129.348 96.8861 129.671 96.8861C129.995 96.8861 130.307 96.9266 130.609 97.0075C130.918 97.081 131.194 97.2024 131.436 97.3715C131.686 97.5407 131.881 97.754 132.021 98.0114C132.168 98.2688 132.242 98.5814 132.242 98.9491C132.242 99.1404 132.212 99.3463 132.153 99.5669C132.102 99.7876 131.999 100.001 131.845 100.207C131.69 100.405 131.466 100.575 131.172 100.714C131.451 100.817 131.686 100.961 131.878 101.145C132.076 101.328 132.223 101.545 132.319 101.795C132.422 102.038 132.473 102.307 132.473 102.601C132.473 103.02 132.393 103.377 132.231 103.671C132.076 103.958 131.863 104.189 131.591 104.366C131.326 104.542 131.028 104.671 130.697 104.752C130.366 104.826 130.024 104.862 129.671 104.862ZM129.671 103.991C129.848 103.991 130.039 103.972 130.245 103.936C130.451 103.899 130.646 103.833 130.83 103.737C131.021 103.634 131.175 103.494 131.293 103.318C131.418 103.134 131.481 102.899 131.481 102.612C131.481 102.274 131.392 102.005 131.216 101.806C131.047 101.608 130.822 101.464 130.543 101.376C130.271 101.288 129.98 101.244 129.671 101.244C129.37 101.244 129.079 101.288 128.8 101.376C128.52 101.464 128.292 101.608 128.116 101.806C127.939 102.005 127.851 102.274 127.851 102.612C127.851 102.899 127.91 103.134 128.027 103.318C128.152 103.494 128.311 103.634 128.502 103.737C128.693 103.833 128.892 103.899 129.098 103.936C129.303 103.972 129.495 103.991 129.671 103.991ZM129.671 100.394C129.951 100.394 130.208 100.35 130.443 100.262C130.679 100.166 130.87 100.027 131.017 99.8428C131.172 99.6515 131.249 99.4125 131.249 99.1257C131.256 98.7873 131.186 98.5189 131.039 98.3203C130.892 98.1217 130.697 97.9783 130.455 97.89C130.219 97.8018 129.958 97.7577 129.671 97.7577C129.377 97.7577 129.109 97.8055 128.866 97.9011C128.631 97.9893 128.443 98.1328 128.303 98.3313C128.163 98.5226 128.094 98.7726 128.094 99.0815C128.094 99.3904 128.167 99.6442 128.314 99.8428C128.469 100.034 128.664 100.174 128.899 100.262C129.142 100.35 129.399 100.394 129.671 100.394ZM133.76 104.774V98.9602H135.018L136.904 101.873L138.758 98.9602H139.994V104.774H139.067V99.9972L137.015 103.285H136.75L134.687 99.9972V104.774H133.76ZM141.337 100.582V99.9089L142.429 98.9712C142.532 98.8829 142.65 98.78 142.782 98.6623C142.922 98.5373 143.044 98.4049 143.146 98.2651C143.249 98.1254 143.301 97.9857 143.301 97.8459C143.301 97.6473 143.246 97.4966 143.135 97.3936C143.025 97.2906 142.874 97.2391 142.683 97.2391C142.536 97.2391 142.404 97.2759 142.286 97.3495C142.168 97.4157 142.102 97.5297 142.087 97.6915H141.315C141.33 97.2796 141.477 96.978 141.756 96.7868C142.036 96.5956 142.363 96.5 142.738 96.5C143.128 96.5 143.452 96.6066 143.709 96.8199C143.967 97.0258 144.095 97.3274 144.095 97.7246C144.095 98.0482 144.014 98.3277 143.853 98.563C143.691 98.791 143.5 99.0006 143.279 99.1918C143.146 99.3095 143.014 99.4198 142.882 99.5228C142.749 99.6258 142.617 99.7361 142.485 99.8538H144.051V100.582H141.337Z" fill="#B0B0B0"/>
<path d="M95.2121 130.582C94.6016 130.582 94.0905 130.457 93.6786 130.207C93.2667 129.95 92.9578 129.597 92.7519 129.148C92.5533 128.699 92.454 128.188 92.454 127.615C92.454 127.034 92.5533 126.522 92.7519 126.081C92.9578 125.633 93.2667 125.279 93.6786 125.022C94.0905 124.765 94.609 124.636 95.2341 124.636C95.8446 124.636 96.3521 124.765 96.7566 125.022C97.1685 125.279 97.4737 125.633 97.6723 126.081C97.8782 126.522 97.9812 127.034 97.9812 127.615C97.9812 128.188 97.8782 128.699 97.6723 129.148C97.4663 129.597 97.1574 129.95 96.7456 130.207C96.341 130.457 95.8299 130.582 95.2121 130.582ZM95.2121 129.755C95.6386 129.755 95.9843 129.659 96.2491 129.468C96.5212 129.277 96.7198 129.019 96.8448 128.696C96.9772 128.372 97.0434 128.012 97.0434 127.615C97.0434 127.217 96.9772 126.857 96.8448 126.533C96.7198 126.21 96.5212 125.952 96.2491 125.761C95.9843 125.57 95.6386 125.474 95.2121 125.474C94.7928 125.474 94.4472 125.57 94.175 125.761C93.9103 125.952 93.7117 126.21 93.5793 126.533C93.4543 126.857 93.3917 127.217 93.3917 127.615C93.3917 128.012 93.4543 128.372 93.5793 128.696C93.7117 129.019 93.9103 129.277 94.175 129.468C94.4472 129.659 94.7928 129.755 95.2121 129.755ZM100.511 130.516V125.53H98.514V124.702H103.445V125.53H101.449V130.516H100.511ZM108.217 130.516V124.261H106.629V123.61C106.923 123.588 107.184 123.555 107.412 123.511C107.64 123.459 107.842 123.375 108.019 123.257C108.203 123.132 108.364 122.952 108.504 122.716H109.177V130.516H108.217ZM112.143 130.516V124.261H110.554V123.61C110.849 123.588 111.11 123.555 111.338 123.511C111.566 123.459 111.768 123.375 111.945 123.257C112.128 123.132 112.29 122.952 112.43 122.716H113.103V130.516H112.143ZM117.823 130.604C117.294 130.604 116.838 130.505 116.455 130.307C116.08 130.101 115.771 129.825 115.528 129.479C115.293 129.126 115.12 128.729 115.01 128.288C114.9 127.839 114.844 127.368 114.844 126.875C114.844 126.294 114.9 125.75 115.01 125.243C115.128 124.728 115.308 124.276 115.551 123.886C115.801 123.496 116.124 123.191 116.521 122.97C116.919 122.742 117.397 122.628 117.956 122.628C118.331 122.628 118.68 122.694 119.004 122.827C119.335 122.952 119.621 123.143 119.864 123.4C120.107 123.65 120.287 123.959 120.405 124.327H119.401C119.268 124.055 119.066 123.849 118.794 123.709C118.522 123.569 118.239 123.5 117.945 123.5C117.606 123.5 117.316 123.566 117.073 123.698C116.83 123.823 116.624 123.992 116.455 124.206C116.293 124.419 116.161 124.662 116.058 124.934C115.962 125.206 115.893 125.489 115.848 125.783C115.804 126.077 115.782 126.364 115.782 126.644C115.951 126.386 116.146 126.177 116.367 126.015C116.595 125.853 116.841 125.735 117.106 125.662C117.378 125.581 117.654 125.541 117.933 125.541C118.448 125.541 118.893 125.647 119.268 125.861C119.651 126.066 119.949 126.357 120.162 126.732C120.375 127.1 120.482 127.526 120.482 128.012C120.482 128.527 120.368 128.979 120.14 129.369C119.912 129.759 119.596 130.064 119.191 130.284C118.794 130.498 118.338 130.604 117.823 130.604ZM117.801 129.733C118.132 129.733 118.423 129.663 118.673 129.523C118.93 129.376 119.132 129.181 119.279 128.939C119.427 128.688 119.5 128.413 119.5 128.111C119.5 127.787 119.43 127.501 119.29 127.251C119.151 127.001 118.956 126.802 118.706 126.655C118.463 126.508 118.176 126.434 117.845 126.434C117.544 126.434 117.257 126.504 116.985 126.644C116.713 126.776 116.492 126.967 116.323 127.217C116.161 127.46 116.08 127.751 116.08 128.089C116.08 128.398 116.154 128.677 116.301 128.927C116.455 129.17 116.661 129.365 116.919 129.512C117.183 129.659 117.477 129.733 117.801 129.733ZM122 131.851L121.735 131.487C121.838 131.413 121.934 131.325 122.022 131.222C122.111 131.119 122.188 131.009 122.254 130.891C122.328 130.774 122.379 130.656 122.408 130.538C122.217 130.523 122.063 130.461 121.945 130.351C121.827 130.24 121.769 130.093 121.769 129.909C121.776 129.718 121.842 129.567 121.967 129.457C122.1 129.339 122.25 129.281 122.419 129.281C122.633 129.281 122.802 129.358 122.927 129.512C123.059 129.667 123.126 129.884 123.126 130.163C123.126 130.384 123.07 130.612 122.96 130.847C122.857 131.082 122.721 131.288 122.552 131.465C122.383 131.649 122.199 131.777 122 131.851ZM124.894 130.516L128.049 123.599H123.923V122.716H129.108V123.511L125.953 130.516H124.894ZM132.71 130.604C132.357 130.604 132.011 130.568 131.673 130.494C131.342 130.413 131.044 130.284 130.779 130.108C130.515 129.931 130.301 129.7 130.14 129.413C129.985 129.119 129.908 128.762 129.908 128.343C129.908 128.049 129.959 127.78 130.062 127.537C130.165 127.295 130.312 127.085 130.504 126.909C130.702 126.732 130.934 126.592 131.199 126.489C130.904 126.35 130.68 126.177 130.526 125.971C130.371 125.758 130.268 125.537 130.217 125.309C130.165 125.081 130.14 124.875 130.14 124.691C130.14 124.323 130.209 124.011 130.349 123.753C130.496 123.496 130.691 123.283 130.934 123.113C131.184 122.944 131.46 122.823 131.761 122.749C132.07 122.669 132.386 122.628 132.71 122.628C133.034 122.628 133.346 122.669 133.648 122.749C133.957 122.823 134.233 122.944 134.475 123.113C134.725 123.283 134.92 123.496 135.06 123.753C135.207 124.011 135.281 124.323 135.281 124.691C135.281 124.882 135.251 125.088 135.192 125.309C135.141 125.53 135.038 125.743 134.883 125.949C134.729 126.147 134.505 126.317 134.21 126.456C134.49 126.559 134.725 126.703 134.917 126.887C135.115 127.07 135.262 127.287 135.358 127.537C135.461 127.78 135.512 128.049 135.512 128.343C135.512 128.762 135.431 129.119 135.27 129.413C135.115 129.7 134.902 129.931 134.63 130.108C134.365 130.284 134.067 130.413 133.736 130.494C133.405 130.568 133.063 130.604 132.71 130.604ZM132.71 129.733C132.887 129.733 133.078 129.714 133.284 129.678C133.49 129.641 133.685 129.575 133.868 129.479C134.06 129.376 134.214 129.236 134.332 129.06C134.457 128.876 134.519 128.641 134.519 128.354C134.519 128.015 134.431 127.747 134.255 127.548C134.085 127.35 133.861 127.206 133.582 127.118C133.309 127.03 133.019 126.986 132.71 126.986C132.409 126.986 132.118 127.03 131.839 127.118C131.559 127.206 131.331 127.35 131.155 127.548C130.978 127.747 130.89 128.015 130.89 128.354C130.89 128.641 130.949 128.876 131.066 129.06C131.191 129.236 131.349 129.376 131.541 129.479C131.732 129.575 131.93 129.641 132.136 129.678C132.342 129.714 132.534 129.733 132.71 129.733ZM132.71 126.136C132.99 126.136 133.247 126.092 133.482 126.004C133.718 125.908 133.909 125.769 134.056 125.585C134.21 125.393 134.288 125.154 134.288 124.868C134.295 124.529 134.225 124.261 134.078 124.062C133.931 123.864 133.736 123.72 133.493 123.632C133.258 123.544 132.997 123.5 132.71 123.5C132.416 123.5 132.147 123.547 131.905 123.643C131.669 123.731 131.482 123.875 131.342 124.073C131.202 124.265 131.132 124.515 131.132 124.823C131.132 125.132 131.206 125.386 131.353 125.585C131.508 125.776 131.702 125.916 131.938 126.004C132.181 126.092 132.438 126.136 132.71 126.136ZM136.799 130.516V124.702H138.057L139.943 127.615L141.797 124.702H143.032V130.516H142.106V125.739L140.054 129.027H139.789L137.726 125.739V130.516H136.799ZM144.376 126.324V125.651L145.468 124.713C145.571 124.625 145.689 124.522 145.821 124.404C145.961 124.279 146.082 124.147 146.185 124.007C146.288 123.867 146.34 123.728 146.34 123.588C146.34 123.389 146.285 123.239 146.174 123.136C146.064 123.033 145.913 122.981 145.722 122.981C145.575 122.981 145.442 123.018 145.325 123.091C145.207 123.158 145.141 123.272 145.126 123.433H144.354C144.369 123.022 144.516 122.72 144.795 122.529C145.075 122.338 145.402 122.242 145.777 122.242C146.167 122.242 146.491 122.349 146.748 122.562C147.005 122.768 147.134 123.069 147.134 123.467C147.134 123.79 147.053 124.07 146.891 124.305C146.73 124.533 146.538 124.743 146.318 124.934C146.185 125.051 146.053 125.162 145.921 125.265C145.788 125.368 145.656 125.478 145.523 125.596H147.09V126.324H144.376Z" fill="#B0B0B0"/>
<path d="M22.5021 174.734C21.7004 174.734 21.0311 174.564 20.4942 174.226C19.9647 173.88 19.5675 173.41 19.3028 172.814C19.0453 172.211 18.9166 171.523 18.9166 170.751C18.9166 169.986 19.049 169.306 19.3138 168.71C19.5786 168.107 19.9757 167.632 20.5053 167.287C21.0422 166.934 21.7151 166.757 22.5242 166.757C23.0979 166.757 23.5906 166.849 24.0025 167.033C24.4217 167.21 24.7601 167.456 25.0175 167.772C25.2749 168.088 25.4514 168.46 25.547 168.886H24.5762C24.4659 168.504 24.2268 168.199 23.8591 167.971C23.4987 167.743 23.0427 167.629 22.4911 167.629C21.8733 167.629 21.3731 167.776 20.9907 168.07C20.6156 168.357 20.3398 168.736 20.1633 169.206C19.9868 169.67 19.8985 170.174 19.8985 170.718C19.8985 171.291 19.9904 171.817 20.1743 172.295C20.3582 172.773 20.645 173.156 21.0348 173.443C21.4246 173.722 21.9211 173.862 22.5242 173.862C22.8919 173.862 23.2192 173.81 23.5061 173.708C23.8002 173.605 24.043 173.457 24.2342 173.266C24.4328 173.075 24.5688 172.854 24.6424 172.604H25.6904C25.5801 173.031 25.3815 173.406 25.0947 173.73C24.8152 174.046 24.4585 174.292 24.0246 174.469C23.5906 174.645 23.0831 174.734 22.5021 174.734ZM26.8768 176.741V168.831H27.7704L27.8146 169.725C28.0131 169.409 28.2816 169.17 28.6199 169.008C28.9656 168.846 29.337 168.765 29.7342 168.765C30.3226 168.765 30.8043 168.897 31.1794 169.162C31.5545 169.42 31.8303 169.773 32.0068 170.221C32.1907 170.67 32.2826 171.177 32.2826 171.744C32.2826 172.31 32.1907 172.818 32.0068 173.266C31.8229 173.715 31.5398 174.068 31.1573 174.325C30.7749 174.583 30.2858 174.711 29.69 174.711C29.3958 174.711 29.1311 174.682 28.8957 174.623C28.6604 174.557 28.4544 174.465 28.2779 174.347C28.1014 174.23 27.9469 174.097 27.8146 173.95V176.741H26.8768ZM29.6128 173.884C30.0394 173.884 30.3777 173.788 30.6278 173.597C30.8778 173.399 31.058 173.138 31.1684 172.814C31.286 172.49 31.3449 172.134 31.3449 171.744C31.3449 171.347 31.286 170.986 31.1684 170.663C31.058 170.339 30.8742 170.082 30.6167 169.89C30.3593 169.699 30.0173 169.604 29.5907 169.604C29.2083 169.604 28.881 169.703 28.6089 169.901C28.3441 170.093 28.1418 170.354 28.0021 170.685C27.8624 171.008 27.7925 171.365 27.7925 171.755C27.7925 172.159 27.8587 172.523 27.9911 172.847C28.1235 173.171 28.3257 173.424 28.5978 173.608C28.87 173.792 29.2083 173.884 29.6128 173.884ZM35.9474 174.711C35.3369 174.711 34.8258 174.586 34.4139 174.336C34.002 174.079 33.6931 173.726 33.4872 173.277C33.2886 172.829 33.1893 172.317 33.1893 171.744C33.1893 171.163 33.2886 170.652 33.4872 170.21C33.6931 169.762 34.002 169.409 34.4139 169.151C34.8258 168.894 35.3443 168.765 35.9694 168.765C36.5799 168.765 37.0874 168.894 37.4919 169.151C37.9038 169.409 38.209 169.762 38.4076 170.21C38.6135 170.652 38.7165 171.163 38.7165 171.744C38.7165 172.317 38.6135 172.829 38.4076 173.277C38.2016 173.726 37.8927 174.079 37.4809 174.336C37.0763 174.586 36.5652 174.711 35.9474 174.711ZM35.9474 173.884C36.374 173.884 36.7196 173.788 36.9844 173.597C37.2565 173.406 37.4551 173.149 37.5801 172.825C37.7125 172.501 37.7787 172.141 37.7787 171.744C37.7787 171.347 37.7125 170.986 37.5801 170.663C37.4551 170.339 37.2565 170.082 36.9844 169.89C36.7196 169.699 36.374 169.604 35.9474 169.604C35.5281 169.604 35.1825 169.699 34.9103 169.89C34.6456 170.082 34.447 170.339 34.3146 170.663C34.1896 170.986 34.127 171.347 34.127 171.744C34.127 172.141 34.1896 172.501 34.3146 172.825C34.447 173.149 34.6456 173.406 34.9103 173.597C35.1825 173.788 35.5281 173.884 35.9474 173.884ZM39.8892 174.645V168.831H40.827V171.336H41.8419L43.563 168.831H44.6331L42.6914 171.6L44.7986 174.645H43.6954L41.9523 172.152H40.827V174.645H39.8892ZM50.902 174.711C50.2916 174.711 49.7841 174.586 49.3796 174.336C48.9824 174.079 48.6846 173.726 48.486 173.277C48.2947 172.829 48.1991 172.321 48.1991 171.755C48.1991 171.203 48.2984 170.703 48.497 170.254C48.7029 169.798 49.0118 169.438 49.4237 169.173C49.8429 168.901 50.3725 168.765 51.0124 168.765C51.4095 168.765 51.7626 168.831 52.0715 168.964C52.3877 169.096 52.6488 169.291 52.8547 169.548C53.0607 169.798 53.2041 170.115 53.285 170.497H52.3252C52.2149 170.174 52.0384 169.946 51.7956 169.813C51.5603 169.673 51.2808 169.604 50.9572 169.604C50.5159 169.604 50.1629 169.706 49.8981 169.912C49.6333 170.118 49.4384 170.387 49.3134 170.718C49.1957 171.041 49.1369 171.387 49.1369 171.755C49.1369 172.137 49.1994 172.49 49.3244 172.814C49.4495 173.138 49.6444 173.399 49.9091 173.597C50.1739 173.788 50.5159 173.884 50.9351 173.884C51.244 173.884 51.5346 173.818 51.8067 173.685C52.0862 173.553 52.27 173.318 52.3583 172.979H53.3291C53.2556 173.377 53.0975 173.704 52.8547 173.961C52.6194 174.219 52.3289 174.41 51.9832 174.535C51.6449 174.653 51.2845 174.711 50.902 174.711ZM53.81 176.432V173.829C54.0233 173.829 54.1925 173.77 54.3175 173.652C54.4499 173.535 54.5529 173.38 54.6264 173.189C54.7 172.998 54.7551 172.792 54.7919 172.571C54.8287 172.343 54.8581 172.126 54.8802 171.92C54.9169 171.582 54.939 171.247 54.9464 170.916C54.9611 170.578 54.9684 170.31 54.9684 170.111C54.9758 169.898 54.9795 169.684 54.9795 169.471C54.9795 169.258 54.9795 169.045 54.9795 168.831H59.1055V173.829H59.8668V176.432H58.9621V174.645H54.7147V176.432H53.81ZM55.2994 173.829H58.1678V169.659H55.8731C55.8657 169.968 55.8584 170.313 55.851 170.696C55.8437 171.078 55.8289 171.435 55.8069 171.766C55.7995 171.957 55.7811 172.174 55.7517 172.417C55.7297 172.659 55.6855 172.906 55.6193 173.156C55.5531 173.399 55.4465 173.623 55.2994 173.829ZM62.6287 174.711C62.3639 174.711 62.1065 174.678 61.8564 174.612C61.6137 174.539 61.3931 174.432 61.1945 174.292C61.0033 174.145 60.8488 173.965 60.7311 173.752C60.6208 173.531 60.5656 173.277 60.5656 172.99C60.5656 172.659 60.6245 172.38 60.7422 172.152C60.8672 171.924 61.0327 171.744 61.2386 171.611C61.4445 171.479 61.6836 171.383 61.9557 171.325C62.2278 171.266 62.511 171.236 62.8052 171.236H64.5152C64.5152 170.905 64.4674 170.618 64.3718 170.376C64.2835 170.133 64.1364 169.946 63.9305 169.813C63.7245 169.673 63.4524 169.604 63.1141 169.604C62.9082 169.604 62.7169 169.626 62.5404 169.67C62.3639 169.714 62.2131 169.784 62.0881 169.879C61.9631 169.975 61.8711 170.104 61.8123 170.265H60.8083C60.8598 170.001 60.9591 169.776 61.1062 169.592C61.2607 169.401 61.4445 169.247 61.6578 169.129C61.8785 169.004 62.1138 168.912 62.3639 168.853C62.614 168.794 62.864 168.765 63.1141 168.765C63.6731 168.765 64.1217 168.879 64.46 169.107C64.7983 169.328 65.0447 169.644 65.1992 170.056C65.3536 170.46 65.4309 170.942 65.4309 171.501V174.645H64.6476L64.5924 173.906C64.4306 174.127 64.2357 174.296 64.0077 174.414C63.7797 174.531 63.5443 174.608 63.3016 174.645C63.0663 174.689 62.842 174.711 62.6287 174.711ZM62.7169 173.884C63.0847 173.884 63.4009 173.825 63.6657 173.708C63.9378 173.582 64.1474 173.402 64.2945 173.167C64.4416 172.932 64.5152 172.645 64.5152 172.306V172.02H63.4892C63.2465 172.02 63.0074 172.023 62.7721 172.031C62.5367 172.038 62.3234 172.067 62.1322 172.119C61.941 172.17 61.7865 172.259 61.6689 172.384C61.5585 172.509 61.5034 172.689 61.5034 172.924C61.5034 173.145 61.5585 173.325 61.6689 173.465C61.7865 173.605 61.9373 173.711 62.1212 173.785C62.3124 173.851 62.511 173.884 62.7169 173.884ZM70.2218 174.645V172.406C69.9423 172.457 69.6702 172.494 69.4054 172.516C69.148 172.531 68.9163 172.538 68.7103 172.538C68.1661 172.538 67.7358 172.454 67.4196 172.284C67.1033 172.115 66.879 171.858 66.7466 171.512C66.6142 171.159 66.548 170.721 66.548 170.199V168.831H67.4858V170.133C67.4858 170.471 67.5189 170.758 67.5851 170.994C67.6513 171.229 67.78 171.409 67.9712 171.534C68.1624 171.652 68.4493 171.711 68.8317 171.711C69.0523 171.711 69.284 171.7 69.5267 171.678C69.7768 171.656 70.0085 171.622 70.2218 171.578V168.831H71.1595V174.645H70.2218ZM72.5592 174.645V168.831H73.4969V173.288C73.5484 173.185 73.6183 173.075 73.7066 172.957C73.7948 172.832 73.8647 172.737 73.9162 172.67L76.7294 168.831H77.6561V174.645H76.7184V170.188C76.6595 170.299 76.5933 170.402 76.5198 170.497C76.4536 170.593 76.3911 170.681 76.3322 170.762L73.4749 174.645H72.5592Z" fill="#7B7B7B"/>
<path d="M0 189.387H244.548V209.613C244.548 219.768 236.316 228 226.161 228H18.3871C8.23219 228 0 219.768 0 209.613V189.387Z" fill="#26BDA9"/>
<path d="M80.0133 213.258V205.458H82.7493C83.1391 205.458 83.4921 205.491 83.8084 205.558C84.1246 205.616 84.3968 205.719 84.6248 205.866C84.8601 206.014 85.0403 206.212 85.1654 206.462C85.2904 206.712 85.3529 207.029 85.3529 207.411C85.3529 207.808 85.261 208.161 85.0771 208.47C84.9006 208.779 84.6248 209.007 84.2497 209.154C84.7498 209.242 85.1249 209.456 85.375 209.794C85.625 210.125 85.7501 210.555 85.7501 211.085C85.7501 211.504 85.6692 211.853 85.5074 212.133C85.3529 212.412 85.1323 212.637 84.8454 212.806C84.5659 212.968 84.2423 213.085 83.8746 213.159C83.5068 213.225 83.1134 213.258 82.6941 213.258H80.0133ZM80.9731 212.387H82.661C82.889 212.387 83.1244 212.375 83.3671 212.353C83.6172 212.324 83.8488 212.269 84.0621 212.188C84.2754 212.1 84.4483 211.964 84.5806 211.78C84.713 211.596 84.7792 211.349 84.7792 211.041C84.7792 210.776 84.7277 210.559 84.6248 210.39C84.5292 210.221 84.3968 210.088 84.2276 209.993C84.0658 209.897 83.8783 209.831 83.665 209.794C83.4517 209.757 83.2347 209.739 83.0141 209.739H80.9731V212.387ZM80.9731 208.878H82.4735C82.7456 208.878 82.9994 208.856 83.2347 208.812C83.4701 208.761 83.676 208.68 83.8525 208.569C84.029 208.459 84.1651 208.316 84.2607 208.139C84.3637 207.963 84.4152 207.742 84.4152 207.477C84.4152 207.139 84.3379 206.889 84.1835 206.727C84.029 206.565 83.8268 206.459 83.5767 206.407C83.3266 206.356 83.0545 206.33 82.7603 206.33H80.9731V208.878ZM86.9509 213.258V207.444H87.9107V209.662H88.9588C89.3045 209.662 89.617 209.691 89.8965 209.75C90.176 209.809 90.415 209.904 90.6136 210.037C90.8122 210.169 90.963 210.349 91.0659 210.577C91.1689 210.798 91.2204 211.077 91.2204 211.416C91.2204 211.739 91.1652 212.019 91.0549 212.254C90.9446 212.489 90.7865 212.681 90.5805 212.828C90.3819 212.975 90.1429 213.085 89.8634 213.159C89.5913 213.225 89.2934 213.258 88.9698 213.258H86.9509ZM87.9107 212.442H88.2196C88.477 212.442 88.7271 212.438 88.9698 212.431C89.2125 212.416 89.4295 212.379 89.6207 212.32C89.8193 212.261 89.9774 212.166 90.0951 212.033C90.2128 211.894 90.2716 211.699 90.2716 211.449C90.2716 211.213 90.2238 211.033 90.1282 210.908C90.0399 210.776 89.9223 210.68 89.7752 210.621C89.6281 210.555 89.4663 210.515 89.2898 210.5C89.1206 210.485 88.9514 210.478 88.7823 210.478H87.9107V212.442ZM92.0258 213.258V207.444H92.9635V213.258H92.0258ZM96.8059 213.324C96.4381 213.324 96.1109 213.273 95.824 213.17C95.5372 213.059 95.2908 212.909 95.0849 212.717C94.8789 212.519 94.7098 212.287 94.5774 212.022C94.445 211.75 94.3457 211.456 94.2795 211.14C94.2133 210.824 94.1802 210.489 94.1802 210.136C94.1802 209.57 94.1912 209.044 94.2133 208.558C94.2427 208.066 94.3236 207.628 94.456 207.245C94.5884 206.856 94.8127 206.532 95.129 206.275C95.4452 206.017 95.8902 205.837 96.4639 205.734C96.7581 205.683 97.0486 205.638 97.3354 205.602C97.6223 205.565 97.9128 205.528 98.207 205.491C98.3026 205.477 98.4019 205.462 98.5049 205.447C98.6078 205.433 98.7145 205.414 98.8248 205.392C98.9425 205.37 99.0528 205.352 99.1558 205.337V206.197C99.0749 206.227 98.9866 206.253 98.891 206.275C98.8027 206.289 98.7071 206.304 98.6041 206.319C98.5085 206.333 98.4092 206.345 98.3063 206.352C98.2107 206.359 98.115 206.37 98.0194 206.385C97.9238 206.392 97.8319 206.403 97.7436 206.418C97.4862 206.447 97.2141 206.477 96.9272 206.506C96.6404 206.528 96.3683 206.587 96.1109 206.683C95.8608 206.771 95.6475 206.944 95.471 207.201C95.3827 207.334 95.3055 207.492 95.2393 207.676C95.1805 207.86 95.1363 208.047 95.1069 208.238C95.0849 208.422 95.0701 208.599 95.0628 208.768C95.2099 208.562 95.3901 208.397 95.6034 208.271C95.8167 208.139 96.0447 208.043 96.2874 207.985C96.5301 207.918 96.7618 207.885 96.9824 207.885C97.5119 207.885 97.9606 207.996 98.3283 208.216C98.6961 208.43 98.9756 208.735 99.1668 209.132C99.358 209.529 99.4536 209.993 99.4536 210.522C99.4536 211.052 99.3507 211.53 99.1447 211.956C98.9388 212.375 98.6372 212.71 98.2401 212.96C97.8503 213.203 97.3722 213.324 96.8059 213.324ZM96.8279 212.497C97.1957 212.497 97.5046 212.409 97.7547 212.232C98.0047 212.056 98.1923 211.82 98.3173 211.526C98.4497 211.232 98.5159 210.908 98.5159 210.555C98.5159 210.209 98.4497 209.901 98.3173 209.628C98.1923 209.349 98.0047 209.128 97.7547 208.967C97.5119 208.805 97.2104 208.724 96.85 208.724C96.497 208.724 96.1918 208.808 95.9343 208.978C95.6843 209.147 95.4894 209.375 95.3496 209.662C95.2172 209.941 95.151 210.246 95.151 210.577C95.151 210.916 95.2136 211.232 95.3386 211.526C95.4636 211.82 95.6475 212.056 95.8902 212.232C96.1403 212.409 96.4529 212.497 96.8279 212.497ZM100.631 215.354V207.444H101.525L101.569 208.338C101.768 208.021 102.036 207.782 102.374 207.621C102.72 207.459 103.091 207.378 103.489 207.378C104.077 207.378 104.559 207.51 104.934 207.775C105.309 208.032 105.585 208.385 105.761 208.834C105.945 209.283 106.037 209.79 106.037 210.357C106.037 210.923 105.945 211.43 105.761 211.879C105.577 212.328 105.294 212.681 104.912 212.938C104.529 213.196 104.04 213.324 103.445 213.324C103.15 213.324 102.886 213.295 102.65 213.236C102.415 213.17 102.209 213.078 102.032 212.96C101.856 212.843 101.701 212.71 101.569 212.563V215.354H100.631ZM103.367 212.497C103.794 212.497 104.132 212.401 104.382 212.21C104.632 212.011 104.813 211.75 104.923 211.427C105.041 211.103 105.099 210.746 105.099 210.357C105.099 209.959 105.041 209.599 104.923 209.275C104.813 208.952 104.629 208.694 104.371 208.503C104.114 208.312 103.772 208.216 103.345 208.216C102.963 208.216 102.635 208.316 102.363 208.514C102.099 208.705 101.896 208.967 101.757 209.297C101.617 209.621 101.547 209.978 101.547 210.368C101.547 210.772 101.613 211.136 101.746 211.46C101.878 211.783 102.08 212.037 102.352 212.221C102.624 212.405 102.963 212.497 103.367 212.497ZM109.029 213.324C108.764 213.324 108.507 213.291 108.257 213.225C108.014 213.151 107.793 213.045 107.595 212.905C107.403 212.758 107.249 212.578 107.131 212.364C107.021 212.144 106.966 211.89 106.966 211.603C106.966 211.272 107.025 210.993 107.142 210.765C107.267 210.537 107.433 210.357 107.639 210.224C107.845 210.092 108.084 209.996 108.356 209.937C108.628 209.879 108.911 209.849 109.205 209.849H110.915C110.915 209.518 110.868 209.231 110.772 208.989C110.684 208.746 110.537 208.558 110.331 208.426C110.125 208.286 109.853 208.216 109.514 208.216C109.308 208.216 109.117 208.238 108.941 208.283C108.764 208.327 108.613 208.397 108.488 208.492C108.363 208.588 108.271 208.716 108.212 208.878H107.209C107.26 208.613 107.359 208.389 107.506 208.205C107.661 208.014 107.845 207.86 108.058 207.742C108.279 207.617 108.514 207.525 108.764 207.466C109.014 207.407 109.264 207.378 109.514 207.378C110.073 207.378 110.522 207.492 110.86 207.72C111.199 207.941 111.445 208.257 111.599 208.669C111.754 209.073 111.831 209.555 111.831 210.114V213.258H111.048L110.993 212.519C110.831 212.74 110.636 212.909 110.408 213.026C110.18 213.144 109.945 213.221 109.702 213.258C109.466 213.302 109.242 213.324 109.029 213.324ZM109.117 212.497C109.485 212.497 109.801 212.438 110.066 212.32C110.338 212.195 110.548 212.015 110.695 211.78C110.842 211.544 110.915 211.258 110.915 210.919V210.632H109.889C109.647 210.632 109.408 210.636 109.172 210.643C108.937 210.651 108.724 210.68 108.532 210.732C108.341 210.783 108.187 210.871 108.069 210.996C107.959 211.121 107.904 211.302 107.904 211.537C107.904 211.758 107.959 211.938 108.069 212.078C108.187 212.217 108.338 212.324 108.521 212.398C108.713 212.464 108.911 212.497 109.117 212.497ZM114.559 213.258V208.271H112.562V207.444H117.494V208.271H115.497V213.258H114.559ZM118.248 213.258V207.444H119.208V209.662H120.488C120.834 209.662 121.142 209.691 121.415 209.75C121.694 209.801 121.933 209.893 122.132 210.026C122.33 210.158 122.481 210.338 122.584 210.566C122.694 210.787 122.75 211.07 122.75 211.416C122.75 211.732 122.694 212.008 122.584 212.243C122.474 212.471 122.319 212.662 122.121 212.817C121.922 212.964 121.683 213.074 121.404 213.148C121.131 213.221 120.83 213.258 120.499 213.258H118.248ZM119.208 212.442H119.76C120.017 212.442 120.264 212.434 120.499 212.42C120.742 212.405 120.962 212.368 121.161 212.309C121.359 212.25 121.514 212.155 121.624 212.022C121.742 211.883 121.801 211.691 121.801 211.449C121.801 211.213 121.753 211.033 121.657 210.908C121.569 210.776 121.451 210.68 121.304 210.621C121.157 210.555 120.995 210.515 120.819 210.5C120.65 210.485 120.481 210.478 120.311 210.478H119.208V212.442ZM126.779 213.258V207.444H127.717V209.948H128.732L130.453 207.444H131.523L129.581 210.213L131.688 213.258H130.585L128.842 210.765H127.717V213.258H126.779ZM132.418 213.258V207.444H134.668C134.926 207.444 135.18 207.462 135.43 207.499C135.687 207.529 135.919 207.595 136.125 207.698C136.338 207.793 136.507 207.937 136.632 208.128C136.765 208.319 136.831 208.573 136.831 208.889C136.831 209.081 136.801 209.257 136.742 209.419C136.684 209.573 136.595 209.709 136.478 209.827C136.367 209.945 136.224 210.048 136.047 210.136C136.445 210.224 136.731 210.397 136.908 210.654C137.084 210.912 137.173 211.206 137.173 211.537C137.173 211.831 137.118 212.089 137.007 212.309C136.904 212.523 136.757 212.699 136.566 212.839C136.382 212.979 136.165 213.085 135.915 213.159C135.672 213.225 135.411 213.258 135.132 213.258H132.418ZM133.378 212.442H134.911C135.139 212.442 135.352 212.42 135.551 212.375C135.75 212.331 135.911 212.25 136.036 212.133C136.161 212.008 136.224 211.831 136.224 211.603C136.224 211.368 136.169 211.191 136.058 211.074C135.956 210.949 135.819 210.864 135.65 210.82C135.488 210.768 135.312 210.739 135.121 210.732C134.93 210.724 134.749 210.721 134.58 210.721H133.378V212.442ZM133.378 209.926H134.183C134.33 209.926 134.499 209.919 134.69 209.904C134.889 209.89 135.08 209.856 135.264 209.805C135.455 209.746 135.61 209.658 135.728 209.54C135.853 209.423 135.915 209.261 135.915 209.055C135.915 208.783 135.838 208.595 135.683 208.492C135.536 208.382 135.36 208.319 135.154 208.305C134.948 208.283 134.757 208.271 134.58 208.271H133.378V209.926ZM140.234 213.324C139.969 213.324 139.711 213.291 139.461 213.225C139.219 213.151 138.998 213.045 138.799 212.905C138.608 212.758 138.454 212.578 138.336 212.364C138.226 212.144 138.171 211.89 138.171 211.603C138.171 211.272 138.229 210.993 138.347 210.765C138.472 210.537 138.638 210.357 138.844 210.224C139.05 210.092 139.289 209.996 139.561 209.937C139.833 209.879 140.116 209.849 140.41 209.849H142.12C142.12 209.518 142.072 209.231 141.977 208.989C141.888 208.746 141.741 208.558 141.535 208.426C141.33 208.286 141.057 208.216 140.719 208.216C140.513 208.216 140.322 208.238 140.145 208.283C139.969 208.327 139.818 208.397 139.693 208.492C139.568 208.588 139.476 208.716 139.417 208.878H138.413C138.465 208.613 138.564 208.389 138.711 208.205C138.866 208.014 139.05 207.86 139.263 207.742C139.483 207.617 139.719 207.525 139.969 207.466C140.219 207.407 140.469 207.378 140.719 207.378C141.278 207.378 141.727 207.492 142.065 207.72C142.403 207.941 142.65 208.257 142.804 208.669C142.959 209.073 143.036 209.555 143.036 210.114V213.258H142.253L142.197 212.519C142.036 212.74 141.841 212.909 141.613 213.026C141.385 213.144 141.149 213.221 140.907 213.258C140.671 213.302 140.447 213.324 140.234 213.324ZM140.322 212.497C140.69 212.497 141.006 212.438 141.271 212.32C141.543 212.195 141.752 212.015 141.9 211.78C142.047 211.544 142.12 211.258 142.12 210.919V210.632H141.094C140.851 210.632 140.612 210.636 140.377 210.643C140.142 210.651 139.928 210.68 139.737 210.732C139.546 210.783 139.392 210.871 139.274 210.996C139.164 211.121 139.108 211.302 139.108 211.537C139.108 211.758 139.164 211.938 139.274 212.078C139.392 212.217 139.542 212.324 139.726 212.398C139.917 212.464 140.116 212.497 140.322 212.497ZM144.407 215.354V207.444H145.3L145.344 208.338C145.543 208.021 145.812 207.782 146.15 207.621C146.496 207.459 146.867 207.378 147.264 207.378C147.852 207.378 148.334 207.51 148.709 207.775C149.084 208.032 149.36 208.385 149.537 208.834C149.721 209.283 149.813 209.79 149.813 210.357C149.813 210.923 149.721 211.43 149.537 211.879C149.353 212.328 149.07 212.681 148.687 212.938C148.305 213.196 147.816 213.324 147.22 213.324C146.926 213.324 146.661 213.295 146.426 213.236C146.19 213.17 145.984 213.078 145.808 212.96C145.631 212.843 145.477 212.71 145.344 212.563V215.354H144.407ZM147.143 212.497C147.569 212.497 147.908 212.401 148.158 212.21C148.408 212.011 148.588 211.75 148.698 211.427C148.816 211.103 148.875 210.746 148.875 210.357C148.875 209.959 148.816 209.599 148.698 209.275C148.588 208.952 148.404 208.694 148.147 208.503C147.889 208.312 147.547 208.216 147.121 208.216C146.738 208.216 146.411 208.316 146.139 208.514C145.874 208.705 145.672 208.967 145.532 209.297C145.392 209.621 145.322 209.978 145.322 210.368C145.322 210.772 145.389 211.136 145.521 211.46C145.653 211.783 145.856 212.037 146.128 212.221C146.4 212.405 146.738 212.497 147.143 212.497ZM152.297 213.258V208.271H150.3V207.444H155.231V208.271H153.235V213.258H152.297ZM155.986 213.258V207.444H156.924V211.901C156.975 211.798 157.045 211.688 157.134 211.57C157.222 211.445 157.292 211.349 157.343 211.283L160.156 207.444H161.083V213.258H160.145V208.801C160.087 208.911 160.02 209.014 159.947 209.11C159.881 209.206 159.818 209.294 159.759 209.375L156.902 213.258H155.986ZM162.476 215.354V207.444H163.37L163.414 208.338C163.613 208.021 163.881 207.782 164.219 207.621C164.565 207.459 164.936 207.378 165.334 207.378C165.922 207.378 166.404 207.51 166.779 207.775C167.154 208.032 167.43 208.385 167.606 208.834C167.79 209.283 167.882 209.79 167.882 210.357C167.882 210.923 167.79 211.43 167.606 211.879C167.422 212.328 167.139 212.681 166.757 212.938C166.374 213.196 165.885 213.324 165.29 213.324C164.995 213.324 164.731 213.295 164.495 213.236C164.26 213.17 164.054 213.078 163.877 212.96C163.701 212.843 163.546 212.71 163.414 212.563V215.354H162.476ZM165.212 212.497C165.639 212.497 165.977 212.401 166.227 212.21C166.477 212.011 166.658 211.75 166.768 211.427C166.886 211.103 166.944 210.746 166.944 210.357C166.944 209.959 166.886 209.599 166.768 209.275C166.658 208.952 166.474 208.694 166.216 208.503C165.959 208.312 165.617 208.216 165.19 208.216C164.808 208.216 164.48 208.316 164.208 208.514C163.944 208.705 163.741 208.967 163.602 209.297C163.462 209.621 163.392 209.978 163.392 210.368C163.392 210.772 163.458 211.136 163.591 211.46C163.723 211.783 163.925 212.037 164.197 212.221C164.469 212.405 164.808 212.497 165.212 212.497ZM169.197 215.751V214.858C169.557 214.858 169.844 214.806 170.057 214.703C170.271 214.608 170.447 214.453 170.587 214.24C170.734 214.034 170.874 213.769 171.006 213.446L168.458 207.444H169.561L171.525 212.342L173.135 207.444H174.195L172.562 212.022C172.481 212.258 172.389 212.523 172.286 212.817C172.183 213.111 172.069 213.409 171.944 213.71C171.819 214.019 171.679 214.302 171.525 214.56C171.378 214.825 171.212 215.038 171.028 215.2C170.874 215.339 170.723 215.45 170.576 215.531C170.429 215.612 170.249 215.667 170.035 215.696C169.829 215.733 169.55 215.751 169.197 215.751Z" fill="#FEFEFE"/>
<path d="M169.492 174.645V173.84L171.699 171.931C171.897 171.762 172.114 171.578 172.35 171.38C172.592 171.174 172.82 170.953 173.034 170.718C173.254 170.482 173.434 170.232 173.574 169.968C173.721 169.695 173.795 169.409 173.795 169.107C173.795 168.636 173.655 168.276 173.376 168.026C173.096 167.768 172.721 167.64 172.25 167.64C171.875 167.64 171.548 167.717 171.268 167.871C170.989 168.026 170.805 168.25 170.717 168.544H169.691C169.764 168.14 169.93 167.809 170.187 167.552C170.452 167.287 170.768 167.088 171.136 166.956C171.511 166.823 171.897 166.757 172.294 166.757C172.78 166.757 173.206 166.845 173.574 167.022C173.949 167.198 174.24 167.456 174.446 167.794C174.659 168.125 174.766 168.533 174.766 169.019C174.766 169.497 174.674 169.916 174.49 170.276C174.313 170.637 174.078 170.964 173.784 171.258C173.497 171.545 173.188 171.828 172.857 172.108L170.882 173.774H174.854V174.645H169.492ZM179.002 174.734C178.458 174.734 177.991 174.634 177.601 174.436C177.218 174.23 176.906 173.947 176.663 173.586C176.42 173.218 176.24 172.796 176.122 172.317C176.012 171.832 175.957 171.31 175.957 170.751C175.957 170.192 176.012 169.673 176.122 169.195C176.233 168.71 176.409 168.287 176.652 167.927C176.895 167.559 177.207 167.272 177.59 167.066C177.98 166.86 178.45 166.757 179.002 166.757C179.583 166.757 180.068 166.871 180.458 167.099C180.855 167.32 181.168 167.621 181.396 168.004C181.631 168.386 181.797 168.817 181.892 169.295C181.995 169.765 182.047 170.251 182.047 170.751C182.047 171.251 181.995 171.74 181.892 172.218C181.797 172.689 181.631 173.115 181.396 173.498C181.168 173.873 180.855 174.175 180.458 174.403C180.068 174.623 179.583 174.734 179.002 174.734ZM179.002 173.862C179.436 173.862 179.785 173.77 180.05 173.586C180.322 173.395 180.532 173.145 180.679 172.836C180.826 172.527 180.925 172.192 180.977 171.832C181.028 171.464 181.054 171.104 181.054 170.751C181.054 170.405 181.028 170.052 180.977 169.692C180.925 169.324 180.826 168.986 180.679 168.677C180.532 168.361 180.322 168.107 180.05 167.916C179.785 167.724 179.436 167.629 179.002 167.629C178.561 167.629 178.204 167.724 177.932 167.916C177.66 168.107 177.45 168.361 177.303 168.677C177.163 168.986 177.068 169.324 177.016 169.692C176.965 170.052 176.939 170.405 176.939 170.751C176.939 171.104 176.965 171.464 177.016 171.832C177.068 172.192 177.163 172.527 177.303 172.836C177.45 173.145 177.66 173.395 177.932 173.586C178.204 173.77 178.561 173.862 179.002 173.862ZM185.793 174.734C185.485 174.734 185.172 174.704 184.856 174.645C184.547 174.579 184.256 174.476 183.984 174.336C183.719 174.197 183.491 174.009 183.3 173.774C183.116 173.538 182.999 173.248 182.947 172.902H183.94C184.028 173.152 184.175 173.347 184.381 173.487C184.587 173.627 184.815 173.726 185.065 173.785C185.323 173.836 185.569 173.862 185.804 173.862C185.974 173.862 186.158 173.847 186.356 173.818C186.555 173.788 186.746 173.726 186.93 173.63C187.121 173.535 187.275 173.395 187.393 173.211C187.511 173.02 187.57 172.77 187.57 172.461C187.57 172.167 187.514 171.931 187.404 171.755C187.294 171.571 187.147 171.435 186.963 171.347C186.779 171.251 186.573 171.188 186.345 171.159C186.124 171.13 185.9 171.115 185.672 171.115H184.922V170.254H185.374C185.632 170.254 185.874 170.232 186.102 170.188C186.33 170.137 186.533 170.06 186.709 169.957C186.886 169.854 187.022 169.718 187.117 169.548C187.22 169.379 187.272 169.17 187.272 168.92C187.272 168.559 187.195 168.287 187.04 168.103C186.893 167.919 186.702 167.794 186.466 167.728C186.231 167.662 185.985 167.629 185.727 167.629C185.521 167.629 185.308 167.662 185.087 167.728C184.874 167.787 184.683 167.886 184.514 168.026C184.345 168.158 184.231 168.338 184.172 168.566H183.212C183.256 168.243 183.359 167.967 183.521 167.739C183.683 167.511 183.881 167.324 184.117 167.176C184.359 167.029 184.624 166.923 184.911 166.856C185.205 166.79 185.503 166.757 185.804 166.757C186.135 166.757 186.444 166.794 186.731 166.868C187.025 166.934 187.283 167.048 187.503 167.21C187.724 167.364 187.897 167.57 188.022 167.827C188.154 168.085 188.221 168.397 188.221 168.765C188.221 169.037 188.176 169.287 188.088 169.515C188 169.743 187.868 169.942 187.691 170.111C187.522 170.28 187.309 170.42 187.051 170.53C187.382 170.589 187.658 170.707 187.879 170.883C188.107 171.06 188.276 171.277 188.386 171.534C188.504 171.784 188.563 172.067 188.563 172.384C188.563 172.876 188.474 173.277 188.298 173.586C188.121 173.895 187.893 174.134 187.614 174.303C187.334 174.465 187.033 174.579 186.709 174.645C186.386 174.704 186.08 174.734 185.793 174.734ZM190.97 174.645V168.39H189.381V167.739C189.675 167.717 189.937 167.684 190.165 167.64C190.393 167.588 190.595 167.504 190.771 167.386C190.955 167.261 191.117 167.081 191.257 166.845H191.93V174.645H190.97ZM193.77 174.645V168.831H197.786V169.659H194.708V174.645H193.77ZM198.919 174.734C198.727 174.734 198.569 174.671 198.444 174.546C198.319 174.421 198.257 174.263 198.257 174.072C198.257 173.88 198.319 173.722 198.444 173.597C198.569 173.472 198.727 173.41 198.919 173.41C199.11 173.41 199.268 173.472 199.393 173.597C199.518 173.722 199.581 173.88 199.581 174.072C199.581 174.263 199.518 174.421 199.393 174.546C199.268 174.671 199.11 174.734 198.919 174.734Z" fill="#383838"/>
<path d="M172.438 104.84C171.827 104.84 171.316 104.715 170.904 104.465C170.492 104.208 170.184 103.855 169.978 103.406C169.779 102.958 169.68 102.446 169.68 101.873C169.68 101.292 169.779 100.78 169.978 100.339C170.184 99.8906 170.492 99.5375 170.904 99.2801C171.316 99.0227 171.835 98.894 172.46 98.894C173.07 98.894 173.578 99.0227 173.982 99.2801C174.394 99.5375 174.699 99.8906 174.898 100.339C175.104 100.78 175.207 101.292 175.207 101.873C175.207 102.446 175.104 102.958 174.898 103.406C174.692 103.855 174.383 104.208 173.971 104.465C173.567 104.715 173.056 104.84 172.438 104.84ZM172.438 104.013C172.864 104.013 173.21 103.917 173.475 103.726C173.747 103.535 173.946 103.277 174.071 102.954C174.203 102.63 174.269 102.27 174.269 101.873C174.269 101.476 174.203 101.115 174.071 100.792C173.946 100.468 173.747 100.21 173.475 100.019C173.21 99.828 172.864 99.7324 172.438 99.7324C172.019 99.7324 171.673 99.828 171.401 100.019C171.136 100.21 170.937 100.468 170.805 100.792C170.68 101.115 170.618 101.476 170.618 101.873C170.618 102.27 170.68 102.63 170.805 102.954C170.937 103.277 171.136 103.535 171.401 103.726C171.673 103.917 172.019 104.013 172.438 104.013ZM177.737 104.774V99.7876H175.74V98.9602H180.671V99.7876H178.674V104.774H177.737ZM185.443 104.774V98.5189H183.854V97.868C184.149 97.8459 184.41 97.8128 184.638 97.7687C184.866 97.7172 185.068 97.6326 185.244 97.5149C185.428 97.3899 185.59 97.2097 185.73 96.9744H186.403V104.774H185.443ZM189.369 104.774V98.5189H187.78V97.868C188.074 97.8459 188.336 97.8128 188.564 97.7687C188.792 97.7172 188.994 97.6326 189.17 97.5149C189.354 97.3899 189.516 97.2097 189.656 96.9744H190.329V104.774H189.369ZM192.831 104.862C192.64 104.862 192.482 104.8 192.357 104.675C192.232 104.55 192.17 104.392 192.17 104.2C192.17 104.009 192.232 103.851 192.357 103.726C192.482 103.601 192.64 103.539 192.831 103.539C193.023 103.539 193.181 103.601 193.306 103.726C193.431 103.851 193.493 104.009 193.493 104.2C193.493 104.392 193.431 104.55 193.306 104.675C193.181 104.8 193.023 104.862 192.831 104.862ZM195.799 104.774V98.5189H194.21V97.868C194.504 97.8459 194.765 97.8128 194.993 97.7687C195.221 97.7172 195.423 97.6326 195.6 97.5149C195.784 97.3899 195.946 97.2097 196.085 96.9744H196.758V104.774H195.799ZM201.491 104.774V98.9602H202.748L204.635 101.873L206.488 98.9602H207.724V104.774H206.797V99.9972L204.745 103.285H204.481L202.418 99.9972V104.774H201.491ZM208.593 104.785V103.969C208.74 103.969 208.873 103.939 208.99 103.881C209.108 103.814 209.211 103.719 209.299 103.594C209.402 103.447 209.483 103.233 209.542 102.954C209.601 102.674 209.641 102.376 209.663 102.06C209.693 101.707 209.715 101.362 209.73 101.023C209.744 100.678 209.755 100.336 209.763 99.9972C209.777 99.6589 209.785 99.3132 209.785 98.9602H213.823V104.774H212.885V99.7876H210.7C210.693 100.038 210.682 100.291 210.667 100.549C210.66 100.799 210.649 101.053 210.634 101.31C210.627 101.56 210.616 101.814 210.601 102.071C210.594 102.365 210.564 102.696 210.513 103.064C210.461 103.432 210.351 103.767 210.182 104.068C210.02 104.355 209.822 104.546 209.586 104.642C209.358 104.737 209.027 104.785 208.593 104.785ZM215.214 104.774V98.9602H216.152V101.509H219.065V98.9602H220.002V104.774H219.065V102.336H216.152V104.774H215.214ZM224.515 104.774V96.9744H227.218C227.792 96.9744 228.284 97.07 228.696 97.2612C229.108 97.4451 229.421 97.7282 229.634 98.1107C229.855 98.4931 229.965 98.9786 229.965 99.5669C229.965 100.141 229.836 100.626 229.579 101.023C229.329 101.413 228.983 101.707 228.542 101.906C228.1 102.104 227.593 102.204 227.019 102.204H225.475V104.774H224.515ZM225.475 101.332H226.975C227.571 101.332 228.053 101.192 228.42 100.913C228.795 100.626 228.983 100.163 228.983 99.5228C228.983 98.9638 228.832 98.5446 228.531 98.2651C228.229 97.9857 227.777 97.8459 227.174 97.8459H225.475V101.332Z" fill="#383838"/>
<path d="M21.5975 130.604C21.2886 130.604 20.976 130.575 20.6597 130.516C20.3508 130.45 20.0603 130.347 19.7882 130.207C19.5234 130.067 19.2954 129.88 19.1042 129.645C18.9203 129.409 18.8026 129.119 18.7511 128.773H19.7441C19.8323 129.023 19.9794 129.218 20.1853 129.358C20.3913 129.497 20.6193 129.597 20.8693 129.656C21.1268 129.707 21.3731 129.733 21.6085 129.733C21.7777 129.733 21.9615 129.718 22.1601 129.689C22.3587 129.659 22.5499 129.597 22.7338 129.501C22.925 129.406 23.0795 129.266 23.1971 129.082C23.3148 128.891 23.3737 128.641 23.3737 128.332C23.3737 128.038 23.3185 127.802 23.2082 127.626C23.0979 127.442 22.9508 127.306 22.7669 127.217C22.583 127.122 22.3771 127.059 22.1491 127.03C21.9284 127.001 21.7041 126.986 21.4761 126.986H20.7259V126.125H21.1782C21.4357 126.125 21.6784 126.103 21.9064 126.059C22.1344 126.008 22.3366 125.93 22.5131 125.827C22.6897 125.724 22.8257 125.588 22.9213 125.419C23.0243 125.25 23.0758 125.04 23.0758 124.79C23.0758 124.43 22.9986 124.158 22.8441 123.974C22.697 123.79 22.5058 123.665 22.2704 123.599C22.0351 123.533 21.7887 123.5 21.5313 123.5C21.3253 123.5 21.1121 123.533 20.8914 123.599C20.6781 123.658 20.4869 123.757 20.3177 123.897C20.1486 124.029 20.0346 124.209 19.9757 124.437H19.0159C19.0601 124.114 19.163 123.838 19.3248 123.61C19.4866 123.382 19.6852 123.194 19.9206 123.047C20.1633 122.9 20.4281 122.794 20.7149 122.727C21.0091 122.661 21.307 122.628 21.6085 122.628C21.9395 122.628 22.2484 122.665 22.5352 122.738C22.8294 122.805 23.0868 122.919 23.3075 123.08C23.5281 123.235 23.701 123.441 23.826 123.698C23.9584 123.956 24.0246 124.268 24.0246 124.636C24.0246 124.908 23.9804 125.158 23.8922 125.386C23.8039 125.614 23.6715 125.813 23.495 125.982C23.3259 126.151 23.1126 126.291 22.8551 126.401C23.1861 126.46 23.4619 126.578 23.6826 126.754C23.9106 126.931 24.0797 127.148 24.1901 127.405C24.3077 127.655 24.3666 127.938 24.3666 128.255C24.3666 128.747 24.2783 129.148 24.1018 129.457C23.9253 129.766 23.6973 130.005 23.4178 130.174C23.1383 130.336 22.8368 130.45 22.5131 130.516C22.1895 130.575 21.8843 130.604 21.5975 130.604ZM28.5402 130.516V124.702H29.478V127.206H30.493L32.214 124.702H33.2841L31.3424 127.471L33.4496 130.516H32.3464L30.6033 128.023H29.478V130.516H28.5402ZM36.6088 130.582C35.9984 130.582 35.4872 130.457 35.0754 130.207C34.6635 129.95 34.3546 129.597 34.1487 129.148C33.9501 128.699 33.8508 128.188 33.8508 127.615C33.8508 127.034 33.9501 126.522 34.1487 126.081C34.3546 125.633 34.6635 125.279 35.0754 125.022C35.4872 124.765 36.0058 124.636 36.6309 124.636C37.2414 124.636 37.7488 124.765 38.1534 125.022C38.5652 125.279 38.8705 125.633 39.069 126.081C39.275 126.522 39.3779 127.034 39.3779 127.615C39.3779 128.188 39.275 128.699 39.069 129.148C38.8631 129.597 38.5542 129.95 38.1423 130.207C37.7378 130.457 37.2267 130.582 36.6088 130.582ZM36.6088 129.755C37.0354 129.755 37.3811 129.659 37.6459 129.468C37.918 129.277 38.1166 129.019 38.2416 128.696C38.374 128.372 38.4402 128.012 38.4402 127.615C38.4402 127.217 38.374 126.857 38.2416 126.533C38.1166 126.21 37.918 125.952 37.6459 125.761C37.3811 125.57 37.0354 125.474 36.6088 125.474C36.1896 125.474 35.8439 125.57 35.5718 125.761C35.307 125.952 35.1085 126.21 34.9761 126.533C34.851 126.857 34.7885 127.217 34.7885 127.615C34.7885 128.012 34.851 128.372 34.9761 128.696C35.1085 129.019 35.307 129.277 35.5718 129.468C35.8439 129.659 36.1896 129.755 36.6088 129.755ZM40.5507 130.516V124.702H41.8084L43.6949 127.615L45.5483 124.702H46.7839V130.516H45.8572V125.739L43.8052 129.027H43.5404L41.4774 125.739V130.516H40.5507ZM48.1828 130.516V124.702H49.1205V127.251H52.033V124.702H52.9708V130.516H52.033V128.078H49.1205V130.516H48.1828ZM56.2356 130.582C55.9708 130.582 55.7134 130.549 55.4633 130.483C55.2206 130.409 55 130.303 54.8014 130.163C54.6102 130.016 54.4557 129.836 54.338 129.623C54.2277 129.402 54.1726 129.148 54.1726 128.861C54.1726 128.53 54.2314 128.251 54.3491 128.023C54.4741 127.795 54.6396 127.615 54.8455 127.482C55.0515 127.35 55.2905 127.254 55.5626 127.195C55.8348 127.137 56.1179 127.107 56.4121 127.107H58.1221C58.1221 126.776 58.0743 126.489 57.9787 126.247C57.8904 126.004 57.7433 125.816 57.5374 125.684C57.3315 125.544 57.0593 125.474 56.721 125.474C56.5151 125.474 56.3238 125.496 56.1473 125.541C55.9708 125.585 55.82 125.655 55.695 125.75C55.57 125.846 55.478 125.975 55.4192 126.136H54.4153C54.4668 125.872 54.566 125.647 54.7131 125.463C54.8676 125.272 55.0515 125.118 55.2648 125C55.4854 124.875 55.7208 124.783 55.9708 124.724C56.2209 124.665 56.4709 124.636 56.721 124.636C57.28 124.636 57.7286 124.75 58.0669 124.978C58.4053 125.199 58.6517 125.515 58.8061 125.927C58.9606 126.331 59.0378 126.813 59.0378 127.372V130.516H58.2545L58.1993 129.777C58.0375 129.998 57.8426 130.167 57.6146 130.284C57.3866 130.402 57.1513 130.479 56.9086 130.516C56.6732 130.56 56.4489 130.582 56.2356 130.582ZM56.3238 129.755C56.6916 129.755 57.0078 129.696 57.2726 129.578C57.5448 129.453 57.7544 129.273 57.9015 129.038C58.0486 128.802 58.1221 128.516 58.1221 128.177V127.89H57.0961C56.8534 127.89 56.6144 127.894 56.379 127.901C56.1437 127.909 55.9304 127.938 55.7391 127.99C55.5479 128.041 55.3935 128.129 55.2758 128.255C55.1655 128.38 55.1103 128.56 55.1103 128.795C55.1103 129.016 55.1655 129.196 55.2758 129.336C55.3935 129.475 55.5442 129.582 55.7281 129.656C55.9193 129.722 56.1179 129.755 56.3238 129.755ZM61.7657 130.516V125.53H59.7688V124.702H64.7002V125.53H62.7034V130.516H61.7657ZM65.4551 130.516V124.702H66.3928V127.251H69.3053V124.702H70.2431V130.516H69.3053V128.078H66.3928V130.516H65.4551ZM73.5079 130.582C73.2431 130.582 72.9857 130.549 72.7356 130.483C72.4929 130.409 72.2723 130.303 72.0737 130.163C71.8825 130.016 71.728 129.836 71.6103 129.623C71.5 129.402 71.4449 129.148 71.4449 128.861C71.4449 128.53 71.5037 128.251 71.6214 128.023C71.7464 127.795 71.9119 127.615 72.1178 127.482C72.3238 127.35 72.5628 127.254 72.8349 127.195C73.1071 127.137 73.3902 127.107 73.6844 127.107H75.3944C75.3944 126.776 75.3466 126.489 75.251 126.247C75.1627 126.004 75.0156 125.816 74.8097 125.684C74.6038 125.544 74.3316 125.474 73.9933 125.474C73.7874 125.474 73.5961 125.496 73.4196 125.541C73.2431 125.585 73.0923 125.655 72.9673 125.75C72.8423 125.846 72.7503 125.975 72.6915 126.136H71.6876C71.7391 125.872 71.8383 125.647 71.9854 125.463C72.1399 125.272 72.3238 125.118 72.5371 125C72.7577 124.875 72.9931 124.783 73.2431 124.724C73.4932 124.665 73.7432 124.636 73.9933 124.636C74.5523 124.636 75.0009 124.75 75.3392 124.978C75.6776 125.199 75.924 125.515 76.0784 125.927C76.2329 126.331 76.3101 126.813 76.3101 127.372V130.516H75.5268L75.4716 129.777C75.3098 129.998 75.1149 130.167 74.8869 130.284C74.6589 130.402 74.4236 130.479 74.1809 130.516C73.9455 130.56 73.7212 130.582 73.5079 130.582ZM73.5961 129.755C73.9639 129.755 74.2801 129.696 74.5449 129.578C74.8171 129.453 75.0267 129.273 75.1738 129.038C75.3209 128.802 75.3944 128.516 75.3944 128.177V127.89H74.3684C74.1257 127.89 73.8867 127.894 73.6513 127.901C73.416 127.909 73.2027 127.938 73.0114 127.99C72.8202 128.041 72.6658 128.129 72.5481 128.255C72.4378 128.38 72.3826 128.56 72.3826 128.795C72.3826 129.016 72.4378 129.196 72.5481 129.336C72.6658 129.475 72.8165 129.582 73.0004 129.656C73.1916 129.722 73.3902 129.755 73.5961 129.755ZM77.3169 130.516L78.8283 128.221C78.4091 128.104 78.0781 127.913 77.8354 127.648C77.5927 127.376 77.4714 127.015 77.4714 126.567C77.4714 126.214 77.5229 125.919 77.6258 125.684C77.7288 125.441 77.8796 125.25 78.0781 125.11C78.2767 124.963 78.5158 124.86 78.7952 124.801C79.0747 124.735 79.3947 124.702 79.7551 124.702H82.0939V130.516H81.1561V128.365H79.8212L78.4091 130.516H77.3169ZM80.4611 127.548H81.1561V125.53H79.9095C79.6889 125.53 79.4866 125.541 79.3027 125.563C79.1189 125.585 78.9607 125.633 78.8283 125.706C78.7033 125.772 78.604 125.872 78.5305 126.004C78.4569 126.129 78.4201 126.302 78.4201 126.522C78.4201 126.765 78.479 126.956 78.5967 127.096C78.7217 127.236 78.8798 127.339 79.0711 127.405C79.2696 127.464 79.4903 127.504 79.733 127.526C79.9757 127.541 80.2184 127.548 80.4611 127.548Z" fill="#26BDA9"/>
<path d="M170.599 130.582C169.989 130.582 169.478 130.457 169.066 130.207C168.654 129.95 168.345 129.597 168.139 129.148C167.94 128.699 167.841 128.188 167.841 127.615C167.841 127.034 167.94 126.522 168.139 126.081C168.345 125.633 168.654 125.279 169.066 125.022C169.478 124.765 169.996 124.636 170.621 124.636C171.232 124.636 171.739 124.765 172.144 125.022C172.556 125.279 172.861 125.633 173.059 126.081C173.265 126.522 173.368 127.034 173.368 127.615C173.368 128.188 173.265 128.699 173.059 129.148C172.853 129.597 172.545 129.95 172.133 130.207C171.728 130.457 171.217 130.582 170.599 130.582ZM170.599 129.755C171.026 129.755 171.371 129.659 171.636 129.468C171.908 129.277 172.107 129.019 172.232 128.696C172.364 128.372 172.431 128.012 172.431 127.615C172.431 127.217 172.364 126.857 172.232 126.533C172.107 126.21 171.908 125.952 171.636 125.761C171.371 125.57 171.026 125.474 170.599 125.474C170.18 125.474 169.834 125.57 169.562 125.761C169.297 125.952 169.099 126.21 168.966 126.533C168.841 126.857 168.779 127.217 168.779 127.615C168.779 128.012 168.841 128.372 168.966 128.696C169.099 129.019 169.297 129.277 169.562 129.468C169.834 129.659 170.18 129.755 170.599 129.755ZM175.898 130.516V125.53H173.901V124.702H178.833V125.53H176.836V130.516H175.898ZM182.071 130.516V129.711L184.277 127.802C184.476 127.633 184.693 127.449 184.928 127.251C185.171 127.045 185.399 126.824 185.612 126.589C185.833 126.353 186.013 126.103 186.153 125.838C186.3 125.566 186.373 125.279 186.373 124.978C186.373 124.507 186.234 124.147 185.954 123.897C185.675 123.639 185.3 123.511 184.829 123.511C184.454 123.511 184.126 123.588 183.847 123.742C183.568 123.897 183.384 124.121 183.295 124.415H182.269C182.343 124.011 182.508 123.68 182.766 123.422C183.031 123.158 183.347 122.959 183.715 122.827C184.09 122.694 184.476 122.628 184.873 122.628C185.358 122.628 185.785 122.716 186.153 122.893C186.528 123.069 186.818 123.327 187.024 123.665C187.238 123.996 187.344 124.404 187.344 124.89C187.344 125.368 187.252 125.787 187.068 126.147C186.892 126.508 186.657 126.835 186.362 127.129C186.076 127.416 185.767 127.699 185.436 127.979L183.461 129.645H187.432V130.516H182.071ZM189.771 130.516V124.261H188.182V123.61C188.477 123.588 188.738 123.555 188.966 123.511C189.194 123.459 189.396 123.375 189.573 123.257C189.756 123.132 189.918 122.952 190.058 122.716H190.731V130.516H189.771ZM193.234 130.604C193.042 130.604 192.884 130.542 192.759 130.417C192.634 130.292 192.572 130.134 192.572 129.942C192.572 129.751 192.634 129.593 192.759 129.468C192.884 129.343 193.042 129.281 193.234 129.281C193.425 129.281 193.583 129.343 193.708 129.468C193.833 129.593 193.896 129.751 193.896 129.942C193.896 130.134 193.833 130.292 193.708 130.417C193.583 130.542 193.425 130.604 193.234 130.604ZM196.201 130.516V124.261H194.612V123.61C194.906 123.588 195.167 123.555 195.395 123.511C195.623 123.459 195.826 123.375 196.002 123.257C196.186 123.132 196.348 122.952 196.488 122.716H197.161V130.516H196.201ZM201.893 130.516V124.702H203.151L205.037 127.615L206.891 124.702H208.126V130.516H207.2V125.739L205.148 129.027H204.883L202.82 125.739V130.516H201.893ZM208.996 130.527V129.711C209.143 129.711 209.275 129.681 209.393 129.623C209.51 129.556 209.613 129.461 209.702 129.336C209.805 129.189 209.886 128.975 209.944 128.696C210.003 128.416 210.044 128.118 210.066 127.802C210.095 127.449 210.117 127.103 210.132 126.765C210.147 126.419 210.158 126.077 210.165 125.739C210.18 125.401 210.187 125.055 210.187 124.702H214.225V130.516H213.287V125.53H211.103C211.095 125.78 211.084 126.033 211.07 126.291C211.062 126.541 211.051 126.795 211.037 127.052C211.029 127.302 211.018 127.556 211.003 127.813C210.996 128.107 210.967 128.438 210.915 128.806C210.864 129.174 210.753 129.509 210.584 129.81C210.422 130.097 210.224 130.288 209.988 130.384C209.76 130.479 209.43 130.527 208.996 130.527ZM215.617 130.516V124.702H216.554V127.251H219.467V124.702H220.405V130.516H219.467V128.078H216.554V130.516H215.617ZM224.917 130.516V122.716H227.62C228.194 122.716 228.687 122.812 229.098 123.003C229.51 123.187 229.823 123.47 230.036 123.853C230.257 124.235 230.367 124.721 230.367 125.309C230.367 125.883 230.238 126.368 229.981 126.765C229.731 127.155 229.385 127.449 228.944 127.648C228.503 127.846 227.995 127.946 227.422 127.946H225.877V130.516H224.917ZM225.877 127.074H227.377C227.973 127.074 228.455 126.934 228.823 126.655C229.198 126.368 229.385 125.905 229.385 125.265C229.385 124.706 229.234 124.287 228.933 124.007C228.631 123.728 228.179 123.588 227.576 123.588H225.877V127.074Z" fill="#383838"/>
<path d="M169.426 75.3547V74.2184L171.599 72.3871C171.776 72.24 171.971 72.0782 172.184 71.9016C172.397 71.7251 172.6 71.5339 172.791 71.328C172.989 71.1147 173.155 70.894 173.287 70.666C173.42 70.438 173.486 70.199 173.486 69.9489C173.486 69.5738 173.372 69.2796 173.144 69.0663C172.923 68.8531 172.607 68.7464 172.195 68.7464C171.835 68.7464 171.541 68.8236 171.313 68.9781C171.085 69.1325 170.941 69.3422 170.882 69.6069H169.525C169.577 69.1142 169.735 68.7133 170 68.4044C170.272 68.0882 170.606 67.8528 171.004 67.6983C171.401 67.5365 171.816 67.4556 172.25 67.4556C172.743 67.4556 173.184 67.5476 173.574 67.7314C173.964 67.908 174.273 68.1727 174.501 68.5258C174.736 68.8714 174.854 69.2943 174.854 69.7945C174.854 70.2431 174.766 70.6476 174.589 71.008C174.42 71.3684 174.188 71.6994 173.894 72.0009C173.607 72.2951 173.291 72.5856 172.945 72.8725L171.456 74.0971H174.876V75.3547H169.426ZM177.006 75.3547V69.4525H175.462V68.4485C175.763 68.4338 176.032 68.4007 176.267 68.3493C176.502 68.2978 176.712 68.2095 176.896 68.0845C177.087 67.9594 177.256 67.7829 177.403 67.5549H178.385V75.3547H177.006Z" fill="#333333"/>
<path d="M25.7419 42.0404L19.8911 36.1896C18.734 35.0324 17.9459 33.5581 17.6267 31.9531C17.3074 30.348 17.4713 28.6844 18.0976 27.1725C18.7238 25.6606 19.7843 24.3683 21.145 23.4591C22.5057 22.55 24.1054 22.0647 25.7419 22.0647C27.3784 22.0647 28.9781 22.55 30.3388 23.4591C31.6995 24.3683 32.76 25.6606 33.3863 27.1725C34.0125 28.6844 34.1764 30.348 33.8571 31.9531C33.5379 33.5581 32.7498 35.0324 31.5927 36.1896L25.7419 42.0404ZM30.2927 34.8896C31.1927 33.9896 31.8055 32.8429 32.0538 31.5945C32.302 30.3462 32.1746 29.0523 31.6875 27.8764C31.2004 26.7005 30.3755 25.6954 29.3172 24.9883C28.2589 24.2812 27.0147 23.9038 25.7419 23.9038C24.4691 23.9038 23.2249 24.2812 22.1666 24.9883C21.1083 25.6954 20.2835 26.7005 19.7964 27.8764C19.3093 29.0523 19.1818 30.3462 19.43 31.5945C19.6783 32.8429 20.2912 33.9896 21.1911 34.8896L25.7419 39.4404L30.2927 34.8896ZM25.7419 32.1775C25.2543 32.1775 24.7866 31.9838 24.4417 31.639C24.0969 31.2942 23.9032 30.8265 23.9032 30.3388C23.9032 29.8512 24.0969 29.3835 24.4417 29.0387C24.7866 28.6938 25.2543 28.5001 25.7419 28.5001C26.2296 28.5001 26.6972 28.6938 27.0421 29.0387C27.3869 29.3835 27.5806 29.8512 27.5806 30.3388C27.5806 30.8265 27.3869 31.2942 27.0421 31.639C26.6972 31.9838 26.2296 32.1775 25.7419 32.1775Z" fill="#26BDA9"/>
</svg>
