<svg width="133" height="124" viewBox="0 0 133 124" fill="none" xmlns="http://www.w3.org/2000/svg">
<rect width="133" height="119" rx="10" fill="white"/>
<path d="M10.522 38V33.758H11.044V35.714H11.674L13.054 33.758H13.654L12.13 35.864L13.666 38H13.048L11.716 36.188H11.044V38H10.522ZM15.3703 38.036C15.0383 38.036 14.7603 37.968 14.5363 37.832C14.3123 37.692 14.1443 37.5 14.0323 37.256C13.9243 37.012 13.8703 36.734 13.8703 36.422C13.8703 36.106 13.9243 35.828 14.0323 35.588C14.1443 35.344 14.3123 35.152 14.5363 35.012C14.7603 34.872 15.0423 34.802 15.3823 34.802C15.7143 34.802 15.9903 34.872 16.2103 35.012C16.4343 35.152 16.6003 35.344 16.7083 35.588C16.8203 35.828 16.8763 36.106 16.8763 36.422C16.8763 36.734 16.8203 37.012 16.7083 37.256C16.5963 37.5 16.4283 37.692 16.2043 37.832C15.9843 37.968 15.7063 38.036 15.3703 38.036ZM15.3703 37.586C15.6023 37.586 15.7903 37.534 15.9343 37.43C16.0823 37.326 16.1903 37.186 16.2583 37.01C16.3303 36.834 16.3663 36.638 16.3663 36.422C16.3663 36.206 16.3303 36.01 16.2583 35.834C16.1903 35.658 16.0823 35.518 15.9343 35.414C15.7903 35.31 15.6023 35.258 15.3703 35.258C15.1423 35.258 14.9543 35.31 14.8063 35.414C14.6623 35.518 14.5543 35.658 14.4823 35.834C14.4143 36.01 14.3803 36.206 14.3803 36.422C14.3803 36.638 14.4143 36.834 14.4823 37.01C14.5543 37.186 14.6623 37.326 14.8063 37.43C14.9543 37.534 15.1423 37.586 15.3703 37.586ZM17.1968 38.006V37.562C17.2768 37.562 17.3488 37.546 17.4128 37.514C17.4768 37.478 17.5328 37.426 17.5808 37.358C17.6368 37.278 17.6808 37.162 17.7128 37.01C17.7448 36.858 17.7668 36.696 17.7788 36.524C17.7948 36.332 17.8068 36.144 17.8148 35.96C17.8228 35.772 17.8288 35.586 17.8328 35.402C17.8408 35.218 17.8448 35.03 17.8448 34.838H20.0408V38H19.5308V35.288H18.3428C18.3388 35.424 18.3328 35.562 18.3248 35.702C18.3208 35.838 18.3148 35.976 18.3068 36.116C18.3028 36.252 18.2968 36.39 18.2888 36.53C18.2848 36.69 18.2688 36.87 18.2408 37.07C18.2128 37.27 18.1528 37.452 18.0608 37.616C17.9728 37.772 17.8648 37.876 17.7368 37.928C17.6128 37.98 17.4328 38.006 17.1968 38.006ZM20.8397 36.542V36.074H22.6997V36.542H20.8397ZM23.5012 38V34.838H24.7252C24.8652 34.838 25.0032 34.848 25.1392 34.868C25.2792 34.884 25.4052 34.92 25.5172 34.976C25.6332 35.028 25.7252 35.106 25.7932 35.21C25.8652 35.314 25.9012 35.452 25.9012 35.624C25.9012 35.728 25.8852 35.824 25.8532 35.912C25.8212 35.996 25.7732 36.07 25.7092 36.134C25.6492 36.198 25.5712 36.254 25.4752 36.302C25.6912 36.35 25.8472 36.444 25.9432 36.584C26.0392 36.724 26.0872 36.884 26.0872 37.064C26.0872 37.224 26.0572 37.364 25.9972 37.484C25.9412 37.6 25.8612 37.696 25.7572 37.772C25.6572 37.848 25.5392 37.906 25.4032 37.946C25.2712 37.982 25.1292 38 24.9772 38H23.5012ZM24.0232 37.556H24.8572C24.9812 37.556 25.0972 37.544 25.2052 37.52C25.3132 37.496 25.4012 37.452 25.4692 37.388C25.5372 37.32 25.5712 37.224 25.5712 37.1C25.5712 36.972 25.5412 36.876 25.4812 36.812C25.4252 36.744 25.3512 36.698 25.2592 36.674C25.1712 36.646 25.0752 36.63 24.9712 36.626C24.8672 36.622 24.7692 36.62 24.6772 36.62H24.0232V37.556ZM24.0232 36.188H24.4612C24.5412 36.188 24.6332 36.184 24.7372 36.176C24.8452 36.168 24.9492 36.15 25.0492 36.122C25.1532 36.09 25.2372 36.042 25.3012 35.978C25.3692 35.914 25.4032 35.826 25.4032 35.714C25.4032 35.566 25.3612 35.464 25.2772 35.408C25.1972 35.348 25.1012 35.314 24.9892 35.306C24.8772 35.294 24.7732 35.288 24.6772 35.288H24.0232V36.188ZM28.1179 38.036C27.7859 38.036 27.5079 37.968 27.2839 37.832C27.0599 37.692 26.8919 37.5 26.7799 37.256C26.6719 37.012 26.6179 36.734 26.6179 36.422C26.6179 36.106 26.6719 35.828 26.7799 35.588C26.8919 35.344 27.0599 35.152 27.2839 35.012C27.5079 34.872 27.7899 34.802 28.1299 34.802C28.4619 34.802 28.7379 34.872 28.9579 35.012C29.1819 35.152 29.3479 35.344 29.4559 35.588C29.5679 35.828 29.6239 36.106 29.6239 36.422C29.6239 36.734 29.5679 37.012 29.4559 37.256C29.3439 37.5 29.1759 37.692 28.9519 37.832C28.7319 37.968 28.4539 38.036 28.1179 38.036ZM28.1179 37.586C28.3499 37.586 28.5379 37.534 28.6819 37.43C28.8299 37.326 28.9379 37.186 29.0059 37.01C29.0779 36.834 29.1139 36.638 29.1139 36.422C29.1139 36.206 29.0779 36.01 29.0059 35.834C28.9379 35.658 28.8299 35.518 28.6819 35.414C28.5379 35.31 28.3499 35.258 28.1179 35.258C27.8899 35.258 27.7019 35.31 27.5539 35.414C27.4099 35.518 27.3019 35.658 27.2299 35.834C27.1619 36.01 27.1279 36.206 27.1279 36.422C27.1279 36.638 27.1619 36.834 27.2299 37.01C27.3019 37.186 27.4099 37.326 27.5539 37.43C27.7019 37.534 27.8899 37.586 28.1179 37.586ZM31.8343 38V34.838H32.3443V36.2H32.8963L33.8323 34.838H34.4143L33.3583 36.344L34.5043 38H33.9043L32.9563 36.644H32.3443V38H31.8343ZM34.9011 38V34.838H36.1251C36.2651 34.838 36.4031 34.848 36.5391 34.868C36.6791 34.884 36.8051 34.92 36.9171 34.976C37.0331 35.028 37.1251 35.106 37.1931 35.21C37.2651 35.314 37.3011 35.452 37.3011 35.624C37.3011 35.728 37.2851 35.824 37.2531 35.912C37.2211 35.996 37.1731 36.07 37.1091 36.134C37.0491 36.198 36.9711 36.254 36.8751 36.302C37.0911 36.35 37.2471 36.444 37.3431 36.584C37.4391 36.724 37.4871 36.884 37.4871 37.064C37.4871 37.224 37.4571 37.364 37.3971 37.484C37.3411 37.6 37.2611 37.696 37.1571 37.772C37.0571 37.848 36.9391 37.906 36.8031 37.946C36.6711 37.982 36.5291 38 36.3771 38H34.9011ZM35.4231 37.556H36.2571C36.3811 37.556 36.4971 37.544 36.6051 37.52C36.7131 37.496 36.8011 37.452 36.8691 37.388C36.9371 37.32 36.9711 37.224 36.9711 37.1C36.9711 36.972 36.9411 36.876 36.8811 36.812C36.8251 36.744 36.7511 36.698 36.6591 36.674C36.5711 36.646 36.4751 36.63 36.3711 36.626C36.2671 36.622 36.1691 36.62 36.0771 36.62H35.4231V37.556ZM35.4231 36.188H35.8611C35.9411 36.188 36.0331 36.184 36.1371 36.176C36.2451 36.168 36.3491 36.15 36.4491 36.122C36.5531 36.09 36.6371 36.042 36.7011 35.978C36.7691 35.914 36.8031 35.826 36.8031 35.714C36.8031 35.566 36.7611 35.464 36.6771 35.408C36.5971 35.348 36.5011 35.314 36.3891 35.306C36.2771 35.294 36.1731 35.288 36.0771 35.288H35.4231V36.188ZM39.1518 38.036C39.0078 38.036 38.8678 38.018 38.7318 37.982C38.5998 37.942 38.4798 37.884 38.3718 37.808C38.2678 37.728 38.1838 37.63 38.1198 37.514C38.0598 37.394 38.0298 37.256 38.0298 37.1C38.0298 36.92 38.0618 36.768 38.1258 36.644C38.1938 36.52 38.2838 36.422 38.3958 36.35C38.5078 36.278 38.6378 36.226 38.7858 36.194C38.9338 36.162 39.0878 36.146 39.2478 36.146H40.1778C40.1778 35.966 40.1518 35.81 40.0998 35.678C40.0518 35.546 39.9718 35.444 39.8598 35.372C39.7478 35.296 39.5998 35.258 39.4158 35.258C39.3038 35.258 39.1998 35.27 39.1038 35.294C39.0078 35.318 38.9258 35.356 38.8578 35.408C38.7898 35.46 38.7398 35.53 38.7078 35.618H38.1618C38.1898 35.474 38.2438 35.352 38.3238 35.252C38.4078 35.148 38.5078 35.064 38.6238 35C38.7438 34.932 38.8718 34.882 39.0078 34.85C39.1438 34.818 39.2798 34.802 39.4158 34.802C39.7198 34.802 39.9638 34.864 40.1478 34.988C40.3318 35.108 40.4658 35.28 40.5498 35.504C40.6338 35.724 40.6758 35.986 40.6758 36.29V38H40.2498L40.2198 37.598C40.1318 37.718 40.0258 37.81 39.9018 37.874C39.7778 37.938 39.6498 37.98 39.5178 38C39.3898 38.024 39.2678 38.036 39.1518 38.036ZM39.1998 37.586C39.3998 37.586 39.5718 37.554 39.7158 37.49C39.8638 37.422 39.9778 37.324 40.0578 37.196C40.1378 37.068 40.1778 36.912 40.1778 36.728V36.572H39.6198C39.4878 36.572 39.3578 36.574 39.2298 36.578C39.1018 36.582 38.9858 36.598 38.8818 36.626C38.7778 36.654 38.6938 36.702 38.6298 36.77C38.5698 36.838 38.5398 36.936 38.5398 37.064C38.5398 37.184 38.5698 37.282 38.6298 37.358C38.6938 37.434 38.7758 37.492 38.8758 37.532C38.9798 37.568 39.0878 37.586 39.1998 37.586ZM41.4214 39.14V34.838H41.9074L41.9314 35.324C42.0394 35.152 42.1854 35.022 42.3694 34.934C42.5574 34.846 42.7594 34.802 42.9754 34.802C43.2954 34.802 43.5574 34.874 43.7614 35.018C43.9654 35.158 44.1154 35.35 44.2114 35.594C44.3114 35.838 44.3614 36.114 44.3614 36.422C44.3614 36.73 44.3114 37.006 44.2114 37.25C44.1114 37.494 43.9574 37.686 43.7494 37.826C43.5414 37.966 43.2754 38.036 42.9514 38.036C42.7914 38.036 42.6474 38.02 42.5194 37.988C42.3914 37.952 42.2794 37.902 42.1834 37.838C42.0874 37.774 42.0034 37.702 41.9314 37.622V39.14H41.4214ZM42.9094 37.586C43.1414 37.586 43.3254 37.534 43.4614 37.43C43.5974 37.322 43.6954 37.18 43.7554 37.004C43.8194 36.828 43.8514 36.634 43.8514 36.422C43.8514 36.206 43.8194 36.01 43.7554 35.834C43.6954 35.658 43.5954 35.518 43.4554 35.414C43.3154 35.31 43.1294 35.258 42.8974 35.258C42.6894 35.258 42.5114 35.312 42.3634 35.42C42.2194 35.524 42.1094 35.666 42.0334 35.846C41.9574 36.022 41.9194 36.216 41.9194 36.428C41.9194 36.648 41.9554 36.846 42.0274 37.022C42.0994 37.198 42.2094 37.336 42.3574 37.436C42.5054 37.536 42.6894 37.586 42.9094 37.586ZM45.7125 38V35.288H44.6265V34.838H47.3085V35.288H46.2225V38H45.7125ZM47.719 38V34.838H48.229V37.262C48.257 37.206 48.295 37.146 48.343 37.082C48.391 37.014 48.429 36.962 48.457 36.926L49.987 34.838H50.491V38H49.981V35.576C49.949 35.636 49.913 35.692 49.873 35.744C49.837 35.796 49.803 35.844 49.771 35.888L48.217 38H47.719ZM51.2487 39.14V34.838H51.7347L51.7587 35.324C51.8667 35.152 52.0127 35.022 52.1967 34.934C52.3847 34.846 52.5867 34.802 52.8027 34.802C53.1227 34.802 53.3847 34.874 53.5887 35.018C53.7927 35.158 53.9427 35.35 54.0387 35.594C54.1387 35.838 54.1887 36.114 54.1887 36.422C54.1887 36.73 54.1387 37.006 54.0387 37.25C53.9387 37.494 53.7847 37.686 53.5767 37.826C53.3687 37.966 53.1027 38.036 52.7787 38.036C52.6187 38.036 52.4747 38.02 52.3467 37.988C52.2187 37.952 52.1067 37.902 52.0107 37.838C51.9147 37.774 51.8307 37.702 51.7587 37.622V39.14H51.2487ZM52.7367 37.586C52.9687 37.586 53.1527 37.534 53.2887 37.43C53.4247 37.322 53.5227 37.18 53.5827 37.004C53.6467 36.828 53.6787 36.634 53.6787 36.422C53.6787 36.206 53.6467 36.01 53.5827 35.834C53.5227 35.658 53.4227 35.518 53.2827 35.414C53.1427 35.31 52.9567 35.258 52.7247 35.258C52.5167 35.258 52.3387 35.312 52.1907 35.42C52.0467 35.524 51.9367 35.666 51.8607 35.846C51.7847 36.022 51.7467 36.216 51.7467 36.428C51.7467 36.648 51.7827 36.846 51.8547 37.022C51.9267 37.198 52.0367 37.336 52.1847 37.436C52.3327 37.536 52.5167 37.586 52.7367 37.586Z" fill="#7B7B7B"/>
<path d="M25.238 19.048C24.802 19.048 24.438 18.956 24.146 18.772C23.858 18.584 23.642 18.328 23.498 18.004C23.358 17.676 23.288 17.302 23.288 16.882C23.288 16.466 23.36 16.096 23.504 15.772C23.648 15.444 23.864 15.186 24.152 14.998C24.444 14.806 24.81 14.71 25.25 14.71C25.562 14.71 25.83 14.76 26.054 14.86C26.282 14.956 26.466 15.09 26.606 15.262C26.746 15.434 26.842 15.636 26.894 15.868H26.366C26.306 15.66 26.176 15.494 25.976 15.37C25.78 15.246 25.532 15.184 25.232 15.184C24.896 15.184 24.624 15.264 24.416 15.424C24.212 15.58 24.062 15.786 23.966 16.042C23.87 16.294 23.822 16.568 23.822 16.864C23.822 17.176 23.872 17.462 23.972 17.722C24.072 17.982 24.228 18.19 24.44 18.346C24.652 18.498 24.922 18.574 25.25 18.574C25.45 18.574 25.628 18.546 25.784 18.49C25.944 18.434 26.076 18.354 26.18 18.25C26.288 18.146 26.362 18.026 26.402 17.89H26.972C26.912 18.122 26.804 18.326 26.648 18.502C26.496 18.674 26.302 18.808 26.066 18.904C25.83 19 25.554 19.048 25.238 19.048ZM28.9972 19.036C28.6652 19.036 28.3872 18.968 28.1632 18.832C27.9392 18.692 27.7712 18.5 27.6592 18.256C27.5512 18.012 27.4972 17.734 27.4972 17.422C27.4972 17.106 27.5512 16.828 27.6592 16.588C27.7712 16.344 27.9392 16.152 28.1632 16.012C28.3872 15.872 28.6692 15.802 29.0092 15.802C29.3412 15.802 29.6172 15.872 29.8372 16.012C30.0612 16.152 30.2272 16.344 30.3352 16.588C30.4472 16.828 30.5032 17.106 30.5032 17.422C30.5032 17.734 30.4472 18.012 30.3352 18.256C30.2232 18.5 30.0552 18.692 29.8312 18.832C29.6112 18.968 29.3332 19.036 28.9972 19.036ZM28.9972 18.586C29.2292 18.586 29.4172 18.534 29.5612 18.43C29.7092 18.326 29.8172 18.186 29.8852 18.01C29.9572 17.834 29.9932 17.638 29.9932 17.422C29.9932 17.206 29.9572 17.01 29.8852 16.834C29.8172 16.658 29.7092 16.518 29.5612 16.414C29.4172 16.31 29.2292 16.258 28.9972 16.258C28.7692 16.258 28.5812 16.31 28.4332 16.414C28.2892 16.518 28.1812 16.658 28.1092 16.834C28.0412 17.01 28.0072 17.206 28.0072 17.422C28.0072 17.638 28.0412 17.834 28.1092 18.01C28.1812 18.186 28.2892 18.326 28.4332 18.43C28.5812 18.534 28.7692 18.586 28.9972 18.586ZM31.141 19V15.838H32.365C32.505 15.838 32.643 15.848 32.779 15.868C32.919 15.884 33.045 15.92 33.157 15.976C33.273 16.028 33.365 16.106 33.433 16.21C33.505 16.314 33.541 16.452 33.541 16.624C33.541 16.728 33.525 16.824 33.493 16.912C33.461 16.996 33.413 17.07 33.349 17.134C33.289 17.198 33.211 17.254 33.115 17.302C33.331 17.35 33.487 17.444 33.583 17.584C33.679 17.724 33.727 17.884 33.727 18.064C33.727 18.224 33.697 18.364 33.637 18.484C33.581 18.6 33.501 18.696 33.397 18.772C33.297 18.848 33.179 18.906 33.043 18.946C32.911 18.982 32.769 19 32.617 19H31.141ZM31.663 18.556H32.497C32.621 18.556 32.737 18.544 32.845 18.52C32.953 18.496 33.041 18.452 33.109 18.388C33.177 18.32 33.211 18.224 33.211 18.1C33.211 17.972 33.181 17.876 33.121 17.812C33.065 17.744 32.991 17.698 32.899 17.674C32.811 17.646 32.715 17.63 32.611 17.626C32.507 17.622 32.409 17.62 32.317 17.62H31.663V18.556ZM31.663 17.188H32.101C32.181 17.188 32.273 17.184 32.377 17.176C32.485 17.168 32.589 17.15 32.689 17.122C32.793 17.09 32.877 17.042 32.941 16.978C33.009 16.914 33.043 16.826 33.043 16.714C33.043 16.566 33.001 16.464 32.917 16.408C32.837 16.348 32.741 16.314 32.629 16.306C32.517 16.294 32.413 16.288 32.317 16.288H31.663V17.188ZM35.7457 19.036C35.4097 19.036 35.1317 18.968 34.9117 18.832C34.6917 18.692 34.5277 18.5 34.4197 18.256C34.3117 18.012 34.2577 17.734 34.2577 17.422C34.2577 17.106 34.3137 16.828 34.4257 16.588C34.5417 16.344 34.7097 16.152 34.9297 16.012C35.1497 15.872 35.4197 15.802 35.7397 15.802C35.9757 15.802 36.1817 15.848 36.3577 15.94C36.5377 16.028 36.6857 16.148 36.8017 16.3C36.9217 16.452 37.0077 16.622 37.0597 16.81C37.1157 16.998 37.1397 17.192 37.1317 17.392C37.1277 17.428 37.1257 17.464 37.1257 17.5C37.1257 17.536 37.1237 17.572 37.1197 17.608H34.7737C34.7897 17.792 34.8357 17.958 34.9117 18.106C34.9877 18.254 35.0957 18.372 35.2357 18.46C35.3757 18.544 35.5497 18.586 35.7577 18.586C35.8617 18.586 35.9657 18.574 36.0697 18.55C36.1777 18.522 36.2737 18.476 36.3577 18.412C36.4457 18.348 36.5077 18.262 36.5437 18.154H37.0657C37.0177 18.358 36.9277 18.526 36.7957 18.658C36.6637 18.786 36.5057 18.882 36.3217 18.946C36.1377 19.006 35.9457 19.036 35.7457 19.036ZM34.7857 17.164H36.6157C36.6117 16.984 36.5717 16.826 36.4957 16.69C36.4197 16.554 36.3157 16.448 36.1837 16.372C36.0557 16.296 35.9017 16.258 35.7217 16.258C35.5257 16.258 35.3597 16.3 35.2237 16.384C35.0917 16.468 34.9897 16.578 34.9177 16.714C34.8457 16.85 34.8017 17 34.7857 17.164ZM38.5106 19V16.288H37.4246V15.838H40.1066V16.288H39.0206V19H38.5106ZM41.8672 19.036C41.5352 19.036 41.2592 18.968 41.0392 18.832C40.8232 18.692 40.6612 18.5 40.5532 18.256C40.4492 18.012 40.3972 17.736 40.3972 17.428C40.3972 17.128 40.4512 16.856 40.5592 16.612C40.6712 16.364 40.8392 16.168 41.0632 16.024C41.2912 15.876 41.5792 15.802 41.9272 15.802C42.1432 15.802 42.3352 15.838 42.5032 15.91C42.6752 15.982 42.8172 16.088 42.9292 16.228C43.0412 16.364 43.1192 16.536 43.1632 16.744H42.6412C42.5812 16.568 42.4852 16.444 42.3532 16.372C42.2252 16.296 42.0732 16.258 41.8972 16.258C41.6572 16.258 41.4652 16.314 41.3212 16.426C41.1772 16.538 41.0712 16.684 41.0032 16.864C40.9392 17.04 40.9072 17.228 40.9072 17.428C40.9072 17.636 40.9412 17.828 41.0092 18.004C41.0772 18.18 41.1832 18.322 41.3272 18.43C41.4712 18.534 41.6572 18.586 41.8852 18.586C42.0532 18.586 42.2112 18.55 42.3592 18.478C42.5112 18.406 42.6112 18.278 42.6592 18.094H43.1872C43.1472 18.31 43.0612 18.488 42.9292 18.628C42.8012 18.768 42.6432 18.872 42.4552 18.94C42.2712 19.004 42.0752 19.036 41.8672 19.036ZM43.789 19V15.838H44.299V17.2H44.851L45.787 15.838H46.369L45.313 17.344L46.459 19H45.859L44.911 17.644H44.299V19H43.789ZM46.8558 19V15.838H47.3658V18.262C47.3938 18.206 47.4318 18.146 47.4798 18.082C47.5278 18.014 47.5658 17.962 47.5938 17.926L49.1238 15.838H49.6278V19H49.1178V16.576C49.0858 16.636 49.0498 16.692 49.0098 16.744C48.9738 16.796 48.9398 16.844 48.9078 16.888L47.3538 19H46.8558ZM50.3855 19V15.838H50.8955V18.262C50.9235 18.206 50.9615 18.146 51.0095 18.082C51.0575 18.014 51.0955 17.962 51.1235 17.926L52.6535 15.838H53.1575V19H52.6475V16.576C52.6155 16.636 52.5795 16.692 52.5395 16.744C52.5035 16.796 52.4695 16.844 52.4375 16.888L50.8835 19H50.3855ZM51.8135 15.394C51.4975 15.394 51.2495 15.326 51.0695 15.19C50.8935 15.054 50.8015 14.856 50.7935 14.596H51.2615C51.2695 14.736 51.3215 14.838 51.4175 14.902C51.5175 14.966 51.6515 14.998 51.8195 14.998C51.9875 14.998 52.1195 14.966 52.2155 14.902C52.3155 14.838 52.3695 14.736 52.3775 14.596H52.8455C52.8415 14.768 52.7975 14.914 52.7135 15.034C52.6295 15.154 52.5115 15.244 52.3595 15.304C52.2075 15.364 52.0255 15.394 51.8135 15.394ZM55.4878 20.14V15.838H55.9738L55.9978 16.324C56.1058 16.152 56.2518 16.022 56.4358 15.934C56.6238 15.846 56.8258 15.802 57.0418 15.802C57.3618 15.802 57.6238 15.874 57.8278 16.018C58.0318 16.158 58.1818 16.35 58.2778 16.594C58.3778 16.838 58.4278 17.114 58.4278 17.422C58.4278 17.73 58.3778 18.006 58.2778 18.25C58.1778 18.494 58.0238 18.686 57.8158 18.826C57.6078 18.966 57.3418 19.036 57.0178 19.036C56.8578 19.036 56.7138 19.02 56.5858 18.988C56.4578 18.952 56.3458 18.902 56.2498 18.838C56.1538 18.774 56.0698 18.702 55.9978 18.622V20.14H55.4878ZM56.9758 18.586C57.2078 18.586 57.3918 18.534 57.5278 18.43C57.6638 18.322 57.7618 18.18 57.8218 18.004C57.8858 17.828 57.9178 17.634 57.9178 17.422C57.9178 17.206 57.8858 17.01 57.8218 16.834C57.7618 16.658 57.6618 16.518 57.5218 16.414C57.3818 16.31 57.1958 16.258 56.9638 16.258C56.7558 16.258 56.5778 16.312 56.4298 16.42C56.2858 16.524 56.1758 16.666 56.0998 16.846C56.0238 17.022 55.9858 17.216 55.9858 17.428C55.9858 17.648 56.0218 17.846 56.0938 18.022C56.1658 18.198 56.2758 18.336 56.4238 18.436C56.5718 18.536 56.7558 18.586 56.9758 18.586ZM60.0549 19.036C59.9109 19.036 59.7709 19.018 59.6349 18.982C59.5029 18.942 59.3829 18.884 59.2749 18.808C59.1709 18.728 59.0869 18.63 59.0229 18.514C58.9629 18.394 58.9329 18.256 58.9329 18.1C58.9329 17.92 58.9649 17.768 59.0289 17.644C59.0969 17.52 59.1869 17.422 59.2989 17.35C59.4109 17.278 59.5409 17.226 59.6889 17.194C59.8369 17.162 59.9909 17.146 60.1509 17.146H61.0809C61.0809 16.966 61.0549 16.81 61.0029 16.678C60.9549 16.546 60.8749 16.444 60.7629 16.372C60.6509 16.296 60.5029 16.258 60.3189 16.258C60.2069 16.258 60.1029 16.27 60.0069 16.294C59.9109 16.318 59.8289 16.356 59.7609 16.408C59.6929 16.46 59.6429 16.53 59.6109 16.618H59.0649C59.0929 16.474 59.1469 16.352 59.2269 16.252C59.3109 16.148 59.4109 16.064 59.5269 16C59.6469 15.932 59.7749 15.882 59.9109 15.85C60.0469 15.818 60.1829 15.802 60.3189 15.802C60.6229 15.802 60.8669 15.864 61.0509 15.988C61.2349 16.108 61.3689 16.28 61.4529 16.504C61.5369 16.724 61.5789 16.986 61.5789 17.29V19H61.1529L61.1229 18.598C61.0349 18.718 60.9289 18.81 60.8049 18.874C60.6809 18.938 60.5529 18.98 60.4209 19C60.2929 19.024 60.1709 19.036 60.0549 19.036ZM60.1029 18.586C60.3029 18.586 60.4749 18.554 60.6189 18.49C60.7669 18.422 60.8809 18.324 60.9609 18.196C61.0409 18.068 61.0809 17.912 61.0809 17.728V17.572H60.5229C60.3909 17.572 60.2609 17.574 60.1329 17.578C60.0049 17.582 59.8889 17.598 59.7849 17.626C59.6809 17.654 59.5969 17.702 59.5329 17.77C59.4729 17.838 59.4429 17.936 59.4429 18.064C59.4429 18.184 59.4729 18.282 59.5329 18.358C59.5969 18.434 59.6789 18.492 59.7789 18.532C59.8829 18.568 59.9909 18.586 60.1029 18.586ZM62.3245 19V15.838H62.8345V18.262C62.8625 18.206 62.9005 18.146 62.9485 18.082C62.9965 18.014 63.0345 17.962 63.0625 17.926L64.5925 15.838H65.0965V19H64.5865V16.576C64.5545 16.636 64.5185 16.692 64.4785 16.744C64.4425 16.796 64.4085 16.844 64.3765 16.888L62.8225 19H62.3245ZM63.7525 15.394C63.4365 15.394 63.1885 15.326 63.0085 15.19C62.8325 15.054 62.7405 14.856 62.7325 14.596H63.2005C63.2085 14.736 63.2605 14.838 63.3565 14.902C63.4565 14.966 63.5905 14.998 63.7585 14.998C63.9265 14.998 64.0585 14.966 64.1545 14.902C64.2545 14.838 64.3085 14.736 64.3165 14.596H64.7845C64.7805 14.768 64.7365 14.914 64.6525 15.034C64.5685 15.154 64.4505 15.244 64.2985 15.304C64.1465 15.364 63.9645 15.394 63.7525 15.394ZM67.2342 19.036C66.9022 19.036 66.6242 18.968 66.4002 18.832C66.1762 18.692 66.0082 18.5 65.8962 18.256C65.7882 18.012 65.7342 17.734 65.7342 17.422C65.7342 17.106 65.7882 16.828 65.8962 16.588C66.0082 16.344 66.1762 16.152 66.4002 16.012C66.6242 15.872 66.9062 15.802 67.2462 15.802C67.5782 15.802 67.8542 15.872 68.0742 16.012C68.2982 16.152 68.4642 16.344 68.5722 16.588C68.6842 16.828 68.7402 17.106 68.7402 17.422C68.7402 17.734 68.6842 18.012 68.5722 18.256C68.4602 18.5 68.2922 18.692 68.0682 18.832C67.8482 18.968 67.5702 19.036 67.2342 19.036ZM67.2342 18.586C67.4662 18.586 67.6542 18.534 67.7982 18.43C67.9462 18.326 68.0542 18.186 68.1222 18.01C68.1942 17.834 68.2302 17.638 68.2302 17.422C68.2302 17.206 68.1942 17.01 68.1222 16.834C68.0542 16.658 67.9462 16.518 67.7982 16.414C67.6542 16.31 67.4662 16.258 67.2342 16.258C67.0062 16.258 66.8182 16.31 66.6702 16.414C66.5262 16.518 66.4182 16.658 66.3462 16.834C66.2782 17.01 66.2442 17.206 66.2442 17.422C66.2442 17.638 66.2782 17.834 66.3462 18.01C66.4182 18.186 66.5262 18.326 66.6702 18.43C66.8182 18.534 67.0062 18.586 67.2342 18.586ZM69.378 19V15.838H69.888V17.224H71.472V15.838H71.982V19H71.472V17.674H69.888V19H69.378Z" fill="#232323"/>
<path d="M10.18 63V62.562L11.38 61.524C11.488 61.432 11.606 61.332 11.734 61.224C11.866 61.112 11.99 60.992 12.106 60.864C12.226 60.736 12.324 60.6 12.4 60.456C12.48 60.308 12.52 60.152 12.52 59.988C12.52 59.732 12.444 59.536 12.292 59.4C12.14 59.26 11.936 59.19 11.68 59.19C11.476 59.19 11.298 59.232 11.146 59.316C10.994 59.4 10.894 59.522 10.846 59.682H10.288C10.328 59.462 10.418 59.282 10.558 59.142C10.702 58.998 10.874 58.89 11.074 58.818C11.278 58.746 11.488 58.71 11.704 58.71C11.968 58.71 12.2 58.758 12.4 58.854C12.604 58.95 12.762 59.09 12.874 59.274C12.99 59.454 13.048 59.676 13.048 59.94C13.048 60.2 12.998 60.428 12.898 60.624C12.802 60.82 12.674 60.998 12.514 61.158C12.358 61.314 12.19 61.468 12.01 61.62L10.936 62.526H13.096V63H10.18ZM15.3285 63V59.838H15.8385V61.2H16.3905L17.3265 59.838H17.9085L16.8525 61.344L17.9985 63H17.3985L16.4505 61.644H15.8385V63H15.3285ZM19.7167 63.036C19.3847 63.036 19.1067 62.968 18.8827 62.832C18.6587 62.692 18.4907 62.5 18.3787 62.256C18.2707 62.012 18.2167 61.734 18.2167 61.422C18.2167 61.106 18.2707 60.828 18.3787 60.588C18.4907 60.344 18.6587 60.152 18.8827 60.012C19.1067 59.872 19.3887 59.802 19.7287 59.802C20.0607 59.802 20.3367 59.872 20.5567 60.012C20.7807 60.152 20.9467 60.344 21.0547 60.588C21.1667 60.828 21.2227 61.106 21.2227 61.422C21.2227 61.734 21.1667 62.012 21.0547 62.256C20.9427 62.5 20.7747 62.692 20.5507 62.832C20.3307 62.968 20.0527 63.036 19.7167 63.036ZM19.7167 62.586C19.9487 62.586 20.1367 62.534 20.2807 62.43C20.4287 62.326 20.5367 62.186 20.6047 62.01C20.6767 61.834 20.7127 61.638 20.7127 61.422C20.7127 61.206 20.6767 61.01 20.6047 60.834C20.5367 60.658 20.4287 60.518 20.2807 60.414C20.1367 60.31 19.9487 60.258 19.7167 60.258C19.4887 60.258 19.3007 60.31 19.1527 60.414C19.0087 60.518 18.9007 60.658 18.8287 60.834C18.7607 61.01 18.7267 61.206 18.7267 61.422C18.7267 61.638 18.7607 61.834 18.8287 62.01C18.9007 62.186 19.0087 62.326 19.1527 62.43C19.3007 62.534 19.4887 62.586 19.7167 62.586ZM21.8605 63V59.838H22.5445L23.5705 61.422L24.5785 59.838H25.2505V63H24.7465V60.402L23.6305 62.19H23.4865L22.3645 60.402V63H21.8605ZM26.0113 63V59.838H26.5213V61.224H28.1053V59.838H28.6153V63H28.1053V61.674H26.5213V63H26.0113ZM30.3909 63.036C30.2469 63.036 30.1069 63.018 29.9709 62.982C29.8389 62.942 29.7189 62.884 29.6109 62.808C29.5069 62.728 29.4229 62.63 29.3589 62.514C29.2989 62.394 29.2689 62.256 29.2689 62.1C29.2689 61.92 29.3009 61.768 29.3649 61.644C29.4329 61.52 29.5229 61.422 29.6349 61.35C29.7469 61.278 29.8769 61.226 30.0249 61.194C30.1729 61.162 30.3269 61.146 30.4869 61.146H31.4169C31.4169 60.966 31.3909 60.81 31.3389 60.678C31.2909 60.546 31.2109 60.444 31.0989 60.372C30.9869 60.296 30.8389 60.258 30.6549 60.258C30.5429 60.258 30.4389 60.27 30.3429 60.294C30.2469 60.318 30.1649 60.356 30.0969 60.408C30.0289 60.46 29.9789 60.53 29.9469 60.618H29.4009C29.4289 60.474 29.4829 60.352 29.5629 60.252C29.6469 60.148 29.7469 60.064 29.8629 60C29.9829 59.932 30.1109 59.882 30.2469 59.85C30.3829 59.818 30.5189 59.802 30.6549 59.802C30.9589 59.802 31.2029 59.864 31.3869 59.988C31.5709 60.108 31.7049 60.28 31.7889 60.504C31.8729 60.724 31.9149 60.986 31.9149 61.29V63H31.4889L31.4589 62.598C31.3709 62.718 31.2649 62.81 31.1409 62.874C31.0169 62.938 30.8889 62.98 30.7569 63C30.6289 63.024 30.5069 63.036 30.3909 63.036ZM30.4389 62.586C30.6389 62.586 30.8109 62.554 30.9549 62.49C31.1029 62.422 31.2169 62.324 31.2969 62.196C31.3769 62.068 31.4169 61.912 31.4169 61.728V61.572H30.8589C30.7269 61.572 30.5969 61.574 30.4689 61.578C30.3409 61.582 30.2249 61.598 30.1209 61.626C30.0169 61.654 29.9329 61.702 29.8689 61.77C29.8089 61.838 29.7789 61.936 29.7789 62.064C29.7789 62.184 29.8089 62.282 29.8689 62.358C29.9329 62.434 30.0149 62.492 30.1149 62.532C30.2189 62.568 30.3269 62.586 30.4389 62.586ZM33.3985 63V60.288H32.3125V59.838H34.9945V60.288H33.9085V63H33.3985ZM35.405 63V59.838H35.915V61.224H37.499V59.838H38.009V63H37.499V61.674H35.915V63H35.405ZM39.7846 63.036C39.6406 63.036 39.5006 63.018 39.3646 62.982C39.2326 62.942 39.1126 62.884 39.0046 62.808C38.9006 62.728 38.8166 62.63 38.7526 62.514C38.6926 62.394 38.6626 62.256 38.6626 62.1C38.6626 61.92 38.6946 61.768 38.7586 61.644C38.8266 61.52 38.9166 61.422 39.0286 61.35C39.1406 61.278 39.2706 61.226 39.4186 61.194C39.5666 61.162 39.7206 61.146 39.8806 61.146H40.8106C40.8106 60.966 40.7846 60.81 40.7326 60.678C40.6846 60.546 40.6046 60.444 40.4926 60.372C40.3806 60.296 40.2326 60.258 40.0486 60.258C39.9366 60.258 39.8326 60.27 39.7366 60.294C39.6406 60.318 39.5586 60.356 39.4906 60.408C39.4226 60.46 39.3726 60.53 39.3406 60.618H38.7946C38.8226 60.474 38.8766 60.352 38.9566 60.252C39.0406 60.148 39.1406 60.064 39.2566 60C39.3766 59.932 39.5046 59.882 39.6406 59.85C39.7766 59.818 39.9126 59.802 40.0486 59.802C40.3526 59.802 40.5966 59.864 40.7806 59.988C40.9646 60.108 41.0986 60.28 41.1826 60.504C41.2666 60.724 41.3086 60.986 41.3086 61.29V63H40.8826L40.8526 62.598C40.7646 62.718 40.6586 62.81 40.5346 62.874C40.4106 62.938 40.2826 62.98 40.1506 63C40.0226 63.024 39.9006 63.036 39.7846 63.036ZM39.8326 62.586C40.0326 62.586 40.2046 62.554 40.3486 62.49C40.4966 62.422 40.6106 62.324 40.6906 62.196C40.7706 62.068 40.8106 61.912 40.8106 61.728V61.572H40.2526C40.1206 61.572 39.9906 61.574 39.8626 61.578C39.7346 61.582 39.6186 61.598 39.5146 61.626C39.4106 61.654 39.3266 61.702 39.2626 61.77C39.2026 61.838 39.1726 61.936 39.1726 62.064C39.1726 62.184 39.2026 62.282 39.2626 62.358C39.3266 62.434 39.4086 62.492 39.5086 62.532C39.6126 62.568 39.7206 62.586 39.8326 62.586ZM41.8562 63L42.6782 61.752C42.4502 61.688 42.2702 61.584 42.1382 61.44C42.0062 61.292 41.9402 61.096 41.9402 60.852C41.9402 60.66 41.9682 60.5 42.0242 60.372C42.0802 60.24 42.1622 60.136 42.2702 60.06C42.3782 59.98 42.5082 59.924 42.6602 59.892C42.8122 59.856 42.9862 59.838 43.1822 59.838H44.4542V63H43.9442V61.83H43.2182L42.4502 63H41.8562ZM43.5662 61.386H43.9442V60.288H43.2662C43.1462 60.288 43.0362 60.294 42.9362 60.306C42.8362 60.318 42.7502 60.344 42.6782 60.384C42.6102 60.42 42.5562 60.474 42.5162 60.546C42.4762 60.614 42.4562 60.708 42.4562 60.828C42.4562 60.96 42.4882 61.064 42.5522 61.14C42.6202 61.216 42.7062 61.272 42.8102 61.308C42.9182 61.34 43.0382 61.362 43.1702 61.374C43.3022 61.382 43.4342 61.386 43.5662 61.386Z" fill="#26BDA9"/>
<path d="M50.782 63.036C50.45 63.036 50.172 62.968 49.948 62.832C49.724 62.692 49.556 62.5 49.444 62.256C49.336 62.012 49.282 61.734 49.282 61.422C49.282 61.106 49.336 60.828 49.444 60.588C49.556 60.344 49.724 60.152 49.948 60.012C50.172 59.872 50.454 59.802 50.794 59.802C51.126 59.802 51.402 59.872 51.622 60.012C51.846 60.152 52.012 60.344 52.12 60.588C52.232 60.828 52.288 61.106 52.288 61.422C52.288 61.734 52.232 62.012 52.12 62.256C52.008 62.5 51.84 62.692 51.616 62.832C51.396 62.968 51.118 63.036 50.782 63.036ZM50.782 62.586C51.014 62.586 51.202 62.534 51.346 62.43C51.494 62.326 51.602 62.186 51.67 62.01C51.742 61.834 51.778 61.638 51.778 61.422C51.778 61.206 51.742 61.01 51.67 60.834C51.602 60.658 51.494 60.518 51.346 60.414C51.202 60.31 51.014 60.258 50.782 60.258C50.554 60.258 50.366 60.31 50.218 60.414C50.074 60.518 49.966 60.658 49.894 60.834C49.826 61.01 49.792 61.206 49.792 61.422C49.792 61.638 49.826 61.834 49.894 62.01C49.966 62.186 50.074 62.326 50.218 62.43C50.366 62.534 50.554 62.586 50.782 62.586ZM53.6638 63V60.288H52.5778V59.838H55.2598V60.288H54.1738V63H53.6638ZM57.441 63L59.157 59.238H56.913V58.758H59.733V59.19L58.017 63H57.441ZM61.5131 63.048C61.3451 63.048 61.1751 63.032 61.0031 63C60.8351 62.964 60.6771 62.908 60.5291 62.832C60.3851 62.756 60.2611 62.654 60.1571 62.526C60.0571 62.398 59.9931 62.24 59.9651 62.052H60.5051C60.5531 62.188 60.6331 62.294 60.7451 62.37C60.8571 62.446 60.9811 62.5 61.1171 62.532C61.2571 62.56 61.3911 62.574 61.5191 62.574C61.6111 62.574 61.7111 62.566 61.8191 62.55C61.9271 62.534 62.0311 62.5 62.1311 62.448C62.2351 62.396 62.3191 62.32 62.3831 62.22C62.4471 62.116 62.4791 61.98 62.4791 61.812C62.4791 61.652 62.4491 61.524 62.3891 61.428C62.3291 61.328 62.2491 61.254 62.1491 61.206C62.0491 61.154 61.9371 61.12 61.8131 61.104C61.6931 61.088 61.5711 61.08 61.4471 61.08H61.0391V60.612H61.2851C61.4251 60.612 61.5571 60.6 61.6811 60.576C61.8051 60.548 61.9151 60.506 62.0111 60.45C62.1071 60.394 62.1811 60.32 62.2331 60.228C62.2891 60.136 62.3171 60.022 62.3171 59.886C62.3171 59.69 62.2751 59.542 62.1911 59.442C62.1111 59.342 62.0071 59.274 61.8791 59.238C61.7511 59.202 61.6171 59.184 61.4771 59.184C61.3651 59.184 61.2491 59.202 61.1291 59.238C61.0131 59.27 60.9091 59.324 60.8171 59.4C60.7251 59.472 60.6631 59.57 60.6311 59.694H60.1091C60.1331 59.518 60.1891 59.368 60.2771 59.244C60.3651 59.12 60.4731 59.018 60.6011 58.938C60.7331 58.858 60.8771 58.8 61.0331 58.764C61.1931 58.728 61.3551 58.71 61.5191 58.71C61.6991 58.71 61.8671 58.73 62.0231 58.77C62.1831 58.806 62.3231 58.868 62.4431 58.956C62.5631 59.04 62.6571 59.152 62.7251 59.292C62.7971 59.432 62.8331 59.602 62.8331 59.802C62.8331 59.95 62.8091 60.086 62.7611 60.21C62.7131 60.334 62.6411 60.442 62.5451 60.534C62.4531 60.626 62.3371 60.702 62.1971 60.762C62.3771 60.794 62.5271 60.858 62.6471 60.954C62.7711 61.05 62.8631 61.168 62.9231 61.308C62.9871 61.444 63.0191 61.598 63.0191 61.77C63.0191 62.038 62.9711 62.256 62.8751 62.424C62.7791 62.592 62.6551 62.722 62.5031 62.814C62.3511 62.902 62.1871 62.964 62.0111 63C61.8351 63.032 61.6691 63.048 61.5131 63.048ZM65.289 63V59.838H65.973L66.999 61.422L68.007 59.838H68.679V63H68.175V60.402L67.059 62.19H66.915L65.793 60.402V63H65.289ZM69.4098 60.72V60.354L70.0038 59.844C70.0598 59.796 70.1238 59.74 70.1958 59.676C70.2718 59.608 70.3378 59.536 70.3938 59.46C70.4498 59.384 70.4778 59.308 70.4778 59.232C70.4778 59.124 70.4478 59.042 70.3878 58.986C70.3278 58.93 70.2458 58.902 70.1418 58.902C70.0618 58.902 69.9898 58.922 69.9258 58.962C69.8618 58.998 69.8258 59.06 69.8178 59.148H69.3978C69.4058 58.924 69.4858 58.76 69.6378 58.656C69.7898 58.552 69.9678 58.5 70.1718 58.5C70.3838 58.5 70.5598 58.558 70.6998 58.674C70.8398 58.786 70.9098 58.95 70.9098 59.166C70.9098 59.342 70.8658 59.494 70.7778 59.622C70.6898 59.746 70.5858 59.86 70.4658 59.964C70.3938 60.028 70.3218 60.088 70.2498 60.144C70.1778 60.2 70.1058 60.26 70.0338 60.324H70.8858V60.72H69.4098Z" fill="#B0B0B0"/>
<path d="M51.782 77.036C51.45 77.036 51.172 76.968 50.948 76.832C50.724 76.692 50.556 76.5 50.444 76.256C50.336 76.012 50.282 75.734 50.282 75.422C50.282 75.106 50.336 74.828 50.444 74.588C50.556 74.344 50.724 74.152 50.948 74.012C51.172 73.872 51.454 73.802 51.794 73.802C52.126 73.802 52.402 73.872 52.622 74.012C52.846 74.152 53.012 74.344 53.12 74.588C53.232 74.828 53.288 75.106 53.288 75.422C53.288 75.734 53.232 76.012 53.12 76.256C53.008 76.5 52.84 76.692 52.616 76.832C52.396 76.968 52.118 77.036 51.782 77.036ZM51.782 76.586C52.014 76.586 52.202 76.534 52.346 76.43C52.494 76.326 52.602 76.186 52.67 76.01C52.742 75.834 52.778 75.638 52.778 75.422C52.778 75.206 52.742 75.01 52.67 74.834C52.602 74.658 52.494 74.518 52.346 74.414C52.202 74.31 52.014 74.258 51.782 74.258C51.554 74.258 51.366 74.31 51.218 74.414C51.074 74.518 50.966 74.658 50.894 74.834C50.826 75.01 50.792 75.206 50.792 75.422C50.792 75.638 50.826 75.834 50.894 76.01C50.966 76.186 51.074 76.326 51.218 76.43C51.366 76.534 51.554 76.586 51.782 76.586ZM54.6638 77V74.288H53.5778V73.838H56.2598V74.288H55.1738V77H54.6638ZM58.855 77V73.598H57.991V73.244C58.151 73.232 58.293 73.214 58.417 73.19C58.541 73.162 58.651 73.116 58.747 73.052C58.847 72.984 58.935 72.886 59.011 72.758H59.377V77H58.855ZM60.9901 77V73.598H60.1261V73.244C60.2861 73.232 60.4281 73.214 60.5521 73.19C60.6761 73.162 60.7861 73.116 60.8821 73.052C60.9821 72.984 61.0701 72.886 61.1461 72.758H61.5121V77H60.9901ZM64.0793 77.048C63.7913 77.048 63.5433 76.994 63.3353 76.886C63.1313 76.774 62.9633 76.624 62.8313 76.436C62.7033 76.244 62.6093 76.028 62.5493 75.788C62.4893 75.544 62.4593 75.288 62.4593 75.02C62.4593 74.704 62.4893 74.408 62.5493 74.132C62.6133 73.852 62.7113 73.606 62.8433 73.394C62.9793 73.182 63.1553 73.016 63.3713 72.896C63.5873 72.772 63.8473 72.71 64.1513 72.71C64.3553 72.71 64.5453 72.746 64.7213 72.818C64.9013 72.886 65.0573 72.99 65.1893 73.13C65.3213 73.266 65.4193 73.434 65.4833 73.634H64.9373C64.8653 73.486 64.7553 73.374 64.6073 73.298C64.4593 73.222 64.3053 73.184 64.1453 73.184C63.9613 73.184 63.8033 73.22 63.6713 73.292C63.5393 73.36 63.4273 73.452 63.3353 73.568C63.2473 73.684 63.1753 73.816 63.1193 73.964C63.0673 74.112 63.0293 74.266 63.0053 74.426C62.9813 74.586 62.9693 74.742 62.9693 74.894C63.0613 74.754 63.1673 74.64 63.2873 74.552C63.4113 74.464 63.5453 74.4 63.6893 74.36C63.8373 74.316 63.9873 74.294 64.1393 74.294C64.4193 74.294 64.6613 74.352 64.8653 74.468C65.0733 74.58 65.2353 74.738 65.3513 74.942C65.4673 75.142 65.5253 75.374 65.5253 75.638C65.5253 75.918 65.4633 76.164 65.3393 76.376C65.2153 76.588 65.0433 76.754 64.8233 76.874C64.6073 76.99 64.3593 77.048 64.0793 77.048ZM64.0673 76.574C64.2473 76.574 64.4053 76.536 64.5413 76.46C64.6813 76.38 64.7913 76.274 64.8713 76.142C64.9513 76.006 64.9913 75.856 64.9913 75.692C64.9913 75.516 64.9533 75.36 64.8773 75.224C64.8013 75.088 64.6953 74.98 64.5593 74.9C64.4273 74.82 64.2713 74.78 64.0913 74.78C63.9273 74.78 63.7713 74.818 63.6233 74.894C63.4753 74.966 63.3553 75.07 63.2633 75.206C63.1753 75.338 63.1313 75.496 63.1313 75.68C63.1313 75.848 63.1713 76 63.2513 76.136C63.3353 76.268 63.4473 76.374 63.5873 76.454C63.7313 76.534 63.8913 76.574 64.0673 76.574ZM66.567 77.048C66.463 77.048 66.377 77.014 66.309 76.946C66.241 76.878 66.207 76.792 66.207 76.688C66.207 76.584 66.241 76.498 66.309 76.43C66.377 76.362 66.463 76.328 66.567 76.328C66.671 76.328 66.757 76.362 66.825 76.43C66.893 76.498 66.927 76.584 66.927 76.688C66.927 76.792 66.893 76.878 66.825 76.946C66.757 77.014 66.671 77.048 66.567 77.048ZM69.0059 77.048C68.8019 77.048 68.6059 77.014 68.4179 76.946C68.2339 76.878 68.0739 76.776 67.9379 76.64C67.8019 76.5 67.7079 76.328 67.6559 76.124H68.2319C68.3039 76.276 68.4199 76.39 68.5799 76.466C68.7439 76.538 68.9059 76.574 69.0659 76.574C69.2819 76.574 69.4599 76.53 69.5999 76.442C69.7439 76.35 69.8559 76.226 69.9359 76.07C70.0199 75.914 70.0799 75.74 70.1159 75.548C70.1519 75.352 70.1699 75.15 70.1699 74.942C70.1699 74.922 70.1699 74.9 70.1699 74.876C70.1699 74.852 70.1699 74.83 70.1699 74.81C70.0939 74.966 69.9919 75.092 69.8639 75.188C69.7359 75.28 69.5939 75.348 69.4379 75.392C69.2819 75.432 69.1239 75.452 68.9639 75.452C68.7159 75.452 68.4879 75.402 68.2799 75.302C68.0759 75.198 67.9119 75.048 67.7879 74.852C67.6679 74.652 67.6079 74.41 67.6079 74.126C67.6079 73.842 67.6699 73.594 67.7939 73.382C67.9179 73.17 68.0899 73.006 68.3099 72.89C68.5339 72.77 68.7919 72.71 69.0839 72.71C69.3959 72.71 69.6539 72.776 69.8579 72.908C70.0659 73.04 70.2279 73.216 70.3439 73.436C70.4639 73.656 70.5479 73.898 70.5959 74.162C70.6439 74.422 70.6679 74.682 70.6679 74.942C70.6679 75.242 70.6379 75.52 70.5779 75.776C70.5179 76.028 70.4219 76.25 70.2899 76.442C70.1579 76.634 69.9859 76.784 69.7739 76.892C69.5619 76.996 69.3059 77.048 69.0059 77.048ZM69.0419 74.972C69.2139 74.972 69.3699 74.936 69.5099 74.864C69.6539 74.792 69.7679 74.692 69.8519 74.564C69.9399 74.436 69.9839 74.286 69.9839 74.114C69.9839 73.93 69.9439 73.77 69.8639 73.634C69.7839 73.494 69.6739 73.384 69.5339 73.304C69.3979 73.224 69.2419 73.184 69.0659 73.184C68.8859 73.184 68.7259 73.224 68.5859 73.304C68.4499 73.384 68.3419 73.492 68.2619 73.628C68.1819 73.764 68.1419 73.914 68.1419 74.078C68.1419 74.358 68.2219 74.578 68.3819 74.738C68.5459 74.894 68.7659 74.972 69.0419 74.972ZM72.9347 77V73.838H73.6187L74.6447 75.422L75.6527 73.838H76.3247V77H75.8207V74.402L74.7047 76.19H74.5607L73.4387 74.402V77H72.9347ZM77.0555 74.72V74.354L77.6495 73.844C77.7055 73.796 77.7695 73.74 77.8415 73.676C77.9175 73.608 77.9835 73.536 78.0395 73.46C78.0955 73.384 78.1235 73.308 78.1235 73.232C78.1235 73.124 78.0935 73.042 78.0335 72.986C77.9735 72.93 77.8915 72.902 77.7875 72.902C77.7075 72.902 77.6355 72.922 77.5715 72.962C77.5075 72.998 77.4715 73.06 77.4635 73.148H77.0435C77.0515 72.924 77.1315 72.76 77.2835 72.656C77.4355 72.552 77.6135 72.5 77.8175 72.5C78.0295 72.5 78.2055 72.558 78.3455 72.674C78.4855 72.786 78.5555 72.95 78.5555 73.166C78.5555 73.342 78.5115 73.494 78.4235 73.622C78.3355 73.746 78.2315 73.86 78.1115 73.964C78.0395 74.028 77.9675 74.088 77.8955 74.144C77.8235 74.2 77.7515 74.26 77.6795 74.324H78.5315V74.72H77.0555Z" fill="#B0B0B0"/>
<path d="M12.238 95.048C11.802 95.048 11.438 94.956 11.146 94.772C10.858 94.584 10.642 94.328 10.498 94.004C10.358 93.676 10.288 93.302 10.288 92.882C10.288 92.466 10.36 92.096 10.504 91.772C10.648 91.444 10.864 91.186 11.152 90.998C11.444 90.806 11.81 90.71 12.25 90.71C12.562 90.71 12.83 90.76 13.054 90.86C13.282 90.956 13.466 91.09 13.606 91.262C13.746 91.434 13.842 91.636 13.894 91.868H13.366C13.306 91.66 13.176 91.494 12.976 91.37C12.78 91.246 12.532 91.184 12.232 91.184C11.896 91.184 11.624 91.264 11.416 91.424C11.212 91.58 11.062 91.786 10.966 92.042C10.87 92.294 10.822 92.568 10.822 92.864C10.822 93.176 10.872 93.462 10.972 93.722C11.072 93.982 11.228 94.19 11.44 94.346C11.652 94.498 11.922 94.574 12.25 94.574C12.45 94.574 12.628 94.546 12.784 94.49C12.944 94.434 13.076 94.354 13.18 94.25C13.288 94.146 13.362 94.026 13.402 93.89H13.972C13.912 94.122 13.804 94.326 13.648 94.502C13.496 94.674 13.302 94.808 13.066 94.904C12.83 95 12.554 95.048 12.238 95.048ZM14.6172 96.14V91.838H15.1032L15.1272 92.324C15.2352 92.152 15.3812 92.022 15.5652 91.934C15.7532 91.846 15.9552 91.802 16.1712 91.802C16.4912 91.802 16.7532 91.874 16.9572 92.018C17.1612 92.158 17.3112 92.35 17.4072 92.594C17.5072 92.838 17.5572 93.114 17.5572 93.422C17.5572 93.73 17.5072 94.006 17.4072 94.25C17.3072 94.494 17.1532 94.686 16.9452 94.826C16.7372 94.966 16.4712 95.036 16.1472 95.036C15.9872 95.036 15.8432 95.02 15.7152 94.988C15.5872 94.952 15.4752 94.902 15.3792 94.838C15.2832 94.774 15.1992 94.702 15.1272 94.622V96.14H14.6172ZM16.1052 94.586C16.3372 94.586 16.5212 94.534 16.6572 94.43C16.7932 94.322 16.8912 94.18 16.9512 94.004C17.0152 93.828 17.0472 93.634 17.0472 93.422C17.0472 93.206 17.0152 93.01 16.9512 92.834C16.8912 92.658 16.7912 92.518 16.6512 92.414C16.5112 92.31 16.3252 92.258 16.0932 92.258C15.8852 92.258 15.7072 92.312 15.5592 92.42C15.4152 92.524 15.3052 92.666 15.2292 92.846C15.1532 93.022 15.1152 93.216 15.1152 93.428C15.1152 93.648 15.1512 93.846 15.2232 94.022C15.2952 94.198 15.4052 94.336 15.5532 94.436C15.7012 94.536 15.8852 94.586 16.1052 94.586ZM19.5503 95.036C19.2183 95.036 18.9403 94.968 18.7163 94.832C18.4923 94.692 18.3243 94.5 18.2123 94.256C18.1043 94.012 18.0503 93.734 18.0503 93.422C18.0503 93.106 18.1043 92.828 18.2123 92.588C18.3243 92.344 18.4923 92.152 18.7163 92.012C18.9403 91.872 19.2223 91.802 19.5623 91.802C19.8943 91.802 20.1703 91.872 20.3903 92.012C20.6143 92.152 20.7803 92.344 20.8883 92.588C21.0003 92.828 21.0563 93.106 21.0563 93.422C21.0563 93.734 21.0003 94.012 20.8883 94.256C20.7763 94.5 20.6083 94.692 20.3843 94.832C20.1643 94.968 19.8863 95.036 19.5503 95.036ZM19.5503 94.586C19.7823 94.586 19.9703 94.534 20.1143 94.43C20.2623 94.326 20.3703 94.186 20.4383 94.01C20.5103 93.834 20.5463 93.638 20.5463 93.422C20.5463 93.206 20.5103 93.01 20.4383 92.834C20.3703 92.658 20.2623 92.518 20.1143 92.414C19.9703 92.31 19.7823 92.258 19.5503 92.258C19.3223 92.258 19.1343 92.31 18.9863 92.414C18.8423 92.518 18.7343 92.658 18.6623 92.834C18.5943 93.01 18.5603 93.206 18.5603 93.422C18.5603 93.638 18.5943 93.834 18.6623 94.01C18.7343 94.186 18.8423 94.326 18.9863 94.43C19.1343 94.534 19.3223 94.586 19.5503 94.586ZM21.6941 95V91.838H22.2041V93.2H22.7561L23.6921 91.838H24.2741L23.2181 93.344L24.3641 95H23.7641L22.8161 93.644H22.2041V95H21.6941ZM27.6836 95.036C27.3516 95.036 27.0756 94.968 26.8556 94.832C26.6396 94.692 26.4776 94.5 26.3696 94.256C26.2656 94.012 26.2136 93.736 26.2136 93.428C26.2136 93.128 26.2676 92.856 26.3756 92.612C26.4876 92.364 26.6556 92.168 26.8796 92.024C27.1076 91.876 27.3956 91.802 27.7436 91.802C27.9596 91.802 28.1516 91.838 28.3196 91.91C28.4916 91.982 28.6336 92.088 28.7456 92.228C28.8576 92.364 28.9356 92.536 28.9796 92.744H28.4576C28.3976 92.568 28.3016 92.444 28.1696 92.372C28.0416 92.296 27.8896 92.258 27.7136 92.258C27.4736 92.258 27.2816 92.314 27.1376 92.426C26.9936 92.538 26.8876 92.684 26.8196 92.864C26.7556 93.04 26.7236 93.228 26.7236 93.428C26.7236 93.636 26.7576 93.828 26.8256 94.004C26.8936 94.18 26.9996 94.322 27.1436 94.43C27.2876 94.534 27.4736 94.586 27.7016 94.586C27.8696 94.586 28.0276 94.55 28.1756 94.478C28.3276 94.406 28.4276 94.278 28.4756 94.094H29.0036C28.9636 94.31 28.8776 94.488 28.7456 94.628C28.6176 94.768 28.4596 94.872 28.2716 94.94C28.0876 95.004 27.8916 95.036 27.6836 95.036ZM29.2651 95.972V94.556C29.3811 94.556 29.4731 94.524 29.5411 94.46C29.6131 94.396 29.6691 94.312 29.7091 94.208C29.7491 94.104 29.7791 93.992 29.7991 93.872C29.8191 93.748 29.8351 93.63 29.8471 93.518C29.8671 93.334 29.8791 93.152 29.8831 92.972C29.8911 92.788 29.8951 92.642 29.8951 92.534C29.8991 92.418 29.9011 92.302 29.9011 92.186C29.9011 92.07 29.9011 91.954 29.9011 91.838H32.1451V94.556H32.5591V95.972H32.0671V95H29.7571V95.972H29.2651ZM30.0751 94.556H31.6351V92.288H30.3871C30.3831 92.456 30.3791 92.644 30.3751 92.852C30.3711 93.06 30.3631 93.254 30.3511 93.434C30.3471 93.538 30.3371 93.656 30.3211 93.788C30.3091 93.92 30.2851 94.054 30.2491 94.19C30.2131 94.322 30.1551 94.444 30.0751 94.556ZM34.0612 95.036C33.9172 95.036 33.7772 95.018 33.6412 94.982C33.5092 94.942 33.3892 94.884 33.2812 94.808C33.1772 94.728 33.0932 94.63 33.0292 94.514C32.9692 94.394 32.9392 94.256 32.9392 94.1C32.9392 93.92 32.9712 93.768 33.0352 93.644C33.1032 93.52 33.1932 93.422 33.3052 93.35C33.4172 93.278 33.5472 93.226 33.6952 93.194C33.8432 93.162 33.9972 93.146 34.1572 93.146H35.0872C35.0872 92.966 35.0612 92.81 35.0092 92.678C34.9612 92.546 34.8812 92.444 34.7692 92.372C34.6572 92.296 34.5092 92.258 34.3252 92.258C34.2132 92.258 34.1092 92.27 34.0132 92.294C33.9172 92.318 33.8352 92.356 33.7672 92.408C33.6992 92.46 33.6492 92.53 33.6172 92.618H33.0712C33.0992 92.474 33.1532 92.352 33.2332 92.252C33.3172 92.148 33.4172 92.064 33.5332 92C33.6532 91.932 33.7812 91.882 33.9172 91.85C34.0532 91.818 34.1892 91.802 34.3252 91.802C34.6292 91.802 34.8732 91.864 35.0572 91.988C35.2412 92.108 35.3752 92.28 35.4592 92.504C35.5432 92.724 35.5852 92.986 35.5852 93.29V95H35.1592L35.1292 94.598C35.0412 94.718 34.9352 94.81 34.8112 94.874C34.6872 94.938 34.5592 94.98 34.4272 95C34.2992 95.024 34.1772 95.036 34.0612 95.036ZM34.1092 94.586C34.3092 94.586 34.4812 94.554 34.6252 94.49C34.7732 94.422 34.8872 94.324 34.9672 94.196C35.0472 94.068 35.0872 93.912 35.0872 93.728V93.572H34.5292C34.3972 93.572 34.2672 93.574 34.1392 93.578C34.0112 93.582 33.8952 93.598 33.7912 93.626C33.6872 93.654 33.6032 93.702 33.5392 93.77C33.4792 93.838 33.4492 93.936 33.4492 94.064C33.4492 94.184 33.4792 94.282 33.5392 94.358C33.6032 94.434 33.6852 94.492 33.7852 94.532C33.8892 94.568 33.9972 94.586 34.1092 94.586ZM38.1908 95V93.782C38.0388 93.81 37.8908 93.83 37.7468 93.842C37.6068 93.85 37.4808 93.854 37.3688 93.854C37.0728 93.854 36.8388 93.808 36.6668 93.716C36.4948 93.624 36.3728 93.484 36.3008 93.296C36.2288 93.104 36.1928 92.866 36.1928 92.582V91.838H36.7028V92.546C36.7028 92.73 36.7208 92.886 36.7568 93.014C36.7928 93.142 36.8628 93.24 36.9668 93.308C37.0708 93.372 37.2268 93.404 37.4348 93.404C37.5548 93.404 37.6808 93.398 37.8128 93.386C37.9488 93.374 38.0748 93.356 38.1908 93.332V91.838H38.7008V95H38.1908ZM39.462 95V91.838H39.972V94.262C40 94.206 40.038 94.146 40.086 94.082C40.134 94.014 40.172 93.962 40.2 93.926L41.73 91.838H42.234V95H41.724V92.576C41.692 92.636 41.656 92.692 41.616 92.744C41.58 92.796 41.546 92.844 41.514 92.888L39.96 95H39.462Z" fill="#7B7B7B"/>
<path d="M0 103H133V114C133 119.523 128.523 124 123 124H10C4.47715 124 0 119.523 0 114V103Z" fill="#26BDA9"/>
<path d="M43.516 116V111.758H45.004C45.216 111.758 45.408 111.776 45.58 111.812C45.752 111.844 45.9 111.9 46.024 111.98C46.152 112.06 46.25 112.168 46.318 112.304C46.386 112.44 46.42 112.612 46.42 112.82C46.42 113.036 46.37 113.228 46.27 113.396C46.174 113.564 46.024 113.688 45.82 113.768C46.092 113.816 46.296 113.932 46.432 114.116C46.568 114.296 46.636 114.53 46.636 114.818C46.636 115.046 46.592 115.236 46.504 115.388C46.42 115.54 46.3 115.662 46.144 115.754C45.992 115.842 45.816 115.906 45.616 115.946C45.416 115.982 45.202 116 44.974 116H43.516ZM44.038 115.526H44.956C45.08 115.526 45.208 115.52 45.34 115.508C45.476 115.492 45.602 115.462 45.718 115.418C45.834 115.37 45.928 115.296 46 115.196C46.072 115.096 46.108 114.962 46.108 114.794C46.108 114.65 46.08 114.532 46.024 114.44C45.972 114.348 45.9 114.276 45.808 114.224C45.72 114.172 45.618 114.136 45.502 114.116C45.386 114.096 45.268 114.086 45.148 114.086H44.038V115.526ZM44.038 113.618H44.854C45.002 113.618 45.14 113.606 45.268 113.582C45.396 113.554 45.508 113.51 45.604 113.45C45.7 113.39 45.774 113.312 45.826 113.216C45.882 113.12 45.91 113 45.91 112.856C45.91 112.672 45.868 112.536 45.784 112.448C45.7 112.36 45.59 112.302 45.454 112.274C45.318 112.246 45.17 112.232 45.01 112.232H44.038V113.618ZM47.2891 116V112.838H47.8111V114.044H48.3811C48.5691 114.044 48.7391 114.06 48.8911 114.092C49.0431 114.124 49.1731 114.176 49.2811 114.248C49.3891 114.32 49.4711 114.418 49.5271 114.542C49.5831 114.662 49.6111 114.814 49.6111 114.998C49.6111 115.174 49.5811 115.326 49.5211 115.454C49.4611 115.582 49.3751 115.686 49.2631 115.766C49.1551 115.846 49.0251 115.906 48.8731 115.946C48.7251 115.982 48.5631 116 48.3871 116H47.2891ZM47.8111 115.556H47.9791C48.1191 115.556 48.2551 115.554 48.3871 115.55C48.5191 115.542 48.6371 115.522 48.7411 115.49C48.8491 115.458 48.9351 115.406 48.9991 115.334C49.0631 115.258 49.0951 115.152 49.0951 115.016C49.0951 114.888 49.0691 114.79 49.0171 114.722C48.9691 114.65 48.9051 114.598 48.8251 114.566C48.7451 114.53 48.6571 114.508 48.5611 114.5C48.4691 114.492 48.3771 114.488 48.2851 114.488H47.8111V115.556ZM50.0491 116V112.838H50.5591V116H50.0491ZM52.6488 116.036C52.4488 116.036 52.2708 116.008 52.1148 115.952C51.9588 115.892 51.8248 115.81 51.7128 115.706C51.6008 115.598 51.5088 115.472 51.4368 115.328C51.3648 115.18 51.3108 115.02 51.2748 114.848C51.2388 114.676 51.2208 114.494 51.2208 114.302C51.2208 113.994 51.2268 113.708 51.2388 113.444C51.2548 113.176 51.2988 112.938 51.3708 112.73C51.4428 112.518 51.5648 112.342 51.7368 112.202C51.9088 112.062 52.1508 111.964 52.4628 111.908C52.6228 111.88 52.7808 111.856 52.9368 111.836C53.0928 111.816 53.2508 111.796 53.4108 111.776C53.4628 111.768 53.5168 111.76 53.5728 111.752C53.6288 111.744 53.6868 111.734 53.7468 111.722C53.8108 111.71 53.8708 111.7 53.9268 111.692V112.16C53.8828 112.176 53.8348 112.19 53.7828 112.202C53.7348 112.21 53.6828 112.218 53.6268 112.226C53.5748 112.234 53.5208 112.24 53.4648 112.244C53.4128 112.248 53.3608 112.254 53.3088 112.262C53.2568 112.266 53.2068 112.272 53.1588 112.28C53.0188 112.296 52.8708 112.312 52.7148 112.328C52.5588 112.34 52.4108 112.372 52.2708 112.424C52.1348 112.472 52.0188 112.566 51.9228 112.706C51.8748 112.778 51.8328 112.864 51.7968 112.964C51.7648 113.064 51.7408 113.166 51.7248 113.27C51.7128 113.37 51.7048 113.466 51.7008 113.558C51.7808 113.446 51.8788 113.356 51.9948 113.288C52.1108 113.216 52.2348 113.164 52.3668 113.132C52.4988 113.096 52.6248 113.078 52.7448 113.078C53.0328 113.078 53.2768 113.138 53.4768 113.258C53.6768 113.374 53.8288 113.54 53.9328 113.756C54.0368 113.972 54.0888 114.224 54.0888 114.512C54.0888 114.8 54.0328 115.06 53.9208 115.292C53.8088 115.52 53.6448 115.702 53.4288 115.838C53.2168 115.97 52.9568 116.036 52.6488 116.036ZM52.6608 115.586C52.8608 115.586 53.0288 115.538 53.1648 115.442C53.3008 115.346 53.4028 115.218 53.4708 115.058C53.5428 114.898 53.5788 114.722 53.5788 114.53C53.5788 114.342 53.5428 114.174 53.4708 114.026C53.4028 113.874 53.3008 113.754 53.1648 113.666C53.0328 113.578 52.8688 113.534 52.6728 113.534C52.4808 113.534 52.3148 113.58 52.1748 113.672C52.0388 113.764 51.9328 113.888 51.8568 114.044C51.7848 114.196 51.7488 114.362 51.7488 114.542C51.7488 114.726 51.7828 114.898 51.8508 115.058C51.9188 115.218 52.0188 115.346 52.1508 115.442C52.2868 115.538 52.4568 115.586 52.6608 115.586ZM54.7293 117.14V112.838H55.2153L55.2393 113.324C55.3473 113.152 55.4933 113.022 55.6773 112.934C55.8653 112.846 56.0673 112.802 56.2833 112.802C56.6033 112.802 56.8653 112.874 57.0693 113.018C57.2733 113.158 57.4233 113.35 57.5193 113.594C57.6193 113.838 57.6693 114.114 57.6693 114.422C57.6693 114.73 57.6193 115.006 57.5193 115.25C57.4193 115.494 57.2653 115.686 57.0573 115.826C56.8493 115.966 56.5833 116.036 56.2593 116.036C56.0993 116.036 55.9553 116.02 55.8273 115.988C55.6993 115.952 55.5873 115.902 55.4913 115.838C55.3953 115.774 55.3113 115.702 55.2393 115.622V117.14H54.7293ZM56.2173 115.586C56.4493 115.586 56.6333 115.534 56.7693 115.43C56.9053 115.322 57.0033 115.18 57.0633 115.004C57.1273 114.828 57.1593 114.634 57.1593 114.422C57.1593 114.206 57.1273 114.01 57.0633 113.834C57.0033 113.658 56.9033 113.518 56.7633 113.414C56.6233 113.31 56.4373 113.258 56.2053 113.258C55.9973 113.258 55.8193 113.312 55.6713 113.42C55.5273 113.524 55.4173 113.666 55.3413 113.846C55.2653 114.022 55.2273 114.216 55.2273 114.428C55.2273 114.648 55.2633 114.846 55.3353 115.022C55.4073 115.198 55.5173 115.336 55.6653 115.436C55.8133 115.536 55.9973 115.586 56.2173 115.586ZM59.2964 116.036C59.1524 116.036 59.0124 116.018 58.8764 115.982C58.7444 115.942 58.6244 115.884 58.5164 115.808C58.4124 115.728 58.3284 115.63 58.2644 115.514C58.2044 115.394 58.1744 115.256 58.1744 115.1C58.1744 114.92 58.2064 114.768 58.2704 114.644C58.3384 114.52 58.4284 114.422 58.5404 114.35C58.6524 114.278 58.7824 114.226 58.9304 114.194C59.0784 114.162 59.2324 114.146 59.3924 114.146H60.3224C60.3224 113.966 60.2964 113.81 60.2444 113.678C60.1964 113.546 60.1164 113.444 60.0044 113.372C59.8924 113.296 59.7444 113.258 59.5604 113.258C59.4484 113.258 59.3444 113.27 59.2484 113.294C59.1524 113.318 59.0704 113.356 59.0024 113.408C58.9344 113.46 58.8844 113.53 58.8524 113.618H58.3064C58.3344 113.474 58.3884 113.352 58.4684 113.252C58.5524 113.148 58.6524 113.064 58.7684 113C58.8884 112.932 59.0164 112.882 59.1524 112.85C59.2884 112.818 59.4244 112.802 59.5604 112.802C59.8644 112.802 60.1084 112.864 60.2924 112.988C60.4764 113.108 60.6104 113.28 60.6944 113.504C60.7784 113.724 60.8204 113.986 60.8204 114.29V116H60.3944L60.3644 115.598C60.2764 115.718 60.1704 115.81 60.0464 115.874C59.9224 115.938 59.7944 115.98 59.6624 116C59.5344 116.024 59.4124 116.036 59.2964 116.036ZM59.3444 115.586C59.5444 115.586 59.7164 115.554 59.8604 115.49C60.0084 115.422 60.1224 115.324 60.2024 115.196C60.2824 115.068 60.3224 114.912 60.3224 114.728V114.572H59.7644C59.6324 114.572 59.5024 114.574 59.3744 114.578C59.2464 114.582 59.1304 114.598 59.0264 114.626C58.9224 114.654 58.8384 114.702 58.7744 114.77C58.7144 114.838 58.6844 114.936 58.6844 115.064C58.6844 115.184 58.7144 115.282 58.7744 115.358C58.8384 115.434 58.9204 115.492 59.0204 115.532C59.1244 115.568 59.2324 115.586 59.3444 115.586ZM62.304 116V113.288H61.218V112.838H63.9V113.288H62.814V116H62.304ZM64.3105 116V112.838H64.8325V114.044H65.5285C65.7165 114.044 65.8845 114.06 66.0325 114.092C66.1845 114.12 66.3145 114.17 66.4225 114.242C66.5305 114.314 66.6125 114.412 66.6685 114.536C66.7285 114.656 66.7585 114.81 66.7585 114.998C66.7585 115.17 66.7285 115.32 66.6685 115.448C66.6085 115.572 66.5245 115.676 66.4165 115.76C66.3085 115.84 66.1785 115.9 66.0265 115.94C65.8785 115.98 65.7145 116 65.5345 116H64.3105ZM64.8325 115.556H65.1325C65.2725 115.556 65.4065 115.552 65.5345 115.544C65.6665 115.536 65.7865 115.516 65.8945 115.484C66.0025 115.452 66.0865 115.4 66.1465 115.328C66.2105 115.252 66.2425 115.148 66.2425 115.016C66.2425 114.888 66.2165 114.79 66.1645 114.722C66.1165 114.65 66.0525 114.598 65.9725 114.566C65.8925 114.53 65.8045 114.508 65.7085 114.5C65.6165 114.492 65.5245 114.488 65.4325 114.488H64.8325V115.556ZM68.9499 116V112.838H69.4599V114.2H70.0119L70.9479 112.838H71.5299L70.4739 114.344L71.6199 116H71.0199L70.0719 114.644H69.4599V116H68.9499ZM72.0167 116V112.838H73.2407C73.3807 112.838 73.5187 112.848 73.6547 112.868C73.7947 112.884 73.9207 112.92 74.0327 112.976C74.1487 113.028 74.2407 113.106 74.3087 113.21C74.3807 113.314 74.4167 113.452 74.4167 113.624C74.4167 113.728 74.4007 113.824 74.3687 113.912C74.3367 113.996 74.2887 114.07 74.2247 114.134C74.1647 114.198 74.0867 114.254 73.9907 114.302C74.2067 114.35 74.3627 114.444 74.4587 114.584C74.5547 114.724 74.6027 114.884 74.6027 115.064C74.6027 115.224 74.5727 115.364 74.5127 115.484C74.4567 115.6 74.3767 115.696 74.2727 115.772C74.1727 115.848 74.0547 115.906 73.9187 115.946C73.7867 115.982 73.6447 116 73.4927 116H72.0167ZM72.5387 115.556H73.3727C73.4967 115.556 73.6127 115.544 73.7207 115.52C73.8287 115.496 73.9167 115.452 73.9847 115.388C74.0527 115.32 74.0867 115.224 74.0867 115.1C74.0867 114.972 74.0567 114.876 73.9967 114.812C73.9407 114.744 73.8667 114.698 73.7747 114.674C73.6867 114.646 73.5907 114.63 73.4867 114.626C73.3827 114.622 73.2847 114.62 73.1927 114.62H72.5387V115.556ZM72.5387 114.188H72.9767C73.0567 114.188 73.1487 114.184 73.2527 114.176C73.3607 114.168 73.4647 114.15 73.5647 114.122C73.6687 114.09 73.7527 114.042 73.8167 113.978C73.8847 113.914 73.9187 113.826 73.9187 113.714C73.9187 113.566 73.8767 113.464 73.7927 113.408C73.7127 113.348 73.6167 113.314 73.5047 113.306C73.3927 113.294 73.2887 113.288 73.1927 113.288H72.5387V114.188ZM76.2674 116.036C76.1234 116.036 75.9834 116.018 75.8474 115.982C75.7154 115.942 75.5954 115.884 75.4874 115.808C75.3834 115.728 75.2994 115.63 75.2354 115.514C75.1754 115.394 75.1454 115.256 75.1454 115.1C75.1454 114.92 75.1774 114.768 75.2414 114.644C75.3094 114.52 75.3994 114.422 75.5114 114.35C75.6234 114.278 75.7534 114.226 75.9014 114.194C76.0494 114.162 76.2034 114.146 76.3634 114.146H77.2934C77.2934 113.966 77.2674 113.81 77.2154 113.678C77.1674 113.546 77.0874 113.444 76.9754 113.372C76.8634 113.296 76.7154 113.258 76.5314 113.258C76.4194 113.258 76.3154 113.27 76.2194 113.294C76.1234 113.318 76.0414 113.356 75.9734 113.408C75.9054 113.46 75.8554 113.53 75.8234 113.618H75.2774C75.3054 113.474 75.3594 113.352 75.4394 113.252C75.5234 113.148 75.6234 113.064 75.7394 113C75.8594 112.932 75.9874 112.882 76.1234 112.85C76.2594 112.818 76.3954 112.802 76.5314 112.802C76.8354 112.802 77.0794 112.864 77.2634 112.988C77.4474 113.108 77.5814 113.28 77.6654 113.504C77.7494 113.724 77.7914 113.986 77.7914 114.29V116H77.3654L77.3354 115.598C77.2474 115.718 77.1414 115.81 77.0174 115.874C76.8934 115.938 76.7654 115.98 76.6334 116C76.5054 116.024 76.3834 116.036 76.2674 116.036ZM76.3154 115.586C76.5154 115.586 76.6874 115.554 76.8314 115.49C76.9794 115.422 77.0934 115.324 77.1734 115.196C77.2534 115.068 77.2934 114.912 77.2934 114.728V114.572H76.7354C76.6034 114.572 76.4734 114.574 76.3454 114.578C76.2174 114.582 76.1014 114.598 75.9974 114.626C75.8934 114.654 75.8094 114.702 75.7454 114.77C75.6854 114.838 75.6554 114.936 75.6554 115.064C75.6554 115.184 75.6854 115.282 75.7454 115.358C75.8094 115.434 75.8914 115.492 75.9914 115.532C76.0954 115.568 76.2034 115.586 76.3154 115.586ZM78.537 117.14V112.838H79.023L79.047 113.324C79.155 113.152 79.301 113.022 79.485 112.934C79.673 112.846 79.875 112.802 80.091 112.802C80.411 112.802 80.673 112.874 80.877 113.018C81.081 113.158 81.231 113.35 81.327 113.594C81.427 113.838 81.477 114.114 81.477 114.422C81.477 114.73 81.427 115.006 81.327 115.25C81.227 115.494 81.073 115.686 80.865 115.826C80.657 115.966 80.391 116.036 80.067 116.036C79.907 116.036 79.763 116.02 79.635 115.988C79.507 115.952 79.395 115.902 79.299 115.838C79.203 115.774 79.119 115.702 79.047 115.622V117.14H78.537ZM80.025 115.586C80.257 115.586 80.441 115.534 80.577 115.43C80.713 115.322 80.811 115.18 80.871 115.004C80.935 114.828 80.967 114.634 80.967 114.422C80.967 114.206 80.935 114.01 80.871 113.834C80.811 113.658 80.711 113.518 80.571 113.414C80.431 113.31 80.245 113.258 80.013 113.258C79.805 113.258 79.627 113.312 79.479 113.42C79.335 113.524 79.225 113.666 79.149 113.846C79.073 114.022 79.035 114.216 79.035 114.428C79.035 114.648 79.071 114.846 79.143 115.022C79.215 115.198 79.325 115.336 79.473 115.436C79.621 115.536 79.805 115.586 80.025 115.586ZM82.8281 116V113.288H81.7421V112.838H84.4241V113.288H83.3381V116H82.8281ZM84.8346 116V112.838H85.3446V115.262C85.3726 115.206 85.4106 115.146 85.4586 115.082C85.5066 115.014 85.5446 114.962 85.5726 114.926L87.1026 112.838H87.6066V116H87.0966V113.576C87.0646 113.636 87.0286 113.692 86.9886 113.744C86.9526 113.796 86.9186 113.844 86.8866 113.888L85.3326 116H84.8346ZM88.3643 117.14V112.838H88.8503L88.8743 113.324C88.9823 113.152 89.1283 113.022 89.3123 112.934C89.5003 112.846 89.7023 112.802 89.9183 112.802C90.2383 112.802 90.5003 112.874 90.7043 113.018C90.9083 113.158 91.0583 113.35 91.1543 113.594C91.2543 113.838 91.3043 114.114 91.3043 114.422C91.3043 114.73 91.2543 115.006 91.1543 115.25C91.0543 115.494 90.9003 115.686 90.6923 115.826C90.4843 115.966 90.2183 116.036 89.8943 116.036C89.7343 116.036 89.5903 116.02 89.4623 115.988C89.3343 115.952 89.2223 115.902 89.1263 115.838C89.0303 115.774 88.9463 115.702 88.8743 115.622V117.14H88.3643ZM89.8523 115.586C90.0843 115.586 90.2683 115.534 90.4043 115.43C90.5403 115.322 90.6383 115.18 90.6983 115.004C90.7623 114.828 90.7943 114.634 90.7943 114.422C90.7943 114.206 90.7623 114.01 90.6983 113.834C90.6383 113.658 90.5383 113.518 90.3983 113.414C90.2583 113.31 90.0723 113.258 89.8403 113.258C89.6323 113.258 89.4543 113.312 89.3063 113.42C89.1623 113.524 89.0523 113.666 88.9763 113.846C88.9003 114.022 88.8623 114.216 88.8623 114.428C88.8623 114.648 88.8983 114.846 88.9703 115.022C89.0423 115.198 89.1523 115.336 89.3003 115.436C89.4483 115.536 89.6323 115.586 89.8523 115.586ZM92.0194 117.356V116.87C92.2154 116.87 92.3714 116.842 92.4874 116.786C92.6034 116.734 92.6994 116.65 92.7754 116.534C92.8554 116.422 92.9314 116.278 93.0034 116.102L91.6174 112.838H92.2174L93.2854 115.502L94.1614 112.838H94.7374L93.8494 115.328C93.8054 115.456 93.7554 115.6 93.6994 115.76C93.6434 115.92 93.5814 116.082 93.5134 116.246C93.4454 116.414 93.3694 116.568 93.2854 116.708C93.2054 116.852 93.1154 116.968 93.0154 117.056C92.9314 117.132 92.8494 117.192 92.7694 117.236C92.6894 117.28 92.5914 117.31 92.4754 117.326C92.3634 117.346 92.2114 117.356 92.0194 117.356Z" fill="#FEFEFE"/>
<path d="M92.18 95V94.562L93.38 93.524C93.488 93.432 93.606 93.332 93.734 93.224C93.866 93.112 93.99 92.992 94.106 92.864C94.226 92.736 94.324 92.6 94.4 92.456C94.48 92.308 94.52 92.152 94.52 91.988C94.52 91.732 94.444 91.536 94.292 91.4C94.14 91.26 93.936 91.19 93.68 91.19C93.476 91.19 93.298 91.232 93.146 91.316C92.994 91.4 92.894 91.522 92.846 91.682H92.288C92.328 91.462 92.418 91.282 92.558 91.142C92.702 90.998 92.874 90.89 93.074 90.818C93.278 90.746 93.488 90.71 93.704 90.71C93.968 90.71 94.2 90.758 94.4 90.854C94.604 90.95 94.762 91.09 94.874 91.274C94.99 91.454 95.048 91.676 95.048 91.94C95.048 92.2 94.998 92.428 94.898 92.624C94.802 92.82 94.674 92.998 94.514 93.158C94.358 93.314 94.19 93.468 94.01 93.62L92.936 94.526H95.096V95H92.18ZM97.3519 95.048C97.0559 95.048 96.8019 94.994 96.5899 94.886C96.3819 94.774 96.2119 94.62 96.0799 94.424C95.9479 94.224 95.8499 93.994 95.7859 93.734C95.7259 93.47 95.6959 93.186 95.6959 92.882C95.6959 92.578 95.7259 92.296 95.7859 92.036C95.8459 91.772 95.9419 91.542 96.0739 91.346C96.2059 91.146 96.3759 90.99 96.5839 90.878C96.7959 90.766 97.0519 90.71 97.3519 90.71C97.6679 90.71 97.9319 90.772 98.1439 90.896C98.3599 91.016 98.5299 91.18 98.6539 91.388C98.7819 91.596 98.8719 91.83 98.9239 92.09C98.9799 92.346 99.0079 92.61 99.0079 92.882C99.0079 93.154 98.9799 93.42 98.9239 93.68C98.8719 93.936 98.7819 94.168 98.6539 94.376C98.5299 94.58 98.3599 94.744 98.1439 94.868C97.9319 94.988 97.6679 95.048 97.3519 95.048ZM97.3519 94.574C97.5879 94.574 97.7779 94.524 97.9219 94.424C98.0699 94.32 98.1839 94.184 98.2639 94.016C98.3439 93.848 98.3979 93.666 98.4259 93.47C98.4539 93.27 98.4679 93.074 98.4679 92.882C98.4679 92.694 98.4539 92.502 98.4259 92.306C98.3979 92.106 98.3439 91.922 98.2639 91.754C98.1839 91.582 98.0699 91.444 97.9219 91.34C97.7779 91.236 97.5879 91.184 97.3519 91.184C97.1119 91.184 96.9179 91.236 96.7699 91.34C96.6219 91.444 96.5079 91.582 96.4279 91.754C96.3519 91.922 96.2999 92.106 96.2719 92.306C96.2439 92.502 96.2299 92.694 96.2299 92.882C96.2299 93.074 96.2439 93.27 96.2719 93.47C96.2999 93.666 96.3519 93.848 96.4279 94.016C96.5079 94.184 96.6219 94.32 96.7699 94.424C96.9179 94.524 97.1119 94.574 97.3519 94.574ZM101.046 95.048C100.878 95.048 100.708 95.032 100.536 95C100.368 94.964 100.21 94.908 100.062 94.832C99.9176 94.756 99.7936 94.654 99.6896 94.526C99.5896 94.398 99.5256 94.24 99.4976 94.052H100.038C100.086 94.188 100.166 94.294 100.278 94.37C100.39 94.446 100.514 94.5 100.65 94.532C100.79 94.56 100.924 94.574 101.052 94.574C101.144 94.574 101.244 94.566 101.352 94.55C101.46 94.534 101.564 94.5 101.664 94.448C101.768 94.396 101.852 94.32 101.916 94.22C101.98 94.116 102.012 93.98 102.012 93.812C102.012 93.652 101.982 93.524 101.922 93.428C101.862 93.328 101.782 93.254 101.682 93.206C101.582 93.154 101.47 93.12 101.346 93.104C101.226 93.088 101.104 93.08 100.98 93.08H100.572V92.612H100.818C100.958 92.612 101.09 92.6 101.214 92.576C101.338 92.548 101.448 92.506 101.544 92.45C101.64 92.394 101.714 92.32 101.766 92.228C101.822 92.136 101.85 92.022 101.85 91.886C101.85 91.69 101.808 91.542 101.724 91.442C101.644 91.342 101.54 91.274 101.412 91.238C101.284 91.202 101.15 91.184 101.01 91.184C100.898 91.184 100.782 91.202 100.662 91.238C100.546 91.27 100.442 91.324 100.35 91.4C100.258 91.472 100.196 91.57 100.164 91.694H99.6416C99.6656 91.518 99.7216 91.368 99.8096 91.244C99.8976 91.12 100.006 91.018 100.134 90.938C100.266 90.858 100.41 90.8 100.566 90.764C100.726 90.728 100.888 90.71 101.052 90.71C101.232 90.71 101.4 90.73 101.556 90.77C101.716 90.806 101.856 90.868 101.976 90.956C102.096 91.04 102.19 91.152 102.258 91.292C102.33 91.432 102.366 91.602 102.366 91.802C102.366 91.95 102.342 92.086 102.294 92.21C102.246 92.334 102.174 92.442 102.078 92.534C101.986 92.626 101.87 92.702 101.73 92.762C101.91 92.794 102.06 92.858 102.18 92.954C102.304 93.05 102.396 93.168 102.456 93.308C102.52 93.444 102.552 93.598 102.552 93.77C102.552 94.038 102.504 94.256 102.408 94.424C102.312 94.592 102.188 94.722 102.036 94.814C101.884 94.902 101.72 94.964 101.544 95C101.368 95.032 101.202 95.048 101.046 95.048ZM103.861 95V91.598H102.997V91.244C103.157 91.232 103.299 91.214 103.423 91.19C103.547 91.162 103.657 91.116 103.753 91.052C103.853 90.984 103.941 90.886 104.017 90.758H104.383V95H103.861ZM105.384 95V91.838H107.568V92.288H105.894V95H105.384ZM108.184 95.048C108.08 95.048 107.994 95.014 107.926 94.946C107.858 94.878 107.824 94.792 107.824 94.688C107.824 94.584 107.858 94.498 107.926 94.43C107.994 94.362 108.08 94.328 108.184 94.328C108.288 94.328 108.374 94.362 108.442 94.43C108.51 94.498 108.544 94.584 108.544 94.688C108.544 94.792 108.51 94.878 108.442 94.946C108.374 95.014 108.288 95.048 108.184 95.048Z" fill="#383838"/>
<path d="M93.782 63.036C93.45 63.036 93.172 62.968 92.948 62.832C92.724 62.692 92.556 62.5 92.444 62.256C92.336 62.012 92.282 61.734 92.282 61.422C92.282 61.106 92.336 60.828 92.444 60.588C92.556 60.344 92.724 60.152 92.948 60.012C93.172 59.872 93.454 59.802 93.794 59.802C94.126 59.802 94.402 59.872 94.622 60.012C94.846 60.152 95.012 60.344 95.12 60.588C95.232 60.828 95.288 61.106 95.288 61.422C95.288 61.734 95.232 62.012 95.12 62.256C95.008 62.5 94.84 62.692 94.616 62.832C94.396 62.968 94.118 63.036 93.782 63.036ZM93.782 62.586C94.014 62.586 94.202 62.534 94.346 62.43C94.494 62.326 94.602 62.186 94.67 62.01C94.742 61.834 94.778 61.638 94.778 61.422C94.778 61.206 94.742 61.01 94.67 60.834C94.602 60.658 94.494 60.518 94.346 60.414C94.202 60.31 94.014 60.258 93.782 60.258C93.554 60.258 93.366 60.31 93.218 60.414C93.074 60.518 92.966 60.658 92.894 60.834C92.826 61.01 92.792 61.206 92.792 61.422C92.792 61.638 92.826 61.834 92.894 62.01C92.966 62.186 93.074 62.326 93.218 62.43C93.366 62.534 93.554 62.586 93.782 62.586ZM96.6638 63V60.288H95.5778V59.838H98.2598V60.288H97.1738V63H96.6638ZM100.855 63V59.598H99.991V59.244C100.151 59.232 100.293 59.214 100.417 59.19C100.541 59.162 100.651 59.116 100.747 59.052C100.847 58.984 100.935 58.886 101.011 58.758H101.377V63H100.855ZM102.99 63V59.598H102.126V59.244C102.286 59.232 102.428 59.214 102.552 59.19C102.676 59.162 102.786 59.116 102.882 59.052C102.982 58.984 103.07 58.886 103.146 58.758H103.512V63H102.99ZM104.873 63.048C104.769 63.048 104.683 63.014 104.615 62.946C104.547 62.878 104.513 62.792 104.513 62.688C104.513 62.584 104.547 62.498 104.615 62.43C104.683 62.362 104.769 62.328 104.873 62.328C104.977 62.328 105.063 62.362 105.131 62.43C105.199 62.498 105.233 62.584 105.233 62.688C105.233 62.792 105.199 62.878 105.131 62.946C105.063 63.014 104.977 63.048 104.873 63.048ZM106.487 63V59.598H105.623V59.244C105.783 59.232 105.925 59.214 106.049 59.19C106.173 59.162 106.283 59.116 106.379 59.052C106.479 58.984 106.567 58.886 106.643 58.758H107.009V63H106.487ZM109.583 63V59.838H110.267L111.293 61.422L112.301 59.838H112.973V63H112.469V60.402L111.353 62.19H111.209L110.087 60.402V63H109.583ZM113.446 63.006V62.562C113.526 62.562 113.598 62.546 113.662 62.514C113.726 62.478 113.782 62.426 113.83 62.358C113.886 62.278 113.93 62.162 113.962 62.01C113.994 61.858 114.016 61.696 114.028 61.524C114.044 61.332 114.056 61.144 114.064 60.96C114.072 60.772 114.078 60.586 114.082 60.402C114.09 60.218 114.094 60.03 114.094 59.838H116.29V63H115.78V60.288H114.592C114.588 60.424 114.582 60.562 114.574 60.702C114.57 60.838 114.564 60.976 114.556 61.116C114.552 61.252 114.546 61.39 114.538 61.53C114.534 61.69 114.518 61.87 114.49 62.07C114.462 62.27 114.402 62.452 114.31 62.616C114.222 62.772 114.114 62.876 113.986 62.928C113.862 62.98 113.682 63.006 113.446 63.006ZM117.046 63V59.838H117.556V61.224H119.14V59.838H119.65V63H119.14V61.674H117.556V63H117.046ZM122.105 63V58.758H123.575C123.887 58.758 124.155 58.81 124.379 58.914C124.603 59.014 124.773 59.168 124.889 59.376C125.009 59.584 125.069 59.848 125.069 60.168C125.069 60.48 124.999 60.744 124.859 60.96C124.723 61.172 124.535 61.332 124.295 61.44C124.055 61.548 123.779 61.602 123.467 61.602H122.627V63H122.105ZM122.627 61.128H123.443C123.767 61.128 124.029 61.052 124.229 60.9C124.433 60.744 124.535 60.492 124.535 60.144C124.535 59.84 124.453 59.612 124.289 59.46C124.125 59.308 123.879 59.232 123.551 59.232H122.627V61.128Z" fill="#383838"/>
<path d="M11.014 51V47.598H10.15V47.244C10.31 47.232 10.452 47.214 10.576 47.19C10.7 47.162 10.81 47.116 10.906 47.052C11.006 46.984 11.094 46.886 11.17 46.758H11.536V51H11.014ZM14.1098 51V47.838H14.6198V49.2H15.1718L16.1078 47.838H16.6898L15.6338 49.344L16.7798 51H16.1798L15.2318 49.644H14.6198V51H14.1098ZM18.498 51.036C18.166 51.036 17.888 50.968 17.664 50.832C17.44 50.692 17.272 50.5 17.16 50.256C17.052 50.012 16.998 49.734 16.998 49.422C16.998 49.106 17.052 48.828 17.16 48.588C17.272 48.344 17.44 48.152 17.664 48.012C17.888 47.872 18.17 47.802 18.51 47.802C18.842 47.802 19.118 47.872 19.338 48.012C19.562 48.152 19.728 48.344 19.836 48.588C19.948 48.828 20.004 49.106 20.004 49.422C20.004 49.734 19.948 50.012 19.836 50.256C19.724 50.5 19.556 50.692 19.332 50.832C19.112 50.968 18.834 51.036 18.498 51.036ZM18.498 50.586C18.73 50.586 18.918 50.534 19.062 50.43C19.21 50.326 19.318 50.186 19.386 50.01C19.458 49.834 19.494 49.638 19.494 49.422C19.494 49.206 19.458 49.01 19.386 48.834C19.318 48.658 19.21 48.518 19.062 48.414C18.918 48.31 18.73 48.258 18.498 48.258C18.27 48.258 18.082 48.31 17.934 48.414C17.79 48.518 17.682 48.658 17.61 48.834C17.542 49.01 17.508 49.206 17.508 49.422C17.508 49.638 17.542 49.834 17.61 50.01C17.682 50.186 17.79 50.326 17.934 50.43C18.082 50.534 18.27 50.586 18.498 50.586ZM20.6418 51V47.838H21.3258L22.3518 49.422L23.3598 47.838H24.0318V51H23.5278V48.402L22.4118 50.19H22.2678L21.1458 48.402V51H20.6418ZM24.7926 51V47.838H25.3026V49.224H26.8866V47.838H27.3966V51H26.8866V49.674H25.3026V51H24.7926ZM29.1722 51.036C29.0282 51.036 28.8882 51.018 28.7522 50.982C28.6202 50.942 28.5002 50.884 28.3922 50.808C28.2882 50.728 28.2042 50.63 28.1402 50.514C28.0802 50.394 28.0502 50.256 28.0502 50.1C28.0502 49.92 28.0822 49.768 28.1462 49.644C28.2142 49.52 28.3042 49.422 28.4162 49.35C28.5282 49.278 28.6582 49.226 28.8062 49.194C28.9542 49.162 29.1082 49.146 29.2682 49.146H30.1982C30.1982 48.966 30.1722 48.81 30.1202 48.678C30.0722 48.546 29.9922 48.444 29.8802 48.372C29.7682 48.296 29.6202 48.258 29.4362 48.258C29.3242 48.258 29.2202 48.27 29.1242 48.294C29.0282 48.318 28.9462 48.356 28.8782 48.408C28.8102 48.46 28.7602 48.53 28.7282 48.618H28.1822C28.2102 48.474 28.2642 48.352 28.3442 48.252C28.4282 48.148 28.5282 48.064 28.6442 48C28.7642 47.932 28.8922 47.882 29.0282 47.85C29.1642 47.818 29.3002 47.802 29.4362 47.802C29.7402 47.802 29.9842 47.864 30.1682 47.988C30.3522 48.108 30.4862 48.28 30.5702 48.504C30.6542 48.724 30.6962 48.986 30.6962 49.29V51H30.2702L30.2402 50.598C30.1522 50.718 30.0462 50.81 29.9222 50.874C29.7982 50.938 29.6702 50.98 29.5382 51C29.4102 51.024 29.2882 51.036 29.1722 51.036ZM29.2202 50.586C29.4202 50.586 29.5922 50.554 29.7362 50.49C29.8842 50.422 29.9982 50.324 30.0782 50.196C30.1582 50.068 30.1982 49.912 30.1982 49.728V49.572H29.6402C29.5082 49.572 29.3782 49.574 29.2502 49.578C29.1222 49.582 29.0062 49.598 28.9022 49.626C28.7982 49.654 28.7142 49.702 28.6502 49.77C28.5902 49.838 28.5602 49.936 28.5602 50.064C28.5602 50.184 28.5902 50.282 28.6502 50.358C28.7142 50.434 28.7962 50.492 28.8962 50.532C29.0002 50.568 29.1082 50.586 29.2202 50.586ZM32.1797 51V48.288H31.0937V47.838H33.7757V48.288H32.6897V51H32.1797ZM34.1863 51V47.838H34.6963V49.224H36.2803V47.838H36.7903V51H36.2803V49.674H34.6963V51H34.1863ZM38.5659 51.036C38.4219 51.036 38.2819 51.018 38.1459 50.982C38.0139 50.942 37.8939 50.884 37.7859 50.808C37.6819 50.728 37.5979 50.63 37.5339 50.514C37.4739 50.394 37.4439 50.256 37.4439 50.1C37.4439 49.92 37.4759 49.768 37.5399 49.644C37.6079 49.52 37.6979 49.422 37.8099 49.35C37.9219 49.278 38.0519 49.226 38.1999 49.194C38.3479 49.162 38.5019 49.146 38.6619 49.146H39.5919C39.5919 48.966 39.5659 48.81 39.5139 48.678C39.4659 48.546 39.3859 48.444 39.2739 48.372C39.1619 48.296 39.0139 48.258 38.8299 48.258C38.7179 48.258 38.6139 48.27 38.5179 48.294C38.4219 48.318 38.3399 48.356 38.2719 48.408C38.2039 48.46 38.1539 48.53 38.1219 48.618H37.5759C37.6039 48.474 37.6579 48.352 37.7379 48.252C37.8219 48.148 37.9219 48.064 38.0379 48C38.1579 47.932 38.2859 47.882 38.4219 47.85C38.5579 47.818 38.6939 47.802 38.8299 47.802C39.1339 47.802 39.3779 47.864 39.5619 47.988C39.7459 48.108 39.8799 48.28 39.9639 48.504C40.0479 48.724 40.0899 48.986 40.0899 49.29V51H39.6639L39.6339 50.598C39.5459 50.718 39.4399 50.81 39.3159 50.874C39.1919 50.938 39.0639 50.98 38.9319 51C38.8039 51.024 38.6819 51.036 38.5659 51.036ZM38.6139 50.586C38.8139 50.586 38.9859 50.554 39.1299 50.49C39.2779 50.422 39.3919 50.324 39.4719 50.196C39.5519 50.068 39.5919 49.912 39.5919 49.728V49.572H39.0339C38.9019 49.572 38.7719 49.574 38.6439 49.578C38.5159 49.582 38.3999 49.598 38.2959 49.626C38.1919 49.654 38.1079 49.702 38.0439 49.77C37.9839 49.838 37.9539 49.936 37.9539 50.064C37.9539 50.184 37.9839 50.282 38.0439 50.358C38.1079 50.434 38.1899 50.492 38.2899 50.532C38.3939 50.568 38.5019 50.586 38.6139 50.586ZM40.6375 51L41.4595 49.752C41.2315 49.688 41.0515 49.584 40.9195 49.44C40.7875 49.292 40.7215 49.096 40.7215 48.852C40.7215 48.66 40.7495 48.5 40.8055 48.372C40.8615 48.24 40.9435 48.136 41.0515 48.06C41.1595 47.98 41.2895 47.924 41.4415 47.892C41.5935 47.856 41.7675 47.838 41.9635 47.838H43.2355V51H42.7255V49.83H41.9995L41.2315 51H40.6375ZM42.3475 49.386H42.7255V48.288H42.0475C41.9275 48.288 41.8175 48.294 41.7175 48.306C41.6175 48.318 41.5315 48.344 41.4595 48.384C41.3915 48.42 41.3375 48.474 41.2975 48.546C41.2575 48.614 41.2375 48.708 41.2375 48.828C41.2375 48.96 41.2695 49.064 41.3335 49.14C41.4015 49.216 41.4875 49.272 41.5915 49.308C41.6995 49.34 41.8195 49.362 41.9515 49.374C42.0835 49.382 42.2155 49.386 42.3475 49.386Z" fill="#26BDA9"/>
<path d="M50.782 51.036C50.45 51.036 50.172 50.968 49.948 50.832C49.724 50.692 49.556 50.5 49.444 50.256C49.336 50.012 49.282 49.734 49.282 49.422C49.282 49.106 49.336 48.828 49.444 48.588C49.556 48.344 49.724 48.152 49.948 48.012C50.172 47.872 50.454 47.802 50.794 47.802C51.126 47.802 51.402 47.872 51.622 48.012C51.846 48.152 52.012 48.344 52.12 48.588C52.232 48.828 52.288 49.106 52.288 49.422C52.288 49.734 52.232 50.012 52.12 50.256C52.008 50.5 51.84 50.692 51.616 50.832C51.396 50.968 51.118 51.036 50.782 51.036ZM50.782 50.586C51.014 50.586 51.202 50.534 51.346 50.43C51.494 50.326 51.602 50.186 51.67 50.01C51.742 49.834 51.778 49.638 51.778 49.422C51.778 49.206 51.742 49.01 51.67 48.834C51.602 48.658 51.494 48.518 51.346 48.414C51.202 48.31 51.014 48.258 50.782 48.258C50.554 48.258 50.366 48.31 50.218 48.414C50.074 48.518 49.966 48.658 49.894 48.834C49.826 49.01 49.792 49.206 49.792 49.422C49.792 49.638 49.826 49.834 49.894 50.01C49.966 50.186 50.074 50.326 50.218 50.43C50.366 50.534 50.554 50.586 50.782 50.586ZM53.6638 51V48.288H52.5778V47.838H55.2598V48.288H54.1738V51H53.6638ZM58.9292 51.054C58.7532 51.054 58.5832 51.034 58.4192 50.994C58.2592 50.954 58.1132 50.894 57.9812 50.814C57.8492 50.73 57.7372 50.624 57.6452 50.496C57.5532 50.368 57.4892 50.216 57.4532 50.04H57.9812C58.0252 50.152 58.0952 50.248 58.1912 50.328C58.2872 50.408 58.3952 50.47 58.5152 50.514C58.6392 50.554 58.7612 50.574 58.8812 50.574C59.0772 50.574 59.2512 50.542 59.4032 50.478C59.5592 50.414 59.6832 50.316 59.7752 50.184C59.8672 50.048 59.9132 49.874 59.9132 49.662C59.9132 49.37 59.8252 49.146 59.6492 48.99C59.4732 48.834 59.2452 48.756 58.9652 48.756C58.7972 48.756 58.6412 48.786 58.4972 48.846C58.3572 48.906 58.2292 48.988 58.1132 49.092H57.5732L57.7652 46.758H60.3032V47.238H58.2332L58.1132 48.57C58.2212 48.482 58.3532 48.412 58.5092 48.36C58.6652 48.304 58.8572 48.276 59.0852 48.276C59.3572 48.276 59.5952 48.332 59.7992 48.444C60.0072 48.556 60.1672 48.714 60.2792 48.918C60.3952 49.118 60.4532 49.356 60.4532 49.632C60.4532 49.928 60.3852 50.182 60.2492 50.394C60.1172 50.606 59.9352 50.77 59.7032 50.886C59.4752 50.998 59.2172 51.054 58.9292 51.054ZM63.2899 51V50.154H60.9859V49.764L63.0619 46.758H63.8119V49.68H64.3099V50.154H63.8119V51H63.2899ZM61.6159 49.68H63.2899V47.232L61.6159 49.68ZM65.3654 51.048C65.2614 51.048 65.1754 51.014 65.1074 50.946C65.0394 50.878 65.0054 50.792 65.0054 50.688C65.0054 50.584 65.0394 50.498 65.1074 50.43C65.1754 50.362 65.2614 50.328 65.3654 50.328C65.4694 50.328 65.5554 50.362 65.6234 50.43C65.6914 50.498 65.7254 50.584 65.7254 50.688C65.7254 50.792 65.6914 50.878 65.6234 50.946C65.5554 51.014 65.4694 51.048 65.3654 51.048ZM66.5026 51V50.562L67.7026 49.524C67.8106 49.432 67.9286 49.332 68.0566 49.224C68.1886 49.112 68.3126 48.992 68.4286 48.864C68.5486 48.736 68.6466 48.6 68.7226 48.456C68.8026 48.308 68.8426 48.152 68.8426 47.988C68.8426 47.732 68.7666 47.536 68.6146 47.4C68.4626 47.26 68.2586 47.19 68.0026 47.19C67.7986 47.19 67.6206 47.232 67.4686 47.316C67.3166 47.4 67.2166 47.522 67.1686 47.682H66.6106C66.6506 47.462 66.7406 47.282 66.8806 47.142C67.0246 46.998 67.1966 46.89 67.3966 46.818C67.6006 46.746 67.8106 46.71 68.0266 46.71C68.2906 46.71 68.5226 46.758 68.7226 46.854C68.9266 46.95 69.0846 47.09 69.1966 47.274C69.3126 47.454 69.3706 47.676 69.3706 47.94C69.3706 48.2 69.3206 48.428 69.2206 48.624C69.1246 48.82 68.9966 48.998 68.8366 49.158C68.6806 49.314 68.5126 49.468 68.3326 49.62L67.2586 50.526H69.4186V51H66.5026ZM71.6511 51V47.838H72.3351L73.3611 49.422L74.3691 47.838H75.0411V51H74.5371V48.402L73.4211 50.19H73.2771L72.1551 48.402V51H71.6511ZM75.7719 48.72V48.354L76.3659 47.844C76.4219 47.796 76.4859 47.74 76.5579 47.676C76.6339 47.608 76.6999 47.536 76.7559 47.46C76.8119 47.384 76.8399 47.308 76.8399 47.232C76.8399 47.124 76.8099 47.042 76.7499 46.986C76.6899 46.93 76.6079 46.902 76.5039 46.902C76.4239 46.902 76.3519 46.922 76.2879 46.962C76.2239 46.998 76.1879 47.06 76.1799 47.148H75.7599C75.7679 46.924 75.8479 46.76 75.9999 46.656C76.1519 46.552 76.3299 46.5 76.5339 46.5C76.7459 46.5 76.9219 46.558 77.0619 46.674C77.2019 46.786 77.2719 46.95 77.2719 47.166C77.2719 47.342 77.2279 47.494 77.1399 47.622C77.0519 47.746 76.9479 47.86 76.8279 47.964C76.7559 48.028 76.6839 48.088 76.6119 48.144C76.5399 48.2 76.4679 48.26 76.3959 48.324H77.2479V48.72H75.7719Z" fill="#B0B0B0"/>
<path d="M93.782 51.036C93.45 51.036 93.172 50.968 92.948 50.832C92.724 50.692 92.556 50.5 92.444 50.256C92.336 50.012 92.282 49.734 92.282 49.422C92.282 49.106 92.336 48.828 92.444 48.588C92.556 48.344 92.724 48.152 92.948 48.012C93.172 47.872 93.454 47.802 93.794 47.802C94.126 47.802 94.402 47.872 94.622 48.012C94.846 48.152 95.012 48.344 95.12 48.588C95.232 48.828 95.288 49.106 95.288 49.422C95.288 49.734 95.232 50.012 95.12 50.256C95.008 50.5 94.84 50.692 94.616 50.832C94.396 50.968 94.118 51.036 93.782 51.036ZM93.782 50.586C94.014 50.586 94.202 50.534 94.346 50.43C94.494 50.326 94.602 50.186 94.67 50.01C94.742 49.834 94.778 49.638 94.778 49.422C94.778 49.206 94.742 49.01 94.67 48.834C94.602 48.658 94.494 48.518 94.346 48.414C94.202 48.31 94.014 48.258 93.782 48.258C93.554 48.258 93.366 48.31 93.218 48.414C93.074 48.518 92.966 48.658 92.894 48.834C92.826 49.01 92.792 49.206 92.792 49.422C92.792 49.638 92.826 49.834 92.894 50.01C92.966 50.186 93.074 50.326 93.218 50.43C93.366 50.534 93.554 50.586 93.782 50.586ZM96.6638 51V48.288H95.5778V47.838H98.2598V48.288H97.1738V51H96.6638ZM100.855 51V47.598H99.991V47.244C100.151 47.232 100.293 47.214 100.417 47.19C100.541 47.162 100.651 47.116 100.747 47.052C100.847 46.984 100.935 46.886 101.011 46.758H101.377V51H100.855ZM102.99 51V47.598H102.126V47.244C102.286 47.232 102.428 47.214 102.552 47.19C102.676 47.162 102.786 47.116 102.882 47.052C102.982 46.984 103.07 46.886 103.146 46.758H103.512V51H102.99ZM104.873 51.048C104.769 51.048 104.683 51.014 104.615 50.946C104.547 50.878 104.513 50.792 104.513 50.688C104.513 50.584 104.547 50.498 104.615 50.43C104.683 50.362 104.769 50.328 104.873 50.328C104.977 50.328 105.063 50.362 105.131 50.43C105.199 50.498 105.233 50.584 105.233 50.688C105.233 50.792 105.199 50.878 105.131 50.946C105.063 51.014 104.977 51.048 104.873 51.048ZM106.487 51V47.598H105.623V47.244C105.783 47.232 105.925 47.214 106.049 47.19C106.173 47.162 106.283 47.116 106.379 47.052C106.479 46.984 106.567 46.886 106.643 46.758H107.009V51H106.487ZM109.583 51V47.838H110.267L111.293 49.422L112.301 47.838H112.973V51H112.469V48.402L111.353 50.19H111.209L110.087 48.402V51H109.583ZM113.446 51.006V50.562C113.526 50.562 113.598 50.546 113.662 50.514C113.726 50.478 113.782 50.426 113.83 50.358C113.886 50.278 113.93 50.162 113.962 50.01C113.994 49.858 114.016 49.696 114.028 49.524C114.044 49.332 114.056 49.144 114.064 48.96C114.072 48.772 114.078 48.586 114.082 48.402C114.09 48.218 114.094 48.03 114.094 47.838H116.29V51H115.78V48.288H114.592C114.588 48.424 114.582 48.562 114.574 48.702C114.57 48.838 114.564 48.976 114.556 49.116C114.552 49.252 114.546 49.39 114.538 49.53C114.534 49.69 114.518 49.87 114.49 50.07C114.462 50.27 114.402 50.452 114.31 50.616C114.222 50.772 114.114 50.876 113.986 50.928C113.862 50.98 113.682 51.006 113.446 51.006ZM117.046 51V47.838H117.556V49.224H119.14V47.838H119.65V51H119.14V49.674H117.556V51H117.046ZM122.105 51V46.758H123.575C123.887 46.758 124.155 46.81 124.379 46.914C124.603 47.014 124.773 47.168 124.889 47.376C125.009 47.584 125.069 47.848 125.069 48.168C125.069 48.48 124.999 48.744 124.859 48.96C124.723 49.172 124.535 49.332 124.295 49.44C124.055 49.548 123.779 49.602 123.467 49.602H122.627V51H122.105ZM122.627 49.128H123.443C123.767 49.128 124.029 49.052 124.229 48.9C124.433 48.744 124.535 48.492 124.535 48.144C124.535 47.84 124.453 47.612 124.289 47.46C124.125 47.308 123.879 47.232 123.551 47.232H122.627V49.128Z" fill="#383838"/>
<path d="M11.746 77.048C11.578 77.048 11.408 77.032 11.236 77C11.068 76.964 10.91 76.908 10.762 76.832C10.618 76.756 10.494 76.654 10.39 76.526C10.29 76.398 10.226 76.24 10.198 76.052H10.738C10.786 76.188 10.866 76.294 10.978 76.37C11.09 76.446 11.214 76.5 11.35 76.532C11.49 76.56 11.624 76.574 11.752 76.574C11.844 76.574 11.944 76.566 12.052 76.55C12.16 76.534 12.264 76.5 12.364 76.448C12.468 76.396 12.552 76.32 12.616 76.22C12.68 76.116 12.712 75.98 12.712 75.812C12.712 75.652 12.682 75.524 12.622 75.428C12.562 75.328 12.482 75.254 12.382 75.206C12.282 75.154 12.17 75.12 12.046 75.104C11.926 75.088 11.804 75.08 11.68 75.08H11.272V74.612H11.518C11.658 74.612 11.79 74.6 11.914 74.576C12.038 74.548 12.148 74.506 12.244 74.45C12.34 74.394 12.414 74.32 12.466 74.228C12.522 74.136 12.55 74.022 12.55 73.886C12.55 73.69 12.508 73.542 12.424 73.442C12.344 73.342 12.24 73.274 12.112 73.238C11.984 73.202 11.85 73.184 11.71 73.184C11.598 73.184 11.482 73.202 11.362 73.238C11.246 73.27 11.142 73.324 11.05 73.4C10.958 73.472 10.896 73.57 10.864 73.694H10.342C10.366 73.518 10.422 73.368 10.51 73.244C10.598 73.12 10.706 73.018 10.834 72.938C10.966 72.858 11.11 72.8 11.266 72.764C11.426 72.728 11.588 72.71 11.752 72.71C11.932 72.71 12.1 72.73 12.256 72.77C12.416 72.806 12.556 72.868 12.676 72.956C12.796 73.04 12.89 73.152 12.958 73.292C13.03 73.432 13.066 73.602 13.066 73.802C13.066 73.95 13.042 74.086 12.994 74.21C12.946 74.334 12.874 74.442 12.778 74.534C12.686 74.626 12.57 74.702 12.43 74.762C12.61 74.794 12.76 74.858 12.88 74.954C13.004 75.05 13.096 75.168 13.156 75.308C13.22 75.444 13.252 75.598 13.252 75.77C13.252 76.038 13.204 76.256 13.108 76.424C13.012 76.592 12.888 76.722 12.736 76.814C12.584 76.902 12.42 76.964 12.244 77C12.068 77.032 11.902 77.048 11.746 77.048ZM15.5219 77V73.838H16.0319V75.2H16.5839L17.5199 73.838H18.1019L17.0459 75.344L18.1919 77H17.5919L16.6439 75.644H16.0319V77H15.5219ZM19.9101 77.036C19.5781 77.036 19.3001 76.968 19.0761 76.832C18.8521 76.692 18.6841 76.5 18.5721 76.256C18.4641 76.012 18.4101 75.734 18.4101 75.422C18.4101 75.106 18.4641 74.828 18.5721 74.588C18.6841 74.344 18.8521 74.152 19.0761 74.012C19.3001 73.872 19.5821 73.802 19.9221 73.802C20.2541 73.802 20.5301 73.872 20.7501 74.012C20.9741 74.152 21.1401 74.344 21.2481 74.588C21.3601 74.828 21.4161 75.106 21.4161 75.422C21.4161 75.734 21.3601 76.012 21.2481 76.256C21.1361 76.5 20.9681 76.692 20.7441 76.832C20.5241 76.968 20.2461 77.036 19.9101 77.036ZM19.9101 76.586C20.1421 76.586 20.3301 76.534 20.4741 76.43C20.6221 76.326 20.7301 76.186 20.7981 76.01C20.8701 75.834 20.9061 75.638 20.9061 75.422C20.9061 75.206 20.8701 75.01 20.7981 74.834C20.7301 74.658 20.6221 74.518 20.4741 74.414C20.3301 74.31 20.1421 74.258 19.9101 74.258C19.6821 74.258 19.4941 74.31 19.3461 74.414C19.2021 74.518 19.0941 74.658 19.0221 74.834C18.9541 75.01 18.9201 75.206 18.9201 75.422C18.9201 75.638 18.9541 75.834 19.0221 76.01C19.0941 76.186 19.2021 76.326 19.3461 76.43C19.4941 76.534 19.6821 76.586 19.9101 76.586ZM22.0539 77V73.838H22.7379L23.7639 75.422L24.7719 73.838H25.4439V77H24.9399V74.402L23.8239 76.19H23.6799L22.5579 74.402V77H22.0539ZM26.2047 77V73.838H26.7147V75.224H28.2987V73.838H28.8087V77H28.2987V75.674H26.7147V77H26.2047ZM30.5843 77.036C30.4403 77.036 30.3003 77.018 30.1643 76.982C30.0323 76.942 29.9123 76.884 29.8043 76.808C29.7003 76.728 29.6163 76.63 29.5523 76.514C29.4923 76.394 29.4623 76.256 29.4623 76.1C29.4623 75.92 29.4943 75.768 29.5583 75.644C29.6263 75.52 29.7163 75.422 29.8283 75.35C29.9403 75.278 30.0703 75.226 30.2183 75.194C30.3663 75.162 30.5203 75.146 30.6803 75.146H31.6103C31.6103 74.966 31.5843 74.81 31.5323 74.678C31.4843 74.546 31.4043 74.444 31.2923 74.372C31.1803 74.296 31.0323 74.258 30.8483 74.258C30.7363 74.258 30.6323 74.27 30.5363 74.294C30.4403 74.318 30.3583 74.356 30.2903 74.408C30.2223 74.46 30.1723 74.53 30.1403 74.618H29.5943C29.6223 74.474 29.6763 74.352 29.7563 74.252C29.8403 74.148 29.9403 74.064 30.0563 74C30.1763 73.932 30.3043 73.882 30.4403 73.85C30.5763 73.818 30.7123 73.802 30.8483 73.802C31.1523 73.802 31.3963 73.864 31.5803 73.988C31.7643 74.108 31.8983 74.28 31.9823 74.504C32.0663 74.724 32.1083 74.986 32.1083 75.29V77H31.6823L31.6523 76.598C31.5643 76.718 31.4583 76.81 31.3343 76.874C31.2103 76.938 31.0823 76.98 30.9503 77C30.8223 77.024 30.7003 77.036 30.5843 77.036ZM30.6323 76.586C30.8323 76.586 31.0043 76.554 31.1483 76.49C31.2963 76.422 31.4103 76.324 31.4903 76.196C31.5703 76.068 31.6103 75.912 31.6103 75.728V75.572H31.0523C30.9203 75.572 30.7903 75.574 30.6623 75.578C30.5343 75.582 30.4183 75.598 30.3143 75.626C30.2103 75.654 30.1263 75.702 30.0623 75.77C30.0023 75.838 29.9723 75.936 29.9723 76.064C29.9723 76.184 30.0023 76.282 30.0623 76.358C30.1263 76.434 30.2083 76.492 30.3083 76.532C30.4123 76.568 30.5203 76.586 30.6323 76.586ZM33.5919 77V74.288H32.5059V73.838H35.1879V74.288H34.1019V77H33.5919ZM35.5984 77V73.838H36.1084V75.224H37.6924V73.838H38.2024V77H37.6924V75.674H36.1084V77H35.5984ZM39.978 77.036C39.834 77.036 39.694 77.018 39.558 76.982C39.426 76.942 39.306 76.884 39.198 76.808C39.094 76.728 39.01 76.63 38.946 76.514C38.886 76.394 38.856 76.256 38.856 76.1C38.856 75.92 38.888 75.768 38.952 75.644C39.02 75.52 39.11 75.422 39.222 75.35C39.334 75.278 39.464 75.226 39.612 75.194C39.76 75.162 39.914 75.146 40.074 75.146H41.004C41.004 74.966 40.978 74.81 40.926 74.678C40.878 74.546 40.798 74.444 40.686 74.372C40.574 74.296 40.426 74.258 40.242 74.258C40.13 74.258 40.026 74.27 39.93 74.294C39.834 74.318 39.752 74.356 39.684 74.408C39.616 74.46 39.566 74.53 39.534 74.618H38.988C39.016 74.474 39.07 74.352 39.15 74.252C39.234 74.148 39.334 74.064 39.45 74C39.57 73.932 39.698 73.882 39.834 73.85C39.97 73.818 40.106 73.802 40.242 73.802C40.546 73.802 40.79 73.864 40.974 73.988C41.158 74.108 41.292 74.28 41.376 74.504C41.46 74.724 41.502 74.986 41.502 75.29V77H41.076L41.046 76.598C40.958 76.718 40.852 76.81 40.728 76.874C40.604 76.938 40.476 76.98 40.344 77C40.216 77.024 40.094 77.036 39.978 77.036ZM40.026 76.586C40.226 76.586 40.398 76.554 40.542 76.49C40.69 76.422 40.804 76.324 40.884 76.196C40.964 76.068 41.004 75.912 41.004 75.728V75.572H40.446C40.314 75.572 40.184 75.574 40.056 75.578C39.928 75.582 39.812 75.598 39.708 75.626C39.604 75.654 39.52 75.702 39.456 75.77C39.396 75.838 39.366 75.936 39.366 76.064C39.366 76.184 39.396 76.282 39.456 76.358C39.52 76.434 39.602 76.492 39.702 76.532C39.806 76.568 39.914 76.586 40.026 76.586ZM42.0496 77L42.8716 75.752C42.6436 75.688 42.4636 75.584 42.3316 75.44C42.1996 75.292 42.1336 75.096 42.1336 74.852C42.1336 74.66 42.1616 74.5 42.2176 74.372C42.2736 74.24 42.3556 74.136 42.4636 74.06C42.5716 73.98 42.7016 73.924 42.8536 73.892C43.0056 73.856 43.1796 73.838 43.3756 73.838H44.6476V77H44.1376V75.83H43.4116L42.6436 77H42.0496ZM43.7596 75.386H44.1376V74.288H43.4596C43.3396 74.288 43.2296 74.294 43.1296 74.306C43.0296 74.318 42.9436 74.344 42.8716 74.384C42.8036 74.42 42.7496 74.474 42.7096 74.546C42.6696 74.614 42.6496 74.708 42.6496 74.828C42.6496 74.96 42.6816 75.064 42.7456 75.14C42.8136 75.216 42.8996 75.272 43.0036 75.308C43.1116 75.34 43.2316 75.362 43.3636 75.374C43.4956 75.382 43.6276 75.386 43.7596 75.386Z" fill="#26BDA9"/>
<path d="M92.782 77.036C92.45 77.036 92.172 76.968 91.948 76.832C91.724 76.692 91.556 76.5 91.444 76.256C91.336 76.012 91.282 75.734 91.282 75.422C91.282 75.106 91.336 74.828 91.444 74.588C91.556 74.344 91.724 74.152 91.948 74.012C92.172 73.872 92.454 73.802 92.794 73.802C93.126 73.802 93.402 73.872 93.622 74.012C93.846 74.152 94.012 74.344 94.12 74.588C94.232 74.828 94.288 75.106 94.288 75.422C94.288 75.734 94.232 76.012 94.12 76.256C94.008 76.5 93.84 76.692 93.616 76.832C93.396 76.968 93.118 77.036 92.782 77.036ZM92.782 76.586C93.014 76.586 93.202 76.534 93.346 76.43C93.494 76.326 93.602 76.186 93.67 76.01C93.742 75.834 93.778 75.638 93.778 75.422C93.778 75.206 93.742 75.01 93.67 74.834C93.602 74.658 93.494 74.518 93.346 74.414C93.202 74.31 93.014 74.258 92.782 74.258C92.554 74.258 92.366 74.31 92.218 74.414C92.074 74.518 91.966 74.658 91.894 74.834C91.826 75.01 91.792 75.206 91.792 75.422C91.792 75.638 91.826 75.834 91.894 76.01C91.966 76.186 92.074 76.326 92.218 76.43C92.366 76.534 92.554 76.586 92.782 76.586ZM95.6638 77V74.288H94.5778V73.838H97.2598V74.288H96.1738V77H95.6638ZM99.021 77V76.562L100.221 75.524C100.329 75.432 100.447 75.332 100.575 75.224C100.707 75.112 100.831 74.992 100.947 74.864C101.067 74.736 101.165 74.6 101.241 74.456C101.321 74.308 101.361 74.152 101.361 73.988C101.361 73.732 101.285 73.536 101.133 73.4C100.981 73.26 100.777 73.19 100.521 73.19C100.317 73.19 100.139 73.232 99.987 73.316C99.835 73.4 99.735 73.522 99.687 73.682H99.129C99.169 73.462 99.259 73.282 99.399 73.142C99.543 72.998 99.715 72.89 99.915 72.818C100.119 72.746 100.329 72.71 100.545 72.71C100.809 72.71 101.041 72.758 101.241 72.854C101.445 72.95 101.603 73.09 101.715 73.274C101.831 73.454 101.889 73.676 101.889 73.94C101.889 74.2 101.839 74.428 101.739 74.624C101.643 74.82 101.515 74.998 101.355 75.158C101.199 75.314 101.031 75.468 100.851 75.62L99.777 76.526H101.937V77H99.021ZM103.209 77V73.598H102.345V73.244C102.505 73.232 102.647 73.214 102.771 73.19C102.895 73.162 103.005 73.116 103.101 73.052C103.201 72.984 103.289 72.886 103.365 72.758H103.731V77H103.209ZM105.092 77.048C104.988 77.048 104.902 77.014 104.834 76.946C104.766 76.878 104.732 76.792 104.732 76.688C104.732 76.584 104.766 76.498 104.834 76.43C104.902 76.362 104.988 76.328 105.092 76.328C105.196 76.328 105.282 76.362 105.35 76.43C105.418 76.498 105.452 76.584 105.452 76.688C105.452 76.792 105.418 76.878 105.35 76.946C105.282 77.014 105.196 77.048 105.092 77.048ZM106.706 77V73.598H105.842V73.244C106.002 73.232 106.144 73.214 106.268 73.19C106.392 73.162 106.502 73.116 106.598 73.052C106.698 72.984 106.786 72.886 106.862 72.758H107.228V77H106.706ZM109.801 77V73.838H110.485L111.511 75.422L112.519 73.838H113.191V77H112.687V74.402L111.571 76.19H111.427L110.305 74.402V77H109.801ZM113.664 77.006V76.562C113.744 76.562 113.816 76.546 113.88 76.514C113.944 76.478 114 76.426 114.048 76.358C114.104 76.278 114.148 76.162 114.18 76.01C114.212 75.858 114.234 75.696 114.246 75.524C114.262 75.332 114.274 75.144 114.282 74.96C114.29 74.772 114.296 74.586 114.3 74.402C114.308 74.218 114.312 74.03 114.312 73.838H116.508V77H115.998V74.288H114.81C114.806 74.424 114.8 74.562 114.792 74.702C114.788 74.838 114.782 74.976 114.774 75.116C114.77 75.252 114.764 75.39 114.756 75.53C114.752 75.69 114.736 75.87 114.708 76.07C114.68 76.27 114.62 76.452 114.528 76.616C114.44 76.772 114.332 76.876 114.204 76.928C114.08 76.98 113.9 77.006 113.664 77.006ZM117.265 77V73.838H117.775V75.224H119.359V73.838H119.869V77H119.359V75.674H117.775V77H117.265ZM122.323 77V72.758H123.793C124.105 72.758 124.373 72.81 124.597 72.914C124.821 73.014 124.991 73.168 125.107 73.376C125.227 73.584 125.287 73.848 125.287 74.168C125.287 74.48 125.217 74.744 125.077 74.96C124.941 75.172 124.753 75.332 124.513 75.44C124.273 75.548 123.997 75.602 123.685 75.602H122.845V77H122.323ZM122.845 75.128H123.661C123.985 75.128 124.247 75.052 124.447 74.9C124.651 74.744 124.753 74.492 124.753 74.144C124.753 73.84 124.671 73.612 124.507 73.46C124.343 73.308 124.097 73.232 123.769 73.232H122.845V75.128Z" fill="#383838"/>
<path d="M94.412 38V37.196H92.204V36.632L94.208 33.758H95.15V36.518H95.636V37.196H95.15V38H94.412ZM93.068 36.518H94.412V34.544L93.068 36.518ZM98.2932 38V37.196H96.0852V36.632L98.0892 33.758H99.0312V36.518H99.5172V37.196H99.0312V38H98.2932ZM96.9492 36.518H98.2932V34.544L96.9492 36.518Z" fill="#333333"/>
<path d="M14 22.864L10.818 19.682C10.1887 19.0527 9.76009 18.2508 9.58646 17.3779C9.41283 16.505 9.50195 15.6002 9.84255 14.7779C10.1831 13.9557 10.7599 13.2529 11.4999 12.7584C12.24 12.2639 13.11 12 14 12C14.89 12 15.76 12.2639 16.5001 12.7584C17.2401 13.2529 17.8169 13.9557 18.1575 14.7779C18.498 15.6002 18.5872 16.505 18.4135 17.3779C18.2399 18.2508 17.8113 19.0527 17.182 19.682L14 22.864ZM16.475 18.975C16.9644 18.4855 17.2978 17.8619 17.4328 17.1829C17.5678 16.504 17.4985 15.8003 17.2335 15.1608C16.9686 14.5212 16.52 13.9746 15.9445 13.5901C15.3689 13.2055 14.6922 13.0002 14 13.0002C13.3078 13.0002 12.6311 13.2055 12.0555 13.5901C11.48 13.9746 11.0314 14.5212 10.7665 15.1608C10.5015 15.8003 10.4322 16.504 10.5672 17.1829C10.7022 17.8619 11.0356 18.4855 11.525 18.975L14 21.45L16.475 18.975ZM14 17.5C13.7348 17.5 13.4804 17.3946 13.2929 17.2071C13.1054 17.0196 13 16.7652 13 16.5C13 16.2348 13.1054 15.9804 13.2929 15.7929C13.4804 15.6053 13.7348 15.5 14 15.5C14.2652 15.5 14.5196 15.6053 14.7071 15.7929C14.8946 15.9804 15 16.2348 15 16.5C15 16.7652 14.8946 17.0196 14.7071 17.2071C14.5196 17.3946 14.2652 17.5 14 17.5Z" fill="#26BDA9"/>
</svg>
