<svg width="133" height="124" viewBox="0 0 133 124" fill="none" xmlns="http://www.w3.org/2000/svg">
<rect width="133" height="119" rx="10" fill="white"/>
<path d="M10.522 41V36.758H11.044V38.714H11.674L13.054 36.758H13.654L12.13 38.864L13.666 41H13.048L11.716 39.188H11.044V41H10.522ZM15.3703 41.036C15.0383 41.036 14.7603 40.968 14.5363 40.832C14.3123 40.692 14.1443 40.5 14.0323 40.256C13.9243 40.012 13.8703 39.734 13.8703 39.422C13.8703 39.106 13.9243 38.828 14.0323 38.588C14.1443 38.344 14.3123 38.152 14.5363 38.012C14.7603 37.872 15.0423 37.802 15.3823 37.802C15.7143 37.802 15.9903 37.872 16.2103 38.012C16.4343 38.152 16.6003 38.344 16.7083 38.588C16.8203 38.828 16.8763 39.106 16.8763 39.422C16.8763 39.734 16.8203 40.012 16.7083 40.256C16.5963 40.5 16.4283 40.692 16.2043 40.832C15.9843 40.968 15.7063 41.036 15.3703 41.036ZM15.3703 40.586C15.6023 40.586 15.7903 40.534 15.9343 40.43C16.0823 40.326 16.1903 40.186 16.2583 40.01C16.3303 39.834 16.3663 39.638 16.3663 39.422C16.3663 39.206 16.3303 39.01 16.2583 38.834C16.1903 38.658 16.0823 38.518 15.9343 38.414C15.7903 38.31 15.6023 38.258 15.3703 38.258C15.1423 38.258 14.9543 38.31 14.8063 38.414C14.6623 38.518 14.5543 38.658 14.4823 38.834C14.4143 39.01 14.3803 39.206 14.3803 39.422C14.3803 39.638 14.4143 39.834 14.4823 40.01C14.5543 40.186 14.6623 40.326 14.8063 40.43C14.9543 40.534 15.1423 40.586 15.3703 40.586ZM17.1968 41.006V40.562C17.2768 40.562 17.3488 40.546 17.4128 40.514C17.4768 40.478 17.5328 40.426 17.5808 40.358C17.6368 40.278 17.6808 40.162 17.7128 40.01C17.7448 39.858 17.7668 39.696 17.7788 39.524C17.7948 39.332 17.8068 39.144 17.8148 38.96C17.8228 38.772 17.8288 38.586 17.8328 38.402C17.8408 38.218 17.8448 38.03 17.8448 37.838H20.0408V41H19.5308V38.288H18.3428C18.3388 38.424 18.3328 38.562 18.3248 38.702C18.3208 38.838 18.3148 38.976 18.3068 39.116C18.3028 39.252 18.2968 39.39 18.2888 39.53C18.2848 39.69 18.2688 39.87 18.2408 40.07C18.2128 40.27 18.1528 40.452 18.0608 40.616C17.9728 40.772 17.8648 40.876 17.7368 40.928C17.6128 40.98 17.4328 41.006 17.1968 41.006ZM20.8397 39.542V39.074H22.6997V39.542H20.8397ZM23.5012 41V37.838H24.7252C24.8652 37.838 25.0032 37.848 25.1392 37.868C25.2792 37.884 25.4052 37.92 25.5172 37.976C25.6332 38.028 25.7252 38.106 25.7932 38.21C25.8652 38.314 25.9012 38.452 25.9012 38.624C25.9012 38.728 25.8852 38.824 25.8532 38.912C25.8212 38.996 25.7732 39.07 25.7092 39.134C25.6492 39.198 25.5712 39.254 25.4752 39.302C25.6912 39.35 25.8472 39.444 25.9432 39.584C26.0392 39.724 26.0872 39.884 26.0872 40.064C26.0872 40.224 26.0572 40.364 25.9972 40.484C25.9412 40.6 25.8612 40.696 25.7572 40.772C25.6572 40.848 25.5392 40.906 25.4032 40.946C25.2712 40.982 25.1292 41 24.9772 41H23.5012ZM24.0232 40.556H24.8572C24.9812 40.556 25.0972 40.544 25.2052 40.52C25.3132 40.496 25.4012 40.452 25.4692 40.388C25.5372 40.32 25.5712 40.224 25.5712 40.1C25.5712 39.972 25.5412 39.876 25.4812 39.812C25.4252 39.744 25.3512 39.698 25.2592 39.674C25.1712 39.646 25.0752 39.63 24.9712 39.626C24.8672 39.622 24.7692 39.62 24.6772 39.62H24.0232V40.556ZM24.0232 39.188H24.4612C24.5412 39.188 24.6332 39.184 24.7372 39.176C24.8452 39.168 24.9492 39.15 25.0492 39.122C25.1532 39.09 25.2372 39.042 25.3012 38.978C25.3692 38.914 25.4032 38.826 25.4032 38.714C25.4032 38.566 25.3612 38.464 25.2772 38.408C25.1972 38.348 25.1012 38.314 24.9892 38.306C24.8772 38.294 24.7732 38.288 24.6772 38.288H24.0232V39.188ZM28.1179 41.036C27.7859 41.036 27.5079 40.968 27.2839 40.832C27.0599 40.692 26.8919 40.5 26.7799 40.256C26.6719 40.012 26.6179 39.734 26.6179 39.422C26.6179 39.106 26.6719 38.828 26.7799 38.588C26.8919 38.344 27.0599 38.152 27.2839 38.012C27.5079 37.872 27.7899 37.802 28.1299 37.802C28.4619 37.802 28.7379 37.872 28.9579 38.012C29.1819 38.152 29.3479 38.344 29.4559 38.588C29.5679 38.828 29.6239 39.106 29.6239 39.422C29.6239 39.734 29.5679 40.012 29.4559 40.256C29.3439 40.5 29.1759 40.692 28.9519 40.832C28.7319 40.968 28.4539 41.036 28.1179 41.036ZM28.1179 40.586C28.3499 40.586 28.5379 40.534 28.6819 40.43C28.8299 40.326 28.9379 40.186 29.0059 40.01C29.0779 39.834 29.1139 39.638 29.1139 39.422C29.1139 39.206 29.0779 39.01 29.0059 38.834C28.9379 38.658 28.8299 38.518 28.6819 38.414C28.5379 38.31 28.3499 38.258 28.1179 38.258C27.8899 38.258 27.7019 38.31 27.5539 38.414C27.4099 38.518 27.3019 38.658 27.2299 38.834C27.1619 39.01 27.1279 39.206 27.1279 39.422C27.1279 39.638 27.1619 39.834 27.2299 40.01C27.3019 40.186 27.4099 40.326 27.5539 40.43C27.7019 40.534 27.8899 40.586 28.1179 40.586ZM31.8343 41V37.838H32.3443V39.2H32.8963L33.8323 37.838H34.4143L33.3583 39.344L34.5043 41H33.9043L32.9563 39.644H32.3443V41H31.8343ZM34.9011 41V37.838H36.1251C36.2651 37.838 36.4031 37.848 36.5391 37.868C36.6791 37.884 36.8051 37.92 36.9171 37.976C37.0331 38.028 37.1251 38.106 37.1931 38.21C37.2651 38.314 37.3011 38.452 37.3011 38.624C37.3011 38.728 37.2851 38.824 37.2531 38.912C37.2211 38.996 37.1731 39.07 37.1091 39.134C37.0491 39.198 36.9711 39.254 36.8751 39.302C37.0911 39.35 37.2471 39.444 37.3431 39.584C37.4391 39.724 37.4871 39.884 37.4871 40.064C37.4871 40.224 37.4571 40.364 37.3971 40.484C37.3411 40.6 37.2611 40.696 37.1571 40.772C37.0571 40.848 36.9391 40.906 36.8031 40.946C36.6711 40.982 36.5291 41 36.3771 41H34.9011ZM35.4231 40.556H36.2571C36.3811 40.556 36.4971 40.544 36.6051 40.52C36.7131 40.496 36.8011 40.452 36.8691 40.388C36.9371 40.32 36.9711 40.224 36.9711 40.1C36.9711 39.972 36.9411 39.876 36.8811 39.812C36.8251 39.744 36.7511 39.698 36.6591 39.674C36.5711 39.646 36.4751 39.63 36.3711 39.626C36.2671 39.622 36.1691 39.62 36.0771 39.62H35.4231V40.556ZM35.4231 39.188H35.8611C35.9411 39.188 36.0331 39.184 36.1371 39.176C36.2451 39.168 36.3491 39.15 36.4491 39.122C36.5531 39.09 36.6371 39.042 36.7011 38.978C36.7691 38.914 36.8031 38.826 36.8031 38.714C36.8031 38.566 36.7611 38.464 36.6771 38.408C36.5971 38.348 36.5011 38.314 36.3891 38.306C36.2771 38.294 36.1731 38.288 36.0771 38.288H35.4231V39.188ZM39.1518 41.036C39.0078 41.036 38.8678 41.018 38.7318 40.982C38.5998 40.942 38.4798 40.884 38.3718 40.808C38.2678 40.728 38.1838 40.63 38.1198 40.514C38.0598 40.394 38.0298 40.256 38.0298 40.1C38.0298 39.92 38.0618 39.768 38.1258 39.644C38.1938 39.52 38.2838 39.422 38.3958 39.35C38.5078 39.278 38.6378 39.226 38.7858 39.194C38.9338 39.162 39.0878 39.146 39.2478 39.146H40.1778C40.1778 38.966 40.1518 38.81 40.0998 38.678C40.0518 38.546 39.9718 38.444 39.8598 38.372C39.7478 38.296 39.5998 38.258 39.4158 38.258C39.3038 38.258 39.1998 38.27 39.1038 38.294C39.0078 38.318 38.9258 38.356 38.8578 38.408C38.7898 38.46 38.7398 38.53 38.7078 38.618H38.1618C38.1898 38.474 38.2438 38.352 38.3238 38.252C38.4078 38.148 38.5078 38.064 38.6238 38C38.7438 37.932 38.8718 37.882 39.0078 37.85C39.1438 37.818 39.2798 37.802 39.4158 37.802C39.7198 37.802 39.9638 37.864 40.1478 37.988C40.3318 38.108 40.4658 38.28 40.5498 38.504C40.6338 38.724 40.6758 38.986 40.6758 39.29V41H40.2498L40.2198 40.598C40.1318 40.718 40.0258 40.81 39.9018 40.874C39.7778 40.938 39.6498 40.98 39.5178 41C39.3898 41.024 39.2678 41.036 39.1518 41.036ZM39.1998 40.586C39.3998 40.586 39.5718 40.554 39.7158 40.49C39.8638 40.422 39.9778 40.324 40.0578 40.196C40.1378 40.068 40.1778 39.912 40.1778 39.728V39.572H39.6198C39.4878 39.572 39.3578 39.574 39.2298 39.578C39.1018 39.582 38.9858 39.598 38.8818 39.626C38.7778 39.654 38.6938 39.702 38.6298 39.77C38.5698 39.838 38.5398 39.936 38.5398 40.064C38.5398 40.184 38.5698 40.282 38.6298 40.358C38.6938 40.434 38.7758 40.492 38.8758 40.532C38.9798 40.568 39.0878 40.586 39.1998 40.586ZM41.4214 42.14V37.838H41.9074L41.9314 38.324C42.0394 38.152 42.1854 38.022 42.3694 37.934C42.5574 37.846 42.7594 37.802 42.9754 37.802C43.2954 37.802 43.5574 37.874 43.7614 38.018C43.9654 38.158 44.1154 38.35 44.2114 38.594C44.3114 38.838 44.3614 39.114 44.3614 39.422C44.3614 39.73 44.3114 40.006 44.2114 40.25C44.1114 40.494 43.9574 40.686 43.7494 40.826C43.5414 40.966 43.2754 41.036 42.9514 41.036C42.7914 41.036 42.6474 41.02 42.5194 40.988C42.3914 40.952 42.2794 40.902 42.1834 40.838C42.0874 40.774 42.0034 40.702 41.9314 40.622V42.14H41.4214ZM42.9094 40.586C43.1414 40.586 43.3254 40.534 43.4614 40.43C43.5974 40.322 43.6954 40.18 43.7554 40.004C43.8194 39.828 43.8514 39.634 43.8514 39.422C43.8514 39.206 43.8194 39.01 43.7554 38.834C43.6954 38.658 43.5954 38.518 43.4554 38.414C43.3154 38.31 43.1294 38.258 42.8974 38.258C42.6894 38.258 42.5114 38.312 42.3634 38.42C42.2194 38.524 42.1094 38.666 42.0334 38.846C41.9574 39.022 41.9194 39.216 41.9194 39.428C41.9194 39.648 41.9554 39.846 42.0274 40.022C42.0994 40.198 42.2094 40.336 42.3574 40.436C42.5054 40.536 42.6894 40.586 42.9094 40.586ZM45.7125 41V38.288H44.6265V37.838H47.3085V38.288H46.2225V41H45.7125ZM47.719 41V37.838H48.229V40.262C48.257 40.206 48.295 40.146 48.343 40.082C48.391 40.014 48.429 39.962 48.457 39.926L49.987 37.838H50.491V41H49.981V38.576C49.949 38.636 49.913 38.692 49.873 38.744C49.837 38.796 49.803 38.844 49.771 38.888L48.217 41H47.719ZM51.2487 42.14V37.838H51.7347L51.7587 38.324C51.8667 38.152 52.0127 38.022 52.1967 37.934C52.3847 37.846 52.5867 37.802 52.8027 37.802C53.1227 37.802 53.3847 37.874 53.5887 38.018C53.7927 38.158 53.9427 38.35 54.0387 38.594C54.1387 38.838 54.1887 39.114 54.1887 39.422C54.1887 39.73 54.1387 40.006 54.0387 40.25C53.9387 40.494 53.7847 40.686 53.5767 40.826C53.3687 40.966 53.1027 41.036 52.7787 41.036C52.6187 41.036 52.4747 41.02 52.3467 40.988C52.2187 40.952 52.1067 40.902 52.0107 40.838C51.9147 40.774 51.8307 40.702 51.7587 40.622V42.14H51.2487ZM52.7367 40.586C52.9687 40.586 53.1527 40.534 53.2887 40.43C53.4247 40.322 53.5227 40.18 53.5827 40.004C53.6467 39.828 53.6787 39.634 53.6787 39.422C53.6787 39.206 53.6467 39.01 53.5827 38.834C53.5227 38.658 53.4227 38.518 53.2827 38.414C53.1427 38.31 52.9567 38.258 52.7247 38.258C52.5167 38.258 52.3387 38.312 52.1907 38.42C52.0467 38.524 51.9367 38.666 51.8607 38.846C51.7847 39.022 51.7467 39.216 51.7467 39.428C51.7467 39.648 51.7827 39.846 51.8547 40.022C51.9267 40.198 52.0367 40.336 52.1847 40.436C52.3327 40.536 52.5167 40.586 52.7367 40.586Z" fill="#7B7B7B"/>
<path d="M25.238 19.048C24.802 19.048 24.438 18.956 24.146 18.772C23.858 18.584 23.642 18.328 23.498 18.004C23.358 17.676 23.288 17.302 23.288 16.882C23.288 16.466 23.36 16.096 23.504 15.772C23.648 15.444 23.864 15.186 24.152 14.998C24.444 14.806 24.81 14.71 25.25 14.71C25.562 14.71 25.83 14.76 26.054 14.86C26.282 14.956 26.466 15.09 26.606 15.262C26.746 15.434 26.842 15.636 26.894 15.868H26.366C26.306 15.66 26.176 15.494 25.976 15.37C25.78 15.246 25.532 15.184 25.232 15.184C24.896 15.184 24.624 15.264 24.416 15.424C24.212 15.58 24.062 15.786 23.966 16.042C23.87 16.294 23.822 16.568 23.822 16.864C23.822 17.176 23.872 17.462 23.972 17.722C24.072 17.982 24.228 18.19 24.44 18.346C24.652 18.498 24.922 18.574 25.25 18.574C25.45 18.574 25.628 18.546 25.784 18.49C25.944 18.434 26.076 18.354 26.18 18.25C26.288 18.146 26.362 18.026 26.402 17.89H26.972C26.912 18.122 26.804 18.326 26.648 18.502C26.496 18.674 26.302 18.808 26.066 18.904C25.83 19 25.554 19.048 25.238 19.048ZM28.9972 19.036C28.6652 19.036 28.3872 18.968 28.1632 18.832C27.9392 18.692 27.7712 18.5 27.6592 18.256C27.5512 18.012 27.4972 17.734 27.4972 17.422C27.4972 17.106 27.5512 16.828 27.6592 16.588C27.7712 16.344 27.9392 16.152 28.1632 16.012C28.3872 15.872 28.6692 15.802 29.0092 15.802C29.3412 15.802 29.6172 15.872 29.8372 16.012C30.0612 16.152 30.2272 16.344 30.3352 16.588C30.4472 16.828 30.5032 17.106 30.5032 17.422C30.5032 17.734 30.4472 18.012 30.3352 18.256C30.2232 18.5 30.0552 18.692 29.8312 18.832C29.6112 18.968 29.3332 19.036 28.9972 19.036ZM28.9972 18.586C29.2292 18.586 29.4172 18.534 29.5612 18.43C29.7092 18.326 29.8172 18.186 29.8852 18.01C29.9572 17.834 29.9932 17.638 29.9932 17.422C29.9932 17.206 29.9572 17.01 29.8852 16.834C29.8172 16.658 29.7092 16.518 29.5612 16.414C29.4172 16.31 29.2292 16.258 28.9972 16.258C28.7692 16.258 28.5812 16.31 28.4332 16.414C28.2892 16.518 28.1812 16.658 28.1092 16.834C28.0412 17.01 28.0072 17.206 28.0072 17.422C28.0072 17.638 28.0412 17.834 28.1092 18.01C28.1812 18.186 28.2892 18.326 28.4332 18.43C28.5812 18.534 28.7692 18.586 28.9972 18.586ZM31.141 19V15.838H32.365C32.505 15.838 32.643 15.848 32.779 15.868C32.919 15.884 33.045 15.92 33.157 15.976C33.273 16.028 33.365 16.106 33.433 16.21C33.505 16.314 33.541 16.452 33.541 16.624C33.541 16.728 33.525 16.824 33.493 16.912C33.461 16.996 33.413 17.07 33.349 17.134C33.289 17.198 33.211 17.254 33.115 17.302C33.331 17.35 33.487 17.444 33.583 17.584C33.679 17.724 33.727 17.884 33.727 18.064C33.727 18.224 33.697 18.364 33.637 18.484C33.581 18.6 33.501 18.696 33.397 18.772C33.297 18.848 33.179 18.906 33.043 18.946C32.911 18.982 32.769 19 32.617 19H31.141ZM31.663 18.556H32.497C32.621 18.556 32.737 18.544 32.845 18.52C32.953 18.496 33.041 18.452 33.109 18.388C33.177 18.32 33.211 18.224 33.211 18.1C33.211 17.972 33.181 17.876 33.121 17.812C33.065 17.744 32.991 17.698 32.899 17.674C32.811 17.646 32.715 17.63 32.611 17.626C32.507 17.622 32.409 17.62 32.317 17.62H31.663V18.556ZM31.663 17.188H32.101C32.181 17.188 32.273 17.184 32.377 17.176C32.485 17.168 32.589 17.15 32.689 17.122C32.793 17.09 32.877 17.042 32.941 16.978C33.009 16.914 33.043 16.826 33.043 16.714C33.043 16.566 33.001 16.464 32.917 16.408C32.837 16.348 32.741 16.314 32.629 16.306C32.517 16.294 32.413 16.288 32.317 16.288H31.663V17.188ZM35.7457 19.036C35.4097 19.036 35.1317 18.968 34.9117 18.832C34.6917 18.692 34.5277 18.5 34.4197 18.256C34.3117 18.012 34.2577 17.734 34.2577 17.422C34.2577 17.106 34.3137 16.828 34.4257 16.588C34.5417 16.344 34.7097 16.152 34.9297 16.012C35.1497 15.872 35.4197 15.802 35.7397 15.802C35.9757 15.802 36.1817 15.848 36.3577 15.94C36.5377 16.028 36.6857 16.148 36.8017 16.3C36.9217 16.452 37.0077 16.622 37.0597 16.81C37.1157 16.998 37.1397 17.192 37.1317 17.392C37.1277 17.428 37.1257 17.464 37.1257 17.5C37.1257 17.536 37.1237 17.572 37.1197 17.608H34.7737C34.7897 17.792 34.8357 17.958 34.9117 18.106C34.9877 18.254 35.0957 18.372 35.2357 18.46C35.3757 18.544 35.5497 18.586 35.7577 18.586C35.8617 18.586 35.9657 18.574 36.0697 18.55C36.1777 18.522 36.2737 18.476 36.3577 18.412C36.4457 18.348 36.5077 18.262 36.5437 18.154H37.0657C37.0177 18.358 36.9277 18.526 36.7957 18.658C36.6637 18.786 36.5057 18.882 36.3217 18.946C36.1377 19.006 35.9457 19.036 35.7457 19.036ZM34.7857 17.164H36.6157C36.6117 16.984 36.5717 16.826 36.4957 16.69C36.4197 16.554 36.3157 16.448 36.1837 16.372C36.0557 16.296 35.9017 16.258 35.7217 16.258C35.5257 16.258 35.3597 16.3 35.2237 16.384C35.0917 16.468 34.9897 16.578 34.9177 16.714C34.8457 16.85 34.8017 17 34.7857 17.164ZM38.5106 19V16.288H37.4246V15.838H40.1066V16.288H39.0206V19H38.5106ZM41.8672 19.036C41.5352 19.036 41.2592 18.968 41.0392 18.832C40.8232 18.692 40.6612 18.5 40.5532 18.256C40.4492 18.012 40.3972 17.736 40.3972 17.428C40.3972 17.128 40.4512 16.856 40.5592 16.612C40.6712 16.364 40.8392 16.168 41.0632 16.024C41.2912 15.876 41.5792 15.802 41.9272 15.802C42.1432 15.802 42.3352 15.838 42.5032 15.91C42.6752 15.982 42.8172 16.088 42.9292 16.228C43.0412 16.364 43.1192 16.536 43.1632 16.744H42.6412C42.5812 16.568 42.4852 16.444 42.3532 16.372C42.2252 16.296 42.0732 16.258 41.8972 16.258C41.6572 16.258 41.4652 16.314 41.3212 16.426C41.1772 16.538 41.0712 16.684 41.0032 16.864C40.9392 17.04 40.9072 17.228 40.9072 17.428C40.9072 17.636 40.9412 17.828 41.0092 18.004C41.0772 18.18 41.1832 18.322 41.3272 18.43C41.4712 18.534 41.6572 18.586 41.8852 18.586C42.0532 18.586 42.2112 18.55 42.3592 18.478C42.5112 18.406 42.6112 18.278 42.6592 18.094H43.1872C43.1472 18.31 43.0612 18.488 42.9292 18.628C42.8012 18.768 42.6432 18.872 42.4552 18.94C42.2712 19.004 42.0752 19.036 41.8672 19.036ZM43.789 19V15.838H44.299V17.2H44.851L45.787 15.838H46.369L45.313 17.344L46.459 19H45.859L44.911 17.644H44.299V19H43.789ZM46.8558 19V15.838H47.3658V18.262C47.3938 18.206 47.4318 18.146 47.4798 18.082C47.5278 18.014 47.5658 17.962 47.5938 17.926L49.1238 15.838H49.6278V19H49.1178V16.576C49.0858 16.636 49.0498 16.692 49.0098 16.744C48.9738 16.796 48.9398 16.844 48.9078 16.888L47.3538 19H46.8558ZM50.3855 19V15.838H50.8955V18.262C50.9235 18.206 50.9615 18.146 51.0095 18.082C51.0575 18.014 51.0955 17.962 51.1235 17.926L52.6535 15.838H53.1575V19H52.6475V16.576C52.6155 16.636 52.5795 16.692 52.5395 16.744C52.5035 16.796 52.4695 16.844 52.4375 16.888L50.8835 19H50.3855ZM51.8135 15.394C51.4975 15.394 51.2495 15.326 51.0695 15.19C50.8935 15.054 50.8015 14.856 50.7935 14.596H51.2615C51.2695 14.736 51.3215 14.838 51.4175 14.902C51.5175 14.966 51.6515 14.998 51.8195 14.998C51.9875 14.998 52.1195 14.966 52.2155 14.902C52.3155 14.838 52.3695 14.736 52.3775 14.596H52.8455C52.8415 14.768 52.7975 14.914 52.7135 15.034C52.6295 15.154 52.5115 15.244 52.3595 15.304C52.2075 15.364 52.0255 15.394 51.8135 15.394ZM55.4878 20.14V15.838H55.9738L55.9978 16.324C56.1058 16.152 56.2518 16.022 56.4358 15.934C56.6238 15.846 56.8258 15.802 57.0418 15.802C57.3618 15.802 57.6238 15.874 57.8278 16.018C58.0318 16.158 58.1818 16.35 58.2778 16.594C58.3778 16.838 58.4278 17.114 58.4278 17.422C58.4278 17.73 58.3778 18.006 58.2778 18.25C58.1778 18.494 58.0238 18.686 57.8158 18.826C57.6078 18.966 57.3418 19.036 57.0178 19.036C56.8578 19.036 56.7138 19.02 56.5858 18.988C56.4578 18.952 56.3458 18.902 56.2498 18.838C56.1538 18.774 56.0698 18.702 55.9978 18.622V20.14H55.4878ZM56.9758 18.586C57.2078 18.586 57.3918 18.534 57.5278 18.43C57.6638 18.322 57.7618 18.18 57.8218 18.004C57.8858 17.828 57.9178 17.634 57.9178 17.422C57.9178 17.206 57.8858 17.01 57.8218 16.834C57.7618 16.658 57.6618 16.518 57.5218 16.414C57.3818 16.31 57.1958 16.258 56.9638 16.258C56.7558 16.258 56.5778 16.312 56.4298 16.42C56.2858 16.524 56.1758 16.666 56.0998 16.846C56.0238 17.022 55.9858 17.216 55.9858 17.428C55.9858 17.648 56.0218 17.846 56.0938 18.022C56.1658 18.198 56.2758 18.336 56.4238 18.436C56.5718 18.536 56.7558 18.586 56.9758 18.586ZM60.0549 19.036C59.9109 19.036 59.7709 19.018 59.6349 18.982C59.5029 18.942 59.3829 18.884 59.2749 18.808C59.1709 18.728 59.0869 18.63 59.0229 18.514C58.9629 18.394 58.9329 18.256 58.9329 18.1C58.9329 17.92 58.9649 17.768 59.0289 17.644C59.0969 17.52 59.1869 17.422 59.2989 17.35C59.4109 17.278 59.5409 17.226 59.6889 17.194C59.8369 17.162 59.9909 17.146 60.1509 17.146H61.0809C61.0809 16.966 61.0549 16.81 61.0029 16.678C60.9549 16.546 60.8749 16.444 60.7629 16.372C60.6509 16.296 60.5029 16.258 60.3189 16.258C60.2069 16.258 60.1029 16.27 60.0069 16.294C59.9109 16.318 59.8289 16.356 59.7609 16.408C59.6929 16.46 59.6429 16.53 59.6109 16.618H59.0649C59.0929 16.474 59.1469 16.352 59.2269 16.252C59.3109 16.148 59.4109 16.064 59.5269 16C59.6469 15.932 59.7749 15.882 59.9109 15.85C60.0469 15.818 60.1829 15.802 60.3189 15.802C60.6229 15.802 60.8669 15.864 61.0509 15.988C61.2349 16.108 61.3689 16.28 61.4529 16.504C61.5369 16.724 61.5789 16.986 61.5789 17.29V19H61.1529L61.1229 18.598C61.0349 18.718 60.9289 18.81 60.8049 18.874C60.6809 18.938 60.5529 18.98 60.4209 19C60.2929 19.024 60.1709 19.036 60.0549 19.036ZM60.1029 18.586C60.3029 18.586 60.4749 18.554 60.6189 18.49C60.7669 18.422 60.8809 18.324 60.9609 18.196C61.0409 18.068 61.0809 17.912 61.0809 17.728V17.572H60.5229C60.3909 17.572 60.2609 17.574 60.1329 17.578C60.0049 17.582 59.8889 17.598 59.7849 17.626C59.6809 17.654 59.5969 17.702 59.5329 17.77C59.4729 17.838 59.4429 17.936 59.4429 18.064C59.4429 18.184 59.4729 18.282 59.5329 18.358C59.5969 18.434 59.6789 18.492 59.7789 18.532C59.8829 18.568 59.9909 18.586 60.1029 18.586ZM62.3245 19V15.838H62.8345V18.262C62.8625 18.206 62.9005 18.146 62.9485 18.082C62.9965 18.014 63.0345 17.962 63.0625 17.926L64.5925 15.838H65.0965V19H64.5865V16.576C64.5545 16.636 64.5185 16.692 64.4785 16.744C64.4425 16.796 64.4085 16.844 64.3765 16.888L62.8225 19H62.3245ZM63.7525 15.394C63.4365 15.394 63.1885 15.326 63.0085 15.19C62.8325 15.054 62.7405 14.856 62.7325 14.596H63.2005C63.2085 14.736 63.2605 14.838 63.3565 14.902C63.4565 14.966 63.5905 14.998 63.7585 14.998C63.9265 14.998 64.0585 14.966 64.1545 14.902C64.2545 14.838 64.3085 14.736 64.3165 14.596H64.7845C64.7805 14.768 64.7365 14.914 64.6525 15.034C64.5685 15.154 64.4505 15.244 64.2985 15.304C64.1465 15.364 63.9645 15.394 63.7525 15.394ZM67.2342 19.036C66.9022 19.036 66.6242 18.968 66.4002 18.832C66.1762 18.692 66.0082 18.5 65.8962 18.256C65.7882 18.012 65.7342 17.734 65.7342 17.422C65.7342 17.106 65.7882 16.828 65.8962 16.588C66.0082 16.344 66.1762 16.152 66.4002 16.012C66.6242 15.872 66.9062 15.802 67.2462 15.802C67.5782 15.802 67.8542 15.872 68.0742 16.012C68.2982 16.152 68.4642 16.344 68.5722 16.588C68.6842 16.828 68.7402 17.106 68.7402 17.422C68.7402 17.734 68.6842 18.012 68.5722 18.256C68.4602 18.5 68.2922 18.692 68.0682 18.832C67.8482 18.968 67.5702 19.036 67.2342 19.036ZM67.2342 18.586C67.4662 18.586 67.6542 18.534 67.7982 18.43C67.9462 18.326 68.0542 18.186 68.1222 18.01C68.1942 17.834 68.2302 17.638 68.2302 17.422C68.2302 17.206 68.1942 17.01 68.1222 16.834C68.0542 16.658 67.9462 16.518 67.7982 16.414C67.6542 16.31 67.4662 16.258 67.2342 16.258C67.0062 16.258 66.8182 16.31 66.6702 16.414C66.5262 16.518 66.4182 16.658 66.3462 16.834C66.2782 17.01 66.2442 17.206 66.2442 17.422C66.2442 17.638 66.2782 17.834 66.3462 18.01C66.4182 18.186 66.5262 18.326 66.6702 18.43C66.8182 18.534 67.0062 18.586 67.2342 18.586ZM69.378 19V15.838H69.888V17.224H71.472V15.838H71.982V19H71.472V17.674H69.888V19H69.378Z" fill="#232323"/>
<path d="M11.014 57V53.598H10.15V53.244C10.31 53.232 10.452 53.214 10.576 53.19C10.7 53.162 10.81 53.116 10.906 53.052C11.006 52.984 11.094 52.886 11.17 52.758H11.536V57H11.014ZM14.1098 57V53.838H14.6198V55.2H15.1718L16.1078 53.838H16.6898L15.6338 55.344L16.7798 57H16.1798L15.2318 55.644H14.6198V57H14.1098ZM18.498 57.036C18.166 57.036 17.888 56.968 17.664 56.832C17.44 56.692 17.272 56.5 17.16 56.256C17.052 56.012 16.998 55.734 16.998 55.422C16.998 55.106 17.052 54.828 17.16 54.588C17.272 54.344 17.44 54.152 17.664 54.012C17.888 53.872 18.17 53.802 18.51 53.802C18.842 53.802 19.118 53.872 19.338 54.012C19.562 54.152 19.728 54.344 19.836 54.588C19.948 54.828 20.004 55.106 20.004 55.422C20.004 55.734 19.948 56.012 19.836 56.256C19.724 56.5 19.556 56.692 19.332 56.832C19.112 56.968 18.834 57.036 18.498 57.036ZM18.498 56.586C18.73 56.586 18.918 56.534 19.062 56.43C19.21 56.326 19.318 56.186 19.386 56.01C19.458 55.834 19.494 55.638 19.494 55.422C19.494 55.206 19.458 55.01 19.386 54.834C19.318 54.658 19.21 54.518 19.062 54.414C18.918 54.31 18.73 54.258 18.498 54.258C18.27 54.258 18.082 54.31 17.934 54.414C17.79 54.518 17.682 54.658 17.61 54.834C17.542 55.01 17.508 55.206 17.508 55.422C17.508 55.638 17.542 55.834 17.61 56.01C17.682 56.186 17.79 56.326 17.934 56.43C18.082 56.534 18.27 56.586 18.498 56.586ZM20.6418 57V53.838H21.3258L22.3518 55.422L23.3598 53.838H24.0318V57H23.5278V54.402L22.4118 56.19H22.2678L21.1458 54.402V57H20.6418ZM24.7926 57V53.838H25.3026V55.224H26.8866V53.838H27.3966V57H26.8866V55.674H25.3026V57H24.7926ZM29.1722 57.036C29.0282 57.036 28.8882 57.018 28.7522 56.982C28.6202 56.942 28.5002 56.884 28.3922 56.808C28.2882 56.728 28.2042 56.63 28.1402 56.514C28.0802 56.394 28.0502 56.256 28.0502 56.1C28.0502 55.92 28.0822 55.768 28.1462 55.644C28.2142 55.52 28.3042 55.422 28.4162 55.35C28.5282 55.278 28.6582 55.226 28.8062 55.194C28.9542 55.162 29.1082 55.146 29.2682 55.146H30.1982C30.1982 54.966 30.1722 54.81 30.1202 54.678C30.0722 54.546 29.9922 54.444 29.8802 54.372C29.7682 54.296 29.6202 54.258 29.4362 54.258C29.3242 54.258 29.2202 54.27 29.1242 54.294C29.0282 54.318 28.9462 54.356 28.8782 54.408C28.8102 54.46 28.7602 54.53 28.7282 54.618H28.1822C28.2102 54.474 28.2642 54.352 28.3442 54.252C28.4282 54.148 28.5282 54.064 28.6442 54C28.7642 53.932 28.8922 53.882 29.0282 53.85C29.1642 53.818 29.3002 53.802 29.4362 53.802C29.7402 53.802 29.9842 53.864 30.1682 53.988C30.3522 54.108 30.4862 54.28 30.5702 54.504C30.6542 54.724 30.6962 54.986 30.6962 55.29V57H30.2702L30.2402 56.598C30.1522 56.718 30.0462 56.81 29.9222 56.874C29.7982 56.938 29.6702 56.98 29.5382 57C29.4102 57.024 29.2882 57.036 29.1722 57.036ZM29.2202 56.586C29.4202 56.586 29.5922 56.554 29.7362 56.49C29.8842 56.422 29.9982 56.324 30.0782 56.196C30.1582 56.068 30.1982 55.912 30.1982 55.728V55.572H29.6402C29.5082 55.572 29.3782 55.574 29.2502 55.578C29.1222 55.582 29.0062 55.598 28.9022 55.626C28.7982 55.654 28.7142 55.702 28.6502 55.77C28.5902 55.838 28.5602 55.936 28.5602 56.064C28.5602 56.184 28.5902 56.282 28.6502 56.358C28.7142 56.434 28.7962 56.492 28.8962 56.532C29.0002 56.568 29.1082 56.586 29.2202 56.586ZM32.1797 57V54.288H31.0937V53.838H33.7757V54.288H32.6897V57H32.1797ZM34.1863 57V53.838H34.6963V55.224H36.2803V53.838H36.7903V57H36.2803V55.674H34.6963V57H34.1863ZM38.5659 57.036C38.4219 57.036 38.2819 57.018 38.1459 56.982C38.0139 56.942 37.8939 56.884 37.7859 56.808C37.6819 56.728 37.5979 56.63 37.5339 56.514C37.4739 56.394 37.4439 56.256 37.4439 56.1C37.4439 55.92 37.4759 55.768 37.5399 55.644C37.6079 55.52 37.6979 55.422 37.8099 55.35C37.9219 55.278 38.0519 55.226 38.1999 55.194C38.3479 55.162 38.5019 55.146 38.6619 55.146H39.5919C39.5919 54.966 39.5659 54.81 39.5139 54.678C39.4659 54.546 39.3859 54.444 39.2739 54.372C39.1619 54.296 39.0139 54.258 38.8299 54.258C38.7179 54.258 38.6139 54.27 38.5179 54.294C38.4219 54.318 38.3399 54.356 38.2719 54.408C38.2039 54.46 38.1539 54.53 38.1219 54.618H37.5759C37.6039 54.474 37.6579 54.352 37.7379 54.252C37.8219 54.148 37.9219 54.064 38.0379 54C38.1579 53.932 38.2859 53.882 38.4219 53.85C38.5579 53.818 38.6939 53.802 38.8299 53.802C39.1339 53.802 39.3779 53.864 39.5619 53.988C39.7459 54.108 39.8799 54.28 39.9639 54.504C40.0479 54.724 40.0899 54.986 40.0899 55.29V57H39.6639L39.6339 56.598C39.5459 56.718 39.4399 56.81 39.3159 56.874C39.1919 56.938 39.0639 56.98 38.9319 57C38.8039 57.024 38.6819 57.036 38.5659 57.036ZM38.6139 56.586C38.8139 56.586 38.9859 56.554 39.1299 56.49C39.2779 56.422 39.3919 56.324 39.4719 56.196C39.5519 56.068 39.5919 55.912 39.5919 55.728V55.572H39.0339C38.9019 55.572 38.7719 55.574 38.6439 55.578C38.5159 55.582 38.3999 55.598 38.2959 55.626C38.1919 55.654 38.1079 55.702 38.0439 55.77C37.9839 55.838 37.9539 55.936 37.9539 56.064C37.9539 56.184 37.9839 56.282 38.0439 56.358C38.1079 56.434 38.1899 56.492 38.2899 56.532C38.3939 56.568 38.5019 56.586 38.6139 56.586ZM40.6375 57L41.4595 55.752C41.2315 55.688 41.0515 55.584 40.9195 55.44C40.7875 55.292 40.7215 55.096 40.7215 54.852C40.7215 54.66 40.7495 54.5 40.8055 54.372C40.8615 54.24 40.9435 54.136 41.0515 54.06C41.1595 53.98 41.2895 53.924 41.4415 53.892C41.5935 53.856 41.7675 53.838 41.9635 53.838H43.2355V57H42.7255V55.83H41.9995L41.2315 57H40.6375ZM42.3475 55.386H42.7255V54.288H42.0475C41.9275 54.288 41.8175 54.294 41.7175 54.306C41.6175 54.318 41.5315 54.344 41.4595 54.384C41.3915 54.42 41.3375 54.474 41.2975 54.546C41.2575 54.614 41.2375 54.708 41.2375 54.828C41.2375 54.96 41.2695 55.064 41.3335 55.14C41.4015 55.216 41.4875 55.272 41.5915 55.308C41.6995 55.34 41.8195 55.362 41.9515 55.374C42.0835 55.382 42.2155 55.386 42.3475 55.386Z" fill="#26BDA9"/>
<path d="M50.782 57.036C50.45 57.036 50.172 56.968 49.948 56.832C49.724 56.692 49.556 56.5 49.444 56.256C49.336 56.012 49.282 55.734 49.282 55.422C49.282 55.106 49.336 54.828 49.444 54.588C49.556 54.344 49.724 54.152 49.948 54.012C50.172 53.872 50.454 53.802 50.794 53.802C51.126 53.802 51.402 53.872 51.622 54.012C51.846 54.152 52.012 54.344 52.12 54.588C52.232 54.828 52.288 55.106 52.288 55.422C52.288 55.734 52.232 56.012 52.12 56.256C52.008 56.5 51.84 56.692 51.616 56.832C51.396 56.968 51.118 57.036 50.782 57.036ZM50.782 56.586C51.014 56.586 51.202 56.534 51.346 56.43C51.494 56.326 51.602 56.186 51.67 56.01C51.742 55.834 51.778 55.638 51.778 55.422C51.778 55.206 51.742 55.01 51.67 54.834C51.602 54.658 51.494 54.518 51.346 54.414C51.202 54.31 51.014 54.258 50.782 54.258C50.554 54.258 50.366 54.31 50.218 54.414C50.074 54.518 49.966 54.658 49.894 54.834C49.826 55.01 49.792 55.206 49.792 55.422C49.792 55.638 49.826 55.834 49.894 56.01C49.966 56.186 50.074 56.326 50.218 56.43C50.366 56.534 50.554 56.586 50.782 56.586ZM53.6638 57V54.288H52.5778V53.838H55.2598V54.288H54.1738V57H53.6638ZM59.397 57V56.154H57.093V55.764L59.169 52.758H59.919V55.68H60.417V56.154H59.919V57H59.397ZM57.723 55.68H59.397V53.232L57.723 55.68ZM62.5613 57.048C62.2733 57.048 62.0253 56.994 61.8173 56.886C61.6133 56.774 61.4453 56.624 61.3133 56.436C61.1853 56.244 61.0913 56.028 61.0313 55.788C60.9713 55.544 60.9413 55.288 60.9413 55.02C60.9413 54.704 60.9713 54.408 61.0313 54.132C61.0953 53.852 61.1933 53.606 61.3253 53.394C61.4613 53.182 61.6373 53.016 61.8533 52.896C62.0693 52.772 62.3293 52.71 62.6333 52.71C62.8373 52.71 63.0273 52.746 63.2033 52.818C63.3833 52.886 63.5393 52.99 63.6713 53.13C63.8033 53.266 63.9013 53.434 63.9653 53.634H63.4193C63.3473 53.486 63.2373 53.374 63.0893 53.298C62.9413 53.222 62.7873 53.184 62.6273 53.184C62.4433 53.184 62.2853 53.22 62.1533 53.292C62.0213 53.36 61.9093 53.452 61.8173 53.568C61.7293 53.684 61.6573 53.816 61.6013 53.964C61.5493 54.112 61.5113 54.266 61.4873 54.426C61.4633 54.586 61.4513 54.742 61.4513 54.894C61.5433 54.754 61.6493 54.64 61.7693 54.552C61.8933 54.464 62.0273 54.4 62.1713 54.36C62.3193 54.316 62.4693 54.294 62.6213 54.294C62.9013 54.294 63.1433 54.352 63.3473 54.468C63.5553 54.58 63.7173 54.738 63.8333 54.942C63.9493 55.142 64.0073 55.374 64.0073 55.638C64.0073 55.918 63.9453 56.164 63.8213 56.376C63.6973 56.588 63.5253 56.754 63.3053 56.874C63.0893 56.99 62.8413 57.048 62.5613 57.048ZM62.5493 56.574C62.7293 56.574 62.8873 56.536 63.0233 56.46C63.1633 56.38 63.2733 56.274 63.3533 56.142C63.4333 56.006 63.4733 55.856 63.4733 55.692C63.4733 55.516 63.4353 55.36 63.3593 55.224C63.2833 55.088 63.1773 54.98 63.0413 54.9C62.9093 54.82 62.7533 54.78 62.5733 54.78C62.4093 54.78 62.2533 54.818 62.1053 54.894C61.9573 54.966 61.8373 55.07 61.7453 55.206C61.6573 55.338 61.6133 55.496 61.6133 55.68C61.6133 55.848 61.6533 56 61.7333 56.136C61.8173 56.268 61.9293 56.374 62.0693 56.454C62.2133 56.534 62.3733 56.574 62.5493 56.574ZM65.049 57.048C64.945 57.048 64.859 57.014 64.791 56.946C64.723 56.878 64.689 56.792 64.689 56.688C64.689 56.584 64.723 56.498 64.791 56.43C64.859 56.362 64.945 56.328 65.049 56.328C65.153 56.328 65.239 56.362 65.307 56.43C65.375 56.498 65.409 56.584 65.409 56.688C65.409 56.792 65.375 56.878 65.307 56.946C65.239 57.014 65.153 57.048 65.049 57.048ZM68.3219 57V56.154H66.0179V55.764L68.0939 52.758H68.8439V55.68H69.3419V56.154H68.8439V57H68.3219ZM66.6479 55.68H68.3219V53.232L66.6479 55.68ZM71.4929 57V53.838H72.1769L73.2029 55.422L74.2109 53.838H74.8829V57H74.3789V54.402L73.2629 56.19H73.1189L71.9969 54.402V57H71.4929ZM75.6137 54.72V54.354L76.2077 53.844C76.2637 53.796 76.3277 53.74 76.3997 53.676C76.4757 53.608 76.5417 53.536 76.5977 53.46C76.6537 53.384 76.6817 53.308 76.6817 53.232C76.6817 53.124 76.6517 53.042 76.5917 52.986C76.5317 52.93 76.4497 52.902 76.3457 52.902C76.2657 52.902 76.1937 52.922 76.1297 52.962C76.0657 52.998 76.0297 53.06 76.0217 53.148H75.6017C75.6097 52.924 75.6897 52.76 75.8417 52.656C75.9937 52.552 76.1717 52.5 76.3757 52.5C76.5877 52.5 76.7637 52.558 76.9037 52.674C77.0437 52.786 77.1137 52.95 77.1137 53.166C77.1137 53.342 77.0697 53.494 76.9817 53.622C76.8937 53.746 76.7897 53.86 76.6697 53.964C76.5977 54.028 76.5257 54.088 76.4537 54.144C76.3817 54.2 76.3097 54.26 76.2377 54.324H77.0897V54.72H75.6137Z" fill="#B0B0B0"/>
<path d="M51.782 71.036C51.45 71.036 51.172 70.968 50.948 70.832C50.724 70.692 50.556 70.5 50.444 70.256C50.336 70.012 50.282 69.734 50.282 69.422C50.282 69.106 50.336 68.828 50.444 68.588C50.556 68.344 50.724 68.152 50.948 68.012C51.172 67.872 51.454 67.802 51.794 67.802C52.126 67.802 52.402 67.872 52.622 68.012C52.846 68.152 53.012 68.344 53.12 68.588C53.232 68.828 53.288 69.106 53.288 69.422C53.288 69.734 53.232 70.012 53.12 70.256C53.008 70.5 52.84 70.692 52.616 70.832C52.396 70.968 52.118 71.036 51.782 71.036ZM51.782 70.586C52.014 70.586 52.202 70.534 52.346 70.43C52.494 70.326 52.602 70.186 52.67 70.01C52.742 69.834 52.778 69.638 52.778 69.422C52.778 69.206 52.742 69.01 52.67 68.834C52.602 68.658 52.494 68.518 52.346 68.414C52.202 68.31 52.014 68.258 51.782 68.258C51.554 68.258 51.366 68.31 51.218 68.414C51.074 68.518 50.966 68.658 50.894 68.834C50.826 69.01 50.792 69.206 50.792 69.422C50.792 69.638 50.826 69.834 50.894 70.01C50.966 70.186 51.074 70.326 51.218 70.43C51.366 70.534 51.554 70.586 51.782 70.586ZM54.6638 71V68.288H53.5778V67.838H56.2598V68.288H55.1738V71H54.6638ZM58.441 71L60.157 67.238H57.913V66.758H60.733V67.19L59.017 71H58.441ZM62.7937 71.048C62.5057 71.048 62.2577 70.994 62.0497 70.886C61.8457 70.774 61.6777 70.624 61.5457 70.436C61.4177 70.244 61.3237 70.028 61.2637 69.788C61.2037 69.544 61.1737 69.288 61.1737 69.02C61.1737 68.704 61.2037 68.408 61.2637 68.132C61.3277 67.852 61.4257 67.606 61.5577 67.394C61.6937 67.182 61.8697 67.016 62.0857 66.896C62.3017 66.772 62.5617 66.71 62.8657 66.71C63.0697 66.71 63.2597 66.746 63.4357 66.818C63.6157 66.886 63.7717 66.99 63.9037 67.13C64.0357 67.266 64.1337 67.434 64.1977 67.634H63.6517C63.5797 67.486 63.4697 67.374 63.3217 67.298C63.1737 67.222 63.0197 67.184 62.8597 67.184C62.6757 67.184 62.5177 67.22 62.3857 67.292C62.2537 67.36 62.1417 67.452 62.0497 67.568C61.9617 67.684 61.8897 67.816 61.8337 67.964C61.7817 68.112 61.7437 68.266 61.7197 68.426C61.6957 68.586 61.6837 68.742 61.6837 68.894C61.7757 68.754 61.8817 68.64 62.0017 68.552C62.1257 68.464 62.2597 68.4 62.4037 68.36C62.5517 68.316 62.7017 68.294 62.8537 68.294C63.1337 68.294 63.3757 68.352 63.5797 68.468C63.7877 68.58 63.9497 68.738 64.0657 68.942C64.1817 69.142 64.2397 69.374 64.2397 69.638C64.2397 69.918 64.1777 70.164 64.0537 70.376C63.9297 70.588 63.7577 70.754 63.5377 70.874C63.3217 70.99 63.0737 71.048 62.7937 71.048ZM62.7817 70.574C62.9617 70.574 63.1197 70.536 63.2557 70.46C63.3957 70.38 63.5057 70.274 63.5857 70.142C63.6657 70.006 63.7057 69.856 63.7057 69.692C63.7057 69.516 63.6677 69.36 63.5917 69.224C63.5157 69.088 63.4097 68.98 63.2737 68.9C63.1417 68.82 62.9857 68.78 62.8057 68.78C62.6417 68.78 62.4857 68.818 62.3377 68.894C62.1897 68.966 62.0697 69.07 61.9777 69.206C61.8897 69.338 61.8457 69.496 61.8457 69.68C61.8457 69.848 61.8857 70 61.9657 70.136C62.0497 70.268 62.1617 70.374 62.3017 70.454C62.4457 70.534 62.6057 70.574 62.7817 70.574ZM65.2815 71.048C65.1775 71.048 65.0915 71.014 65.0235 70.946C64.9555 70.878 64.9215 70.792 64.9215 70.688C64.9215 70.584 64.9555 70.498 65.0235 70.43C65.0915 70.362 65.1775 70.328 65.2815 70.328C65.3855 70.328 65.4715 70.362 65.5395 70.43C65.6075 70.498 65.6415 70.584 65.6415 70.688C65.6415 70.792 65.6075 70.878 65.5395 70.946C65.4715 71.014 65.3855 71.048 65.2815 71.048ZM66.8952 71V67.598H66.0312V67.244C66.1912 67.232 66.3332 67.214 66.4572 67.19C66.5812 67.162 66.6912 67.116 66.7872 67.052C66.8872 66.984 66.9752 66.886 67.0512 66.758H67.4172V71H66.8952ZM69.991 71V67.838H70.675L71.701 69.422L72.709 67.838H73.381V71H72.877V68.402L71.761 70.19H71.617L70.495 68.402V71H69.991ZM74.1117 68.72V68.354L74.7057 67.844C74.7617 67.796 74.8257 67.74 74.8977 67.676C74.9737 67.608 75.0397 67.536 75.0957 67.46C75.1517 67.384 75.1797 67.308 75.1797 67.232C75.1797 67.124 75.1497 67.042 75.0897 66.986C75.0297 66.93 74.9477 66.902 74.8437 66.902C74.7637 66.902 74.6917 66.922 74.6277 66.962C74.5637 66.998 74.5277 67.06 74.5197 67.148H74.0997C74.1077 66.924 74.1877 66.76 74.3397 66.656C74.4917 66.552 74.6697 66.5 74.8737 66.5C75.0857 66.5 75.2617 66.558 75.4017 66.674C75.5417 66.786 75.6117 66.95 75.6117 67.166C75.6117 67.342 75.5677 67.494 75.4797 67.622C75.3917 67.746 75.2877 67.86 75.1677 67.964C75.0957 68.028 75.0237 68.088 74.9517 68.144C74.8797 68.2 74.8077 68.26 74.7357 68.324H75.5877V68.72H74.1117Z" fill="#B0B0B0"/>
<path d="M12.238 95.048C11.802 95.048 11.438 94.956 11.146 94.772C10.858 94.584 10.642 94.328 10.498 94.004C10.358 93.676 10.288 93.302 10.288 92.882C10.288 92.466 10.36 92.096 10.504 91.772C10.648 91.444 10.864 91.186 11.152 90.998C11.444 90.806 11.81 90.71 12.25 90.71C12.562 90.71 12.83 90.76 13.054 90.86C13.282 90.956 13.466 91.09 13.606 91.262C13.746 91.434 13.842 91.636 13.894 91.868H13.366C13.306 91.66 13.176 91.494 12.976 91.37C12.78 91.246 12.532 91.184 12.232 91.184C11.896 91.184 11.624 91.264 11.416 91.424C11.212 91.58 11.062 91.786 10.966 92.042C10.87 92.294 10.822 92.568 10.822 92.864C10.822 93.176 10.872 93.462 10.972 93.722C11.072 93.982 11.228 94.19 11.44 94.346C11.652 94.498 11.922 94.574 12.25 94.574C12.45 94.574 12.628 94.546 12.784 94.49C12.944 94.434 13.076 94.354 13.18 94.25C13.288 94.146 13.362 94.026 13.402 93.89H13.972C13.912 94.122 13.804 94.326 13.648 94.502C13.496 94.674 13.302 94.808 13.066 94.904C12.83 95 12.554 95.048 12.238 95.048ZM14.6172 96.14V91.838H15.1032L15.1272 92.324C15.2352 92.152 15.3812 92.022 15.5652 91.934C15.7532 91.846 15.9552 91.802 16.1712 91.802C16.4912 91.802 16.7532 91.874 16.9572 92.018C17.1612 92.158 17.3112 92.35 17.4072 92.594C17.5072 92.838 17.5572 93.114 17.5572 93.422C17.5572 93.73 17.5072 94.006 17.4072 94.25C17.3072 94.494 17.1532 94.686 16.9452 94.826C16.7372 94.966 16.4712 95.036 16.1472 95.036C15.9872 95.036 15.8432 95.02 15.7152 94.988C15.5872 94.952 15.4752 94.902 15.3792 94.838C15.2832 94.774 15.1992 94.702 15.1272 94.622V96.14H14.6172ZM16.1052 94.586C16.3372 94.586 16.5212 94.534 16.6572 94.43C16.7932 94.322 16.8912 94.18 16.9512 94.004C17.0152 93.828 17.0472 93.634 17.0472 93.422C17.0472 93.206 17.0152 93.01 16.9512 92.834C16.8912 92.658 16.7912 92.518 16.6512 92.414C16.5112 92.31 16.3252 92.258 16.0932 92.258C15.8852 92.258 15.7072 92.312 15.5592 92.42C15.4152 92.524 15.3052 92.666 15.2292 92.846C15.1532 93.022 15.1152 93.216 15.1152 93.428C15.1152 93.648 15.1512 93.846 15.2232 94.022C15.2952 94.198 15.4052 94.336 15.5532 94.436C15.7012 94.536 15.8852 94.586 16.1052 94.586ZM19.5503 95.036C19.2183 95.036 18.9403 94.968 18.7163 94.832C18.4923 94.692 18.3243 94.5 18.2123 94.256C18.1043 94.012 18.0503 93.734 18.0503 93.422C18.0503 93.106 18.1043 92.828 18.2123 92.588C18.3243 92.344 18.4923 92.152 18.7163 92.012C18.9403 91.872 19.2223 91.802 19.5623 91.802C19.8943 91.802 20.1703 91.872 20.3903 92.012C20.6143 92.152 20.7803 92.344 20.8883 92.588C21.0003 92.828 21.0563 93.106 21.0563 93.422C21.0563 93.734 21.0003 94.012 20.8883 94.256C20.7763 94.5 20.6083 94.692 20.3843 94.832C20.1643 94.968 19.8863 95.036 19.5503 95.036ZM19.5503 94.586C19.7823 94.586 19.9703 94.534 20.1143 94.43C20.2623 94.326 20.3703 94.186 20.4383 94.01C20.5103 93.834 20.5463 93.638 20.5463 93.422C20.5463 93.206 20.5103 93.01 20.4383 92.834C20.3703 92.658 20.2623 92.518 20.1143 92.414C19.9703 92.31 19.7823 92.258 19.5503 92.258C19.3223 92.258 19.1343 92.31 18.9863 92.414C18.8423 92.518 18.7343 92.658 18.6623 92.834C18.5943 93.01 18.5603 93.206 18.5603 93.422C18.5603 93.638 18.5943 93.834 18.6623 94.01C18.7343 94.186 18.8423 94.326 18.9863 94.43C19.1343 94.534 19.3223 94.586 19.5503 94.586ZM21.6941 95V91.838H22.2041V93.2H22.7561L23.6921 91.838H24.2741L23.2181 93.344L24.3641 95H23.7641L22.8161 93.644H22.2041V95H21.6941ZM27.6836 95.036C27.3516 95.036 27.0756 94.968 26.8556 94.832C26.6396 94.692 26.4776 94.5 26.3696 94.256C26.2656 94.012 26.2136 93.736 26.2136 93.428C26.2136 93.128 26.2676 92.856 26.3756 92.612C26.4876 92.364 26.6556 92.168 26.8796 92.024C27.1076 91.876 27.3956 91.802 27.7436 91.802C27.9596 91.802 28.1516 91.838 28.3196 91.91C28.4916 91.982 28.6336 92.088 28.7456 92.228C28.8576 92.364 28.9356 92.536 28.9796 92.744H28.4576C28.3976 92.568 28.3016 92.444 28.1696 92.372C28.0416 92.296 27.8896 92.258 27.7136 92.258C27.4736 92.258 27.2816 92.314 27.1376 92.426C26.9936 92.538 26.8876 92.684 26.8196 92.864C26.7556 93.04 26.7236 93.228 26.7236 93.428C26.7236 93.636 26.7576 93.828 26.8256 94.004C26.8936 94.18 26.9996 94.322 27.1436 94.43C27.2876 94.534 27.4736 94.586 27.7016 94.586C27.8696 94.586 28.0276 94.55 28.1756 94.478C28.3276 94.406 28.4276 94.278 28.4756 94.094H29.0036C28.9636 94.31 28.8776 94.488 28.7456 94.628C28.6176 94.768 28.4596 94.872 28.2716 94.94C28.0876 95.004 27.8916 95.036 27.6836 95.036ZM29.2651 95.972V94.556C29.3811 94.556 29.4731 94.524 29.5411 94.46C29.6131 94.396 29.6691 94.312 29.7091 94.208C29.7491 94.104 29.7791 93.992 29.7991 93.872C29.8191 93.748 29.8351 93.63 29.8471 93.518C29.8671 93.334 29.8791 93.152 29.8831 92.972C29.8911 92.788 29.8951 92.642 29.8951 92.534C29.8991 92.418 29.9011 92.302 29.9011 92.186C29.9011 92.07 29.9011 91.954 29.9011 91.838H32.1451V94.556H32.5591V95.972H32.0671V95H29.7571V95.972H29.2651ZM30.0751 94.556H31.6351V92.288H30.3871C30.3831 92.456 30.3791 92.644 30.3751 92.852C30.3711 93.06 30.3631 93.254 30.3511 93.434C30.3471 93.538 30.3371 93.656 30.3211 93.788C30.3091 93.92 30.2851 94.054 30.2491 94.19C30.2131 94.322 30.1551 94.444 30.0751 94.556ZM34.0612 95.036C33.9172 95.036 33.7772 95.018 33.6412 94.982C33.5092 94.942 33.3892 94.884 33.2812 94.808C33.1772 94.728 33.0932 94.63 33.0292 94.514C32.9692 94.394 32.9392 94.256 32.9392 94.1C32.9392 93.92 32.9712 93.768 33.0352 93.644C33.1032 93.52 33.1932 93.422 33.3052 93.35C33.4172 93.278 33.5472 93.226 33.6952 93.194C33.8432 93.162 33.9972 93.146 34.1572 93.146H35.0872C35.0872 92.966 35.0612 92.81 35.0092 92.678C34.9612 92.546 34.8812 92.444 34.7692 92.372C34.6572 92.296 34.5092 92.258 34.3252 92.258C34.2132 92.258 34.1092 92.27 34.0132 92.294C33.9172 92.318 33.8352 92.356 33.7672 92.408C33.6992 92.46 33.6492 92.53 33.6172 92.618H33.0712C33.0992 92.474 33.1532 92.352 33.2332 92.252C33.3172 92.148 33.4172 92.064 33.5332 92C33.6532 91.932 33.7812 91.882 33.9172 91.85C34.0532 91.818 34.1892 91.802 34.3252 91.802C34.6292 91.802 34.8732 91.864 35.0572 91.988C35.2412 92.108 35.3752 92.28 35.4592 92.504C35.5432 92.724 35.5852 92.986 35.5852 93.29V95H35.1592L35.1292 94.598C35.0412 94.718 34.9352 94.81 34.8112 94.874C34.6872 94.938 34.5592 94.98 34.4272 95C34.2992 95.024 34.1772 95.036 34.0612 95.036ZM34.1092 94.586C34.3092 94.586 34.4812 94.554 34.6252 94.49C34.7732 94.422 34.8872 94.324 34.9672 94.196C35.0472 94.068 35.0872 93.912 35.0872 93.728V93.572H34.5292C34.3972 93.572 34.2672 93.574 34.1392 93.578C34.0112 93.582 33.8952 93.598 33.7912 93.626C33.6872 93.654 33.6032 93.702 33.5392 93.77C33.4792 93.838 33.4492 93.936 33.4492 94.064C33.4492 94.184 33.4792 94.282 33.5392 94.358C33.6032 94.434 33.6852 94.492 33.7852 94.532C33.8892 94.568 33.9972 94.586 34.1092 94.586ZM38.1908 95V93.782C38.0388 93.81 37.8908 93.83 37.7468 93.842C37.6068 93.85 37.4808 93.854 37.3688 93.854C37.0728 93.854 36.8388 93.808 36.6668 93.716C36.4948 93.624 36.3728 93.484 36.3008 93.296C36.2288 93.104 36.1928 92.866 36.1928 92.582V91.838H36.7028V92.546C36.7028 92.73 36.7208 92.886 36.7568 93.014C36.7928 93.142 36.8628 93.24 36.9668 93.308C37.0708 93.372 37.2268 93.404 37.4348 93.404C37.5548 93.404 37.6808 93.398 37.8128 93.386C37.9488 93.374 38.0748 93.356 38.1908 93.332V91.838H38.7008V95H38.1908ZM39.462 95V91.838H39.972V94.262C40 94.206 40.038 94.146 40.086 94.082C40.134 94.014 40.172 93.962 40.2 93.926L41.73 91.838H42.234V95H41.724V92.576C41.692 92.636 41.656 92.692 41.616 92.744C41.58 92.796 41.546 92.844 41.514 92.888L39.96 95H39.462Z" fill="#7B7B7B"/>
<path d="M0 103H133V114C133 119.523 128.523 124 123 124H10C4.47715 124 0 119.523 0 114V103Z" fill="#26BDA9"/>
<path d="M43.516 116V111.758H45.004C45.216 111.758 45.408 111.776 45.58 111.812C45.752 111.844 45.9 111.9 46.024 111.98C46.152 112.06 46.25 112.168 46.318 112.304C46.386 112.44 46.42 112.612 46.42 112.82C46.42 113.036 46.37 113.228 46.27 113.396C46.174 113.564 46.024 113.688 45.82 113.768C46.092 113.816 46.296 113.932 46.432 114.116C46.568 114.296 46.636 114.53 46.636 114.818C46.636 115.046 46.592 115.236 46.504 115.388C46.42 115.54 46.3 115.662 46.144 115.754C45.992 115.842 45.816 115.906 45.616 115.946C45.416 115.982 45.202 116 44.974 116H43.516ZM44.038 115.526H44.956C45.08 115.526 45.208 115.52 45.34 115.508C45.476 115.492 45.602 115.462 45.718 115.418C45.834 115.37 45.928 115.296 46 115.196C46.072 115.096 46.108 114.962 46.108 114.794C46.108 114.65 46.08 114.532 46.024 114.44C45.972 114.348 45.9 114.276 45.808 114.224C45.72 114.172 45.618 114.136 45.502 114.116C45.386 114.096 45.268 114.086 45.148 114.086H44.038V115.526ZM44.038 113.618H44.854C45.002 113.618 45.14 113.606 45.268 113.582C45.396 113.554 45.508 113.51 45.604 113.45C45.7 113.39 45.774 113.312 45.826 113.216C45.882 113.12 45.91 113 45.91 112.856C45.91 112.672 45.868 112.536 45.784 112.448C45.7 112.36 45.59 112.302 45.454 112.274C45.318 112.246 45.17 112.232 45.01 112.232H44.038V113.618ZM47.2891 116V112.838H47.8111V114.044H48.3811C48.5691 114.044 48.7391 114.06 48.8911 114.092C49.0431 114.124 49.1731 114.176 49.2811 114.248C49.3891 114.32 49.4711 114.418 49.5271 114.542C49.5831 114.662 49.6111 114.814 49.6111 114.998C49.6111 115.174 49.5811 115.326 49.5211 115.454C49.4611 115.582 49.3751 115.686 49.2631 115.766C49.1551 115.846 49.0251 115.906 48.8731 115.946C48.7251 115.982 48.5631 116 48.3871 116H47.2891ZM47.8111 115.556H47.9791C48.1191 115.556 48.2551 115.554 48.3871 115.55C48.5191 115.542 48.6371 115.522 48.7411 115.49C48.8491 115.458 48.9351 115.406 48.9991 115.334C49.0631 115.258 49.0951 115.152 49.0951 115.016C49.0951 114.888 49.0691 114.79 49.0171 114.722C48.9691 114.65 48.9051 114.598 48.8251 114.566C48.7451 114.53 48.6571 114.508 48.5611 114.5C48.4691 114.492 48.3771 114.488 48.2851 114.488H47.8111V115.556ZM50.0491 116V112.838H50.5591V116H50.0491ZM52.6488 116.036C52.4488 116.036 52.2708 116.008 52.1148 115.952C51.9588 115.892 51.8248 115.81 51.7128 115.706C51.6008 115.598 51.5088 115.472 51.4368 115.328C51.3648 115.18 51.3108 115.02 51.2748 114.848C51.2388 114.676 51.2208 114.494 51.2208 114.302C51.2208 113.994 51.2268 113.708 51.2388 113.444C51.2548 113.176 51.2988 112.938 51.3708 112.73C51.4428 112.518 51.5648 112.342 51.7368 112.202C51.9088 112.062 52.1508 111.964 52.4628 111.908C52.6228 111.88 52.7808 111.856 52.9368 111.836C53.0928 111.816 53.2508 111.796 53.4108 111.776C53.4628 111.768 53.5168 111.76 53.5728 111.752C53.6288 111.744 53.6868 111.734 53.7468 111.722C53.8108 111.71 53.8708 111.7 53.9268 111.692V112.16C53.8828 112.176 53.8348 112.19 53.7828 112.202C53.7348 112.21 53.6828 112.218 53.6268 112.226C53.5748 112.234 53.5208 112.24 53.4648 112.244C53.4128 112.248 53.3608 112.254 53.3088 112.262C53.2568 112.266 53.2068 112.272 53.1588 112.28C53.0188 112.296 52.8708 112.312 52.7148 112.328C52.5588 112.34 52.4108 112.372 52.2708 112.424C52.1348 112.472 52.0188 112.566 51.9228 112.706C51.8748 112.778 51.8328 112.864 51.7968 112.964C51.7648 113.064 51.7408 113.166 51.7248 113.27C51.7128 113.37 51.7048 113.466 51.7008 113.558C51.7808 113.446 51.8788 113.356 51.9948 113.288C52.1108 113.216 52.2348 113.164 52.3668 113.132C52.4988 113.096 52.6248 113.078 52.7448 113.078C53.0328 113.078 53.2768 113.138 53.4768 113.258C53.6768 113.374 53.8288 113.54 53.9328 113.756C54.0368 113.972 54.0888 114.224 54.0888 114.512C54.0888 114.8 54.0328 115.06 53.9208 115.292C53.8088 115.52 53.6448 115.702 53.4288 115.838C53.2168 115.97 52.9568 116.036 52.6488 116.036ZM52.6608 115.586C52.8608 115.586 53.0288 115.538 53.1648 115.442C53.3008 115.346 53.4028 115.218 53.4708 115.058C53.5428 114.898 53.5788 114.722 53.5788 114.53C53.5788 114.342 53.5428 114.174 53.4708 114.026C53.4028 113.874 53.3008 113.754 53.1648 113.666C53.0328 113.578 52.8688 113.534 52.6728 113.534C52.4808 113.534 52.3148 113.58 52.1748 113.672C52.0388 113.764 51.9328 113.888 51.8568 114.044C51.7848 114.196 51.7488 114.362 51.7488 114.542C51.7488 114.726 51.7828 114.898 51.8508 115.058C51.9188 115.218 52.0188 115.346 52.1508 115.442C52.2868 115.538 52.4568 115.586 52.6608 115.586ZM54.7293 117.14V112.838H55.2153L55.2393 113.324C55.3473 113.152 55.4933 113.022 55.6773 112.934C55.8653 112.846 56.0673 112.802 56.2833 112.802C56.6033 112.802 56.8653 112.874 57.0693 113.018C57.2733 113.158 57.4233 113.35 57.5193 113.594C57.6193 113.838 57.6693 114.114 57.6693 114.422C57.6693 114.73 57.6193 115.006 57.5193 115.25C57.4193 115.494 57.2653 115.686 57.0573 115.826C56.8493 115.966 56.5833 116.036 56.2593 116.036C56.0993 116.036 55.9553 116.02 55.8273 115.988C55.6993 115.952 55.5873 115.902 55.4913 115.838C55.3953 115.774 55.3113 115.702 55.2393 115.622V117.14H54.7293ZM56.2173 115.586C56.4493 115.586 56.6333 115.534 56.7693 115.43C56.9053 115.322 57.0033 115.18 57.0633 115.004C57.1273 114.828 57.1593 114.634 57.1593 114.422C57.1593 114.206 57.1273 114.01 57.0633 113.834C57.0033 113.658 56.9033 113.518 56.7633 113.414C56.6233 113.31 56.4373 113.258 56.2053 113.258C55.9973 113.258 55.8193 113.312 55.6713 113.42C55.5273 113.524 55.4173 113.666 55.3413 113.846C55.2653 114.022 55.2273 114.216 55.2273 114.428C55.2273 114.648 55.2633 114.846 55.3353 115.022C55.4073 115.198 55.5173 115.336 55.6653 115.436C55.8133 115.536 55.9973 115.586 56.2173 115.586ZM59.2964 116.036C59.1524 116.036 59.0124 116.018 58.8764 115.982C58.7444 115.942 58.6244 115.884 58.5164 115.808C58.4124 115.728 58.3284 115.63 58.2644 115.514C58.2044 115.394 58.1744 115.256 58.1744 115.1C58.1744 114.92 58.2064 114.768 58.2704 114.644C58.3384 114.52 58.4284 114.422 58.5404 114.35C58.6524 114.278 58.7824 114.226 58.9304 114.194C59.0784 114.162 59.2324 114.146 59.3924 114.146H60.3224C60.3224 113.966 60.2964 113.81 60.2444 113.678C60.1964 113.546 60.1164 113.444 60.0044 113.372C59.8924 113.296 59.7444 113.258 59.5604 113.258C59.4484 113.258 59.3444 113.27 59.2484 113.294C59.1524 113.318 59.0704 113.356 59.0024 113.408C58.9344 113.46 58.8844 113.53 58.8524 113.618H58.3064C58.3344 113.474 58.3884 113.352 58.4684 113.252C58.5524 113.148 58.6524 113.064 58.7684 113C58.8884 112.932 59.0164 112.882 59.1524 112.85C59.2884 112.818 59.4244 112.802 59.5604 112.802C59.8644 112.802 60.1084 112.864 60.2924 112.988C60.4764 113.108 60.6104 113.28 60.6944 113.504C60.7784 113.724 60.8204 113.986 60.8204 114.29V116H60.3944L60.3644 115.598C60.2764 115.718 60.1704 115.81 60.0464 115.874C59.9224 115.938 59.7944 115.98 59.6624 116C59.5344 116.024 59.4124 116.036 59.2964 116.036ZM59.3444 115.586C59.5444 115.586 59.7164 115.554 59.8604 115.49C60.0084 115.422 60.1224 115.324 60.2024 115.196C60.2824 115.068 60.3224 114.912 60.3224 114.728V114.572H59.7644C59.6324 114.572 59.5024 114.574 59.3744 114.578C59.2464 114.582 59.1304 114.598 59.0264 114.626C58.9224 114.654 58.8384 114.702 58.7744 114.77C58.7144 114.838 58.6844 114.936 58.6844 115.064C58.6844 115.184 58.7144 115.282 58.7744 115.358C58.8384 115.434 58.9204 115.492 59.0204 115.532C59.1244 115.568 59.2324 115.586 59.3444 115.586ZM62.304 116V113.288H61.218V112.838H63.9V113.288H62.814V116H62.304ZM64.3105 116V112.838H64.8325V114.044H65.5285C65.7165 114.044 65.8845 114.06 66.0325 114.092C66.1845 114.12 66.3145 114.17 66.4225 114.242C66.5305 114.314 66.6125 114.412 66.6685 114.536C66.7285 114.656 66.7585 114.81 66.7585 114.998C66.7585 115.17 66.7285 115.32 66.6685 115.448C66.6085 115.572 66.5245 115.676 66.4165 115.76C66.3085 115.84 66.1785 115.9 66.0265 115.94C65.8785 115.98 65.7145 116 65.5345 116H64.3105ZM64.8325 115.556H65.1325C65.2725 115.556 65.4065 115.552 65.5345 115.544C65.6665 115.536 65.7865 115.516 65.8945 115.484C66.0025 115.452 66.0865 115.4 66.1465 115.328C66.2105 115.252 66.2425 115.148 66.2425 115.016C66.2425 114.888 66.2165 114.79 66.1645 114.722C66.1165 114.65 66.0525 114.598 65.9725 114.566C65.8925 114.53 65.8045 114.508 65.7085 114.5C65.6165 114.492 65.5245 114.488 65.4325 114.488H64.8325V115.556ZM68.9499 116V112.838H69.4599V114.2H70.0119L70.9479 112.838H71.5299L70.4739 114.344L71.6199 116H71.0199L70.0719 114.644H69.4599V116H68.9499ZM72.0167 116V112.838H73.2407C73.3807 112.838 73.5187 112.848 73.6547 112.868C73.7947 112.884 73.9207 112.92 74.0327 112.976C74.1487 113.028 74.2407 113.106 74.3087 113.21C74.3807 113.314 74.4167 113.452 74.4167 113.624C74.4167 113.728 74.4007 113.824 74.3687 113.912C74.3367 113.996 74.2887 114.07 74.2247 114.134C74.1647 114.198 74.0867 114.254 73.9907 114.302C74.2067 114.35 74.3627 114.444 74.4587 114.584C74.5547 114.724 74.6027 114.884 74.6027 115.064C74.6027 115.224 74.5727 115.364 74.5127 115.484C74.4567 115.6 74.3767 115.696 74.2727 115.772C74.1727 115.848 74.0547 115.906 73.9187 115.946C73.7867 115.982 73.6447 116 73.4927 116H72.0167ZM72.5387 115.556H73.3727C73.4967 115.556 73.6127 115.544 73.7207 115.52C73.8287 115.496 73.9167 115.452 73.9847 115.388C74.0527 115.32 74.0867 115.224 74.0867 115.1C74.0867 114.972 74.0567 114.876 73.9967 114.812C73.9407 114.744 73.8667 114.698 73.7747 114.674C73.6867 114.646 73.5907 114.63 73.4867 114.626C73.3827 114.622 73.2847 114.62 73.1927 114.62H72.5387V115.556ZM72.5387 114.188H72.9767C73.0567 114.188 73.1487 114.184 73.2527 114.176C73.3607 114.168 73.4647 114.15 73.5647 114.122C73.6687 114.09 73.7527 114.042 73.8167 113.978C73.8847 113.914 73.9187 113.826 73.9187 113.714C73.9187 113.566 73.8767 113.464 73.7927 113.408C73.7127 113.348 73.6167 113.314 73.5047 113.306C73.3927 113.294 73.2887 113.288 73.1927 113.288H72.5387V114.188ZM76.2674 116.036C76.1234 116.036 75.9834 116.018 75.8474 115.982C75.7154 115.942 75.5954 115.884 75.4874 115.808C75.3834 115.728 75.2994 115.63 75.2354 115.514C75.1754 115.394 75.1454 115.256 75.1454 115.1C75.1454 114.92 75.1774 114.768 75.2414 114.644C75.3094 114.52 75.3994 114.422 75.5114 114.35C75.6234 114.278 75.7534 114.226 75.9014 114.194C76.0494 114.162 76.2034 114.146 76.3634 114.146H77.2934C77.2934 113.966 77.2674 113.81 77.2154 113.678C77.1674 113.546 77.0874 113.444 76.9754 113.372C76.8634 113.296 76.7154 113.258 76.5314 113.258C76.4194 113.258 76.3154 113.27 76.2194 113.294C76.1234 113.318 76.0414 113.356 75.9734 113.408C75.9054 113.46 75.8554 113.53 75.8234 113.618H75.2774C75.3054 113.474 75.3594 113.352 75.4394 113.252C75.5234 113.148 75.6234 113.064 75.7394 113C75.8594 112.932 75.9874 112.882 76.1234 112.85C76.2594 112.818 76.3954 112.802 76.5314 112.802C76.8354 112.802 77.0794 112.864 77.2634 112.988C77.4474 113.108 77.5814 113.28 77.6654 113.504C77.7494 113.724 77.7914 113.986 77.7914 114.29V116H77.3654L77.3354 115.598C77.2474 115.718 77.1414 115.81 77.0174 115.874C76.8934 115.938 76.7654 115.98 76.6334 116C76.5054 116.024 76.3834 116.036 76.2674 116.036ZM76.3154 115.586C76.5154 115.586 76.6874 115.554 76.8314 115.49C76.9794 115.422 77.0934 115.324 77.1734 115.196C77.2534 115.068 77.2934 114.912 77.2934 114.728V114.572H76.7354C76.6034 114.572 76.4734 114.574 76.3454 114.578C76.2174 114.582 76.1014 114.598 75.9974 114.626C75.8934 114.654 75.8094 114.702 75.7454 114.77C75.6854 114.838 75.6554 114.936 75.6554 115.064C75.6554 115.184 75.6854 115.282 75.7454 115.358C75.8094 115.434 75.8914 115.492 75.9914 115.532C76.0954 115.568 76.2034 115.586 76.3154 115.586ZM78.537 117.14V112.838H79.023L79.047 113.324C79.155 113.152 79.301 113.022 79.485 112.934C79.673 112.846 79.875 112.802 80.091 112.802C80.411 112.802 80.673 112.874 80.877 113.018C81.081 113.158 81.231 113.35 81.327 113.594C81.427 113.838 81.477 114.114 81.477 114.422C81.477 114.73 81.427 115.006 81.327 115.25C81.227 115.494 81.073 115.686 80.865 115.826C80.657 115.966 80.391 116.036 80.067 116.036C79.907 116.036 79.763 116.02 79.635 115.988C79.507 115.952 79.395 115.902 79.299 115.838C79.203 115.774 79.119 115.702 79.047 115.622V117.14H78.537ZM80.025 115.586C80.257 115.586 80.441 115.534 80.577 115.43C80.713 115.322 80.811 115.18 80.871 115.004C80.935 114.828 80.967 114.634 80.967 114.422C80.967 114.206 80.935 114.01 80.871 113.834C80.811 113.658 80.711 113.518 80.571 113.414C80.431 113.31 80.245 113.258 80.013 113.258C79.805 113.258 79.627 113.312 79.479 113.42C79.335 113.524 79.225 113.666 79.149 113.846C79.073 114.022 79.035 114.216 79.035 114.428C79.035 114.648 79.071 114.846 79.143 115.022C79.215 115.198 79.325 115.336 79.473 115.436C79.621 115.536 79.805 115.586 80.025 115.586ZM82.8281 116V113.288H81.7421V112.838H84.4241V113.288H83.3381V116H82.8281ZM84.8346 116V112.838H85.3446V115.262C85.3726 115.206 85.4106 115.146 85.4586 115.082C85.5066 115.014 85.5446 114.962 85.5726 114.926L87.1026 112.838H87.6066V116H87.0966V113.576C87.0646 113.636 87.0286 113.692 86.9886 113.744C86.9526 113.796 86.9186 113.844 86.8866 113.888L85.3326 116H84.8346ZM88.3643 117.14V112.838H88.8503L88.8743 113.324C88.9823 113.152 89.1283 113.022 89.3123 112.934C89.5003 112.846 89.7023 112.802 89.9183 112.802C90.2383 112.802 90.5003 112.874 90.7043 113.018C90.9083 113.158 91.0583 113.35 91.1543 113.594C91.2543 113.838 91.3043 114.114 91.3043 114.422C91.3043 114.73 91.2543 115.006 91.1543 115.25C91.0543 115.494 90.9003 115.686 90.6923 115.826C90.4843 115.966 90.2183 116.036 89.8943 116.036C89.7343 116.036 89.5903 116.02 89.4623 115.988C89.3343 115.952 89.2223 115.902 89.1263 115.838C89.0303 115.774 88.9463 115.702 88.8743 115.622V117.14H88.3643ZM89.8523 115.586C90.0843 115.586 90.2683 115.534 90.4043 115.43C90.5403 115.322 90.6383 115.18 90.6983 115.004C90.7623 114.828 90.7943 114.634 90.7943 114.422C90.7943 114.206 90.7623 114.01 90.6983 113.834C90.6383 113.658 90.5383 113.518 90.3983 113.414C90.2583 113.31 90.0723 113.258 89.8403 113.258C89.6323 113.258 89.4543 113.312 89.3063 113.42C89.1623 113.524 89.0523 113.666 88.9763 113.846C88.9003 114.022 88.8623 114.216 88.8623 114.428C88.8623 114.648 88.8983 114.846 88.9703 115.022C89.0423 115.198 89.1523 115.336 89.3003 115.436C89.4483 115.536 89.6323 115.586 89.8523 115.586ZM92.0194 117.356V116.87C92.2154 116.87 92.3714 116.842 92.4874 116.786C92.6034 116.734 92.6994 116.65 92.7754 116.534C92.8554 116.422 92.9314 116.278 93.0034 116.102L91.6174 112.838H92.2174L93.2854 115.502L94.1614 112.838H94.7374L93.8494 115.328C93.8054 115.456 93.7554 115.6 93.6994 115.76C93.6434 115.92 93.5814 116.082 93.5134 116.246C93.4454 116.414 93.3694 116.568 93.2854 116.708C93.2054 116.852 93.1154 116.968 93.0154 117.056C92.9314 117.132 92.8494 117.192 92.7694 117.236C92.6894 117.28 92.5914 117.31 92.4754 117.326C92.3634 117.346 92.2114 117.356 92.0194 117.356Z" fill="#FEFEFE"/>
<path d="M90.18 95V94.562L91.38 93.524C91.488 93.432 91.606 93.332 91.734 93.224C91.866 93.112 91.99 92.992 92.106 92.864C92.226 92.736 92.324 92.6 92.4 92.456C92.48 92.308 92.52 92.152 92.52 91.988C92.52 91.732 92.444 91.536 92.292 91.4C92.14 91.26 91.936 91.19 91.68 91.19C91.476 91.19 91.298 91.232 91.146 91.316C90.994 91.4 90.894 91.522 90.846 91.682H90.288C90.328 91.462 90.418 91.282 90.558 91.142C90.702 90.998 90.874 90.89 91.074 90.818C91.278 90.746 91.488 90.71 91.704 90.71C91.968 90.71 92.2 90.758 92.4 90.854C92.604 90.95 92.762 91.09 92.874 91.274C92.99 91.454 93.048 91.676 93.048 91.94C93.048 92.2 92.998 92.428 92.898 92.624C92.802 92.82 92.674 92.998 92.514 93.158C92.358 93.314 92.19 93.468 92.01 93.62L90.936 94.526H93.096V95H90.18ZM95.3519 95.048C95.0559 95.048 94.8019 94.994 94.5899 94.886C94.3819 94.774 94.2119 94.62 94.0799 94.424C93.9479 94.224 93.8499 93.994 93.7859 93.734C93.7259 93.47 93.6959 93.186 93.6959 92.882C93.6959 92.578 93.7259 92.296 93.7859 92.036C93.8459 91.772 93.9419 91.542 94.0739 91.346C94.2059 91.146 94.3759 90.99 94.5839 90.878C94.7959 90.766 95.0519 90.71 95.3519 90.71C95.6679 90.71 95.9319 90.772 96.1439 90.896C96.3599 91.016 96.5299 91.18 96.6539 91.388C96.7819 91.596 96.8719 91.83 96.9239 92.09C96.9799 92.346 97.0079 92.61 97.0079 92.882C97.0079 93.154 96.9799 93.42 96.9239 93.68C96.8719 93.936 96.7819 94.168 96.6539 94.376C96.5299 94.58 96.3599 94.744 96.1439 94.868C95.9319 94.988 95.6679 95.048 95.3519 95.048ZM95.3519 94.574C95.5879 94.574 95.7779 94.524 95.9219 94.424C96.0699 94.32 96.1839 94.184 96.2639 94.016C96.3439 93.848 96.3979 93.666 96.4259 93.47C96.4539 93.27 96.4679 93.074 96.4679 92.882C96.4679 92.694 96.4539 92.502 96.4259 92.306C96.3979 92.106 96.3439 91.922 96.2639 91.754C96.1839 91.582 96.0699 91.444 95.9219 91.34C95.7779 91.236 95.5879 91.184 95.3519 91.184C95.1119 91.184 94.9179 91.236 94.7699 91.34C94.6219 91.444 94.5079 91.582 94.4279 91.754C94.3519 91.922 94.2999 92.106 94.2719 92.306C94.2439 92.502 94.2299 92.694 94.2299 92.882C94.2299 93.074 94.2439 93.27 94.2719 93.47C94.2999 93.666 94.3519 93.848 94.4279 94.016C94.5079 94.184 94.6219 94.32 94.7699 94.424C94.9179 94.524 95.1119 94.574 95.3519 94.574ZM99.0456 95.048C98.8776 95.048 98.7076 95.032 98.5356 95C98.3676 94.964 98.2096 94.908 98.0616 94.832C97.9176 94.756 97.7936 94.654 97.6896 94.526C97.5896 94.398 97.5256 94.24 97.4976 94.052H98.0376C98.0856 94.188 98.1656 94.294 98.2776 94.37C98.3896 94.446 98.5136 94.5 98.6496 94.532C98.7896 94.56 98.9236 94.574 99.0516 94.574C99.1436 94.574 99.2436 94.566 99.3516 94.55C99.4596 94.534 99.5636 94.5 99.6636 94.448C99.7676 94.396 99.8516 94.32 99.9156 94.22C99.9796 94.116 100.012 93.98 100.012 93.812C100.012 93.652 99.9816 93.524 99.9216 93.428C99.8616 93.328 99.7816 93.254 99.6816 93.206C99.5816 93.154 99.4696 93.12 99.3456 93.104C99.2256 93.088 99.1036 93.08 98.9796 93.08H98.5716V92.612H98.8176C98.9576 92.612 99.0896 92.6 99.2136 92.576C99.3376 92.548 99.4476 92.506 99.5436 92.45C99.6396 92.394 99.7136 92.32 99.7656 92.228C99.8216 92.136 99.8496 92.022 99.8496 91.886C99.8496 91.69 99.8076 91.542 99.7236 91.442C99.6436 91.342 99.5396 91.274 99.4116 91.238C99.2836 91.202 99.1496 91.184 99.0096 91.184C98.8976 91.184 98.7816 91.202 98.6616 91.238C98.5456 91.27 98.4416 91.324 98.3496 91.4C98.2576 91.472 98.1956 91.57 98.1636 91.694H97.6416C97.6656 91.518 97.7216 91.368 97.8096 91.244C97.8976 91.12 98.0056 91.018 98.1336 90.938C98.2656 90.858 98.4096 90.8 98.5656 90.764C98.7256 90.728 98.8876 90.71 99.0516 90.71C99.2316 90.71 99.3996 90.73 99.5556 90.77C99.7156 90.806 99.8556 90.868 99.9756 90.956C100.096 91.04 100.19 91.152 100.258 91.292C100.33 91.432 100.366 91.602 100.366 91.802C100.366 91.95 100.342 92.086 100.294 92.21C100.246 92.334 100.174 92.442 100.078 92.534C99.9856 92.626 99.8696 92.702 99.7296 92.762C99.9096 92.794 100.06 92.858 100.18 92.954C100.304 93.05 100.396 93.168 100.456 93.308C100.52 93.444 100.552 93.598 100.552 93.77C100.552 94.038 100.504 94.256 100.408 94.424C100.312 94.592 100.188 94.722 100.036 94.814C99.8836 94.902 99.7196 94.964 99.5436 95C99.3676 95.032 99.2016 95.048 99.0456 95.048ZM101.861 95V91.598H100.997V91.244C101.157 91.232 101.299 91.214 101.423 91.19C101.547 91.162 101.657 91.116 101.753 91.052C101.853 90.984 101.941 90.886 102.017 90.758H102.383V95H101.861ZM103.384 95V91.838H105.568V92.288H103.894V95H103.384ZM106.184 95.048C106.08 95.048 105.994 95.014 105.926 94.946C105.858 94.878 105.824 94.792 105.824 94.688C105.824 94.584 105.858 94.498 105.926 94.43C105.994 94.362 106.08 94.328 106.184 94.328C106.288 94.328 106.374 94.362 106.442 94.43C106.51 94.498 106.544 94.584 106.544 94.688C106.544 94.792 106.51 94.878 106.442 94.946C106.374 95.014 106.288 95.048 106.184 95.048Z" fill="#383838"/>
<path d="M91.782 57.036C91.45 57.036 91.172 56.968 90.948 56.832C90.724 56.692 90.556 56.5 90.444 56.256C90.336 56.012 90.282 55.734 90.282 55.422C90.282 55.106 90.336 54.828 90.444 54.588C90.556 54.344 90.724 54.152 90.948 54.012C91.172 53.872 91.454 53.802 91.794 53.802C92.126 53.802 92.402 53.872 92.622 54.012C92.846 54.152 93.012 54.344 93.12 54.588C93.232 54.828 93.288 55.106 93.288 55.422C93.288 55.734 93.232 56.012 93.12 56.256C93.008 56.5 92.84 56.692 92.616 56.832C92.396 56.968 92.118 57.036 91.782 57.036ZM91.782 56.586C92.014 56.586 92.202 56.534 92.346 56.43C92.494 56.326 92.602 56.186 92.67 56.01C92.742 55.834 92.778 55.638 92.778 55.422C92.778 55.206 92.742 55.01 92.67 54.834C92.602 54.658 92.494 54.518 92.346 54.414C92.202 54.31 92.014 54.258 91.782 54.258C91.554 54.258 91.366 54.31 91.218 54.414C91.074 54.518 90.966 54.658 90.894 54.834C90.826 55.01 90.792 55.206 90.792 55.422C90.792 55.638 90.826 55.834 90.894 56.01C90.966 56.186 91.074 56.326 91.218 56.43C91.366 56.534 91.554 56.586 91.782 56.586ZM94.6638 57V54.288H93.5778V53.838H96.2598V54.288H95.1738V57H94.6638ZM98.855 57V53.598H97.991V53.244C98.151 53.232 98.293 53.214 98.417 53.19C98.541 53.162 98.651 53.116 98.747 53.052C98.847 52.984 98.935 52.886 99.011 52.758H99.377V57H98.855ZM101.722 57.048C101.554 57.048 101.384 57.032 101.212 57C101.044 56.964 100.886 56.908 100.738 56.832C100.594 56.756 100.47 56.654 100.366 56.526C100.266 56.398 100.202 56.24 100.174 56.052H100.714C100.762 56.188 100.842 56.294 100.954 56.37C101.066 56.446 101.19 56.5 101.326 56.532C101.466 56.56 101.6 56.574 101.728 56.574C101.82 56.574 101.92 56.566 102.028 56.55C102.136 56.534 102.24 56.5 102.34 56.448C102.444 56.396 102.528 56.32 102.592 56.22C102.656 56.116 102.688 55.98 102.688 55.812C102.688 55.652 102.658 55.524 102.598 55.428C102.538 55.328 102.458 55.254 102.358 55.206C102.258 55.154 102.146 55.12 102.022 55.104C101.902 55.088 101.78 55.08 101.656 55.08H101.248V54.612H101.494C101.634 54.612 101.766 54.6 101.89 54.576C102.014 54.548 102.124 54.506 102.22 54.45C102.316 54.394 102.39 54.32 102.442 54.228C102.498 54.136 102.526 54.022 102.526 53.886C102.526 53.69 102.484 53.542 102.4 53.442C102.32 53.342 102.216 53.274 102.088 53.238C101.96 53.202 101.826 53.184 101.686 53.184C101.574 53.184 101.458 53.202 101.338 53.238C101.222 53.27 101.118 53.324 101.026 53.4C100.934 53.472 100.872 53.57 100.84 53.694H100.318C100.342 53.518 100.398 53.368 100.486 53.244C100.574 53.12 100.682 53.018 100.81 52.938C100.942 52.858 101.086 52.8 101.242 52.764C101.402 52.728 101.564 52.71 101.728 52.71C101.908 52.71 102.076 52.73 102.232 52.77C102.392 52.806 102.532 52.868 102.652 52.956C102.772 53.04 102.866 53.152 102.934 53.292C103.006 53.432 103.042 53.602 103.042 53.802C103.042 53.95 103.018 54.086 102.97 54.21C102.922 54.334 102.85 54.442 102.754 54.534C102.662 54.626 102.546 54.702 102.406 54.762C102.586 54.794 102.736 54.858 102.856 54.954C102.98 55.05 103.072 55.168 103.132 55.308C103.196 55.444 103.228 55.598 103.228 55.77C103.228 56.038 103.18 56.256 103.084 56.424C102.988 56.592 102.864 56.722 102.712 56.814C102.56 56.902 102.396 56.964 102.22 57C102.044 57.032 101.878 57.048 101.722 57.048ZM104.285 57.048C104.181 57.048 104.095 57.014 104.027 56.946C103.959 56.878 103.925 56.792 103.925 56.688C103.925 56.584 103.959 56.498 104.027 56.43C104.095 56.362 104.181 56.328 104.285 56.328C104.389 56.328 104.475 56.362 104.543 56.43C104.611 56.498 104.645 56.584 104.645 56.688C104.645 56.792 104.611 56.878 104.543 56.946C104.475 57.014 104.389 57.048 104.285 57.048ZM106.97 57.048C106.682 57.048 106.434 56.994 106.226 56.886C106.022 56.774 105.854 56.624 105.722 56.436C105.594 56.244 105.5 56.028 105.44 55.788C105.38 55.544 105.35 55.288 105.35 55.02C105.35 54.704 105.38 54.408 105.44 54.132C105.504 53.852 105.602 53.606 105.734 53.394C105.87 53.182 106.046 53.016 106.262 52.896C106.478 52.772 106.738 52.71 107.042 52.71C107.246 52.71 107.436 52.746 107.612 52.818C107.792 52.886 107.948 52.99 108.08 53.13C108.212 53.266 108.31 53.434 108.374 53.634H107.828C107.756 53.486 107.646 53.374 107.498 53.298C107.35 53.222 107.196 53.184 107.036 53.184C106.852 53.184 106.694 53.22 106.562 53.292C106.43 53.36 106.318 53.452 106.226 53.568C106.138 53.684 106.066 53.816 106.01 53.964C105.958 54.112 105.92 54.266 105.896 54.426C105.872 54.586 105.86 54.742 105.86 54.894C105.952 54.754 106.058 54.64 106.178 54.552C106.302 54.464 106.436 54.4 106.58 54.36C106.728 54.316 106.878 54.294 107.03 54.294C107.31 54.294 107.552 54.352 107.756 54.468C107.964 54.58 108.126 54.738 108.242 54.942C108.358 55.142 108.416 55.374 108.416 55.638C108.416 55.918 108.354 56.164 108.23 56.376C108.106 56.588 107.934 56.754 107.714 56.874C107.498 56.99 107.25 57.048 106.97 57.048ZM106.958 56.574C107.138 56.574 107.296 56.536 107.432 56.46C107.572 56.38 107.682 56.274 107.762 56.142C107.842 56.006 107.882 55.856 107.882 55.692C107.882 55.516 107.844 55.36 107.768 55.224C107.692 55.088 107.586 54.98 107.45 54.9C107.318 54.82 107.162 54.78 106.982 54.78C106.818 54.78 106.662 54.818 106.514 54.894C106.366 54.966 106.246 55.07 106.154 55.206C106.066 55.338 106.022 55.496 106.022 55.68C106.022 55.848 106.062 56 106.142 56.136C106.226 56.268 106.338 56.374 106.478 56.454C106.622 56.534 106.782 56.574 106.958 56.574ZM110.671 57V53.838H111.355L112.381 55.422L113.389 53.838H114.061V57H113.557V54.402L112.441 56.19H112.297L111.175 54.402V57H110.671ZM114.533 57.006V56.562C114.613 56.562 114.685 56.546 114.749 56.514C114.813 56.478 114.869 56.426 114.917 56.358C114.973 56.278 115.017 56.162 115.049 56.01C115.081 55.858 115.103 55.696 115.115 55.524C115.131 55.332 115.143 55.144 115.151 54.96C115.159 54.772 115.165 54.586 115.169 54.402C115.177 54.218 115.181 54.03 115.181 53.838H117.377V57H116.867V54.288H115.679C115.675 54.424 115.669 54.562 115.661 54.702C115.657 54.838 115.651 54.976 115.643 55.116C115.639 55.252 115.633 55.39 115.625 55.53C115.621 55.69 115.605 55.87 115.577 56.07C115.549 56.27 115.489 56.452 115.397 56.616C115.309 56.772 115.201 56.876 115.073 56.928C114.949 56.98 114.769 57.006 114.533 57.006ZM118.134 57V53.838H118.644V55.224H120.228V53.838H120.738V57H120.228V55.674H118.644V57H118.134ZM123.193 57V52.758H124.663C124.975 52.758 125.243 52.81 125.467 52.914C125.691 53.014 125.861 53.168 125.977 53.376C126.097 53.584 126.157 53.848 126.157 54.168C126.157 54.48 126.087 54.744 125.947 54.96C125.811 55.172 125.623 55.332 125.383 55.44C125.143 55.548 124.867 55.602 124.555 55.602H123.715V57H123.193ZM123.715 55.128H124.531C124.855 55.128 125.117 55.052 125.317 54.9C125.521 54.744 125.623 54.492 125.623 54.144C125.623 53.84 125.541 53.612 125.377 53.46C125.213 53.308 124.967 53.232 124.639 53.232H123.715V55.128Z" fill="#383838"/>
<path d="M10.18 71V70.562L11.38 69.524C11.488 69.432 11.606 69.332 11.734 69.224C11.866 69.112 11.99 68.992 12.106 68.864C12.226 68.736 12.324 68.6 12.4 68.456C12.48 68.308 12.52 68.152 12.52 67.988C12.52 67.732 12.444 67.536 12.292 67.4C12.14 67.26 11.936 67.19 11.68 67.19C11.476 67.19 11.298 67.232 11.146 67.316C10.994 67.4 10.894 67.522 10.846 67.682H10.288C10.328 67.462 10.418 67.282 10.558 67.142C10.702 66.998 10.874 66.89 11.074 66.818C11.278 66.746 11.488 66.71 11.704 66.71C11.968 66.71 12.2 66.758 12.4 66.854C12.604 66.95 12.762 67.09 12.874 67.274C12.99 67.454 13.048 67.676 13.048 67.94C13.048 68.2 12.998 68.428 12.898 68.624C12.802 68.82 12.674 68.998 12.514 69.158C12.358 69.314 12.19 69.468 12.01 69.62L10.936 70.526H13.096V71H10.18ZM15.3285 71V67.838H15.8385V69.2H16.3905L17.3265 67.838H17.9085L16.8525 69.344L17.9985 71H17.3985L16.4505 69.644H15.8385V71H15.3285ZM19.7167 71.036C19.3847 71.036 19.1067 70.968 18.8827 70.832C18.6587 70.692 18.4907 70.5 18.3787 70.256C18.2707 70.012 18.2167 69.734 18.2167 69.422C18.2167 69.106 18.2707 68.828 18.3787 68.588C18.4907 68.344 18.6587 68.152 18.8827 68.012C19.1067 67.872 19.3887 67.802 19.7287 67.802C20.0607 67.802 20.3367 67.872 20.5567 68.012C20.7807 68.152 20.9467 68.344 21.0547 68.588C21.1667 68.828 21.2227 69.106 21.2227 69.422C21.2227 69.734 21.1667 70.012 21.0547 70.256C20.9427 70.5 20.7747 70.692 20.5507 70.832C20.3307 70.968 20.0527 71.036 19.7167 71.036ZM19.7167 70.586C19.9487 70.586 20.1367 70.534 20.2807 70.43C20.4287 70.326 20.5367 70.186 20.6047 70.01C20.6767 69.834 20.7127 69.638 20.7127 69.422C20.7127 69.206 20.6767 69.01 20.6047 68.834C20.5367 68.658 20.4287 68.518 20.2807 68.414C20.1367 68.31 19.9487 68.258 19.7167 68.258C19.4887 68.258 19.3007 68.31 19.1527 68.414C19.0087 68.518 18.9007 68.658 18.8287 68.834C18.7607 69.01 18.7267 69.206 18.7267 69.422C18.7267 69.638 18.7607 69.834 18.8287 70.01C18.9007 70.186 19.0087 70.326 19.1527 70.43C19.3007 70.534 19.4887 70.586 19.7167 70.586ZM21.8605 71V67.838H22.5445L23.5705 69.422L24.5785 67.838H25.2505V71H24.7465V68.402L23.6305 70.19H23.4865L22.3645 68.402V71H21.8605ZM26.0113 71V67.838H26.5213V69.224H28.1053V67.838H28.6153V71H28.1053V69.674H26.5213V71H26.0113ZM30.3909 71.036C30.2469 71.036 30.1069 71.018 29.9709 70.982C29.8389 70.942 29.7189 70.884 29.6109 70.808C29.5069 70.728 29.4229 70.63 29.3589 70.514C29.2989 70.394 29.2689 70.256 29.2689 70.1C29.2689 69.92 29.3009 69.768 29.3649 69.644C29.4329 69.52 29.5229 69.422 29.6349 69.35C29.7469 69.278 29.8769 69.226 30.0249 69.194C30.1729 69.162 30.3269 69.146 30.4869 69.146H31.4169C31.4169 68.966 31.3909 68.81 31.3389 68.678C31.2909 68.546 31.2109 68.444 31.0989 68.372C30.9869 68.296 30.8389 68.258 30.6549 68.258C30.5429 68.258 30.4389 68.27 30.3429 68.294C30.2469 68.318 30.1649 68.356 30.0969 68.408C30.0289 68.46 29.9789 68.53 29.9469 68.618H29.4009C29.4289 68.474 29.4829 68.352 29.5629 68.252C29.6469 68.148 29.7469 68.064 29.8629 68C29.9829 67.932 30.1109 67.882 30.2469 67.85C30.3829 67.818 30.5189 67.802 30.6549 67.802C30.9589 67.802 31.2029 67.864 31.3869 67.988C31.5709 68.108 31.7049 68.28 31.7889 68.504C31.8729 68.724 31.9149 68.986 31.9149 69.29V71H31.4889L31.4589 70.598C31.3709 70.718 31.2649 70.81 31.1409 70.874C31.0169 70.938 30.8889 70.98 30.7569 71C30.6289 71.024 30.5069 71.036 30.3909 71.036ZM30.4389 70.586C30.6389 70.586 30.8109 70.554 30.9549 70.49C31.1029 70.422 31.2169 70.324 31.2969 70.196C31.3769 70.068 31.4169 69.912 31.4169 69.728V69.572H30.8589C30.7269 69.572 30.5969 69.574 30.4689 69.578C30.3409 69.582 30.2249 69.598 30.1209 69.626C30.0169 69.654 29.9329 69.702 29.8689 69.77C29.8089 69.838 29.7789 69.936 29.7789 70.064C29.7789 70.184 29.8089 70.282 29.8689 70.358C29.9329 70.434 30.0149 70.492 30.1149 70.532C30.2189 70.568 30.3269 70.586 30.4389 70.586ZM33.3985 71V68.288H32.3125V67.838H34.9945V68.288H33.9085V71H33.3985ZM35.405 71V67.838H35.915V69.224H37.499V67.838H38.009V71H37.499V69.674H35.915V71H35.405ZM39.7846 71.036C39.6406 71.036 39.5006 71.018 39.3646 70.982C39.2326 70.942 39.1126 70.884 39.0046 70.808C38.9006 70.728 38.8166 70.63 38.7526 70.514C38.6926 70.394 38.6626 70.256 38.6626 70.1C38.6626 69.92 38.6946 69.768 38.7586 69.644C38.8266 69.52 38.9166 69.422 39.0286 69.35C39.1406 69.278 39.2706 69.226 39.4186 69.194C39.5666 69.162 39.7206 69.146 39.8806 69.146H40.8106C40.8106 68.966 40.7846 68.81 40.7326 68.678C40.6846 68.546 40.6046 68.444 40.4926 68.372C40.3806 68.296 40.2326 68.258 40.0486 68.258C39.9366 68.258 39.8326 68.27 39.7366 68.294C39.6406 68.318 39.5586 68.356 39.4906 68.408C39.4226 68.46 39.3726 68.53 39.3406 68.618H38.7946C38.8226 68.474 38.8766 68.352 38.9566 68.252C39.0406 68.148 39.1406 68.064 39.2566 68C39.3766 67.932 39.5046 67.882 39.6406 67.85C39.7766 67.818 39.9126 67.802 40.0486 67.802C40.3526 67.802 40.5966 67.864 40.7806 67.988C40.9646 68.108 41.0986 68.28 41.1826 68.504C41.2666 68.724 41.3086 68.986 41.3086 69.29V71H40.8826L40.8526 70.598C40.7646 70.718 40.6586 70.81 40.5346 70.874C40.4106 70.938 40.2826 70.98 40.1506 71C40.0226 71.024 39.9006 71.036 39.7846 71.036ZM39.8326 70.586C40.0326 70.586 40.2046 70.554 40.3486 70.49C40.4966 70.422 40.6106 70.324 40.6906 70.196C40.7706 70.068 40.8106 69.912 40.8106 69.728V69.572H40.2526C40.1206 69.572 39.9906 69.574 39.8626 69.578C39.7346 69.582 39.6186 69.598 39.5146 69.626C39.4106 69.654 39.3266 69.702 39.2626 69.77C39.2026 69.838 39.1726 69.936 39.1726 70.064C39.1726 70.184 39.2026 70.282 39.2626 70.358C39.3266 70.434 39.4086 70.492 39.5086 70.532C39.6126 70.568 39.7206 70.586 39.8326 70.586ZM41.8562 71L42.6782 69.752C42.4502 69.688 42.2702 69.584 42.1382 69.44C42.0062 69.292 41.9402 69.096 41.9402 68.852C41.9402 68.66 41.9682 68.5 42.0242 68.372C42.0802 68.24 42.1622 68.136 42.2702 68.06C42.3782 67.98 42.5082 67.924 42.6602 67.892C42.8122 67.856 42.9862 67.838 43.1822 67.838H44.4542V71H43.9442V69.83H43.2182L42.4502 71H41.8562ZM43.5662 69.386H43.9442V68.288H43.2662C43.1462 68.288 43.0362 68.294 42.9362 68.306C42.8362 68.318 42.7502 68.344 42.6782 68.384C42.6102 68.42 42.5562 68.474 42.5162 68.546C42.4762 68.614 42.4562 68.708 42.4562 68.828C42.4562 68.96 42.4882 69.064 42.5522 69.14C42.6202 69.216 42.7062 69.272 42.8102 69.308C42.9182 69.34 43.0382 69.362 43.1702 69.374C43.3022 69.382 43.4342 69.386 43.5662 69.386Z" fill="#26BDA9"/>
<path d="M91.782 71.036C91.45 71.036 91.172 70.968 90.948 70.832C90.724 70.692 90.556 70.5 90.444 70.256C90.336 70.012 90.282 69.734 90.282 69.422C90.282 69.106 90.336 68.828 90.444 68.588C90.556 68.344 90.724 68.152 90.948 68.012C91.172 67.872 91.454 67.802 91.794 67.802C92.126 67.802 92.402 67.872 92.622 68.012C92.846 68.152 93.012 68.344 93.12 68.588C93.232 68.828 93.288 69.106 93.288 69.422C93.288 69.734 93.232 70.012 93.12 70.256C93.008 70.5 92.84 70.692 92.616 70.832C92.396 70.968 92.118 71.036 91.782 71.036ZM91.782 70.586C92.014 70.586 92.202 70.534 92.346 70.43C92.494 70.326 92.602 70.186 92.67 70.01C92.742 69.834 92.778 69.638 92.778 69.422C92.778 69.206 92.742 69.01 92.67 68.834C92.602 68.658 92.494 68.518 92.346 68.414C92.202 68.31 92.014 68.258 91.782 68.258C91.554 68.258 91.366 68.31 91.218 68.414C91.074 68.518 90.966 68.658 90.894 68.834C90.826 69.01 90.792 69.206 90.792 69.422C90.792 69.638 90.826 69.834 90.894 70.01C90.966 70.186 91.074 70.326 91.218 70.43C91.366 70.534 91.554 70.586 91.782 70.586ZM94.6638 71V68.288H93.5778V67.838H96.2598V68.288H95.1738V71H94.6638ZM98.855 71V67.598H97.991V67.244C98.151 67.232 98.293 67.214 98.417 67.19C98.541 67.162 98.651 67.116 98.747 67.052C98.847 66.984 98.935 66.886 99.011 66.758H99.377V71H98.855ZM101.842 71.048C101.65 71.048 101.462 71.028 101.278 70.988C101.098 70.944 100.936 70.874 100.792 70.778C100.648 70.682 100.532 70.556 100.444 70.4C100.36 70.24 100.318 70.046 100.318 69.818C100.318 69.658 100.346 69.512 100.402 69.38C100.458 69.248 100.538 69.134 100.642 69.038C100.75 68.942 100.876 68.866 101.02 68.81C100.86 68.734 100.738 68.64 100.654 68.528C100.57 68.412 100.514 68.292 100.486 68.168C100.458 68.044 100.444 67.932 100.444 67.832C100.444 67.632 100.482 67.462 100.558 67.322C100.638 67.182 100.744 67.066 100.876 66.974C101.012 66.882 101.162 66.816 101.326 66.776C101.494 66.732 101.666 66.71 101.842 66.71C102.018 66.71 102.188 66.732 102.352 66.776C102.52 66.816 102.67 66.882 102.802 66.974C102.938 67.066 103.044 67.182 103.12 67.322C103.2 67.462 103.24 67.632 103.24 67.832C103.24 67.936 103.224 68.048 103.192 68.168C103.164 68.288 103.108 68.404 103.024 68.516C102.94 68.624 102.818 68.716 102.658 68.792C102.81 68.848 102.938 68.926 103.042 69.026C103.15 69.126 103.23 69.244 103.282 69.38C103.338 69.512 103.366 69.658 103.366 69.818C103.366 70.046 103.322 70.24 103.234 70.4C103.15 70.556 103.034 70.682 102.886 70.778C102.742 70.874 102.58 70.944 102.4 70.988C102.22 71.028 102.034 71.048 101.842 71.048ZM101.842 70.574C101.938 70.574 102.042 70.564 102.154 70.544C102.266 70.524 102.372 70.488 102.472 70.436C102.576 70.38 102.66 70.304 102.724 70.208C102.792 70.108 102.826 69.98 102.826 69.824C102.826 69.64 102.778 69.494 102.682 69.386C102.59 69.278 102.468 69.2 102.316 69.152C102.168 69.104 102.01 69.08 101.842 69.08C101.678 69.08 101.52 69.104 101.368 69.152C101.216 69.2 101.092 69.278 100.996 69.386C100.9 69.494 100.852 69.64 100.852 69.824C100.852 69.98 100.884 70.108 100.948 70.208C101.016 70.304 101.102 70.38 101.206 70.436C101.31 70.488 101.418 70.524 101.53 70.544C101.642 70.564 101.746 70.574 101.842 70.574ZM101.842 68.618C101.994 68.618 102.134 68.594 102.262 68.546C102.39 68.494 102.494 68.418 102.574 68.318C102.658 68.214 102.7 68.084 102.7 67.928C102.704 67.744 102.666 67.598 102.586 67.49C102.506 67.382 102.4 67.304 102.268 67.256C102.14 67.208 101.998 67.184 101.842 67.184C101.682 67.184 101.536 67.21 101.404 67.262C101.276 67.31 101.174 67.388 101.098 67.496C101.022 67.6 100.984 67.736 100.984 67.904C100.984 68.072 101.024 68.21 101.104 68.318C101.188 68.422 101.294 68.498 101.422 68.546C101.554 68.594 101.694 68.618 101.842 68.618ZM105.639 71V67.838H106.323L107.349 69.422L108.357 67.838H109.029V71H108.525V68.402L107.409 70.19H107.265L106.143 68.402V71H105.639ZM109.501 71.006V70.562C109.581 70.562 109.653 70.546 109.717 70.514C109.781 70.478 109.837 70.426 109.885 70.358C109.941 70.278 109.985 70.162 110.017 70.01C110.049 69.858 110.071 69.696 110.083 69.524C110.099 69.332 110.111 69.144 110.119 68.96C110.127 68.772 110.133 68.586 110.137 68.402C110.145 68.218 110.149 68.03 110.149 67.838H112.345V71H111.835V68.288H110.647C110.643 68.424 110.637 68.562 110.629 68.702C110.625 68.838 110.619 68.976 110.611 69.116C110.607 69.252 110.601 69.39 110.593 69.53C110.589 69.69 110.573 69.87 110.545 70.07C110.517 70.27 110.457 70.452 110.365 70.616C110.277 70.772 110.169 70.876 110.041 70.928C109.917 70.98 109.737 71.006 109.501 71.006ZM113.102 71V67.838H113.612V69.224H115.196V67.838H115.706V71H115.196V69.674H113.612V71H113.102ZM118.161 71V66.758H119.631C119.943 66.758 120.211 66.81 120.435 66.914C120.659 67.014 120.829 67.168 120.945 67.376C121.065 67.584 121.125 67.848 121.125 68.168C121.125 68.48 121.055 68.744 120.915 68.96C120.779 69.172 120.591 69.332 120.351 69.44C120.111 69.548 119.835 69.602 119.523 69.602H118.683V71H118.161ZM118.683 69.128H119.499C119.823 69.128 120.085 69.052 120.285 68.9C120.489 68.744 120.591 68.492 120.591 68.144C120.591 67.84 120.509 67.612 120.345 67.46C120.181 67.308 119.935 67.232 119.607 67.232H118.683V69.128Z" fill="#383838"/>
<path d="M92.412 41V40.196H90.204V39.632L92.208 36.758H93.15V39.518H93.636V40.196H93.15V41H92.412ZM91.068 39.518H92.412V37.544L91.068 39.518ZM93.908 41V40.382L95.09 39.386C95.186 39.306 95.292 39.218 95.408 39.122C95.524 39.026 95.634 38.922 95.738 38.81C95.846 38.694 95.936 38.574 96.008 38.45C96.08 38.326 96.116 38.196 96.116 38.06C96.116 37.856 96.054 37.696 95.93 37.58C95.81 37.464 95.638 37.406 95.414 37.406C95.218 37.406 95.058 37.448 94.934 37.532C94.81 37.616 94.732 37.73 94.7 37.874H93.962C93.99 37.606 94.076 37.388 94.22 37.22C94.368 37.048 94.55 36.92 94.766 36.836C94.982 36.748 95.208 36.704 95.444 36.704C95.712 36.704 95.952 36.754 96.164 36.854C96.376 36.95 96.544 37.094 96.668 37.286C96.796 37.474 96.86 37.704 96.86 37.976C96.86 38.22 96.812 38.44 96.716 38.636C96.624 38.832 96.498 39.012 96.338 39.176C96.182 39.336 96.01 39.494 95.822 39.65L95.012 40.316H96.872V41H93.908Z" fill="#333333"/>
<path d="M14 22.864L10.818 19.682C10.1887 19.0527 9.76009 18.2508 9.58646 17.3779C9.41284 16.505 9.50195 15.6002 9.84255 14.7779C10.1831 13.9557 10.7599 13.2529 11.4999 12.7584C12.24 12.2639 13.11 12 14 12C14.89 12 15.76 12.2639 16.5001 12.7584C17.2401 13.2529 17.8169 13.9557 18.1575 14.7779C18.4981 15.6002 18.5872 16.505 18.4135 17.3779C18.2399 18.2508 17.8113 19.0527 17.182 19.682L14 22.864ZM16.475 18.975C16.9645 18.4855 17.2978 17.8619 17.4328 17.1829C17.5678 16.504 17.4985 15.8003 17.2335 15.1608C16.9686 14.5212 16.52 13.9746 15.9445 13.5901C15.3689 13.2055 14.6922 13.0002 14 13.0002C13.3078 13.0002 12.6311 13.2055 12.0555 13.5901C11.48 13.9746 11.0314 14.5212 10.7665 15.1608C10.5015 15.8003 10.4322 16.504 10.5672 17.1829C10.7022 17.8619 11.0356 18.4855 11.525 18.975L14 21.45L16.475 18.975ZM14 17.5C13.7348 17.5 13.4804 17.3946 13.2929 17.2071C13.1054 17.0196 13 16.7652 13 16.5C13 16.2348 13.1054 15.9804 13.2929 15.7929C13.4804 15.6053 13.7348 15.5 14 15.5C14.2652 15.5 14.5196 15.6053 14.7071 15.7929C14.8946 15.9804 15 16.2348 15 16.5C15 16.7652 14.8946 17.0196 14.7071 17.2071C14.5196 17.3946 14.2652 17.5 14 17.5Z" fill="#26BDA9"/>
</svg>
